<svg width="368" height="368" viewBox="0 0 368 368" fill="none" xmlns="http://www.w3.org/2000/svg">
<path d="M361.514 247.06L331.2 192.711C335.96 175.841 335.683 157.946 330.401 141.231C314.261 97.75 271.026 74.75 205.35 74.75C94.829 74.75 86.25 160.776 86.25 187.139C86.25 215.889 105.352 242.385 122.205 265.771C136.103 285.045 149.23 303.249 149.23 318.86V345C149.23 349.575 151.047 353.963 154.282 357.198C157.517 360.433 161.905 362.25 166.48 362.25H250.056C254.442 362.294 258.678 360.659 261.898 357.681C265.118 354.703 267.077 350.606 267.375 346.23C268.623 324.61 282.641 324.61 287.247 324.61C323.501 324.61 330.78 308.01 330.78 281.227C330.515 277.786 331 274.329 332.2 271.094C333.401 267.859 335.288 264.923 337.733 262.488C340.178 260.053 343.122 258.177 346.362 256.99C349.602 255.802 353.061 255.332 356.5 255.61C357.501 255.609 358.485 255.346 359.354 254.848C360.222 254.349 360.945 253.633 361.452 252.769C361.959 251.905 362.231 250.924 362.242 249.923C362.252 248.922 362.002 247.935 361.514 247.06ZM235.75 264.5H201.25C199.725 264.5 198.262 263.894 197.184 262.816C196.106 261.738 195.5 260.275 195.5 258.75C195.5 257.225 196.106 255.762 197.184 254.684C198.262 253.606 199.725 253 201.25 253H235.75C237.275 253 238.738 253.606 239.816 254.684C240.894 255.762 241.5 257.225 241.5 258.75C241.5 260.275 240.894 261.738 239.816 262.816C238.738 263.894 237.275 264.5 235.75 264.5ZM247.25 241.5H189.75C188.225 241.5 186.762 240.894 185.684 239.816C184.606 238.738 184 237.275 184 235.75C184 234.225 184.606 232.762 185.684 231.684C186.762 230.606 188.225 230 189.75 230H247.25C248.775 230 250.238 230.606 251.316 231.684C252.394 232.762 253 234.225 253 235.75C253 237.275 252.394 238.738 251.316 239.816C250.238 240.894 248.775 241.5 247.25 241.5ZM261.297 222.347C260.797 222.925 260.186 223.398 259.501 223.737C258.816 224.076 258.07 224.276 257.307 224.323C256.543 224.371 255.778 224.266 255.056 224.014C254.334 223.762 253.67 223.369 253.102 222.857C252.533 222.346 252.073 221.726 251.747 221.034C251.421 220.342 251.237 219.593 251.204 218.829C251.172 218.065 251.292 217.302 251.558 216.585C251.824 215.868 252.23 215.211 252.753 214.653C258.683 208.038 262.57 199.847 263.946 191.07C265.321 182.292 264.125 173.305 260.502 165.193C256.88 157.08 250.986 150.191 243.532 145.356C236.078 140.522 227.384 137.949 218.5 137.949C209.616 137.949 200.922 140.522 193.468 145.356C186.014 150.191 180.12 157.08 176.498 165.193C172.875 173.305 171.679 182.292 173.054 191.07C174.43 199.847 178.317 208.038 184.247 214.653C185.267 215.787 185.795 217.28 185.715 218.803C185.635 220.326 184.953 221.755 183.819 222.775C182.685 223.795 181.192 224.323 179.669 224.243C178.146 224.163 176.717 223.481 175.697 222.347C168.28 214.079 163.416 203.84 161.693 192.867C159.97 181.894 161.462 170.657 165.989 160.514C170.516 150.371 177.884 141.756 187.202 135.711C196.52 129.666 207.39 126.449 218.497 126.449C229.604 126.449 240.474 129.666 249.792 135.711C259.11 141.756 266.478 150.371 271.005 160.514C275.532 170.657 277.024 181.894 275.301 192.867C273.579 203.84 268.715 214.079 261.297 222.347V222.347Z" fill="#F82530"/>
<path d="M139.398 51.8529C115.963 53.2104 93.9069 63.3763 77.6521 80.3125C61.3973 97.2487 52.1452 119.703 51.7507 143.174C51.6442 157.032 54.6877 170.732 60.6514 183.241C66.615 195.75 75.3429 206.741 86.176 215.383C87.4985 216.447 88.7002 217.263 89.764 217.982C92.0007 219.494 92.0007 219.494 92.0007 221.236C92.0023 228.131 94.7402 234.743 99.6133 239.621C104.486 244.498 111.096 247.242 117.991 247.249H169.511C176.403 247.242 183.011 244.5 187.884 239.625C192.757 234.75 195.496 228.141 195.501 221.248C195.454 220.666 195.517 220.081 195.685 219.523C196.307 218.955 196.983 218.448 197.703 218.011C198.749 217.303 199.94 216.493 201.256 215.446C216.416 203.306 227.342 186.677 232.466 167.943C237.591 149.21 236.651 129.335 229.782 111.168C222.913 93.0019 210.467 77.4776 194.23 66.8216C177.992 56.1657 158.798 50.9256 139.398 51.8529V51.8529ZM194.063 206.493C193.034 207.321 192.097 207.942 191.274 208.5C188.962 209.701 187.046 211.544 185.756 213.807C184.465 216.07 183.856 218.658 184.001 221.259C183.998 225.101 182.47 228.785 179.753 231.502C177.037 234.219 173.353 235.746 169.511 235.749H161.001V126.499C161.001 124.392 161.581 122.325 162.676 120.525C163.772 118.725 165.341 117.26 167.212 116.291C169.083 115.322 171.185 114.886 173.287 115.03C175.389 115.174 177.412 115.893 179.133 117.108C180.855 118.323 182.209 119.988 183.049 121.921C183.888 123.854 184.181 125.981 183.894 128.068C183.607 130.156 182.752 132.125 181.422 133.76C180.092 135.394 178.339 136.632 176.353 137.338C175.642 137.591 174.987 137.982 174.426 138.488C173.865 138.994 173.41 139.605 173.085 140.288C172.43 141.665 172.349 143.247 172.86 144.684C173.113 145.395 173.504 146.05 174.01 146.611C174.516 147.172 175.127 147.627 175.809 147.952C177.187 148.607 178.768 148.688 180.206 148.177C184.177 146.765 187.684 144.289 190.343 141.02C193.003 137.75 194.713 133.813 195.287 129.637C195.86 125.462 195.276 121.209 193.597 117.343C191.918 113.477 189.209 110.147 185.766 107.717C182.323 105.286 178.278 103.848 174.073 103.56C169.868 103.272 165.665 104.144 161.923 106.083C158.18 108.021 155.043 110.95 152.852 114.551C150.661 118.152 149.502 122.285 149.501 126.499V235.749H138.001V126.499C138 122.285 136.84 118.152 134.65 114.551C132.459 110.95 129.321 108.021 125.579 106.083C121.836 104.144 117.633 103.272 113.428 103.56C109.223 103.848 105.179 105.286 101.736 107.717C98.2926 110.147 95.5837 113.477 93.9046 117.343C92.2256 121.209 91.6411 125.462 92.2149 129.637C92.7887 133.813 94.4987 137.75 97.1583 141.02C99.8178 144.289 103.325 146.765 107.296 148.177C108.733 148.688 110.314 148.607 111.692 147.952C113.07 147.297 114.13 146.121 114.641 144.684C115.152 143.247 115.071 141.665 114.416 140.288C113.761 138.91 112.586 137.849 111.148 137.338C109.163 136.632 107.409 135.394 106.08 133.76C104.75 132.125 103.895 130.156 103.608 128.068C103.321 125.981 103.613 123.854 104.453 121.921C105.292 119.988 106.647 118.323 108.368 117.108C110.09 115.893 112.112 115.174 114.214 115.03C116.317 114.886 118.418 115.322 120.29 116.291C122.161 117.26 123.73 118.725 124.825 120.525C125.921 122.325 126.5 124.392 126.501 126.499V235.749H117.991C114.149 235.746 110.465 234.219 107.748 231.502C105.031 228.785 103.504 225.101 103.501 221.259C103.641 218.652 103.026 216.059 101.731 213.791C100.436 211.523 98.5153 209.676 96.1982 208.471C95.3645 207.896 94.4157 207.275 93.3807 206.442C83.9021 198.881 76.2648 189.265 71.0454 178.321C65.8259 167.378 63.1607 155.391 63.2507 143.266C63.5878 122.727 71.6782 103.075 85.899 88.2518C100.12 73.4284 119.42 64.53 139.927 63.3414C156.912 62.5134 173.723 67.0898 187.945 76.4134C202.166 85.737 213.067 99.328 219.082 115.234C225.096 131.141 225.915 148.544 221.419 164.945C216.924 181.345 207.347 195.899 194.063 206.516V206.493Z" fill="white"/>
<path d="M178.25 258.75H109.25C104.675 258.75 100.287 260.567 97.0524 263.802C93.8174 267.037 92 271.425 92 276C92 280.575 93.8174 284.963 97.0524 288.198C100.287 291.433 104.675 293.25 109.25 293.25H178.25C182.825 293.25 187.213 291.433 190.448 288.198C193.683 284.963 195.5 280.575 195.5 276C195.5 271.425 193.683 267.037 190.448 263.802C187.213 260.567 182.825 258.75 178.25 258.75V258.75ZM178.25 281.75H109.25C107.725 281.75 106.262 281.144 105.184 280.066C104.106 278.988 103.5 277.525 103.5 276C103.5 274.475 104.106 273.012 105.184 271.934C106.262 270.856 107.725 270.25 109.25 270.25H178.25C179.775 270.25 181.238 270.856 182.316 271.934C183.394 273.012 184 274.475 184 276C184 277.525 183.394 278.988 182.316 280.066C181.238 281.144 179.775 281.75 178.25 281.75Z" fill="white"/>
<path d="M269.135 127.213C265.455 99.6379 252.803 74.0399 233.132 54.3685C213.46 34.6971 187.862 22.0455 160.287 18.3655C159.294 14.7411 157.138 11.5433 154.15 9.26394C151.162 6.98461 147.508 5.75 143.75 5.75C139.992 5.75 136.338 6.98461 133.35 9.26394C130.362 11.5433 128.206 14.7411 127.213 18.3655C99.638 22.0455 74.0401 34.6971 54.3687 54.3685C34.6973 74.0399 22.0456 99.6379 18.3656 127.213C14.4766 128.322 11.1035 130.767 8.84025 134.118C6.57703 137.469 5.56888 141.512 5.99335 145.533C6.41782 149.555 8.24768 153.298 11.1607 156.102C14.0737 158.907 17.883 160.594 21.9177 160.867C25.9524 161.139 29.9538 159.979 33.2171 157.59C36.4805 155.202 38.7964 151.739 39.7572 147.811C40.718 143.883 40.2619 139.742 38.4693 136.117C36.6766 132.492 33.6625 129.616 29.9576 127.995C33.4207 103.218 44.8641 80.2445 62.5544 62.5542C80.2446 44.864 103.218 33.4206 127.995 29.9575C129.338 33.0181 131.542 35.6214 134.34 37.4494C137.138 39.2774 140.408 40.2508 143.75 40.2508C147.092 40.2508 150.362 39.2774 153.16 37.4494C155.958 35.6214 158.163 33.0181 159.505 29.9575C184.282 33.4206 207.256 44.864 224.946 62.5542C242.636 80.2445 254.079 103.218 257.543 127.995C253.799 129.62 250.75 132.515 248.934 136.169C247.117 139.822 246.649 144.001 247.613 147.966C248.577 151.931 250.91 155.428 254.201 157.841C257.493 160.253 261.53 161.425 265.602 161.151C269.673 160.876 273.517 159.172 276.454 156.339C279.391 153.507 281.234 149.728 281.657 145.669C282.079 141.61 281.054 137.533 278.763 134.156C276.472 130.779 273.062 128.32 269.135 127.213V127.213Z" fill="white"/>
</svg>
