<svg width="576" height="380" viewBox="0 0 576 380" fill="none" xmlns="http://www.w3.org/2000/svg">
<path d="M269.5 72C255.081 112.447 85.2568 103.283 69.5 144" stroke="url(#paint0_linear)"/>
<path d="M302.5 72C316.919 112.447 486.743 103.283 502.5 144" stroke="url(#paint1_linear)"/>
<rect x="249.5" width="77" height="72" rx="8" fill="white"/>
<path d="M289.211 26.8977C289.17 26.1344 288.39 26.2642 287.629 26.2642C288.191 26.414 288.723 26.6224 289.211 26.8977Z" fill="#F82530"/>
<path d="M281.075 24.9844C278.12 24.9844 276.759 28.7248 279.122 30.606C279.927 28.4557 281.53 26.9117 283.632 26.3022C283.057 25.5074 282.128 24.9844 281.075 24.9844Z" fill="#F82530"/>
<path d="M274.967 30.0213C275.088 30.4077 275.244 30.7784 275.429 31.1297L274.459 32.101C274.198 32.3616 274.198 32.7848 274.459 33.046L276.17 34.7576C276.294 34.8822 276.465 34.9523 276.643 34.9523C276.819 34.9523 276.989 34.8822 277.115 34.7576L278.085 33.7863C278.23 33.8633 278.392 33.9105 278.542 33.9769C278.542 33.9659 278.541 33.9544 278.541 33.9433C278.541 33.1496 278.633 32.4009 278.795 31.6978C277.624 30.9443 276.843 29.6364 276.843 28.1432C276.843 25.8107 278.74 23.9127 281.072 23.9127C282.651 23.9127 284.015 24.7918 284.743 26.0761C285.52 25.9798 286.249 25.9798 287.128 26.1458C287.015 25.8039 286.882 25.4693 286.715 25.1557L287.686 24.184C287.813 24.0588 287.883 23.8886 287.883 23.7117C287.883 23.5347 287.813 23.3646 287.686 23.2394L285.976 21.5289C285.845 21.398 285.675 21.3331 285.504 21.3331C285.333 21.3331 285.162 21.398 285.033 21.5289L284.059 22.5006C283.707 22.3143 283.337 22.1582 282.95 22.0404V20.6676C282.95 20.299 282.653 20 282.283 20H279.863C279.495 20 279.195 20.299 279.195 20.6676V22.0404C278.808 22.1582 278.439 22.3142 278.086 22.5006L277.115 21.5299C276.984 21.399 276.814 21.3341 276.643 21.3341C276.472 21.3341 276.301 21.399 276.171 21.5294L274.459 23.2399C274.334 23.3656 274.264 23.5352 274.264 23.7127C274.264 23.8902 274.334 24.0598 274.459 24.185L275.429 25.1562C275.244 25.508 275.088 25.8782 274.97 26.2646H273.598C273.228 26.2646 272.93 26.5641 272.93 26.9332V29.3532C272.93 29.7212 273.228 30.0213 273.598 30.0213H274.967Z" fill="#F82530"/>
<path d="M295.931 42.9705C297.001 42.3835 297.737 41.26 297.737 39.9561C297.737 38.0534 296.188 36.5059 294.285 36.5059C293.616 36.5059 292.996 36.7059 292.466 37.0367C292.149 38.2996 291.649 39.5075 290.996 40.5567C292.848 40.9049 294.548 41.7484 295.931 42.9705Z" fill="#F82530"/>
<path d="M303.07 38.6504C303.07 38.2519 302.747 37.9293 302.35 37.9293H300.869C300.741 37.512 300.572 37.112 300.371 36.7324L301.419 35.6843C301.555 35.5492 301.63 35.366 301.63 35.1749C301.63 34.9837 301.555 34.8004 301.419 34.6649L299.574 32.8193C299.433 32.6783 299.248 32.6077 299.064 32.6077C298.88 32.6077 298.695 32.6783 298.555 32.8193L297.505 33.8679C297.126 33.6669 296.727 33.4984 296.308 33.371V31.8904C296.308 31.4925 295.986 31.1699 295.588 31.1699H292.978C292.803 31.1699 292.649 31.24 292.523 31.3438C292.743 32.1458 292.864 33.0156 292.864 33.9433C292.864 34.5323 292.818 35.1304 292.732 35.725C293.218 35.5459 293.735 35.4335 294.283 35.4335C296.777 35.4335 298.806 37.4624 298.806 39.956C298.806 41.5499 297.974 42.9467 296.725 43.7525C297.633 44.7494 298.356 45.9321 298.826 47.2573C298.904 47.284 298.984 47.3034 299.065 47.3034C299.249 47.3034 299.434 47.2333 299.575 47.0924L301.421 45.2467C301.556 45.1116 301.63 44.9284 301.63 44.7373C301.63 44.5462 301.556 44.363 301.421 44.2273L300.371 43.1786C300.572 42.7996 300.741 42.3995 300.869 41.9817H302.35C302.54 41.9817 302.726 41.9064 302.86 41.7702C302.995 41.6356 303.071 41.4519 303.071 41.2607L303.07 38.6504Z" fill="#F82530"/>
<path d="M297.36 47.9106C296.241 44.6168 293.283 42.3513 289.868 42.043C288.724 43.2539 287.308 44.0221 285.705 44.0221C284.103 44.0221 282.686 43.2539 281.544 42.043C278.127 42.3513 275.169 44.6168 274.049 47.9111L273.431 49.7326C273.254 50.2568 273.338 50.8343 273.661 51.284C273.983 51.7338 274.503 52.0009 275.056 52.0009H296.354C296.908 52.0009 297.427 51.7338 297.75 51.284C298.071 50.8343 298.157 50.2568 297.979 49.7326L297.36 47.9106Z" fill="#F82530"/>
<path d="M280.148 33.9439C280.148 38.0294 282.635 42.4133 285.701 42.4133C288.769 42.4133 291.256 38.0294 291.256 33.9439C291.256 25.475 280.148 25.4582 280.148 33.9439Z" fill="#F82530"/>
<rect x="467.5" y="144" width="77" height="72" rx="8" fill="white"/>
<g clip-path="url(#clip0)">
<path d="M519.928 191.653C518.625 187.82 515.183 185.183 511.208 184.824C509.878 186.234 508.23 187.128 506.364 187.128C504.499 187.128 502.85 186.234 501.521 184.824C497.544 185.183 494.101 187.82 492.798 191.654L492.078 193.774C491.872 194.384 491.971 195.056 492.346 195.579C492.722 196.103 493.326 196.414 493.97 196.414H518.757C519.402 196.414 520.006 196.103 520.382 195.579C520.756 195.056 520.856 194.384 520.649 193.774L519.928 191.653Z" fill="#129590"/>
<path d="M499.902 175.4C499.902 180.154 502.797 185.257 506.365 185.257C509.935 185.257 512.829 180.154 512.829 175.4C512.829 165.543 499.902 165.524 499.902 175.4Z" fill="#129590"/>
</g>
<rect x="31.5" y="144" width="77" height="72" rx="8" fill="white"/>
<g clip-path="url(#clip1)">
<path d="M83.9283 191.653C82.6254 187.82 79.1827 185.183 75.2084 184.824C73.8776 186.234 72.2299 187.128 70.3639 187.128C68.4994 187.128 66.8504 186.234 65.5208 184.824C61.5442 185.183 58.1013 187.82 56.7984 191.654L56.0782 193.774C55.8722 194.384 55.9709 195.056 56.3463 195.579C56.7217 196.103 57.3262 196.414 57.9696 196.414H82.757C83.4017 196.414 84.0063 196.103 84.3817 195.579C84.7558 195.056 84.8558 194.384 84.6485 193.774L83.9283 191.653Z" fill="#9C04FF"/>
<path d="M63.9023 175.4C63.9023 180.154 66.7968 185.257 70.3651 185.257C73.9349 185.257 76.8292 180.154 76.8292 175.4C76.8293 165.543 63.9023 165.524 63.9023 175.4Z" fill="#9C04FF"/>
</g>
<rect x="249.5" y="144" width="78" height="72" rx="8" fill="white"/>
<g clip-path="url(#clip2)">
<path d="M302.428 191.653C301.125 187.82 297.683 185.183 293.708 184.824C292.378 186.234 290.73 187.128 288.864 187.128C286.999 187.128 285.35 186.234 284.021 184.824C280.044 185.183 276.601 187.82 275.298 191.654L274.578 193.774C274.372 194.384 274.471 195.056 274.846 195.579C275.222 196.103 275.826 196.414 276.47 196.414H301.257C301.902 196.414 302.506 196.103 302.882 195.579C303.256 195.056 303.356 194.384 303.149 193.774L302.428 191.653Z" fill="#0062FF"/>
<path d="M282.402 175.4C282.402 180.154 285.297 185.257 288.865 185.257C292.435 185.257 295.329 180.154 295.329 175.4C295.329 165.543 282.402 165.524 282.402 175.4Z" fill="#0062FF"/>
</g>
<line x1="288" y1="72" x2="288" y2="144" stroke="url(#paint2_linear)"/>
<line x1="288" y1="216" x2="288" y2="290" stroke="url(#paint3_linear)"/>
<line x1="506" y1="216" x2="506" y2="290" stroke="url(#paint4_linear)"/>
<line x1="70" y1="216" x2="70" y2="290" stroke="url(#paint5_linear)"/>
<rect x="31.5" y="290" width="77" height="72" rx="4" fill="white"/>
<rect x="42" y="302" width="12" height="12" rx="4" fill="#9C04FF"/>
<path d="M51.3371 305.773L46.8858 310.225L44.6602 307.999" stroke="white"/>
<rect x="58" y="304" width="40" height="8" rx="4" fill="#9C04FF"/>
<rect x="42.5" y="320.5" width="11" height="11" rx="3.5" stroke="#9C04FF"/>
<rect x="58.5" y="322.5" width="39" height="7" rx="3.5" stroke="#9C04FF"/>
<rect x="42.5" y="338.5" width="11" height="11" rx="3.5" stroke="#9C04FF"/>
<rect x="58.5" y="340.5" width="39" height="7" rx="3.5" stroke="#9C04FF"/>
<rect x="467.5" y="290" width="77" height="72" rx="4" fill="white"/>
<rect x="478" y="302" width="12" height="12" rx="4" fill="#129590"/>
<path d="M487.337 305.773L482.886 310.225L480.66 307.999" stroke="white"/>
<rect x="494" y="304" width="40" height="8" rx="4" fill="#129590"/>
<rect x="478" y="320" width="12" height="12" rx="4" fill="#129590"/>
<path d="M487.337 323.773L482.886 328.225L480.66 325.999" stroke="white"/>
<rect x="494" y="322" width="40" height="8" rx="4" fill="#129590"/>
<rect x="478.5" y="338.5" width="11" height="11" rx="3.5" stroke="#129590"/>
<rect x="494.5" y="340.5" width="39" height="7" rx="3.5" stroke="#129590"/>
<rect x="249.5" y="290" width="77" height="90" rx="4" fill="white"/>
<rect x="260" y="302" width="12" height="12" rx="4" fill="#0062FF"/>
<path d="M269.337 305.773L264.886 310.225L262.66 307.999" stroke="white"/>
<rect x="276" y="304" width="40" height="8" rx="4" fill="#0062FF"/>
<rect x="260" y="320" width="12" height="12" rx="4" fill="#0062FF"/>
<path d="M269.337 323.773L264.886 328.225L262.66 325.999" stroke="white"/>
<rect x="276" y="322" width="40" height="8" rx="4" fill="#0062FF"/>
<rect x="260" y="338" width="12" height="12" rx="4" fill="#0062FF"/>
<path d="M269.337 341.773L264.886 346.225L262.66 343.999" stroke="white"/>
<rect x="276" y="340" width="40" height="8" rx="4" fill="#0062FF"/>
<rect x="260.5" y="356.5" width="11" height="11" rx="3.5" stroke="#0062FF"/>
<rect x="276.5" y="358.5" width="39" height="7" rx="3.5" stroke="#0062FF"/>
<defs>
<linearGradient id="paint0_linear" x1="69.5" y1="108" x2="269.5" y2="108" gradientUnits="userSpaceOnUse">
<stop stop-color="#9C04FF" stop-opacity="0"/>
<stop offset="1" stop-color="#9C04FF"/>
</linearGradient>
<linearGradient id="paint1_linear" x1="502.5" y1="108" x2="302.5" y2="108" gradientUnits="userSpaceOnUse">
<stop stop-color="#129590" stop-opacity="0"/>
<stop offset="1" stop-color="#129590"/>
</linearGradient>
<linearGradient id="paint2_linear" x1="287.5" y1="144" x2="287.5" y2="72" gradientUnits="userSpaceOnUse">
<stop stop-color="#0062FF" stop-opacity="0"/>
<stop offset="1" stop-color="#0062FF"/>
</linearGradient>
<linearGradient id="paint3_linear" x1="287.5" y1="290" x2="287.5" y2="216" gradientUnits="userSpaceOnUse">
<stop stop-color="#0062FF" stop-opacity="0"/>
<stop offset="1" stop-color="#0062FF"/>
</linearGradient>
<linearGradient id="paint4_linear" x1="505.5" y1="288" x2="505.5" y2="216" gradientUnits="userSpaceOnUse">
<stop stop-color="#129590" stop-opacity="0"/>
<stop offset="1" stop-color="#129590"/>
</linearGradient>
<linearGradient id="paint5_linear" x1="69.5" y1="290" x2="69.5" y2="216" gradientUnits="userSpaceOnUse">
<stop stop-color="#9C04FF" stop-opacity="0"/>
<stop offset="1" stop-color="#9C04FF"/>
</linearGradient>
<clipPath id="clip0">
<rect width="32" height="32" fill="white" transform="translate(490 164)"/>
</clipPath>
<clipPath id="clip1">
<rect width="32" height="32" fill="white" transform="translate(54 164)"/>
</clipPath>
<clipPath id="clip2">
<rect width="32" height="32" fill="white" transform="translate(272.5 164)"/>
</clipPath>
</defs>
</svg>
