<svg width="65" height="64" viewBox="0 0 65 64" fill="none" xmlns="http://www.w3.org/2000/svg">
<path d="M62.5518 37.07L19.4518 14.1859C16.4968 12.6329 13.2858 16.0139 14.7768 19.0239L36.0968 62.075C36.4409 62.7737 37.012 63.3349 37.7166 63.6668C38.4212 63.9986 39.2175 64.0815 39.9753 63.9018C40.7332 63.7221 41.4075 63.2905 41.8881 62.6776C42.3687 62.0647 42.627 61.3068 42.6208 60.528V45.076C42.6181 44.6902 42.7685 44.3192 43.039 44.0442C43.3095 43.7692 43.678 43.6127 44.0638 43.609H60.9578C61.7303 43.6025 62.4787 43.3385 63.0842 42.8587C63.6898 42.3789 64.1179 41.7108 64.3009 40.9601C64.4839 40.2095 64.4112 39.4193 64.0944 38.7147C63.7775 38.01 63.2347 37.4312 62.5518 37.07Z" fill="#F82530"/>
<path d="M47.3994 0H3.39941C2.60376 0 1.8407 0.316071 1.27809 0.87868C0.715485 1.44129 0.399414 2.20435 0.399414 3V39.609C0.399414 40.4047 0.715485 41.1677 1.27809 41.7303C1.8407 42.2929 2.60376 42.609 3.39941 42.609H47.3994C48.1951 42.609 48.9581 42.2929 49.5207 41.7303C50.0833 41.1677 50.3994 40.4047 50.3994 39.609V3C50.3994 2.20435 50.0833 1.44129 49.5207 0.87868C48.9581 0.316071 48.1951 0 47.3994 0ZM3.39941 2H47.3994C47.6646 2 47.919 2.10536 48.1065 2.29289C48.2941 2.48043 48.3994 2.73478 48.3994 3V8H2.39941V3C2.39941 2.73478 2.50477 2.48043 2.69231 2.29289C2.87984 2.10536 3.1342 2 3.39941 2ZM47.3994 40.609H3.39941C3.1342 40.609 2.87984 40.5036 2.69231 40.3161C2.50477 40.1286 2.39941 39.8742 2.39941 39.609V10H48.3994V39.609C48.3994 39.8742 48.2941 40.1286 48.1065 40.3161C47.919 40.5036 47.6646 40.609 47.3994 40.609Z" fill="#129590"/>
<path d="M7.39941 6H11.3994C11.6646 6 11.919 5.89464 12.1065 5.70711C12.2941 5.51957 12.3994 5.26522 12.3994 5C12.3994 4.73478 12.2941 4.48043 12.1065 4.29289C11.919 4.10536 11.6646 4 11.3994 4H7.39941C7.1342 4 6.87984 4.10536 6.69231 4.29289C6.50477 4.48043 6.39941 4.73478 6.39941 5C6.39941 5.26522 6.50477 5.51957 6.69231 5.70711C6.87984 5.89464 7.1342 6 7.39941 6Z" fill="#129590"/>
<path d="M15.3994 6H19.3994C19.6646 6 19.919 5.89464 20.1065 5.70711C20.2941 5.51957 20.3994 5.26522 20.3994 5C20.3994 4.73478 20.2941 4.48043 20.1065 4.29289C19.919 4.10536 19.6646 4 19.3994 4H15.3994C15.1342 4 14.8798 4.10536 14.6923 4.29289C14.5048 4.48043 14.3994 4.73478 14.3994 5C14.3994 5.26522 14.5048 5.51957 14.6923 5.70711C14.8798 5.89464 15.1342 6 15.3994 6Z" fill="#129590"/>
<path d="M23.3994 6H27.3994C27.6646 6 27.919 5.89464 28.1065 5.70711C28.2941 5.51957 28.3994 5.26522 28.3994 5C28.3994 4.73478 28.2941 4.48043 28.1065 4.29289C27.919 4.10536 27.6646 4 27.3994 4H23.3994C23.1342 4 22.8798 4.10536 22.6923 4.29289C22.5048 4.48043 22.3994 4.73478 22.3994 5C22.3994 5.26522 22.5048 5.51957 22.6923 5.70711C22.8798 5.89464 23.1342 6 23.3994 6Z" fill="#129590"/>
<path d="M41.3994 32.609H40.3994V21.6089C40.3994 21.3437 40.2941 21.0893 40.1065 20.9018C39.919 20.7143 39.6646 20.6089 39.3994 20.6089H33.3994C33.1342 20.6089 32.8798 20.7143 32.6923 20.9018C32.5048 21.0893 32.3994 21.3437 32.3994 21.6089V32.609H29.3994V17.6089C29.3994 17.3437 29.2941 17.0893 29.1065 16.9018C28.919 16.7142 28.6646 16.6089 28.3994 16.6089H22.3994C22.1342 16.6089 21.8798 16.7142 21.6923 16.9018C21.5048 17.0893 21.3994 17.3437 21.3994 17.6089V32.609H18.3994V23.6089C18.3994 23.3437 18.2941 23.0893 18.1065 22.9018C17.919 22.7143 17.6646 22.6089 17.3994 22.6089H11.3994C11.1342 22.6089 10.8798 22.7143 10.6923 22.9018C10.5048 23.0893 10.3994 23.3437 10.3994 23.6089V32.609H9.39941C9.1342 32.609 8.87984 32.7143 8.69231 32.9019C8.50477 33.0894 8.39941 33.3437 8.39941 33.609C8.39941 33.8742 8.50477 34.1285 8.69231 34.3161C8.87984 34.5036 9.1342 34.609 9.39941 34.609H41.3994C41.6646 34.609 41.919 34.5036 42.1065 34.3161C42.2941 34.1285 42.3994 33.8742 42.3994 33.609C42.3994 33.3437 42.2941 33.0894 42.1065 32.9019C41.919 32.7143 41.6646 32.609 41.3994 32.609ZM12.3994 32.609V24.6089H16.3994V32.609H12.3994ZM23.3994 32.609V18.6089H27.3994V32.609H23.3994ZM34.3994 32.609V22.6089H38.3994V32.609H34.3994Z" fill="#129590"/>
</svg>
