<svg width="368" height="368" viewBox="0 0 368 368" fill="none" xmlns="http://www.w3.org/2000/svg">
<path d="M357.345 213.152L109.52 81.5694C92.5285 72.6397 74.0653 92.0804 82.6385 109.388L205.229 356.931C207.207 360.949 210.491 364.175 214.542 366.084C218.594 367.992 223.173 368.468 227.53 367.435C231.888 366.402 235.765 363.92 238.529 360.396C241.292 356.872 242.777 352.514 242.742 348.036V259.187C242.726 256.969 243.591 254.835 245.146 253.254C246.702 251.673 248.821 250.773 251.039 250.752H348.179C352.622 250.714 356.924 249.196 360.406 246.437C363.888 243.679 366.35 239.837 367.402 235.521C368.454 231.205 368.037 226.661 366.215 222.61C364.393 218.558 361.272 215.23 357.345 213.152V213.152Z" fill="#F82530"/>
<path d="M270.25 0H17.25C12.675 0 8.28741 1.81741 5.05241 5.05241C1.81741 8.28741 0 12.675 0 17.25V227.752C0 232.327 1.81741 236.714 5.05241 239.949C8.28741 243.184 12.675 245.002 17.25 245.002H270.25C274.825 245.002 279.213 243.184 282.448 239.949C285.683 236.714 287.5 232.327 287.5 227.752V17.25C287.5 12.675 285.683 8.28741 282.448 5.05241C279.213 1.81741 274.825 0 270.25 0V0ZM17.25 11.5H270.25C271.775 11.5 273.238 12.1058 274.316 13.1841C275.394 14.2625 276 15.725 276 17.25V46H11.5V17.25C11.5 15.725 12.1058 14.2625 13.1841 13.1841C14.2625 12.1058 15.725 11.5 17.25 11.5V11.5ZM270.25 233.502H17.25C15.725 233.502 14.2625 232.896 13.1841 231.818C12.1058 230.739 11.5 229.277 11.5 227.752V57.5H276V227.752C276 229.277 275.394 230.739 274.316 231.818C273.238 232.896 271.775 233.502 270.25 233.502Z" fill="white"/>
<path d="M40.25 34.5H63.25C64.775 34.5 66.2375 33.8942 67.3159 32.8159C68.3942 31.7375 69 30.275 69 28.75C69 27.225 68.3942 25.7625 67.3159 24.6841C66.2375 23.6058 64.775 23 63.25 23H40.25C38.725 23 37.2625 23.6058 36.1841 24.6841C35.1058 25.7625 34.5 27.225 34.5 28.75C34.5 30.275 35.1058 31.7375 36.1841 32.8159C37.2625 33.8942 38.725 34.5 40.25 34.5Z" fill="white"/>
<path d="M86.25 34.5H109.25C110.775 34.5 112.238 33.8942 113.316 32.8159C114.394 31.7375 115 30.275 115 28.75C115 27.225 114.394 25.7625 113.316 24.6841C112.238 23.6058 110.775 23 109.25 23H86.25C84.725 23 83.2625 23.6058 82.1841 24.6841C81.1058 25.7625 80.5 27.225 80.5 28.75C80.5 30.275 81.1058 31.7375 82.1841 32.8159C83.2625 33.8942 84.725 34.5 86.25 34.5V34.5Z" fill="white"/>
<path d="M132.25 34.5H155.25C156.775 34.5 158.238 33.8942 159.316 32.8159C160.394 31.7375 161 30.275 161 28.75C161 27.225 160.394 25.7625 159.316 24.6841C158.238 23.6058 156.775 23 155.25 23H132.25C130.725 23 129.262 23.6058 128.184 24.6841C127.106 25.7625 126.5 27.225 126.5 28.75C126.5 30.275 127.106 31.7375 128.184 32.8159C129.262 33.8942 130.725 34.5 132.25 34.5Z" fill="white"/>
<path d="M235.75 187.502H230V124.252C230 122.727 229.394 121.264 228.316 120.186C227.238 119.108 225.775 118.502 224.25 118.502H189.75C188.225 118.502 186.762 119.108 185.684 120.186C184.606 121.264 184 122.727 184 124.252V187.502H166.75V101.252C166.75 99.727 166.144 98.2644 165.066 97.1861C163.988 96.1078 162.525 95.502 161 95.502H126.5C124.975 95.502 123.512 96.1078 122.434 97.1861C121.356 98.2644 120.75 99.727 120.75 101.252V187.502H103.5V135.752C103.5 134.227 102.894 132.764 101.816 131.686C100.738 130.608 99.275 130.002 97.75 130.002H63.25C61.725 130.002 60.2625 130.608 59.1841 131.686C58.1058 132.764 57.5 134.227 57.5 135.752V187.502H51.75C50.225 187.502 48.7625 188.108 47.6841 189.186C46.6058 190.264 46 191.727 46 193.252C46 194.777 46.6058 196.239 47.6841 197.318C48.7625 198.396 50.225 199.002 51.75 199.002H235.75C237.275 199.002 238.738 198.396 239.816 197.318C240.894 196.239 241.5 194.777 241.5 193.252C241.5 191.727 240.894 190.264 239.816 189.186C238.738 188.108 237.275 187.502 235.75 187.502ZM69 187.502V141.502H92V187.502H69ZM132.25 187.502V107.002H155.25V187.502H132.25ZM195.5 187.502V130.002H218.5V187.502H195.5Z" fill="white"/>
</svg>
