<svg width="571" height="334" viewBox="0 0 571 334" fill="none" xmlns="http://www.w3.org/2000/svg">
<g clip-path="url(#clip0)">
<path d="M457.362 218.749C455.771 217.83 454.751 216.592 454.646 215.191C452.932 193.78 437.778 173.784 411.97 158.884C386.162 143.984 351.528 135.235 314.434 134.25C309.283 134.108 305.319 131.586 305.547 128.622C305.784 125.653 310.153 123.354 315.295 123.491C357.049 124.607 396.059 134.473 425.155 151.272C454.25 168.07 471.338 190.593 473.272 214.699C473.51 217.668 469.536 220.185 464.385 220.327C461.66 220.398 459.155 219.784 457.362 218.749V218.749Z" fill="#E8F5F4"/>
<path d="M425.446 250.066C423.327 248.843 422.255 247.047 422.888 245.22C431.836 218.921 418.115 192.211 386.18 173.774C354.245 155.336 307.983 147.414 262.432 152.581C257.369 153.159 252.464 151.251 251.48 148.338C250.486 145.42 253.774 142.588 258.828 142.014C310.479 136.158 363.018 145.186 399.357 166.166C435.695 187.146 451.333 217.48 441.18 247.305C440.187 250.224 435.291 252.127 430.228 251.548C428.355 251.33 426.72 250.802 425.446 250.066Z" fill="#E8F5F4"/>
<path d="M193.365 261.049C191.669 260.069 190.623 258.714 190.631 257.217C190.64 255.548 191.343 216.135 224.544 196.967C259.001 177.073 314.274 176.616 347.764 195.952C381.255 215.288 380.464 247.199 346.006 267.093C342.367 269.194 336.46 269.194 332.821 267.093C329.182 264.992 329.182 261.582 332.821 259.481C360.009 243.784 360.8 218.703 334.579 203.564C308.358 188.426 264.917 188.882 237.729 204.579C209.891 220.652 209.284 256.903 209.284 257.268C209.267 260.242 205.074 262.643 199.914 262.627C197.356 262.622 195.044 262.018 193.365 261.049V261.049Z" fill="#E8F5F4"/>
<path d="M235.016 285.093C219.159 275.938 212.566 237.297 242.602 215.845C253.22 208.263 269.148 203.431 285.199 202.914C299.158 202.467 312.15 205.248 321.775 210.745L321.959 210.851C331.295 216.241 336.454 223.452 336.498 231.182C336.542 239.256 331.04 246.889 321.019 252.674L316.721 255.156C306.128 261.271 305.759 271.005 315.903 276.862C326.047 282.718 342.915 282.51 353.507 276.395L355.011 275.527C396.061 251.827 400.473 214.942 365.04 191.561C346.598 179.361 320.764 172.342 292.416 171.789C262.986 171.22 233.944 177.919 212.742 190.16C195.302 200.229 184.218 213.45 181.528 227.385C180.948 230.339 176.35 232.466 171.226 232.136C166.11 231.811 162.418 229.152 162.998 226.188C166.163 209.836 179.146 194.332 199.565 182.543C224.406 168.201 258.486 160.36 293.04 161.025C326.609 161.669 357.182 169.992 379.078 184.461C420.946 212.094 416.172 255.44 368.205 283.134L366.701 284.002C348.84 294.315 320.14 294.523 302.727 284.469C285.313 274.416 285.682 257.851 303.544 247.538L307.842 245.057C314.33 241.311 317.881 236.399 317.863 231.212C317.846 226.35 314.62 221.828 308.792 218.464C308.748 218.438 308.713 218.418 308.669 218.393C301.206 214.125 292.345 213.465 286.236 213.663C275.354 214.008 264.454 217.357 257.097 222.61C232.599 240.114 239.525 272.482 248.192 277.486C251.832 279.587 251.832 282.997 248.192 285.098C244.553 287.199 238.655 287.194 235.016 285.093V285.093Z" fill="#E8F5F4"/>
<path d="M272.373 291.771C248.78 278.15 248.806 244.873 282.464 225.441C286.103 223.34 292.01 223.34 295.649 225.441C299.288 227.542 299.288 230.952 295.649 233.054C269.56 248.116 268.277 274.181 285.558 284.159C289.197 286.26 289.197 289.67 285.558 291.771C281.919 293.872 276.012 293.872 272.373 291.771Z" fill="#E8F5F4"/>
</g>
<g clip-path="url(#clip1)">
<path d="M459.044 218.872C457.439 217.945 456.41 216.695 456.303 215.282C454.574 193.676 439.282 173.499 413.24 158.464C387.198 143.429 352.251 134.6 314.82 133.606C309.622 133.463 305.622 130.918 305.852 127.927C306.092 124.931 310.5 122.612 315.689 122.75C357.821 123.876 397.186 133.832 426.545 150.782C455.904 167.733 473.147 190.46 475.099 214.785C475.338 217.781 471.329 220.321 466.131 220.464C463.382 220.536 460.854 219.916 459.044 218.872Z" fill="#F82530"/>
<path d="M426.838 250.475C424.7 249.24 423.618 247.428 424.257 245.584C433.286 219.047 419.44 192.095 387.216 173.49C354.992 154.885 308.31 146.891 262.346 152.105C257.237 152.688 252.287 150.763 251.294 147.823C250.292 144.879 253.609 142.021 258.709 141.443C310.829 135.533 363.844 144.643 400.512 165.814C437.18 186.984 452.96 217.592 442.715 247.689C441.713 250.633 436.772 252.554 431.663 251.97C429.774 251.75 428.124 251.217 426.838 250.475Z" fill="#F82530"/>
<path d="M192.652 261.557C190.941 260.569 189.885 259.201 189.894 257.691C189.903 256.006 190.612 216.236 224.114 196.894C258.884 176.819 314.658 176.358 348.452 195.869C382.246 215.381 381.448 247.582 346.678 267.656C343.006 269.776 337.045 269.776 333.373 267.656C329.701 265.536 329.701 262.095 333.373 259.975C360.808 244.135 361.606 218.827 335.147 203.551C308.688 188.275 264.853 188.736 237.419 204.575C209.328 220.794 208.716 257.373 208.716 257.742C208.698 260.743 204.467 263.165 199.26 263.15C196.679 263.144 194.347 262.535 192.652 261.557V261.557Z" fill="#F82530"/>
<path d="M234.681 285.82C218.68 276.581 212.028 237.59 242.336 215.943C253.051 208.292 269.123 203.417 285.319 202.895C299.405 202.444 312.515 205.251 322.227 210.797L322.413 210.904C331.833 216.343 337.04 223.62 337.084 231.419C337.128 239.567 331.576 247.269 321.464 253.107L317.127 255.611C306.439 261.782 306.066 271.604 316.302 277.513C326.538 283.423 343.559 283.213 354.247 277.042L355.764 276.167C397.186 252.251 401.639 215.032 365.885 191.439C347.276 179.128 321.207 172.046 292.602 171.488C262.905 170.914 233.599 177.674 212.205 190.026C194.607 200.186 183.422 213.526 180.708 227.588C180.123 230.569 175.484 232.715 170.313 232.382C165.15 232.054 161.425 229.371 162.01 226.38C165.203 209.88 178.304 194.235 198.909 182.339C223.975 167.867 258.364 159.955 293.231 160.626C327.105 161.276 357.955 169.675 380.05 184.275C422.297 212.159 417.481 255.898 369.078 283.843L367.561 284.719C349.537 295.125 320.577 295.335 303.006 285.19C285.435 275.045 285.807 258.33 303.831 247.924L308.168 245.42C314.714 241.641 318.298 236.683 318.28 231.45C318.262 226.544 315.007 221.981 309.126 218.586C309.082 218.56 309.046 218.54 309.002 218.514C301.472 214.207 292.531 213.541 286.366 213.741C275.385 214.089 264.387 217.469 256.962 222.77C232.242 240.432 239.232 273.094 247.977 278.143C251.649 280.263 251.649 283.705 247.977 285.825C244.305 287.945 238.353 287.94 234.681 285.82V285.82Z" fill="#F82530"/>
</g>
<g clip-path="url(#clip2)">
<path d="M57.4969 135.352H176.902C179.622 150.276 190.81 164.776 210.58 176.19C256.4 202.644 330.965 202.644 376.785 176.19C422.605 149.736 422.605 106.686 376.785 80.232C330.965 53.7778 256.4 53.7778 210.58 80.232C190.81 91.6459 179.622 106.146 176.902 121.07H57.4968C54.0853 121.07 50.9886 121.868 48.749 123.161C46.5093 124.454 45.1275 126.241 45.1275 128.211C45.1275 132.16 50.6561 135.352 57.4969 135.352ZM228.075 90.3329C264.255 69.4442 323.109 69.4442 359.289 90.3329C395.47 111.222 395.47 145.201 359.289 166.089C323.109 186.978 264.255 186.978 228.075 166.089C191.895 145.201 191.895 111.221 228.075 90.3329Z" fill="#129590"/>
</g>
<g filter="url(#filter0_dddddd)">
<rect x="280" width="30" height="30" rx="15" fill="#F82530"/>
<path d="M296.166 8.414L295.806 17.036H293.196L292.836 8.414H296.166ZM294.546 21.644C294.006 21.644 293.562 21.488 293.214 21.176C292.878 20.852 292.71 20.456 292.71 19.988C292.71 19.508 292.878 19.106 293.214 18.782C293.562 18.458 294.006 18.296 294.546 18.296C295.074 18.296 295.506 18.458 295.842 18.782C296.19 19.106 296.364 19.508 296.364 19.988C296.364 20.456 296.19 20.852 295.842 21.176C295.506 21.488 295.074 21.644 294.546 21.644Z" fill="white"/>
</g>
<defs>
<filter id="filter0_dddddd" x="200" y="0" width="190" height="190" filterUnits="userSpaceOnUse" color-interpolation-filters="sRGB">
<feFlood flood-opacity="0" result="BackgroundImageFix"/>
<feColorMatrix in="SourceAlpha" type="matrix" values="0 0 0 0 0 0 0 0 0 0 0 0 0 0 0 0 0 0 127 0"/>
<feOffset dy="2.21381"/>
<feGaussianBlur stdDeviation="1.1069"/>
<feColorMatrix type="matrix" values="0 0 0 0 0.972549 0 0 0 0 0.145098 0 0 0 0 0.188235 0 0 0 0.030926 0"/>
<feBlend mode="normal" in2="BackgroundImageFix" result="effect1_dropShadow"/>
<feColorMatrix in="SourceAlpha" type="matrix" values="0 0 0 0 0 0 0 0 0 0 0 0 0 0 0 0 0 0 127 0"/>
<feOffset dy="5.32008"/>
<feGaussianBlur stdDeviation="2.66004"/>
<feColorMatrix type="matrix" values="0 0 0 0 0.972549 0 0 0 0 0.145098 0 0 0 0 0.188235 0 0 0 0.0444282 0"/>
<feBlend mode="normal" in2="effect1_dropShadow" result="effect2_dropShadow"/>
<feColorMatrix in="SourceAlpha" type="matrix" values="0 0 0 0 0 0 0 0 0 0 0 0 0 0 0 0 0 0 127 0"/>
<feOffset dy="10.0172"/>
<feGaussianBlur stdDeviation="5.00862"/>
<feColorMatrix type="matrix" values="0 0 0 0 0.972549 0 0 0 0 0.145098 0 0 0 0 0.188235 0 0 0 0.055 0"/>
<feBlend mode="normal" in2="effect2_dropShadow" result="effect3_dropShadow"/>
<feColorMatrix in="SourceAlpha" type="matrix" values="0 0 0 0 0 0 0 0 0 0 0 0 0 0 0 0 0 0 127 0"/>
<feOffset dy="17.869"/>
<feGaussianBlur stdDeviation="8.93452"/>
<feColorMatrix type="matrix" values="0 0 0 0 0.972549 0 0 0 0 0.145098 0 0 0 0 0.188235 0 0 0 0.0655718 0"/>
<feBlend mode="normal" in2="effect3_dropShadow" result="effect4_dropShadow"/>
<feColorMatrix in="SourceAlpha" type="matrix" values="0 0 0 0 0 0 0 0 0 0 0 0 0 0 0 0 0 0 127 0"/>
<feOffset dy="33.4221"/>
<feGaussianBlur stdDeviation="16.711"/>
<feColorMatrix type="matrix" values="0 0 0 0 0.972549 0 0 0 0 0.145098 0 0 0 0 0.188235 0 0 0 0.079074 0"/>
<feBlend mode="normal" in2="effect4_dropShadow" result="effect5_dropShadow"/>
<feColorMatrix in="SourceAlpha" type="matrix" values="0 0 0 0 0 0 0 0 0 0 0 0 0 0 0 0 0 0 127 0"/>
<feOffset dy="80"/>
<feGaussianBlur stdDeviation="40"/>
<feColorMatrix type="matrix" values="0 0 0 0 0.972549 0 0 0 0 0.145098 0 0 0 0 0.188235 0 0 0 0.11 0"/>
<feBlend mode="normal" in2="effect5_dropShadow" result="effect6_dropShadow"/>
<feBlend mode="normal" in="SourceGraphic" in2="effect6_dropShadow" result="shape"/>
</filter>
<clipPath id="clip0">
<rect width="243.6" height="243.6" fill="white" transform="matrix(0.866025 0.5 -0.866025 0.5 319.672 90.3711)"/>
</clipPath>
<clipPath id="clip1">
<rect width="96.7599" height="127.828" fill="white" transform="matrix(0.866025 0.5 -0.866025 0.5 319.672 92)"/>
</clipPath>
<clipPath id="clip2">
<rect width="242.423" height="242.423" fill="white" transform="matrix(-0.866025 0.5 -0.866025 -0.5 459.889 128.213)"/>
</clipPath>
</defs>
</svg>
