<svg width="77" height="77" viewBox="0 0 77 77" fill="none" xmlns="http://www.w3.org/2000/svg">
<path d="M52.9341 0C48.829 0.283936 44.031 2.91155 41.2349 6.33321C38.6843 9.43726 36.5861 14.0476 37.4042 18.528C41.8894 18.6676 46.5239 15.9774 49.2092 12.498C51.7213 9.2592 53.6222 4.67772 52.9341 0Z" fill="#173244"/>
<path d="M69.1573 25.8341C65.2159 20.8917 59.6767 18.0234 54.4456 18.0234C47.5397 18.0234 44.6185 21.3296 39.8205 21.3296C34.8733 21.3296 31.1147 18.0331 25.1424 18.0331C19.276 18.0331 13.0294 21.6184 9.06878 27.7494C3.50076 36.383 4.45362 52.6155 13.477 66.4417C16.7062 71.3889 21.0182 76.9522 26.6584 77.0003C31.6778 77.0484 33.0926 73.7807 39.8927 73.7471C46.6927 73.7086 47.9824 77.0436 52.9922 76.9907C58.6372 76.9473 63.185 70.7826 66.4142 65.8353C68.729 62.2886 69.5904 60.5031 71.3855 56.4991C58.3292 51.5279 56.2358 32.9614 69.1573 25.8341Z" fill="#173244"/>
</svg>
