<svg width="368" height="368" viewBox="0 0 368 368" fill="none" xmlns="http://www.w3.org/2000/svg">
<path d="M361.319 143.658L287.581 84.4326C284.969 82.34 281.818 81.0289 278.493 80.6507C275.168 80.2726 271.804 80.8428 268.789 82.2955C265.774 83.7483 263.231 86.0243 261.455 88.8606C259.679 91.697 258.741 94.978 258.75 98.3246V350.203C258.747 354.914 260.613 359.434 263.939 362.77C267.264 366.106 271.778 367.987 276.489 367.999H300.472C305.181 367.989 309.694 366.11 313.02 362.776C316.345 359.441 318.212 354.924 318.211 350.215V181.619C318.206 179.957 318.861 178.362 320.032 177.182C321.203 176.003 322.794 175.336 324.455 175.329H350.227C353.899 175.301 357.473 174.14 360.461 172.004C363.448 169.868 365.703 166.862 366.917 163.396C368.13 159.93 368.244 156.174 367.242 152.641C366.24 149.108 364.171 145.97 361.319 143.658V143.658Z" fill="#F82530"/>
<path d="M223.755 80.5H199.772C195.062 80.5122 190.549 82.3921 187.224 85.7273C183.898 89.0625 182.031 93.5806 182.033 98.2905V266.857C182.031 268.515 181.374 270.105 180.204 271.279C179.034 272.454 177.446 273.117 175.788 273.125H150.017C146.343 273.151 142.767 274.311 139.779 276.448C136.79 278.584 134.534 281.591 133.32 285.058C132.106 288.526 131.993 292.284 132.996 295.818C133.999 299.352 136.07 302.489 138.925 304.801L212.663 364.026C215.272 366.119 218.419 367.431 221.742 367.811C225.065 368.192 228.427 367.625 231.441 366.177C234.456 364.729 237 362.459 238.779 359.627C240.559 356.796 241.502 353.519 241.499 350.175V98.279C241.496 93.5706 239.627 89.0554 236.301 85.7229C232.975 82.3903 228.463 80.5122 223.755 80.5V80.5Z" fill="#F82530"/>
<path d="M270.25 115H253V109.25C253 104.675 251.183 100.287 247.948 97.0523C244.713 93.8173 240.325 91.9999 235.75 91.9999H185.616L186.007 90.4359C186.643 87.8923 186.691 85.2371 186.147 82.6722C185.603 80.1072 184.482 77.7 182.868 75.6334C181.255 73.5669 179.191 71.8953 176.835 70.7459C174.478 69.5965 171.89 68.9993 169.268 68.9999H149.5V57.4999H166.75C171.325 57.4999 175.713 55.6825 178.948 52.4475C182.183 49.2125 184 44.8249 184 40.2499V17.25C184 12.675 182.183 8.2874 178.948 5.0524C175.713 1.8174 171.325 0 166.75 0H120.75C116.175 0 111.787 1.8174 108.552 5.0524C105.317 8.2874 103.5 12.675 103.5 17.25V40.2499C103.5 44.8249 105.317 49.2125 108.552 52.4475C111.787 55.6825 116.175 57.4999 120.75 57.4999H138V68.9999H123.982C120.134 68.9991 116.397 70.2844 113.364 72.6515C110.331 75.0186 108.177 78.3316 107.243 82.0639L104.759 91.9999H51.75C47.175 91.9999 42.7874 93.8173 39.5524 97.0523C36.3174 100.287 34.5 104.675 34.5 109.25V115H17.25C12.675 115 8.28741 116.817 5.05241 120.052C1.81741 123.287 0 127.675 0 132.25V155.25C0 159.825 1.81741 164.212 5.05241 167.447C8.28741 170.682 12.675 172.5 17.25 172.5H34.5V178.25C34.5 182.825 36.3174 187.212 39.5524 190.447C42.7874 193.682 47.175 195.5 51.75 195.5H101.884L101.493 197.064C100.857 199.607 100.809 202.263 101.353 204.827C101.897 207.392 103.018 209.8 104.632 211.866C106.245 213.933 108.309 215.604 110.665 216.754C113.022 217.903 115.61 218.5 118.232 218.5H138V230H120.75C116.175 230 111.787 231.817 108.552 235.052C105.317 238.287 103.5 242.675 103.5 247.25V270.25C103.5 274.825 105.317 279.212 108.552 282.447C111.787 285.682 116.175 287.5 120.75 287.5H166.75C171.325 287.5 175.713 285.682 178.948 282.447C182.183 279.212 184 274.825 184 270.25V247.25C184 242.675 182.183 238.287 178.948 235.052C175.713 231.817 171.325 230 166.75 230H149.5V218.5H163.518C167.366 218.501 171.103 217.215 174.136 214.848C177.169 212.481 179.323 209.168 180.257 205.436L182.741 195.5H235.75C240.325 195.5 244.713 193.682 247.948 190.447C251.183 187.212 253 182.825 253 178.25V172.5H270.25C274.825 172.5 279.213 170.682 282.448 167.447C285.683 164.212 287.5 159.825 287.5 155.25V132.25C287.5 127.675 285.683 123.287 282.448 120.052C279.213 116.817 274.825 115 270.25 115ZM115 40.2499V17.25C115 15.725 115.606 14.2625 116.684 13.1841C117.762 12.1058 119.225 11.5 120.75 11.5H166.75C168.275 11.5 169.738 12.1058 170.816 13.1841C171.894 14.2625 172.5 15.725 172.5 17.25V40.2499C172.5 41.7749 171.894 43.2375 170.816 44.3158C169.738 45.3941 168.275 45.9999 166.75 45.9999H120.75C119.225 45.9999 117.762 45.3941 116.684 44.3158C115.606 43.2375 115 41.7749 115 40.2499ZM172.5 247.25V270.25C172.5 271.775 171.894 273.237 170.816 274.316C169.738 275.394 168.275 276 166.75 276H120.75C119.225 276 117.762 275.394 116.684 274.316C115.606 273.237 115 271.775 115 270.25V247.25C115 245.725 115.606 244.262 116.684 243.184C117.762 242.105 119.225 241.5 120.75 241.5H166.75C168.275 241.5 169.738 242.105 170.816 243.184C171.894 244.262 172.5 245.725 172.5 247.25ZM123.982 80.4999H169.268C170.143 80.499 171.006 80.6977 171.792 81.0807C172.579 81.4637 173.267 82.021 173.805 82.7102C174.344 83.3993 174.718 84.2022 174.899 85.0577C175.08 85.9132 175.064 86.7988 174.852 87.6471L169.102 110.647C168.791 111.893 168.073 112.998 167.061 113.788C166.049 114.578 164.802 115.007 163.518 115.006H118.232C117.357 115.006 116.494 114.808 115.708 114.425C114.921 114.042 114.233 113.485 113.695 112.795C113.156 112.106 112.782 111.303 112.601 110.448C112.42 109.592 112.436 108.707 112.648 107.858L118.398 84.8584C118.709 83.613 119.427 82.5073 120.439 81.7174C121.451 80.9276 122.698 80.499 123.982 80.4999ZM11.5 155.25V132.25C11.5 130.725 12.1058 129.262 13.1841 128.184C14.2625 127.106 15.725 126.5 17.25 126.5H63.25C64.775 126.5 66.2375 127.106 67.3159 128.184C68.3942 129.262 69 130.725 69 132.25V155.25C69 156.775 68.3942 158.237 67.3159 159.316C66.2375 160.394 64.775 161 63.25 161H17.25C15.725 161 14.2625 160.394 13.1841 159.316C12.1058 158.237 11.5 156.775 11.5 155.25ZM163.518 207H118.232C117.357 207.001 116.494 206.802 115.708 206.419C114.921 206.036 114.233 205.479 113.695 204.789C113.156 204.1 112.782 203.297 112.601 202.442C112.42 201.586 112.436 200.701 112.648 199.853L118.398 176.853C118.71 175.608 119.429 174.504 120.441 173.715C121.452 172.926 122.699 172.499 123.982 172.5H169.268C170.143 172.499 171.006 172.698 171.792 173.081C172.579 173.464 173.267 174.021 173.805 174.71C174.344 175.399 174.718 176.202 174.899 177.058C175.08 177.913 175.064 178.799 174.852 179.647L169.102 202.647C168.79 203.891 168.071 204.996 167.059 205.785C166.048 206.573 164.801 207.001 163.518 207ZM241.5 178.25C241.5 179.775 240.894 181.237 239.816 182.316C238.738 183.394 237.275 184 235.75 184H185.616L186.007 182.436C186.643 179.892 186.691 177.237 186.147 174.672C185.603 172.107 184.482 169.7 182.868 167.633C181.255 165.567 179.191 163.895 176.835 162.746C174.478 161.596 171.89 160.999 169.268 161H123.982C120.134 160.999 116.397 162.284 113.364 164.651C110.331 167.018 108.177 170.332 107.243 174.064L104.759 184H51.75C50.225 184 48.7625 183.394 47.6841 182.316C46.6058 181.237 46 179.775 46 178.25V172.5H63.25C67.825 172.5 72.2126 170.682 75.4476 167.447C78.6826 164.212 80.5 159.825 80.5 155.25V132.25C80.5 127.675 78.6826 123.287 75.4476 120.052C72.2126 116.817 67.825 115 63.25 115H46V109.25C46 107.725 46.6058 106.262 47.6841 105.184C48.7625 104.106 50.225 103.5 51.75 103.5H101.884L101.493 105.064C100.857 107.607 100.809 110.263 101.353 112.828C101.897 115.393 103.018 117.8 104.632 119.866C106.245 121.933 108.309 123.604 110.665 124.754C113.022 125.903 115.61 126.5 118.232 126.5H163.518C167.366 126.501 171.103 125.215 174.136 122.848C177.169 120.481 179.323 117.168 180.257 113.436L182.741 103.5H235.75C237.275 103.5 238.738 104.106 239.816 105.184C240.894 106.262 241.5 107.725 241.5 109.25V115H224.25C219.675 115 215.287 116.817 212.052 120.052C208.817 123.287 207 127.675 207 132.25V155.25C207 159.825 208.817 164.212 212.052 167.447C215.287 170.682 219.675 172.5 224.25 172.5H241.5V178.25ZM276 155.25C276 156.775 275.394 158.237 274.316 159.316C273.238 160.394 271.775 161 270.25 161H224.25C222.725 161 221.262 160.394 220.184 159.316C219.106 158.237 218.5 156.775 218.5 155.25V132.25C218.5 130.725 219.106 129.262 220.184 128.184C221.262 127.106 222.725 126.5 224.25 126.5H270.25C271.775 126.5 273.238 127.106 274.316 128.184C275.394 129.262 276 130.725 276 132.25V155.25Z" fill="white"/>
</svg>
