<svg width="626" height="613" viewBox="0 0 626 613" fill="none" xmlns="http://www.w3.org/2000/svg">
<path d="M308.5 494C299.56 403.556 194.269 424.047 184.5 333" stroke="#E8F5F4" stroke-width="2.33333"/>
<path d="M178.5 333C187.324 429.495 290.5 450.5 290.5 512.634L290.5 566" stroke="#0062FF" stroke-width="2.33333"/>
<path d="M440.5 218C430.81 362.122 317.5 348.687 317.5 472.852L317.5 566" stroke="#F82530" stroke-width="2.33333"/>
<path d="M177.5 130C187.112 310.566 299.5 229.734 299.5 385.298L299.5 566" stroke="#9C04FF" stroke-width="2.33333"/>
<path d="M308.5 291C299.344 200.556 191.506 221.047 181.5 130" stroke="#E8F5F4" stroke-width="2.33333"/>
<path d="M308.5 387C317.512 296.556 423.652 317.047 433.5 226" stroke="#E8F5F4" stroke-width="2.33333"/>
<line x1="308.667" y1="32" x2="308.667" y2="566.333" stroke="#129590" stroke-width="2.33333"/>
<g filter="url(#filter0_dddddd)">
<rect x="379.5" y="194" width="120" height="32" rx="8" fill="#F82530"/>
<path d="M398.318 209.96C398.887 210.081 399.345 210.366 399.69 210.814C400.035 211.253 400.208 211.757 400.208 212.326C400.208 213.147 399.919 213.801 399.34 214.286C398.771 214.762 397.973 215 396.946 215H392.368V205.172H396.792C397.791 205.172 398.57 205.401 399.13 205.858C399.699 206.315 399.984 206.936 399.984 207.72C399.984 208.299 399.83 208.779 399.522 209.162C399.223 209.545 398.822 209.811 398.318 209.96ZM394.762 209.148H396.33C396.722 209.148 397.021 209.064 397.226 208.896C397.441 208.719 397.548 208.462 397.548 208.126C397.548 207.79 397.441 207.533 397.226 207.356C397.021 207.179 396.722 207.09 396.33 207.09H394.762V209.148ZM396.526 213.068C396.927 213.068 397.235 212.979 397.45 212.802C397.674 212.615 397.786 212.349 397.786 212.004C397.786 211.659 397.669 211.388 397.436 211.192C397.212 210.996 396.899 210.898 396.498 210.898H394.762V213.068H396.526ZM404.191 208.49C404.471 208.061 404.821 207.725 405.241 207.482C405.661 207.23 406.127 207.104 406.641 207.104V209.638H405.983C405.385 209.638 404.937 209.769 404.639 210.03C404.34 210.282 404.191 210.73 404.191 211.374V215H401.797V207.188H404.191V208.49ZM407.509 211.08C407.509 210.277 407.658 209.573 407.957 208.966C408.265 208.359 408.68 207.893 409.203 207.566C409.725 207.239 410.309 207.076 410.953 207.076C411.503 207.076 411.984 207.188 412.395 207.412C412.815 207.636 413.137 207.93 413.361 208.294V207.188H415.755V215H413.361V213.894C413.127 214.258 412.801 214.552 412.381 214.776C411.97 215 411.489 215.112 410.939 215.112C410.304 215.112 409.725 214.949 409.203 214.622C408.68 214.286 408.265 213.815 407.957 213.208C407.658 212.592 407.509 211.883 407.509 211.08ZM413.361 211.094C413.361 210.497 413.193 210.025 412.857 209.68C412.53 209.335 412.129 209.162 411.653 209.162C411.177 209.162 410.771 209.335 410.435 209.68C410.108 210.016 409.945 210.483 409.945 211.08C409.945 211.677 410.108 212.153 410.435 212.508C410.771 212.853 411.177 213.026 411.653 213.026C412.129 213.026 412.53 212.853 412.857 212.508C413.193 212.163 413.361 211.691 413.361 211.094ZM422.447 207.104C423.361 207.104 424.089 207.403 424.631 208C425.181 208.588 425.457 209.4 425.457 210.436V215H423.077V210.758C423.077 210.235 422.941 209.829 422.671 209.54C422.4 209.251 422.036 209.106 421.579 209.106C421.121 209.106 420.757 209.251 420.487 209.54C420.216 209.829 420.081 210.235 420.081 210.758V215H417.687V207.188H420.081V208.224C420.323 207.879 420.65 207.608 421.061 207.412C421.471 207.207 421.933 207.104 422.447 207.104ZM426.844 211.08C426.844 210.277 426.994 209.573 427.292 208.966C427.6 208.359 428.016 207.893 428.538 207.566C429.061 207.239 429.644 207.076 430.288 207.076C430.802 207.076 431.268 207.183 431.688 207.398C432.118 207.613 432.454 207.902 432.696 208.266V204.64H435.09V215H432.696V213.88C432.472 214.253 432.15 214.552 431.73 214.776C431.32 215 430.839 215.112 430.288 215.112C429.644 215.112 429.061 214.949 428.538 214.622C428.016 214.286 427.6 213.815 427.292 213.208C426.994 212.592 426.844 211.883 426.844 211.08ZM432.696 211.094C432.696 210.497 432.528 210.025 432.192 209.68C431.866 209.335 431.464 209.162 430.988 209.162C430.512 209.162 430.106 209.335 429.77 209.68C429.444 210.016 429.28 210.483 429.28 211.08C429.28 211.677 429.444 212.153 429.77 212.508C430.106 212.853 430.512 213.026 430.988 213.026C431.464 213.026 431.866 212.853 432.192 212.508C432.528 212.163 432.696 211.691 432.696 211.094ZM441.393 206.376C440.973 206.376 440.628 206.255 440.357 206.012C440.096 205.76 439.965 205.452 439.965 205.088C439.965 204.715 440.096 204.407 440.357 204.164C440.628 203.912 440.973 203.786 441.393 203.786C441.804 203.786 442.14 203.912 442.401 204.164C442.672 204.407 442.807 204.715 442.807 205.088C442.807 205.452 442.672 205.76 442.401 206.012C442.14 206.255 441.804 206.376 441.393 206.376ZM442.583 207.188V215H440.189V207.188H442.583ZM454.486 207.104C455.457 207.104 456.227 207.398 456.796 207.986C457.375 208.574 457.664 209.391 457.664 210.436V215H455.284V210.758C455.284 210.254 455.149 209.867 454.878 209.596C454.617 209.316 454.253 209.176 453.786 209.176C453.319 209.176 452.951 209.316 452.68 209.596C452.419 209.867 452.288 210.254 452.288 210.758V215H449.908V210.758C449.908 210.254 449.773 209.867 449.502 209.596C449.241 209.316 448.877 209.176 448.41 209.176C447.943 209.176 447.575 209.316 447.304 209.596C447.043 209.867 446.912 210.254 446.912 210.758V215H444.518V207.188H446.912V208.168C447.155 207.841 447.472 207.585 447.864 207.398C448.256 207.202 448.699 207.104 449.194 207.104C449.782 207.104 450.305 207.23 450.762 207.482C451.229 207.734 451.593 208.093 451.854 208.56C452.125 208.131 452.493 207.781 452.96 207.51C453.427 207.239 453.935 207.104 454.486 207.104ZM459.062 211.08C459.062 210.277 459.212 209.573 459.51 208.966C459.818 208.359 460.234 207.893 460.756 207.566C461.279 207.239 461.862 207.076 462.506 207.076C463.057 207.076 463.538 207.188 463.948 207.412C464.368 207.636 464.69 207.93 464.914 208.294V207.188H467.308V215H464.914V213.894C464.681 214.258 464.354 214.552 463.934 214.776C463.524 215 463.043 215.112 462.492 215.112C461.858 215.112 461.279 214.949 460.756 214.622C460.234 214.286 459.818 213.815 459.51 213.208C459.212 212.592 459.062 211.883 459.062 211.08ZM464.914 211.094C464.914 210.497 464.746 210.025 464.41 209.68C464.084 209.335 463.682 209.162 463.206 209.162C462.73 209.162 462.324 209.335 461.988 209.68C461.662 210.016 461.498 210.483 461.498 211.08C461.498 211.677 461.662 212.153 461.988 212.508C462.324 212.853 462.73 213.026 463.206 213.026C463.682 213.026 464.084 212.853 464.41 212.508C464.746 212.163 464.914 211.691 464.914 211.094ZM472.208 207.076C472.759 207.076 473.24 207.188 473.65 207.412C474.07 207.636 474.392 207.93 474.616 208.294V207.188H477.01V214.986C477.01 215.705 476.866 216.353 476.576 216.932C476.296 217.52 475.862 217.987 475.274 218.332C474.696 218.677 473.972 218.85 473.104 218.85C471.947 218.85 471.009 218.575 470.29 218.024C469.572 217.483 469.161 216.745 469.058 215.812H471.424C471.499 216.111 471.676 216.344 471.956 216.512C472.236 216.689 472.582 216.778 472.992 216.778C473.487 216.778 473.879 216.633 474.168 216.344C474.467 216.064 474.616 215.611 474.616 214.986V213.88C474.383 214.244 474.061 214.543 473.65 214.776C473.24 215 472.759 215.112 472.208 215.112C471.564 215.112 470.981 214.949 470.458 214.622C469.936 214.286 469.52 213.815 469.212 213.208C468.914 212.592 468.764 211.883 468.764 211.08C468.764 210.277 468.914 209.573 469.212 208.966C469.52 208.359 469.936 207.893 470.458 207.566C470.981 207.239 471.564 207.076 472.208 207.076ZM474.616 211.094C474.616 210.497 474.448 210.025 474.112 209.68C473.786 209.335 473.384 209.162 472.908 209.162C472.432 209.162 472.026 209.335 471.69 209.68C471.364 210.016 471.2 210.483 471.2 211.08C471.2 211.677 471.364 212.153 471.69 212.508C472.026 212.853 472.432 213.026 472.908 213.026C473.384 213.026 473.786 212.853 474.112 212.508C474.448 212.163 474.616 211.691 474.616 211.094ZM486.306 210.968C486.306 211.192 486.292 211.425 486.264 211.668H480.846C480.884 212.153 481.038 212.527 481.308 212.788C481.588 213.04 481.929 213.166 482.33 213.166C482.928 213.166 483.343 212.914 483.576 212.41H486.124C485.994 212.923 485.756 213.385 485.41 213.796C485.074 214.207 484.65 214.529 484.136 214.762C483.623 214.995 483.049 215.112 482.414 215.112C481.649 215.112 480.968 214.949 480.37 214.622C479.773 214.295 479.306 213.829 478.97 213.222C478.634 212.615 478.466 211.906 478.466 211.094C478.466 210.282 478.63 209.573 478.956 208.966C479.292 208.359 479.759 207.893 480.356 207.566C480.954 207.239 481.64 207.076 482.414 207.076C483.17 207.076 483.842 207.235 484.43 207.552C485.018 207.869 485.476 208.322 485.802 208.91C486.138 209.498 486.306 210.184 486.306 210.968ZM483.856 210.338C483.856 209.927 483.716 209.601 483.436 209.358C483.156 209.115 482.806 208.994 482.386 208.994C481.985 208.994 481.644 209.111 481.364 209.344C481.094 209.577 480.926 209.909 480.86 210.338H483.856Z" fill="white"/>
</g>
<g filter="url(#filter1_ddddd)">
<rect x="126.5" y="98" width="106" height="32" rx="8" fill="#9C04FF"/>
<path d="M144.38 119L142.336 115.29H141.762V119H139.368V109.172H143.386C144.161 109.172 144.819 109.307 145.36 109.578C145.911 109.849 146.321 110.222 146.592 110.698C146.863 111.165 146.998 111.687 146.998 112.266C146.998 112.919 146.811 113.503 146.438 114.016C146.074 114.529 145.533 114.893 144.814 115.108L147.082 119H144.38ZM141.762 113.596H143.246C143.685 113.596 144.011 113.489 144.226 113.274C144.45 113.059 144.562 112.756 144.562 112.364C144.562 111.991 144.45 111.697 144.226 111.482C144.011 111.267 143.685 111.16 143.246 111.16H141.762V113.596ZM156.065 114.968C156.065 115.192 156.051 115.425 156.023 115.668H150.605C150.642 116.153 150.796 116.527 151.067 116.788C151.347 117.04 151.687 117.166 152.089 117.166C152.686 117.166 153.101 116.914 153.335 116.41H155.883C155.752 116.923 155.514 117.385 155.169 117.796C154.833 118.207 154.408 118.529 153.895 118.762C153.381 118.995 152.807 119.112 152.173 119.112C151.407 119.112 150.726 118.949 150.129 118.622C149.531 118.295 149.065 117.829 148.729 117.222C148.393 116.615 148.225 115.906 148.225 115.094C148.225 114.282 148.388 113.573 148.715 112.966C149.051 112.359 149.517 111.893 150.115 111.566C150.712 111.239 151.398 111.076 152.173 111.076C152.929 111.076 153.601 111.235 154.189 111.552C154.777 111.869 155.234 112.322 155.561 112.91C155.897 113.498 156.065 114.184 156.065 114.968ZM153.615 114.338C153.615 113.927 153.475 113.601 153.195 113.358C152.915 113.115 152.565 112.994 152.145 112.994C151.743 112.994 151.403 113.111 151.123 113.344C150.852 113.577 150.684 113.909 150.619 114.338H153.615ZM159.922 112.294C160.155 111.93 160.477 111.636 160.888 111.412C161.298 111.188 161.779 111.076 162.33 111.076C162.974 111.076 163.557 111.239 164.08 111.566C164.602 111.893 165.013 112.359 165.312 112.966C165.62 113.573 165.774 114.277 165.774 115.08C165.774 115.883 165.62 116.592 165.312 117.208C165.013 117.815 164.602 118.286 164.08 118.622C163.557 118.949 162.974 119.112 162.33 119.112C161.788 119.112 161.308 119 160.888 118.776C160.477 118.552 160.155 118.263 159.922 117.908V122.724H157.528V111.188H159.922V112.294ZM163.338 115.08C163.338 114.483 163.17 114.016 162.834 113.68C162.507 113.335 162.101 113.162 161.616 113.162C161.14 113.162 160.734 113.335 160.398 113.68C160.071 114.025 159.908 114.497 159.908 115.094C159.908 115.691 160.071 116.163 160.398 116.508C160.734 116.853 161.14 117.026 161.616 117.026C162.092 117.026 162.498 116.853 162.834 116.508C163.17 116.153 163.338 115.677 163.338 115.08ZM174.944 111.188V119H172.55V117.936C172.307 118.281 171.976 118.561 171.556 118.776C171.145 118.981 170.688 119.084 170.184 119.084C169.586 119.084 169.059 118.953 168.602 118.692C168.144 118.421 167.79 118.034 167.538 117.53C167.286 117.026 167.16 116.433 167.16 115.752V111.188H169.54V115.43C169.54 115.953 169.675 116.359 169.946 116.648C170.216 116.937 170.58 117.082 171.038 117.082C171.504 117.082 171.873 116.937 172.144 116.648C172.414 116.359 172.55 115.953 172.55 115.43V111.188H174.944ZM181.217 116.97V119H179.999C179.131 119 178.455 118.79 177.969 118.37C177.484 117.941 177.241 117.245 177.241 116.284V113.176H176.289V111.188H177.241V109.284H179.635V111.188H181.203V113.176H179.635V116.312C179.635 116.545 179.691 116.713 179.803 116.816C179.915 116.919 180.102 116.97 180.363 116.97H181.217ZM182.275 115.08C182.275 114.277 182.424 113.573 182.723 112.966C183.031 112.359 183.446 111.893 183.969 111.566C184.491 111.239 185.075 111.076 185.719 111.076C186.269 111.076 186.75 111.188 187.161 111.412C187.581 111.636 187.903 111.93 188.127 112.294V111.188H190.521V119H188.127V117.894C187.893 118.258 187.567 118.552 187.147 118.776C186.736 119 186.255 119.112 185.705 119.112C185.07 119.112 184.491 118.949 183.969 118.622C183.446 118.286 183.031 117.815 182.723 117.208C182.424 116.592 182.275 115.883 182.275 115.08ZM188.127 115.094C188.127 114.497 187.959 114.025 187.623 113.68C187.296 113.335 186.895 113.162 186.419 113.162C185.943 113.162 185.537 113.335 185.201 113.68C184.874 114.016 184.711 114.483 184.711 115.08C184.711 115.677 184.874 116.153 185.201 116.508C185.537 116.853 185.943 117.026 186.419 117.026C186.895 117.026 187.296 116.853 187.623 116.508C187.959 116.163 188.127 115.691 188.127 115.094ZM196.807 116.97V119H195.589C194.721 119 194.044 118.79 193.559 118.37C193.073 117.941 192.831 117.245 192.831 116.284V113.176H191.879V111.188H192.831V109.284H195.225V111.188H196.793V113.176H195.225V116.312C195.225 116.545 195.281 116.713 195.393 116.816C195.505 116.919 195.691 116.97 195.953 116.97H196.807ZM199.544 110.376C199.124 110.376 198.779 110.255 198.508 110.012C198.247 109.76 198.116 109.452 198.116 109.088C198.116 108.715 198.247 108.407 198.508 108.164C198.779 107.912 199.124 107.786 199.544 107.786C199.955 107.786 200.291 107.912 200.552 108.164C200.823 108.407 200.958 108.715 200.958 109.088C200.958 109.452 200.823 109.76 200.552 110.012C200.291 110.255 199.955 110.376 199.544 110.376ZM200.734 111.188V119H198.34V111.188H200.734ZM206.225 119.112C205.46 119.112 204.769 118.949 204.153 118.622C203.547 118.295 203.066 117.829 202.711 117.222C202.366 116.615 202.193 115.906 202.193 115.094C202.193 114.291 202.371 113.587 202.725 112.98C203.08 112.364 203.565 111.893 204.181 111.566C204.797 111.239 205.488 111.076 206.253 111.076C207.019 111.076 207.709 111.239 208.325 111.566C208.941 111.893 209.427 112.364 209.781 112.98C210.136 113.587 210.313 114.291 210.313 115.094C210.313 115.897 210.131 116.606 209.767 117.222C209.413 117.829 208.923 118.295 208.297 118.622C207.681 118.949 206.991 119.112 206.225 119.112ZM206.225 117.04C206.683 117.04 207.07 116.872 207.387 116.536C207.714 116.2 207.877 115.719 207.877 115.094C207.877 114.469 207.719 113.988 207.401 113.652C207.093 113.316 206.711 113.148 206.253 113.148C205.787 113.148 205.399 113.316 205.091 113.652C204.783 113.979 204.629 114.459 204.629 115.094C204.629 115.719 204.779 116.2 205.077 116.536C205.385 116.872 205.768 117.04 206.225 117.04ZM216.543 111.104C217.458 111.104 218.186 111.403 218.727 112C219.278 112.588 219.553 113.4 219.553 114.436V119H217.173V114.758C217.173 114.235 217.038 113.829 216.767 113.54C216.497 113.251 216.133 113.106 215.675 113.106C215.218 113.106 214.854 113.251 214.583 113.54C214.313 113.829 214.177 114.235 214.177 114.758V119H211.783V111.188H214.177V112.224C214.42 111.879 214.747 111.608 215.157 111.412C215.568 111.207 216.03 111.104 216.543 111.104Z" fill="white"/>
</g>
<g filter="url(#filter2_dddddd)">
<rect x="264.5" width="88" height="32" rx="8" fill="#129590"/>
<path d="M282.38 21L280.336 17.29H279.762V21H277.368V11.172H281.386C282.161 11.172 282.819 11.3073 283.36 11.578C283.911 11.8487 284.321 12.222 284.592 12.698C284.863 13.1647 284.998 13.6873 284.998 14.266C284.998 14.9193 284.811 15.5027 284.438 16.016C284.074 16.5293 283.533 16.8933 282.814 17.108L285.082 21H282.38ZM279.762 15.596H281.246C281.685 15.596 282.011 15.4887 282.226 15.274C282.45 15.0593 282.562 14.756 282.562 14.364C282.562 13.9907 282.45 13.6967 282.226 13.482C282.011 13.2673 281.685 13.16 281.246 13.16H279.762V15.596ZM294.065 16.968C294.065 17.192 294.051 17.4253 294.023 17.668H288.605C288.642 18.1533 288.796 18.5267 289.067 18.788C289.347 19.04 289.687 19.166 290.089 19.166C290.686 19.166 291.101 18.914 291.335 18.41H293.883C293.752 18.9233 293.514 19.3853 293.169 19.796C292.833 20.2067 292.408 20.5287 291.895 20.762C291.381 20.9953 290.807 21.112 290.173 21.112C289.407 21.112 288.726 20.9487 288.129 20.622C287.531 20.2953 287.065 19.8287 286.729 19.222C286.393 18.6153 286.225 17.906 286.225 17.094C286.225 16.282 286.388 15.5727 286.715 14.966C287.051 14.3593 287.517 13.8927 288.115 13.566C288.712 13.2393 289.398 13.076 290.173 13.076C290.929 13.076 291.601 13.2347 292.189 13.552C292.777 13.8693 293.234 14.322 293.561 14.91C293.897 15.498 294.065 16.184 294.065 16.968ZM291.615 16.338C291.615 15.9273 291.475 15.6007 291.195 15.358C290.915 15.1153 290.565 14.994 290.145 14.994C289.743 14.994 289.403 15.1107 289.123 15.344C288.852 15.5773 288.684 15.9087 288.619 16.338H291.615ZM299.042 18.76L300.736 13.188H303.284L300.512 21H297.558L294.786 13.188H297.348L299.042 18.76ZM311.855 16.968C311.855 17.192 311.841 17.4253 311.813 17.668H306.395C306.433 18.1533 306.587 18.5267 306.857 18.788C307.137 19.04 307.478 19.166 307.879 19.166C308.477 19.166 308.892 18.914 309.125 18.41H311.673C311.543 18.9233 311.305 19.3853 310.959 19.796C310.623 20.2067 310.199 20.5287 309.685 20.762C309.172 20.9953 308.598 21.112 307.963 21.112C307.198 21.112 306.517 20.9487 305.919 20.622C305.322 20.2953 304.855 19.8287 304.519 19.222C304.183 18.6153 304.015 17.906 304.015 17.094C304.015 16.282 304.179 15.5727 304.505 14.966C304.841 14.3593 305.308 13.8927 305.905 13.566C306.503 13.2393 307.189 13.076 307.963 13.076C308.719 13.076 309.391 13.2347 309.979 13.552C310.567 13.8693 311.025 14.322 311.351 14.91C311.687 15.498 311.855 16.184 311.855 16.968ZM309.405 16.338C309.405 15.9273 309.265 15.6007 308.985 15.358C308.705 15.1153 308.355 14.994 307.935 14.994C307.534 14.994 307.193 15.1107 306.913 15.344C306.643 15.5773 306.475 15.9087 306.409 16.338H309.405ZM318.078 13.104C318.993 13.104 319.721 13.4027 320.262 14C320.813 14.588 321.088 15.4 321.088 16.436V21H318.708V16.758C318.708 16.2353 318.573 15.8293 318.302 15.54C318.032 15.2507 317.668 15.106 317.21 15.106C316.753 15.106 316.389 15.2507 316.118 15.54C315.848 15.8293 315.712 16.2353 315.712 16.758V21H313.318V13.188H315.712V14.224C315.955 13.8787 316.282 13.608 316.692 13.412C317.103 13.2067 317.565 13.104 318.078 13.104ZM330.666 13.188V21H328.272V19.936C328.029 20.2813 327.698 20.5613 327.278 20.776C326.867 20.9813 326.41 21.084 325.906 21.084C325.309 21.084 324.781 20.9533 324.324 20.692C323.867 20.4213 323.512 20.034 323.26 19.53C323.008 19.026 322.882 18.4333 322.882 17.752V13.188H325.262V17.43C325.262 17.9527 325.397 18.3587 325.668 18.648C325.939 18.9373 326.303 19.082 326.76 19.082C327.227 19.082 327.595 18.9373 327.866 18.648C328.137 18.3587 328.272 17.9527 328.272 17.43V13.188H330.666ZM339.95 16.968C339.95 17.192 339.936 17.4253 339.908 17.668H334.49C334.527 18.1533 334.681 18.5267 334.952 18.788C335.232 19.04 335.572 19.166 335.974 19.166C336.571 19.166 336.986 18.914 337.22 18.41H339.768C339.637 18.9233 339.399 19.3853 339.054 19.796C338.718 20.2067 338.293 20.5287 337.78 20.762C337.266 20.9953 336.692 21.112 336.058 21.112C335.292 21.112 334.611 20.9487 334.014 20.622C333.416 20.2953 332.95 19.8287 332.614 19.222C332.278 18.6153 332.11 17.906 332.11 17.094C332.11 16.282 332.273 15.5727 332.6 14.966C332.936 14.3593 333.402 13.8927 334 13.566C334.597 13.2393 335.283 13.076 336.058 13.076C336.814 13.076 337.486 13.2347 338.074 13.552C338.662 13.8693 339.119 14.322 339.446 14.91C339.782 15.498 339.95 16.184 339.95 16.968ZM337.5 16.338C337.5 15.9273 337.36 15.6007 337.08 15.358C336.8 15.1153 336.45 14.994 336.03 14.994C335.628 14.994 335.288 15.1107 335.008 15.344C334.737 15.5773 334.569 15.9087 334.504 16.338H337.5Z" fill="white"/>
</g>
<g filter="url(#filter3_dddddd)">
<rect x="142.5" y="301" width="78" height="32" rx="8" fill="#0062FF"/>
<path d="M157.762 320.152H160.898V322H155.368V312.172H157.762V320.152ZM165.796 322.112C165.031 322.112 164.34 321.949 163.724 321.622C163.117 321.295 162.637 320.829 162.282 320.222C161.937 319.615 161.764 318.906 161.764 318.094C161.764 317.291 161.941 316.587 162.296 315.98C162.651 315.364 163.136 314.893 163.752 314.566C164.368 314.239 165.059 314.076 165.824 314.076C166.589 314.076 167.28 314.239 167.896 314.566C168.512 314.893 168.997 315.364 169.352 315.98C169.707 316.587 169.884 317.291 169.884 318.094C169.884 318.897 169.702 319.606 169.338 320.222C168.983 320.829 168.493 321.295 167.868 321.622C167.252 321.949 166.561 322.112 165.796 322.112ZM165.796 320.04C166.253 320.04 166.641 319.872 166.958 319.536C167.285 319.2 167.448 318.719 167.448 318.094C167.448 317.469 167.289 316.988 166.972 316.652C166.664 316.316 166.281 316.148 165.824 316.148C165.357 316.148 164.97 316.316 164.662 316.652C164.354 316.979 164.2 317.459 164.2 318.094C164.2 318.719 164.349 319.2 164.648 319.536C164.956 319.872 165.339 320.04 165.796 320.04ZM179.334 314.188L174.434 325.71H171.858L173.65 321.734L170.472 314.188H173.146L174.952 319.074L176.744 314.188H179.334ZM179.924 318.08C179.924 317.277 180.073 316.573 180.372 315.966C180.68 315.359 181.095 314.893 181.618 314.566C182.14 314.239 182.724 314.076 183.368 314.076C183.918 314.076 184.399 314.188 184.81 314.412C185.23 314.636 185.552 314.93 185.776 315.294V314.188H188.17V322H185.776V320.894C185.542 321.258 185.216 321.552 184.796 321.776C184.385 322 183.904 322.112 183.354 322.112C182.719 322.112 182.14 321.949 181.618 321.622C181.095 321.286 180.68 320.815 180.372 320.208C180.073 319.592 179.924 318.883 179.924 318.08ZM185.776 318.094C185.776 317.497 185.608 317.025 185.272 316.68C184.945 316.335 184.544 316.162 184.068 316.162C183.592 316.162 183.186 316.335 182.85 316.68C182.523 317.016 182.36 317.483 182.36 318.08C182.36 318.677 182.523 319.153 182.85 319.508C183.186 319.853 183.592 320.026 184.068 320.026C184.544 320.026 184.945 319.853 185.272 319.508C185.608 319.163 185.776 318.691 185.776 318.094ZM192.496 311.64V322H190.102V311.64H192.496ZM198.785 319.97V322H197.567C196.699 322 196.022 321.79 195.537 321.37C195.051 320.941 194.809 320.245 194.809 319.284V316.176H193.857V314.188H194.809V312.284H197.203V314.188H198.771V316.176H197.203V319.312C197.203 319.545 197.259 319.713 197.371 319.816C197.483 319.919 197.669 319.97 197.931 319.97H198.785ZM208.298 314.188L203.398 325.71H200.822L202.614 321.734L199.436 314.188H202.11L203.916 319.074L205.708 314.188H208.298Z" fill="white"/>
</g>
<defs>
<filter id="filter0_dddddd" x="253.5" y="194" width="372" height="312" filterUnits="userSpaceOnUse" color-interpolation-filters="sRGB">
<feFlood flood-opacity="0" result="BackgroundImageFix"/>
<feColorMatrix in="SourceAlpha" type="matrix" values="0 0 0 0 0 0 0 0 0 0 0 0 0 0 0 0 0 0 127 0"/>
<feOffset dy="1.87513"/>
<feGaussianBlur stdDeviation="0.314877"/>
<feColorMatrix type="matrix" values="0 0 0 0 0 0 0 0 0 0 0 0 0 0 0 0 0 0 0.01 0"/>
<feBlend mode="normal" in2="BackgroundImageFix" result="effect1_dropShadow"/>
<feColorMatrix in="SourceAlpha" type="matrix" values="0 0 0 0 0 0 0 0 0 0 0 0 0 0 0 0 0 0 127 0"/>
<feOffset dy="5.3376"/>
<feGaussianBlur stdDeviation="1.48286"/>
<feColorMatrix type="matrix" values="0 0 0 0 0 0 0 0 0 0 0 0 0 0 0 0 0 0 0.0145288 0"/>
<feBlend mode="normal" in2="effect1_dropShadow" result="effect2_dropShadow"/>
<feColorMatrix in="SourceAlpha" type="matrix" values="0 0 0 0 0 0 0 0 0 0 0 0 0 0 0 0 0 0 127 0"/>
<feOffset dy="11.5388"/>
<feGaussianBlur stdDeviation="4.07344"/>
<feColorMatrix type="matrix" values="0 0 0 0 0 0 0 0 0 0 0 0 0 0 0 0 0 0 0.0227847 0"/>
<feBlend mode="normal" in2="effect2_dropShadow" result="effect3_dropShadow"/>
<feColorMatrix in="SourceAlpha" type="matrix" values="0 0 0 0 0 0 0 0 0 0 0 0 0 0 0 0 0 0 127 0"/>
<feOffset dy="23.2406"/>
<feGaussianBlur stdDeviation="9.39548"/>
<feColorMatrix type="matrix" values="0 0 0 0 0 0 0 0 0 0 0 0 0 0 0 0 0 0 0.0325632 0"/>
<feBlend mode="normal" in2="effect3_dropShadow" result="effect4_dropShadow"/>
<feColorMatrix in="SourceAlpha" type="matrix" values="0 0 0 0 0 0 0 0 0 0 0 0 0 0 0 0 0 0 127 0"/>
<feOffset dy="49.9794"/>
<feGaussianBlur stdDeviation="21.5847"/>
<feColorMatrix type="matrix" values="0 0 0 0 0 0 0 0 0 0 0 0 0 0 0 0 0 0 0.0453408 0"/>
<feBlend mode="normal" in2="effect4_dropShadow" result="effect5_dropShadow"/>
<feColorMatrix in="SourceAlpha" type="matrix" values="0 0 0 0 0 0 0 0 0 0 0 0 0 0 0 0 0 0 127 0"/>
<feOffset dy="154"/>
<feGaussianBlur stdDeviation="63"/>
<feColorMatrix type="matrix" values="0 0 0 0 0 0 0 0 0 0 0 0 0 0 0 0 0 0 0.07 0"/>
<feBlend mode="normal" in2="effect5_dropShadow" result="effect6_dropShadow"/>
<feBlend mode="normal" in="SourceGraphic" in2="effect6_dropShadow" result="shape"/>
</filter>
<filter id="filter1_ddddd" x="0.5" y="98" width="358" height="312" filterUnits="userSpaceOnUse" color-interpolation-filters="sRGB">
<feFlood flood-opacity="0" result="BackgroundImageFix"/>
<feColorMatrix in="SourceAlpha" type="matrix" values="0 0 0 0 0 0 0 0 0 0 0 0 0 0 0 0 0 0 127 0"/>
<feOffset dy="5.3376"/>
<feGaussianBlur stdDeviation="1.48286"/>
<feColorMatrix type="matrix" values="0 0 0 0 0 0 0 0 0 0 0 0 0 0 0 0 0 0 0.0145288 0"/>
<feBlend mode="normal" in2="BackgroundImageFix" result="effect1_dropShadow"/>
<feColorMatrix in="SourceAlpha" type="matrix" values="0 0 0 0 0 0 0 0 0 0 0 0 0 0 0 0 0 0 127 0"/>
<feOffset dy="11.5388"/>
<feGaussianBlur stdDeviation="4.07344"/>
<feColorMatrix type="matrix" values="0 0 0 0 0 0 0 0 0 0 0 0 0 0 0 0 0 0 0.0227847 0"/>
<feBlend mode="normal" in2="effect1_dropShadow" result="effect2_dropShadow"/>
<feColorMatrix in="SourceAlpha" type="matrix" values="0 0 0 0 0 0 0 0 0 0 0 0 0 0 0 0 0 0 127 0"/>
<feOffset dy="23.2406"/>
<feGaussianBlur stdDeviation="9.39548"/>
<feColorMatrix type="matrix" values="0 0 0 0 0 0 0 0 0 0 0 0 0 0 0 0 0 0 0.0325632 0"/>
<feBlend mode="normal" in2="effect2_dropShadow" result="effect3_dropShadow"/>
<feColorMatrix in="SourceAlpha" type="matrix" values="0 0 0 0 0 0 0 0 0 0 0 0 0 0 0 0 0 0 127 0"/>
<feOffset dy="49.9794"/>
<feGaussianBlur stdDeviation="21.5847"/>
<feColorMatrix type="matrix" values="0 0 0 0 0 0 0 0 0 0 0 0 0 0 0 0 0 0 0.0453408 0"/>
<feBlend mode="normal" in2="effect3_dropShadow" result="effect4_dropShadow"/>
<feColorMatrix in="SourceAlpha" type="matrix" values="0 0 0 0 0 0 0 0 0 0 0 0 0 0 0 0 0 0 127 0"/>
<feOffset dy="154"/>
<feGaussianBlur stdDeviation="63"/>
<feColorMatrix type="matrix" values="0 0 0 0 0 0 0 0 0 0 0 0 0 0 0 0 0 0 0.07 0"/>
<feBlend mode="normal" in2="effect4_dropShadow" result="effect5_dropShadow"/>
<feBlend mode="normal" in="SourceGraphic" in2="effect5_dropShadow" result="shape"/>
</filter>
<filter id="filter2_dddddd" x="138.5" y="0" width="340" height="312" filterUnits="userSpaceOnUse" color-interpolation-filters="sRGB">
<feFlood flood-opacity="0" result="BackgroundImageFix"/>
<feColorMatrix in="SourceAlpha" type="matrix" values="0 0 0 0 0 0 0 0 0 0 0 0 0 0 0 0 0 0 127 0"/>
<feOffset dy="1.87513"/>
<feGaussianBlur stdDeviation="0.314877"/>
<feColorMatrix type="matrix" values="0 0 0 0 0 0 0 0 0 0 0 0 0 0 0 0 0 0 0.01 0"/>
<feBlend mode="normal" in2="BackgroundImageFix" result="effect1_dropShadow"/>
<feColorMatrix in="SourceAlpha" type="matrix" values="0 0 0 0 0 0 0 0 0 0 0 0 0 0 0 0 0 0 127 0"/>
<feOffset dy="5.3376"/>
<feGaussianBlur stdDeviation="1.48286"/>
<feColorMatrix type="matrix" values="0 0 0 0 0 0 0 0 0 0 0 0 0 0 0 0 0 0 0.0145288 0"/>
<feBlend mode="normal" in2="effect1_dropShadow" result="effect2_dropShadow"/>
<feColorMatrix in="SourceAlpha" type="matrix" values="0 0 0 0 0 0 0 0 0 0 0 0 0 0 0 0 0 0 127 0"/>
<feOffset dy="11.5388"/>
<feGaussianBlur stdDeviation="4.07344"/>
<feColorMatrix type="matrix" values="0 0 0 0 0 0 0 0 0 0 0 0 0 0 0 0 0 0 0.0227847 0"/>
<feBlend mode="normal" in2="effect2_dropShadow" result="effect3_dropShadow"/>
<feColorMatrix in="SourceAlpha" type="matrix" values="0 0 0 0 0 0 0 0 0 0 0 0 0 0 0 0 0 0 127 0"/>
<feOffset dy="23.2406"/>
<feGaussianBlur stdDeviation="9.39548"/>
<feColorMatrix type="matrix" values="0 0 0 0 0 0 0 0 0 0 0 0 0 0 0 0 0 0 0.0325632 0"/>
<feBlend mode="normal" in2="effect3_dropShadow" result="effect4_dropShadow"/>
<feColorMatrix in="SourceAlpha" type="matrix" values="0 0 0 0 0 0 0 0 0 0 0 0 0 0 0 0 0 0 127 0"/>
<feOffset dy="49.9794"/>
<feGaussianBlur stdDeviation="21.5847"/>
<feColorMatrix type="matrix" values="0 0 0 0 0 0 0 0 0 0 0 0 0 0 0 0 0 0 0.0453408 0"/>
<feBlend mode="normal" in2="effect4_dropShadow" result="effect5_dropShadow"/>
<feColorMatrix in="SourceAlpha" type="matrix" values="0 0 0 0 0 0 0 0 0 0 0 0 0 0 0 0 0 0 127 0"/>
<feOffset dy="154"/>
<feGaussianBlur stdDeviation="63"/>
<feColorMatrix type="matrix" values="0 0 0 0 0 0 0 0 0 0 0 0 0 0 0 0 0 0 0.07 0"/>
<feBlend mode="normal" in2="effect5_dropShadow" result="effect6_dropShadow"/>
<feBlend mode="normal" in="SourceGraphic" in2="effect6_dropShadow" result="shape"/>
</filter>
<filter id="filter3_dddddd" x="16.5" y="301" width="330" height="312" filterUnits="userSpaceOnUse" color-interpolation-filters="sRGB">
<feFlood flood-opacity="0" result="BackgroundImageFix"/>
<feColorMatrix in="SourceAlpha" type="matrix" values="0 0 0 0 0 0 0 0 0 0 0 0 0 0 0 0 0 0 127 0"/>
<feOffset dy="1.87513"/>
<feGaussianBlur stdDeviation="0.314877"/>
<feColorMatrix type="matrix" values="0 0 0 0 0 0 0 0 0 0 0 0 0 0 0 0 0 0 0.01 0"/>
<feBlend mode="normal" in2="BackgroundImageFix" result="effect1_dropShadow"/>
<feColorMatrix in="SourceAlpha" type="matrix" values="0 0 0 0 0 0 0 0 0 0 0 0 0 0 0 0 0 0 127 0"/>
<feOffset dy="5.3376"/>
<feGaussianBlur stdDeviation="1.48286"/>
<feColorMatrix type="matrix" values="0 0 0 0 0 0 0 0 0 0 0 0 0 0 0 0 0 0 0.0145288 0"/>
<feBlend mode="normal" in2="effect1_dropShadow" result="effect2_dropShadow"/>
<feColorMatrix in="SourceAlpha" type="matrix" values="0 0 0 0 0 0 0 0 0 0 0 0 0 0 0 0 0 0 127 0"/>
<feOffset dy="11.5388"/>
<feGaussianBlur stdDeviation="4.07344"/>
<feColorMatrix type="matrix" values="0 0 0 0 0 0 0 0 0 0 0 0 0 0 0 0 0 0 0.0227847 0"/>
<feBlend mode="normal" in2="effect2_dropShadow" result="effect3_dropShadow"/>
<feColorMatrix in="SourceAlpha" type="matrix" values="0 0 0 0 0 0 0 0 0 0 0 0 0 0 0 0 0 0 127 0"/>
<feOffset dy="23.2406"/>
<feGaussianBlur stdDeviation="9.39548"/>
<feColorMatrix type="matrix" values="0 0 0 0 0 0 0 0 0 0 0 0 0 0 0 0 0 0 0.0325632 0"/>
<feBlend mode="normal" in2="effect3_dropShadow" result="effect4_dropShadow"/>
<feColorMatrix in="SourceAlpha" type="matrix" values="0 0 0 0 0 0 0 0 0 0 0 0 0 0 0 0 0 0 127 0"/>
<feOffset dy="49.9794"/>
<feGaussianBlur stdDeviation="21.5847"/>
<feColorMatrix type="matrix" values="0 0 0 0 0 0 0 0 0 0 0 0 0 0 0 0 0 0 0.0453408 0"/>
<feBlend mode="normal" in2="effect4_dropShadow" result="effect5_dropShadow"/>
<feColorMatrix in="SourceAlpha" type="matrix" values="0 0 0 0 0 0 0 0 0 0 0 0 0 0 0 0 0 0 127 0"/>
<feOffset dy="154"/>
<feGaussianBlur stdDeviation="63"/>
<feColorMatrix type="matrix" values="0 0 0 0 0 0 0 0 0 0 0 0 0 0 0 0 0 0 0.07 0"/>
<feBlend mode="normal" in2="effect5_dropShadow" result="effect6_dropShadow"/>
<feBlend mode="normal" in="SourceGraphic" in2="effect6_dropShadow" result="shape"/>
</filter>
</defs>
</svg>
