<svg width="433" height="425" viewBox="0 0 433 425" fill="none" xmlns="http://www.w3.org/2000/svg">
<g opacity="0.5" filter="url(#filter0_f)">
<rect width="88" height="88" transform="matrix(0.866025 0.5 -0.866025 0.5 173.711 229)" fill="#8C8C8C"/>
</g>
<g opacity="0.5" filter="url(#filter1_f)">
<rect width="88" height="88" transform="matrix(0.866025 0.5 -0.866025 0.5 173.711 229)" fill="#8C8C8C"/>
</g>
<rect width="88" height="88" transform="matrix(0.866025 0.5 -2.20305e-08 1 97.5 185)" fill="#F2F2F2"/>
<rect width="88" height="88" transform="matrix(-0.866025 0.5 2.20305e-08 1 249.711 185)" fill="#E8E8E8"/>
<rect width="88" height="88" transform="matrix(0.866025 0.5 -0.866025 0.5 173.711 141)" fill="white"/>
<rect width="88" height="88" transform="matrix(0.866025 0.5 -2.20305e-08 1 97.5 95)" fill="#F2F2F2"/>
<rect width="88" height="88" transform="matrix(-0.866025 0.5 2.20305e-08 1 249.711 95)" fill="#E8E8E8"/>
<rect width="88" height="88" transform="matrix(0.866025 0.5 -0.866025 0.5 173.711 51)" fill="white"/>
<g opacity="0.5" filter="url(#filter2_f)">
<rect width="88" height="88" transform="matrix(0.866025 0.5 -0.866025 0.5 96.7109 273)" fill="#8C8C8C"/>
</g>
<g opacity="0.5" filter="url(#filter3_f)">
<rect width="88" height="88" transform="matrix(0.866025 0.5 -0.866025 0.5 96.7109 273)" fill="#8C8C8C"/>
</g>
<rect width="88" height="88" transform="matrix(0.866025 0.5 -2.20305e-08 1 20.5 229)" fill="#F2F2F2"/>
<rect width="88" height="88" transform="matrix(-0.866025 0.5 2.20305e-08 1 172.711 229)" fill="#E8E8E8"/>
<rect width="88" height="88" transform="matrix(0.866025 0.5 -0.866025 0.5 96.7109 185)" fill="white"/>
<rect width="88" height="88" transform="matrix(0.866025 0.5 -2.20305e-08 1 20.5 140)" fill="#F2F2F2"/>
<rect width="88" height="88" transform="matrix(-0.866025 0.5 2.20305e-08 1 172.711 140)" fill="#E8E8E8"/>
<rect width="88" height="88" transform="matrix(0.866025 0.5 -0.866025 0.5 96.7109 96)" fill="white"/>
<g opacity="0.5" filter="url(#filter4_f)">
<rect width="88" height="88" transform="matrix(0.866025 0.5 -0.866025 0.5 250.711 273)" fill="#8C8C8C"/>
</g>
<g opacity="0.5" filter="url(#filter5_f)">
<rect width="88" height="88" transform="matrix(0.866025 0.5 -0.866025 0.5 250.711 273)" fill="#8C8C8C"/>
</g>
<rect width="88" height="88" transform="matrix(0.866025 0.5 -2.20305e-08 1 174.5 229)" fill="#F2F2F2"/>
<rect width="88" height="88" transform="matrix(-0.866025 0.5 2.20305e-08 1 326.711 229)" fill="#E8E8E8"/>
<rect width="88" height="88" transform="matrix(0.866025 0.5 -0.866025 0.5 250.711 185)" fill="white"/>
<rect width="88" height="88" transform="matrix(0.5 0.866025 -0.5 0.866025 278.5 38.1055)" fill="#F2F2F2"/>
<rect width="88" height="88" transform="matrix(-1 0 -0.5 0.866025 410.32 114.211)" fill="#E8E8E8"/>
<rect width="88" height="88" transform="matrix(0.5 0.866025 -1 2.18168e-08 366.5 38.1055)" fill="white"/>
<g opacity="0.5" filter="url(#filter6_f)">
<rect width="88" height="88" transform="matrix(0.866025 0.5 -0.866025 0.5 173.711 317)" fill="#8C8C8C"/>
</g>
<g opacity="0.5" filter="url(#filter7_f)">
<rect width="88" height="88" transform="matrix(0.866025 0.5 -0.866025 0.5 173.711 317)" fill="#8C8C8C"/>
</g>
<rect width="88" height="88" transform="matrix(0.866025 0.5 -2.20305e-08 1 97.5 274)" fill="#F2F2F2"/>
<rect width="88" height="88" transform="matrix(-0.866025 0.5 2.20305e-08 1 249.711 274)" fill="#E8E8E8"/>
<rect width="88" height="88" transform="matrix(0.866025 0.5 -0.866025 0.5 173.711 230)" fill="white"/>
<rect width="88" height="88" transform="matrix(0.866025 0.5 -2.20305e-08 1 97.5 185)" fill="#F2F2F2"/>
<rect width="88" height="88" transform="matrix(-0.866025 0.5 2.20305e-08 1 249.711 185)" fill="#E8E8E8"/>
<rect width="88" height="88" transform="matrix(0.866025 0.5 -0.866025 0.5 173.711 141)" fill="white"/>
<path d="M163.729 84.353L161.593 85.586L157.135 83.012L154.828 84.344L158.164 86.27L156.09 87.467L152.754 85.541L148.327 88.097L145.662 86.558L156.605 80.24L163.729 84.353ZM167.049 93.7219C166.799 93.8659 166.524 94.0069 166.223 94.1449L160.19 90.6619C159.691 90.9979 159.447 91.3369 159.457 91.6789C159.488 92.0209 159.727 92.3209 160.174 92.5789C160.839 92.9629 161.582 93.0679 162.403 92.8939L165.24 94.5319C164.523 94.7779 163.744 94.9219 162.902 94.9639C162.071 95.0119 161.239 94.9459 160.408 94.7659C159.577 94.5859 158.808 94.2919 158.101 93.8839C157.249 93.3919 156.672 92.8489 156.371 92.2549C156.069 91.6609 156.069 91.0609 156.371 90.4549C156.672 89.8489 157.275 89.2849 158.179 88.7629C159.083 88.2409 160.055 87.8899 161.094 87.7099C162.144 87.5359 163.183 87.5359 164.212 87.7099C165.24 87.8839 166.186 88.2199 167.049 88.7179C167.891 89.2039 168.462 89.7379 168.763 90.3199C169.065 90.9019 169.07 91.4869 168.779 92.0749C168.498 92.6689 167.922 93.2179 167.049 93.7219ZM165.022 91.7419C165.48 91.4779 165.687 91.1779 165.646 90.8419C165.604 90.5059 165.35 90.2029 164.882 89.9329C164.435 89.6749 163.926 89.5309 163.354 89.5009C162.793 89.4769 162.237 89.5819 161.686 89.8159L165.022 91.7419ZM176.828 99.3678C176.578 99.5118 176.303 99.6528 176.002 99.7908L169.969 96.3078C169.47 96.6438 169.226 96.9828 169.236 97.3248C169.267 97.6668 169.506 97.9668 169.953 98.2248C170.618 98.6088 171.361 98.7138 172.182 98.5398L175.019 100.178C174.302 100.424 173.523 100.568 172.681 100.61C171.85 100.658 171.018 100.592 170.187 100.412C169.356 100.232 168.587 99.9378 167.88 99.5298C167.028 99.0378 166.451 98.4948 166.15 97.9008C165.848 97.3068 165.848 96.7068 166.15 96.1008C166.451 95.4948 167.054 94.9308 167.958 94.4088C168.862 93.8868 169.834 93.5358 170.873 93.3558C171.923 93.1818 172.962 93.1818 173.991 93.3558C175.019 93.5298 175.965 93.8658 176.828 94.3638C177.67 94.8498 178.241 95.3838 178.542 95.9658C178.844 96.5478 178.849 97.1328 178.558 97.7208C178.277 98.3148 177.701 98.8638 176.828 99.3678ZM174.801 97.3878C175.258 97.1238 175.466 96.8238 175.425 96.4878C175.383 96.1518 175.129 95.8488 174.661 95.5788C174.214 95.3208 173.705 95.1768 173.133 95.1468C172.572 95.1228 172.016 95.2278 171.465 95.4618L174.801 97.3878ZM194.199 104.123L189.335 101.315L187.184 102.557C187.62 102.545 188.098 102.605 188.618 102.737C189.138 102.869 189.616 103.061 190.052 103.313C190.832 103.763 191.299 104.237 191.455 104.735C191.621 105.239 191.543 105.722 191.221 106.184C190.899 106.646 190.411 107.066 189.756 107.444C188.54 108.146 187.231 108.506 185.828 108.524C184.435 108.536 183.115 108.182 181.868 107.462C181.037 106.982 180.455 106.484 180.122 105.968C179.8 105.446 179.727 104.942 179.904 104.456C180.081 103.97 180.486 103.526 181.12 103.124L183.723 104.627C183.463 104.849 183.344 105.092 183.365 105.356C183.396 105.614 183.619 105.863 184.035 106.103C184.523 106.385 185.043 106.505 185.594 106.463C186.145 106.421 186.68 106.25 187.199 105.95C187.709 105.656 187.974 105.359 187.994 105.059C188.015 104.759 187.787 104.471 187.309 104.195C186.955 103.991 186.576 103.874 186.171 103.844C185.776 103.808 185.402 103.85 185.048 103.97L182.476 102.485L189.257 98.5699L196.537 102.773L194.199 104.123ZM195.734 105.639C196.576 105.153 197.464 104.916 198.4 104.928C199.346 104.946 200.203 105.177 200.972 105.621C201.741 106.065 202.136 106.557 202.157 107.097C202.177 107.637 201.767 108.15 200.925 108.636C200.083 109.122 199.195 109.359 198.26 109.347C197.324 109.335 196.472 109.107 195.703 108.663C194.934 108.219 194.534 107.724 194.503 107.178C194.482 106.638 194.892 106.125 195.734 105.639ZM208.782 110.328L191.806 113.199L189.234 111.714L206.21 108.843L208.782 110.328ZM199.397 106.512C198.899 106.224 198.291 106.287 197.574 106.701C196.867 107.109 196.763 107.457 197.262 107.745C197.501 107.883 197.776 107.94 198.088 107.916C198.4 107.892 198.732 107.778 199.086 107.574C199.803 107.16 199.907 106.806 199.397 106.512ZM197.106 113.415C197.948 112.929 198.836 112.692 199.772 112.704C200.707 112.716 201.559 112.944 202.328 113.388C203.097 113.832 203.492 114.324 203.513 114.864C203.534 115.404 203.123 115.917 202.281 116.403C201.44 116.889 200.551 117.126 199.616 117.114C198.68 117.102 197.828 116.874 197.059 116.43C196.29 115.986 195.895 115.494 195.874 114.954C195.854 114.414 196.264 113.901 197.106 113.415ZM200.754 114.279C200.515 114.141 200.239 114.084 199.927 114.108C199.626 114.138 199.294 114.258 198.93 114.468C198.223 114.876 198.119 115.224 198.618 115.512C198.857 115.65 199.132 115.707 199.444 115.683C199.756 115.659 200.089 115.545 200.442 115.341C200.795 115.137 200.993 114.945 201.034 114.765C201.086 114.579 200.993 114.417 200.754 114.279Z" fill="#129590"/>
<path d="M328.317 53.6079C328.845 53.9613 329.088 54.1224 329.046 54.0912C330.606 55.1096 331.866 55.9098 332.826 56.4918C333.792 57.0842 334.734 57.583 335.652 57.9883C336.57 58.3936 337.353 58.5963 338.001 58.5963C338.493 58.5963 338.82 58.4975 338.982 58.3001C339.144 58.1026 339.111 57.8064 338.883 57.4115C338.655 57.0166 338.301 56.7049 337.821 56.4762C337.359 56.258 336.816 56.1489 336.192 56.1489L334.707 53.5768C335.739 53.5976 336.699 53.7846 337.587 54.138C338.481 54.5017 339.258 54.9745 339.918 55.5565C340.584 56.1489 341.124 56.8036 341.538 57.5207C342.252 58.7573 342.423 59.6874 342.051 60.311C341.685 60.9449 340.914 61.2619 339.738 61.2619C338.454 61.2619 337.041 60.8826 335.499 60.1239C333.969 59.3653 332.343 58.3988 330.621 57.2245L333.051 61.4334L330.549 61.4334L326.031 53.6079L328.317 53.6079ZM346.231 70.7927L343.423 65.9291L340.939 65.9291C341.323 66.1369 341.707 66.4279 342.091 66.802C342.475 67.1761 342.793 67.5814 343.045 68.0179C343.495 68.7973 343.663 69.4417 343.549 69.9509C343.441 70.4705 343.132 70.8498 342.622 71.0888C342.112 71.3279 341.479 71.4474 340.723 71.4474C339.319 71.4474 338.005 71.1044 336.781 70.4185C335.569 69.7327 334.603 68.7662 333.883 67.5191C333.403 66.6877 333.148 65.9654 333.118 65.3523C333.1 64.7392 333.289 64.2663 333.685 63.9337C334.081 63.6012 334.654 63.4193 335.404 63.3882L336.907 65.9914C336.571 66.0538 336.346 66.2045 336.232 66.4435C336.13 66.6825 336.199 67.0099 336.439 67.4256C336.721 67.914 337.111 68.2777 337.609 68.5168C338.107 68.7558 338.656 68.8753 339.256 68.8753C339.844 68.8753 340.222 68.7506 340.39 68.5012C340.558 68.2517 340.504 67.888 340.228 67.41C340.024 67.0566 339.754 66.7656 339.418 66.537C339.094 66.3084 338.749 66.1577 338.383 66.085L336.898 63.5129L344.728 63.5129L348.931 70.7927L346.231 70.7927ZM343.85 73.092C345.914 73.092 347.738 73.4349 349.322 74.1208C350.912 74.8171 352.151 75.9343 353.039 77.4723C353.927 79.0104 353.975 80.1224 353.183 80.8083C352.397 81.5046 350.972 81.8527 348.908 81.8527C346.82 81.8527 344.981 81.5046 343.391 80.8083C341.807 80.1224 340.571 79.0104 339.683 77.4723C338.795 75.9343 338.744 74.8171 339.53 74.1208C340.322 73.4349 341.762 73.092 343.85 73.092ZM347.396 79.2338C348.608 79.2338 349.472 79.1195 349.988 78.8909C350.516 78.6623 350.573 78.1894 350.159 77.4723C349.745 76.7553 349.142 76.2824 348.35 76.0538C347.57 75.8252 346.574 75.7109 345.362 75.7109C344.546 75.7109 343.892 75.7524 343.4 75.8356C342.92 75.9187 342.584 76.085 342.392 76.3344C342.218 76.5942 342.275 76.9735 342.563 77.4723C342.851 77.9712 343.229 78.3453 343.697 78.5947C344.183 78.8545 344.714 79.026 345.29 79.1091C345.878 79.1923 346.58 79.2338 347.396 79.2338ZM349.821 83.4342C351.885 83.4342 353.709 83.7772 355.293 84.4631C356.883 85.1594 358.122 86.2765 359.01 87.8146C359.898 89.3526 359.946 90.4646 359.154 91.1505C358.368 91.8468 356.943 92.1949 354.879 92.1949C352.791 92.1949 350.952 91.8468 349.362 91.1505C347.778 90.4646 346.542 89.3526 345.654 87.8146C344.766 86.2765 344.715 85.1594 345.501 84.4631C346.293 83.7772 347.733 83.4342 349.821 83.4342ZM353.367 89.5761C354.579 89.5761 355.443 89.4618 355.959 89.2331C356.487 89.0045 356.544 88.5317 356.13 87.8146C355.716 87.0975 355.113 86.6247 354.321 86.396C353.541 86.1674 352.545 86.0531 351.333 86.0531C350.517 86.0531 349.863 86.0947 349.371 86.1778C348.891 86.2609 348.555 86.4272 348.363 86.6766C348.189 86.9364 348.246 87.3158 348.534 87.8146C348.822 88.3134 349.2 88.6875 349.668 88.937C350.154 89.1968 350.685 89.3682 351.261 89.4514C351.849 89.5345 352.551 89.5761 353.367 89.5761ZM357.646 102.319C356.986 102.319 356.287 102.168 355.549 101.867C354.829 101.576 354.121 101.139 353.425 100.557C352.747 99.9859 352.162 99.3052 351.67 98.5154L350.212 98.5154L349.636 97.5177L351.112 97.5177C350.584 96.4161 350.449 95.5276 350.707 94.8521C350.977 94.1766 351.664 93.818 352.768 93.7765L354.406 96.6136C353.722 96.6759 353.434 96.9773 353.542 97.5177L356.386 97.5177C356.158 96.7071 356.017 96.0576 355.963 95.5691C355.915 95.0911 356.038 94.6702 356.332 94.3065C356.626 93.9427 357.211 93.7609 358.087 93.7609C359.179 93.7609 360.256 94.109 361.318 94.8053C362.386 95.512 363.28 96.4161 364 97.5177L365.458 97.5177L366.034 98.5154L364.576 98.5154C365.11 99.6065 365.242 100.469 364.972 101.103C364.702 101.737 364.024 102.09 362.938 102.163L361.291 99.3104C361.903 99.248 362.17 98.983 362.092 98.5154L359.302 98.5154C359.524 99.3779 359.662 100.043 359.716 100.511C359.77 100.978 359.65 101.394 359.356 101.758C359.08 102.132 358.51 102.319 357.646 102.319ZM359.86 96.5824C359.56 96.5824 359.353 96.6603 359.239 96.8162C359.131 96.9825 359.086 97.2163 359.104 97.5177L361.606 97.5177C361.378 97.2267 361.114 96.9981 360.814 96.8318C360.526 96.6655 360.208 96.5824 359.86 96.5824ZM354.064 98.5154C354.304 98.8271 354.589 99.0713 354.919 99.248C355.255 99.4351 355.591 99.5286 355.927 99.5286C356.239 99.5286 356.44 99.4403 356.53 99.2636C356.638 99.0973 356.668 98.8479 356.62 98.5154L354.064 98.5154Z" fill="#129590"/>
<path d="M74.3791 130.907C73.5789 130.445 72.9918 129.956 72.6176 129.44C72.2435 128.924 72.1188 128.408 72.2435 127.892C72.3786 127.382 72.7943 126.914 73.4906 126.488L76.3277 128.126C75.964 128.384 75.7925 128.645 75.8133 128.909C75.8445 129.167 76.0523 129.407 76.4368 129.629C76.8317 129.857 77.2318 129.986 77.6371 130.016C78.0528 130.04 78.4217 129.959 78.7439 129.773C79.0141 129.617 79.144 129.434 79.1336 129.224C79.1336 129.02 79.0557 128.807 78.8998 128.585C78.7543 128.369 78.5101 128.078 78.1671 127.712C77.6787 127.178 77.3202 126.719 77.0915 126.335C76.8629 125.951 76.8005 125.543 76.9045 125.111C77.0084 124.679 77.4033 124.265 78.0892 123.869C79.1076 123.281 80.2716 123.035 81.581 123.131C82.9008 123.221 84.1531 123.608 85.3378 124.292C86.5433 124.988 87.224 125.717 87.3799 126.479C87.5462 127.235 87.1409 127.925 86.164 128.549L83.2801 126.884C83.6127 126.668 83.7582 126.434 83.7166 126.182C83.6854 125.924 83.4828 125.687 83.1087 125.471C82.7865 125.285 82.4384 125.186 82.0642 125.174C81.7005 125.156 81.3576 125.24 81.0354 125.426C80.6821 125.63 80.573 125.885 80.7081 126.191C80.8432 126.497 81.1497 126.92 81.6278 127.46C82.0954 128.006 82.4384 128.468 82.6566 128.846C82.8852 129.23 82.9528 129.635 82.8593 130.061C82.7657 130.487 82.3916 130.889 81.7369 131.267C81.1134 131.627 80.3859 131.861 79.5545 131.969C78.7335 132.083 77.871 132.053 76.9668 131.879C76.0627 131.705 75.2001 131.381 74.3791 130.907ZM92.9816 136.337C92.7321 136.481 92.4567 136.622 92.1554 136.76L86.1226 133.277C85.6238 133.613 85.3796 133.952 85.39 134.294C85.4212 134.636 85.6602 134.936 86.107 135.194C86.7722 135.578 87.5152 135.683 88.3362 135.509L91.1733 137.147C90.4562 137.393 89.6768 137.537 88.835 137.579C88.0036 137.627 87.1723 137.561 86.3409 137.381C85.5095 137.201 84.7405 136.907 84.0338 136.499C83.1816 136.007 82.6048 135.464 82.3035 134.87C82.0021 134.276 82.0021 133.676 82.3035 133.07C82.6048 132.464 83.2076 131.9 84.1117 131.378C85.0159 130.856 85.9875 130.505 87.0268 130.325C88.0764 130.151 89.1156 130.151 90.1445 130.325C91.1733 130.499 92.119 130.835 92.9816 131.333C93.8233 131.819 94.3949 132.353 94.6963 132.935C94.9977 133.517 95.0029 134.102 94.7119 134.69C94.4313 135.284 93.8545 135.833 92.9816 136.337ZM90.9551 134.357C91.4123 134.093 91.6202 133.793 91.5786 133.457C91.537 133.121 91.2824 132.818 90.8148 132.548C90.3679 132.29 89.8587 132.146 89.2871 132.116C88.7259 132.092 88.1699 132.197 87.6191 132.431L90.9551 134.357ZM97.1799 141.335L94.9195 142.64L93.5633 141.857C92.5969 141.299 92.0772 140.729 92.0045 140.147C91.9421 139.559 92.4462 138.956 93.5166 138.338L96.9772 136.34L95.9172 135.728L98.1308 134.45L99.1908 135.062L101.311 133.838L103.976 135.377L101.856 136.601L103.602 137.609L101.389 138.887L99.6428 137.879L96.151 139.895C95.8912 140.045 95.7665 140.189 95.7769 140.327C95.7873 140.465 95.938 140.618 96.229 140.786L97.1799 141.335ZM113.865 143.534L105.167 148.556L102.501 147.017L103.686 146.333C103.031 146.399 102.35 146.366 101.644 146.234C100.958 146.102 100.334 145.874 99.7732 145.55C99.1081 145.166 98.6664 144.743 98.4482 144.281C98.2403 143.813 98.2767 143.336 98.5573 142.85C98.8379 142.364 99.3575 141.902 100.116 141.464L105.198 138.53L107.848 140.06L103.125 142.787C102.543 143.123 102.241 143.471 102.221 143.831C102.2 144.191 102.444 144.518 102.953 144.812C103.473 145.112 104.044 145.256 104.668 145.244C105.291 145.232 105.894 145.058 106.476 144.722L111.2 141.995L113.865 143.534ZM117.387 146.99C118.052 146.906 118.738 146.924 119.445 147.044C120.152 147.164 120.811 147.401 121.425 147.755C122.142 148.169 122.609 148.649 122.828 149.195C123.046 149.741 122.983 150.305 122.64 150.887C122.308 151.475 121.695 152.027 120.801 152.543C119.907 153.059 118.946 153.416 117.917 153.614C116.909 153.812 115.927 153.851 114.971 153.731C114.025 153.605 113.194 153.335 112.477 152.921C111.874 152.573 111.464 152.192 111.245 151.778C111.037 151.37 111.001 150.977 111.136 150.599L105.774 153.695L103.108 152.156L115.953 144.74L118.619 146.279L117.387 146.99ZM118.089 150.977C118.754 150.593 119.086 150.185 119.086 149.753C119.107 149.321 118.847 148.949 118.307 148.637C117.777 148.331 117.133 148.181 116.374 148.187C115.626 148.199 114.919 148.397 114.254 148.781C113.589 149.165 113.246 149.573 113.225 150.005C113.215 150.443 113.474 150.815 114.004 151.121C114.535 151.427 115.179 151.577 115.937 151.571C116.706 151.559 117.424 151.361 118.089 150.977Z" fill="#129590"/>
<path d="M155.81 173.63L153.597 174.908L146.738 170.948L148.951 169.67L155.81 173.63ZM168.549 178.123L163.685 175.315L161.534 176.557C161.971 176.545 162.449 176.605 162.968 176.737C163.488 176.869 163.966 177.061 164.402 177.313C165.182 177.763 165.649 178.237 165.805 178.735C165.972 179.239 165.894 179.722 165.571 180.184C165.249 180.646 164.761 181.066 164.106 181.444C162.89 182.146 161.581 182.506 160.178 182.524C158.785 182.536 157.465 182.182 156.218 181.462C155.387 180.982 154.805 180.484 154.472 179.968C154.15 179.446 154.078 178.942 154.254 178.456C154.431 177.97 154.836 177.526 155.47 177.124L158.073 178.627C157.814 178.849 157.694 179.092 157.715 179.356C157.746 179.614 157.97 179.863 158.385 180.103C158.874 180.385 159.393 180.505 159.944 180.463C160.495 180.421 161.03 180.25 161.55 179.95C162.059 179.656 162.324 179.359 162.345 179.059C162.365 178.759 162.137 178.471 161.659 178.195C161.305 177.991 160.926 177.874 160.521 177.844C160.126 177.808 159.752 177.85 159.398 177.97L156.826 176.485L163.607 172.57L170.887 176.773L168.549 178.123ZM167.637 181.304C169.424 180.272 171.176 179.657 172.89 179.459C174.615 179.267 176.247 179.615 177.785 180.503C179.323 181.391 179.921 182.33 179.578 183.32C179.245 184.316 178.185 185.33 176.398 186.362C174.589 187.406 172.823 188.024 171.098 188.216C169.383 188.414 167.756 188.069 166.218 187.181C164.68 186.293 164.078 185.351 164.41 184.355C164.753 183.365 165.829 182.348 167.637 181.304ZM173.779 184.85C174.828 184.244 175.52 183.713 175.852 183.257C176.195 182.795 176.008 182.357 175.291 181.943C174.574 181.529 173.815 181.421 173.015 181.619C172.225 181.811 171.305 182.21 170.256 182.816C169.549 183.224 169.004 183.587 168.619 183.905C168.245 184.217 168.037 184.529 167.996 184.841C167.975 185.153 168.214 185.453 168.713 185.741C169.211 186.029 169.726 186.164 170.256 186.146C170.807 186.128 171.352 186.011 171.893 185.795C172.443 185.573 173.072 185.258 173.779 184.85ZM177.979 187.275C179.767 186.243 181.518 185.628 183.233 185.43C184.958 185.238 186.589 185.586 188.127 186.474C189.665 187.362 190.263 188.301 189.92 189.291C189.587 190.287 188.527 191.301 186.74 192.333C184.932 193.377 183.165 193.995 181.44 194.187C179.725 194.385 178.099 194.04 176.561 193.152C175.023 192.264 174.42 191.322 174.752 190.326C175.095 189.336 176.171 188.319 177.979 187.275ZM184.121 190.821C185.171 190.215 185.862 189.684 186.194 189.228C186.537 188.766 186.35 188.328 185.633 187.914C184.916 187.5 184.157 187.392 183.357 187.59C182.567 187.782 181.648 188.181 180.598 188.787C179.891 189.195 179.346 189.558 178.961 189.876C178.587 190.188 178.379 190.5 178.338 190.812C178.317 191.124 178.556 191.424 179.055 191.712C179.554 192 180.068 192.135 180.598 192.117C181.149 192.099 181.694 191.982 182.235 191.766C182.786 191.544 183.414 191.229 184.121 190.821ZM194.198 199.717C193.627 200.047 192.946 200.266 192.156 200.374C191.387 200.482 190.556 200.458 189.662 200.302C188.789 200.146 187.942 199.849 187.121 199.411L185.858 200.14L184.861 199.564L186.139 198.826C185.131 198.136 184.57 197.434 184.456 196.72C184.352 196 184.767 195.346 185.703 194.758L188.54 196.396C187.979 196.792 187.88 197.197 188.244 197.611L190.706 196.189C190.104 195.601 189.657 195.109 189.366 194.713C189.085 194.323 188.981 193.897 189.054 193.435C189.127 192.973 189.543 192.523 190.301 192.085C191.247 191.539 192.354 191.302 193.622 191.374C194.9 191.452 196.126 191.788 197.3 192.382L198.563 191.653L199.561 192.229L198.298 192.958C199.306 193.636 199.852 194.317 199.935 195.001C200.018 195.685 199.607 196.33 198.703 196.936L195.851 195.289C196.35 194.929 196.448 194.566 196.147 194.2L193.731 195.595C194.354 196.231 194.806 196.738 195.087 197.116C195.367 197.494 195.471 197.914 195.399 198.376C195.347 198.838 194.947 199.285 194.198 199.717ZM193.247 193.642C192.988 193.792 192.847 193.963 192.827 194.155C192.816 194.353 192.894 194.578 193.06 194.83L195.227 193.579C194.884 193.441 194.541 193.375 194.198 193.381C193.866 193.381 193.549 193.468 193.247 193.642ZM189.194 198.214C189.558 198.364 189.927 198.433 190.301 198.421C190.686 198.415 191.023 198.328 191.314 198.16C191.585 198.004 191.715 197.827 191.704 197.629C191.715 197.431 191.616 197.2 191.408 196.936L189.194 198.214Z" fill="#129590"/>
<path d="M47.9443 199.394L47.9443 212.03L45.2786 210.491L45.2786 205.289L41.1321 202.895L41.1321 208.097L38.4665 206.558L38.4665 193.922L41.1321 195.461L41.1321 200.411L45.2786 202.805L45.2786 197.855L47.9443 199.394ZM54.0013 215.671C53.1491 215.179 52.3801 214.525 51.6942 213.709C51.0187 212.899 50.4835 211.99 50.0886 210.982C49.704 209.98 49.5118 208.957 49.5118 207.913C49.5118 206.881 49.7092 206.089 50.1041 205.537C50.4991 204.973 51.0395 204.679 51.7253 204.655C52.4112 204.631 53.1803 204.865 54.0324 205.357C54.8846 205.849 55.6536 206.503 56.3395 207.319C57.0254 208.135 57.5658 209.053 57.9607 210.073C58.3556 211.081 58.5531 212.101 58.5531 213.133C58.5531 214.165 58.3504 214.96 57.9451 215.518C57.5502 216.07 57.0046 216.355 56.3084 216.373C55.6225 216.397 54.8534 216.163 54.0013 215.671ZM54.0013 213.007C54.5105 213.301 54.9418 213.334 55.2951 213.106C55.6588 212.884 55.8407 212.371 55.8407 211.567C55.8407 210.763 55.664 210.043 55.3107 209.407C54.9677 208.777 54.5417 208.315 54.0324 208.021C53.5128 207.721 53.0815 207.688 52.7386 207.922C52.3956 208.144 52.2242 208.663 52.2242 209.479C52.2242 210.283 52.3905 210.997 52.723 211.621C53.066 212.251 53.492 212.713 54.0013 213.007ZM62.8061 207.29L62.8061 220.61L60.1405 219.071L60.1405 205.751L62.8061 207.29ZM64.381 216.48C64.381 215.448 64.5473 214.638 64.8799 214.05C65.2228 213.468 65.6853 213.135 66.2672 213.051C66.8492 212.967 67.4987 213.132 68.2158 213.546C68.7874 213.876 69.307 214.314 69.7746 214.86C70.2527 215.412 70.6268 216 70.897 216.624L70.897 211.962L73.5626 213.501L73.5626 226.821L70.897 225.282L70.897 223.842C70.6476 224.178 70.2891 224.355 69.8214 224.373C69.3641 224.397 68.8289 224.232 68.2158 223.878C67.4987 223.464 66.8492 222.879 66.2672 222.123C65.6853 221.355 65.2228 220.482 64.8799 219.504C64.5473 218.52 64.381 217.512 64.381 216.48ZM70.897 220.26C70.897 219.492 70.7099 218.778 70.3358 218.118C69.9721 217.464 69.5252 216.984 68.9952 216.678C68.4652 216.372 68.0131 216.333 67.639 216.561C67.2753 216.783 67.0934 217.278 67.0934 218.046C67.0934 218.814 67.2753 219.531 67.639 220.197C68.0131 220.857 68.4652 221.34 68.9952 221.646C69.5252 221.952 69.9721 221.988 70.3358 221.754C70.7099 221.526 70.897 221.028 70.897 220.26Z" fill="#129590"/>
<path d="M117.17 241.832L117.17 244.388L110.311 240.428L110.311 237.872L117.17 241.832ZM119.324 248.206C119.677 248.086 119.838 248.029 119.807 248.035C120.825 247.651 121.626 247.315 122.208 247.027C122.8 246.745 123.299 246.379 123.704 245.929C124.109 245.479 124.312 244.93 124.312 244.282C124.312 243.79 124.213 243.349 124.016 242.959C123.818 242.569 123.522 242.26 123.127 242.032C122.732 241.804 122.421 241.798 122.192 242.014C121.974 242.224 121.865 242.641 121.865 243.265L119.293 241.78C119.313 240.772 119.5 240.028 119.854 239.548C120.217 239.074 120.69 238.843 121.272 238.855C121.865 238.873 122.519 239.089 123.236 239.503C124.473 240.217 125.403 241.12 126.027 242.212C126.661 243.31 126.978 244.447 126.978 245.623C126.978 246.907 126.598 247.882 125.84 248.548C125.081 249.202 124.115 249.712 122.94 250.078L127.149 252.508L127.149 255.01L119.324 250.492L119.324 248.206ZM136.508 250.135L131.645 247.327L131.645 249.811C131.853 249.667 132.144 249.619 132.518 249.667C132.892 249.715 133.297 249.865 133.734 250.117C134.513 250.567 135.157 251.143 135.667 251.845C136.186 252.553 136.566 253.3 136.805 254.086C137.044 254.872 137.163 255.643 137.163 256.399C137.163 257.803 136.82 258.721 136.134 259.153C135.448 259.573 134.482 259.423 133.235 258.703C132.403 258.223 131.681 257.644 131.068 256.966C130.455 256.276 129.982 255.541 129.649 254.761C129.317 253.981 129.135 253.198 129.104 252.412L131.707 253.915C131.77 254.323 131.92 254.722 132.159 255.112C132.398 255.49 132.726 255.799 133.141 256.039C133.63 256.321 133.993 256.351 134.232 256.129C134.472 255.907 134.591 255.496 134.591 254.896C134.591 254.308 134.466 253.786 134.217 253.33C133.967 252.874 133.604 252.508 133.126 252.232C132.772 252.028 132.481 251.962 132.253 252.034C132.024 252.094 131.873 252.265 131.801 252.547L129.229 251.062L129.229 243.232L136.508 247.435L136.508 250.135ZM138.808 255.171C138.808 253.107 139.151 251.679 139.837 250.887C140.533 250.101 141.65 250.152 143.188 251.04C144.726 251.928 145.838 253.164 146.524 254.748C147.22 256.338 147.568 258.165 147.568 260.229C147.568 262.317 147.22 263.754 146.524 264.54C145.838 265.332 144.726 265.284 143.188 264.396C141.65 263.508 140.533 262.269 139.837 260.679C139.151 259.095 138.808 257.259 138.808 255.171ZM144.95 258.717C144.95 257.505 144.835 256.509 144.607 255.729C144.378 254.937 143.905 254.334 143.188 253.92C142.471 253.506 141.998 253.563 141.77 254.091C141.541 254.607 141.427 255.471 141.427 256.683C141.427 257.499 141.468 258.201 141.551 258.789C141.634 259.365 141.801 259.893 142.05 260.373C142.31 260.847 142.689 261.228 143.188 261.516C143.687 261.804 144.061 261.858 144.31 261.678C144.57 261.492 144.742 261.159 144.825 260.679C144.908 260.187 144.95 259.533 144.95 258.717ZM157.692 269.152C157.692 269.812 157.542 270.337 157.24 270.727C156.949 271.111 156.513 271.315 155.931 271.339C155.359 271.357 154.679 271.156 153.889 270.736L153.889 272.194L152.891 271.618L152.891 270.142C151.79 269.398 150.901 268.507 150.226 267.469C149.55 266.419 149.192 265.318 149.15 264.166L151.987 265.804C152.049 266.56 152.351 267.196 152.891 267.712L152.891 264.868C152.081 264.16 151.431 263.551 150.943 263.041C150.465 262.537 150.044 261.928 149.68 261.214C149.316 260.5 149.134 259.705 149.134 258.829C149.134 257.737 149.483 257.062 150.179 256.804C150.885 256.552 151.79 256.702 152.891 257.254L152.891 255.796L153.889 256.372L153.889 257.83C154.98 258.556 155.843 259.42 156.477 260.422C157.11 261.424 157.464 262.51 157.537 263.68L154.684 262.033C154.622 261.349 154.357 260.776 153.889 260.314L153.889 263.104C154.751 263.878 155.417 264.508 155.884 264.994C156.352 265.48 156.768 266.08 157.131 266.794C157.505 267.502 157.692 268.288 157.692 269.152ZM151.956 260.314C151.956 260.614 152.034 260.911 152.19 261.205C152.356 261.505 152.59 261.82 152.891 262.15L152.891 259.648C152.6 259.54 152.372 259.54 152.205 259.648C152.039 259.744 151.956 259.966 151.956 260.314ZM153.889 268.342C154.201 268.462 154.445 268.459 154.622 268.333C154.809 268.213 154.902 267.985 154.902 267.649C154.902 267.337 154.814 267.034 154.637 266.74C154.471 266.44 154.221 266.122 153.889 265.786L153.889 268.342Z" fill="#129590"/>
<path d="M46.3387 284.467L46.3387 286.933L43.4392 285.259L43.4392 295.429L40.7736 293.89L40.7736 283.72L37.8741 282.046L37.8741 279.58L46.3387 284.467ZM51.8091 300.405C50.957 299.913 50.1879 299.259 49.502 298.443C48.8265 297.633 48.2913 296.724 47.8964 295.716C47.5119 294.714 47.3197 293.691 47.3197 292.647C47.3197 291.615 47.5171 290.823 47.912 290.271C48.3069 289.707 48.8473 289.413 49.5332 289.389C50.2191 289.365 50.9881 289.599 51.8403 290.091C52.6925 290.583 53.4615 291.237 54.1474 292.053C54.8333 292.869 55.3737 293.787 55.7686 294.807C56.1635 295.815 56.361 296.835 56.361 297.867C56.361 298.899 56.1583 299.694 55.753 300.252C55.3581 300.804 54.8125 301.089 54.1162 301.107C53.4303 301.131 52.6613 300.897 51.8091 300.405ZM51.8091 297.741C52.3184 298.035 52.7496 298.068 53.103 297.84C53.4667 297.618 53.6486 297.105 53.6486 296.301C53.6486 295.497 53.4719 294.777 53.1186 294.141C52.7756 293.511 52.3495 293.049 51.8403 292.755C51.3207 292.455 50.8894 292.422 50.5465 292.656C50.2035 292.878 50.0321 293.397 50.0321 294.213C50.0321 295.017 50.1983 295.731 50.5309 296.355C50.8738 296.985 51.2999 297.447 51.8091 297.741ZM62.7963 303.995L62.7963 306.605L61.4401 305.822C60.4737 305.264 59.7202 304.559 59.1798 303.707C58.6394 302.843 58.3692 301.793 58.3692 300.557L58.3692 296.561L57.3092 295.949L57.3092 293.393L58.3692 294.005L58.3692 291.557L61.0348 293.096L61.0348 295.544L62.7808 296.552L62.7808 299.108L61.0348 298.1L61.0348 302.132C61.0348 302.432 61.0972 302.684 61.2219 302.888C61.3466 303.092 61.5545 303.278 61.8454 303.446L62.7963 303.995ZM63.9243 302.216C63.9243 301.184 64.0906 300.374 64.4232 299.786C64.7661 299.204 65.2286 298.871 65.8105 298.787C66.3925 298.703 67.042 298.868 67.7591 299.282C68.3722 299.636 68.9075 300.089 69.3647 300.641C69.8324 301.199 70.1909 301.784 70.4403 302.396L70.4403 300.974L73.1059 302.513L73.1059 312.557L70.4403 311.018L70.4403 309.596C70.1805 309.914 69.8168 310.082 69.3491 310.1C68.8919 310.124 68.3567 309.959 67.7435 309.605C67.0368 309.197 66.3925 308.615 65.8105 307.859C65.2286 307.091 64.7661 306.218 64.4232 305.24C64.0906 304.256 63.9243 303.248 63.9243 302.216ZM70.4403 305.996C70.4403 305.228 70.2533 304.514 69.8791 303.854C69.5154 303.2 69.0685 302.72 68.5385 302.414C68.0085 302.108 67.5565 302.069 67.1823 302.297C66.8186 302.519 66.6367 303.014 66.6367 303.782C66.6367 304.55 66.8186 305.267 67.1823 305.933C67.5565 306.593 68.0085 307.076 68.5385 307.382C69.0685 307.688 69.5154 307.724 69.8791 307.49C70.2533 307.262 70.4403 306.764 70.4403 305.996ZM77.8732 301.989L77.8732 315.309L75.2076 313.77L75.2076 300.45L77.8732 301.989Z" fill="#129590"/>
<path d="M111.921 327.965L111.921 325.103L116.239 327.596L116.239 340.736L113.464 339.134L113.464 328.856L111.921 327.965ZM125.5 335.247L121.587 343.824L118.859 342.249L122.819 334.041L117.971 331.242L117.971 328.614L125.5 332.961L125.5 335.247ZM134.764 340.973L129.9 338.165L129.9 340.649C130.108 340.505 130.399 340.457 130.773 340.505C131.147 340.553 131.552 340.703 131.989 340.955C132.768 341.405 133.413 341.981 133.922 342.683C134.441 343.391 134.821 344.138 135.06 344.924C135.299 345.71 135.418 346.481 135.418 347.237C135.418 348.641 135.075 349.559 134.389 349.991C133.703 350.411 132.737 350.261 131.49 349.541C130.659 349.061 129.936 348.482 129.323 347.804C128.71 347.114 128.237 346.379 127.905 345.599C127.572 344.819 127.39 344.036 127.359 343.25L129.962 344.753C130.025 345.161 130.175 345.56 130.414 345.95C130.653 346.328 130.981 346.637 131.396 346.877C131.885 347.159 132.249 347.189 132.488 346.967C132.727 346.745 132.846 346.334 132.846 345.734C132.846 345.146 132.721 344.624 132.472 344.168C132.223 343.712 131.859 343.346 131.381 343.07C131.027 342.866 130.736 342.8 130.508 342.872C130.279 342.932 130.129 343.103 130.056 343.385L127.484 341.9L127.484 334.07L134.764 338.273L134.764 340.973ZM137.063 346.009C137.063 343.945 137.406 342.517 138.092 341.725C138.788 340.939 139.905 340.99 141.443 341.878C142.981 342.766 144.093 344.002 144.779 345.586C145.475 347.176 145.824 349.003 145.824 351.067C145.824 353.155 145.475 354.592 144.779 355.378C144.093 356.17 142.981 356.122 141.443 355.234C139.905 354.346 138.788 353.107 138.092 351.517C137.406 349.933 137.063 348.097 137.063 346.009ZM143.205 349.555C143.205 348.343 143.09 347.347 142.862 346.567C142.633 345.775 142.16 345.172 141.443 344.758C140.726 344.344 140.253 344.401 140.025 344.929C139.796 345.445 139.682 346.309 139.682 347.521C139.682 348.337 139.723 349.039 139.806 349.627C139.89 350.203 140.056 350.731 140.305 351.211C140.565 351.685 140.944 352.066 141.443 352.354C141.942 352.642 142.316 352.696 142.566 352.516C142.825 352.33 142.997 351.997 143.08 351.517C143.163 351.025 143.205 350.371 143.205 349.555ZM155.948 359.99C155.948 360.65 155.797 361.175 155.495 361.565C155.204 361.949 154.768 362.153 154.186 362.177C153.614 362.195 152.934 361.994 152.144 361.574L152.144 363.032L151.146 362.456L151.146 360.98C150.045 360.236 149.156 359.345 148.481 358.307C147.805 357.257 147.447 356.156 147.405 355.004L150.242 356.642C150.305 357.398 150.606 358.034 151.146 358.55L151.146 355.706C150.336 354.998 149.686 354.389 149.198 353.879C148.72 353.375 148.299 352.766 147.935 352.052C147.571 351.338 147.389 350.543 147.389 349.667C147.389 348.575 147.738 347.9 148.434 347.642C149.141 347.39 150.045 347.54 151.146 348.092L151.146 346.634L152.144 347.21L152.144 348.668C153.235 349.394 154.098 350.258 154.732 351.26C155.366 352.262 155.719 353.348 155.792 354.518L152.939 352.871C152.877 352.187 152.612 351.614 152.144 351.152L152.144 353.942C153.007 354.716 153.672 355.346 154.139 355.832C154.607 356.318 155.023 356.918 155.386 357.632C155.76 358.34 155.948 359.126 155.948 359.99ZM150.211 351.152C150.211 351.452 150.289 351.749 150.445 352.043C150.611 352.343 150.845 352.658 151.146 352.988L151.146 350.486C150.855 350.378 150.627 350.378 150.46 350.486C150.294 350.582 150.211 350.804 150.211 351.152ZM152.144 359.18C152.456 359.3 152.7 359.297 152.877 359.171C153.064 359.051 153.157 358.823 153.157 358.487C153.157 358.175 153.069 357.872 152.892 357.578C152.726 357.278 152.477 356.96 152.144 356.624L152.144 359.18Z" fill="#129590"/>
<defs>
<filter id="filter0_f" x="77.5" y="209" width="192.42" height="128" filterUnits="userSpaceOnUse" color-interpolation-filters="sRGB">
<feFlood flood-opacity="0" result="BackgroundImageFix"/>
<feBlend mode="normal" in="SourceGraphic" in2="BackgroundImageFix" result="shape"/>
<feGaussianBlur stdDeviation="10" result="effect1_foregroundBlur"/>
</filter>
<filter id="filter1_f" x="92.5" y="224" width="162.42" height="98" filterUnits="userSpaceOnUse" color-interpolation-filters="sRGB">
<feFlood flood-opacity="0" result="BackgroundImageFix"/>
<feBlend mode="normal" in="SourceGraphic" in2="BackgroundImageFix" result="shape"/>
<feGaussianBlur stdDeviation="2.5" result="effect1_foregroundBlur"/>
</filter>
<filter id="filter2_f" x="0.5" y="253" width="192.42" height="128" filterUnits="userSpaceOnUse" color-interpolation-filters="sRGB">
<feFlood flood-opacity="0" result="BackgroundImageFix"/>
<feBlend mode="normal" in="SourceGraphic" in2="BackgroundImageFix" result="shape"/>
<feGaussianBlur stdDeviation="10" result="effect1_foregroundBlur"/>
</filter>
<filter id="filter3_f" x="15.5" y="268" width="162.42" height="98" filterUnits="userSpaceOnUse" color-interpolation-filters="sRGB">
<feFlood flood-opacity="0" result="BackgroundImageFix"/>
<feBlend mode="normal" in="SourceGraphic" in2="BackgroundImageFix" result="shape"/>
<feGaussianBlur stdDeviation="2.5" result="effect1_foregroundBlur"/>
</filter>
<filter id="filter4_f" x="154.5" y="253" width="192.42" height="128" filterUnits="userSpaceOnUse" color-interpolation-filters="sRGB">
<feFlood flood-opacity="0" result="BackgroundImageFix"/>
<feBlend mode="normal" in="SourceGraphic" in2="BackgroundImageFix" result="shape"/>
<feGaussianBlur stdDeviation="10" result="effect1_foregroundBlur"/>
</filter>
<filter id="filter5_f" x="169.5" y="268" width="162.42" height="98" filterUnits="userSpaceOnUse" color-interpolation-filters="sRGB">
<feFlood flood-opacity="0" result="BackgroundImageFix"/>
<feBlend mode="normal" in="SourceGraphic" in2="BackgroundImageFix" result="shape"/>
<feGaussianBlur stdDeviation="2.5" result="effect1_foregroundBlur"/>
</filter>
<filter id="filter6_f" x="77.5" y="297" width="192.42" height="128" filterUnits="userSpaceOnUse" color-interpolation-filters="sRGB">
<feFlood flood-opacity="0" result="BackgroundImageFix"/>
<feBlend mode="normal" in="SourceGraphic" in2="BackgroundImageFix" result="shape"/>
<feGaussianBlur stdDeviation="10" result="effect1_foregroundBlur"/>
</filter>
<filter id="filter7_f" x="92.5" y="312" width="162.42" height="98" filterUnits="userSpaceOnUse" color-interpolation-filters="sRGB">
<feFlood flood-opacity="0" result="BackgroundImageFix"/>
<feBlend mode="normal" in="SourceGraphic" in2="BackgroundImageFix" result="shape"/>
<feGaussianBlur stdDeviation="2.5" result="effect1_foregroundBlur"/>
</filter>
</defs>
</svg>
