<svg width="577" height="404" viewBox="0 0 577 404" fill="none" xmlns="http://www.w3.org/2000/svg">
<rect width="577" height="404" rx="16" fill="white"/>
<rect x="48" y="53.5" width="77" height="24" rx="12" fill="#129590"/>
<rect x="105" y="57.5" width="16" height="16" rx="8" fill="white"/>
<path d="M161.172 70.598C160.528 70.598 159.949 70.486 159.436 70.262C158.932 70.0287 158.535 69.7113 158.246 69.31C157.957 68.8993 157.807 68.428 157.798 67.896H159.156C159.203 68.3533 159.389 68.7407 159.716 69.058C160.052 69.366 160.537 69.52 161.172 69.52C161.779 69.52 162.255 69.3707 162.6 69.072C162.955 68.764 163.132 68.372 163.132 67.896C163.132 67.5227 163.029 67.2193 162.824 66.986C162.619 66.7527 162.362 66.5753 162.054 66.454C161.746 66.3327 161.331 66.202 160.808 66.062C160.164 65.894 159.646 65.726 159.254 65.558C158.871 65.39 158.54 65.1287 158.26 64.774C157.989 64.41 157.854 63.9247 157.854 63.318C157.854 62.786 157.989 62.3147 158.26 61.904C158.531 61.4933 158.909 61.176 159.394 60.952C159.889 60.728 160.453 60.616 161.088 60.616C162.003 60.616 162.749 60.8447 163.328 61.302C163.916 61.7593 164.247 62.366 164.322 63.122H162.922C162.875 62.7487 162.679 62.422 162.334 62.142C161.989 61.8527 161.531 61.708 160.962 61.708C160.43 61.708 159.996 61.848 159.66 62.128C159.324 62.3987 159.156 62.7813 159.156 63.276C159.156 63.6307 159.254 63.92 159.45 64.144C159.655 64.368 159.903 64.5407 160.192 64.662C160.491 64.774 160.906 64.9047 161.438 65.054C162.082 65.2313 162.6 65.4087 162.992 65.586C163.384 65.754 163.72 66.02 164 66.384C164.28 66.7387 164.42 67.224 164.42 67.84C164.42 68.316 164.294 68.764 164.042 69.184C163.79 69.604 163.417 69.9447 162.922 70.206C162.427 70.4673 161.844 70.598 161.172 70.598ZM173.495 66.37C173.495 66.6127 173.481 66.8693 173.453 67.14H167.321C167.367 67.896 167.624 68.4887 168.091 68.918C168.567 69.338 169.141 69.548 169.813 69.548C170.363 69.548 170.821 69.422 171.185 69.17C171.558 68.9087 171.819 68.5633 171.969 68.134H173.341C173.135 68.8713 172.725 69.4733 172.109 69.94C171.493 70.3973 170.727 70.626 169.813 70.626C169.085 70.626 168.431 70.4627 167.853 70.136C167.283 69.8093 166.835 69.3473 166.509 68.75C166.182 68.1433 166.019 67.4433 166.019 66.65C166.019 65.8567 166.177 65.1613 166.495 64.564C166.812 63.9667 167.255 63.5093 167.825 63.192C168.403 62.8653 169.066 62.702 169.813 62.702C170.541 62.702 171.185 62.8607 171.745 63.178C172.305 63.4953 172.734 63.934 173.033 64.494C173.341 65.0447 173.495 65.67 173.495 66.37ZM172.179 66.104C172.179 65.6187 172.071 65.2033 171.857 64.858C171.642 64.5033 171.348 64.2373 170.975 64.06C170.611 63.8733 170.205 63.78 169.757 63.78C169.113 63.78 168.562 63.9853 168.105 64.396C167.657 64.8067 167.4 65.376 167.335 66.104H172.179ZM176.93 63.878V68.4C176.93 68.7733 177.01 69.0393 177.168 69.198C177.327 69.3473 177.602 69.422 177.994 69.422H178.932V70.5H177.784C177.075 70.5 176.543 70.3367 176.188 70.01C175.834 69.6833 175.656 69.1467 175.656 68.4V63.878H174.662V62.828H175.656V60.896H176.93V62.828H178.932V63.878H176.93ZM187.48 62.828V70.5H186.206V69.366C185.963 69.758 185.623 70.066 185.184 70.29C184.755 70.5047 184.279 70.612 183.756 70.612C183.159 70.612 182.622 70.4907 182.146 70.248C181.67 69.996 181.292 69.6227 181.012 69.128C180.741 68.6333 180.606 68.0313 180.606 67.322V62.828H181.866V67.154C181.866 67.91 182.057 68.4933 182.44 68.904C182.823 69.3053 183.345 69.506 184.008 69.506C184.689 69.506 185.226 69.296 185.618 68.876C186.01 68.456 186.206 67.8447 186.206 67.042V62.828H187.48ZM191.105 64.242C191.357 63.8033 191.73 63.4393 192.225 63.15C192.729 62.8513 193.312 62.702 193.975 62.702C194.656 62.702 195.272 62.8653 195.823 63.192C196.383 63.5187 196.822 63.9807 197.139 64.578C197.456 65.166 197.615 65.852 197.615 66.636C197.615 67.4107 197.456 68.1013 197.139 68.708C196.822 69.3147 196.383 69.786 195.823 70.122C195.272 70.458 194.656 70.626 193.975 70.626C193.322 70.626 192.743 70.4813 192.239 70.192C191.744 69.8933 191.366 69.5247 191.105 69.086V74.14H189.831V62.828H191.105V64.242ZM196.313 66.636C196.313 66.0573 196.196 65.5533 195.963 65.124C195.73 64.6947 195.412 64.368 195.011 64.144C194.619 63.92 194.185 63.808 193.709 63.808C193.242 63.808 192.808 63.9247 192.407 64.158C192.015 64.382 191.698 64.7133 191.455 65.152C191.222 65.5813 191.105 66.0807 191.105 66.65C191.105 67.2287 191.222 67.7373 191.455 68.176C191.698 68.6053 192.015 68.9367 192.407 69.17C192.808 69.394 193.242 69.506 193.709 69.506C194.185 69.506 194.619 69.394 195.011 69.17C195.412 68.9367 195.73 68.6053 195.963 68.176C196.196 67.7373 196.313 67.224 196.313 66.636ZM206.546 63.878H204.936V70.5H203.662V63.878H202.668V62.828H203.662V62.282C203.662 61.4233 203.882 60.798 204.32 60.406C204.768 60.0047 205.482 59.804 206.462 59.804V60.868C205.902 60.868 205.506 60.98 205.272 61.204C205.048 61.4187 204.936 61.778 204.936 62.282V62.828H206.546V63.878ZM215.232 66.37C215.232 66.6127 215.218 66.8693 215.19 67.14H209.058C209.105 67.896 209.361 68.4887 209.828 68.918C210.304 69.338 210.878 69.548 211.55 69.548C212.101 69.548 212.558 69.422 212.922 69.17C213.295 68.9087 213.557 68.5633 213.706 68.134H215.078C214.873 68.8713 214.462 69.4733 213.846 69.94C213.23 70.3973 212.465 70.626 211.55 70.626C210.822 70.626 210.169 70.4627 209.59 70.136C209.021 69.8093 208.573 69.3473 208.246 68.75C207.919 68.1433 207.756 67.4433 207.756 66.65C207.756 65.8567 207.915 65.1613 208.232 64.564C208.549 63.9667 208.993 63.5093 209.562 63.192C210.141 62.8653 210.803 62.702 211.55 62.702C212.278 62.702 212.922 62.8607 213.482 63.178C214.042 63.4953 214.471 63.934 214.77 64.494C215.078 65.0447 215.232 65.67 215.232 66.37ZM213.916 66.104C213.916 65.6187 213.809 65.2033 213.594 64.858C213.379 64.5033 213.085 64.2373 212.712 64.06C212.348 63.8733 211.942 63.78 211.494 63.78C210.85 63.78 210.299 63.9853 209.842 64.396C209.394 64.8067 209.137 65.376 209.072 66.104H213.916ZM224.114 66.37C224.114 66.6127 224.1 66.8693 224.072 67.14H217.94C217.986 67.896 218.243 68.4887 218.71 68.918C219.186 69.338 219.76 69.548 220.432 69.548C220.982 69.548 221.44 69.422 221.804 69.17C222.177 68.9087 222.438 68.5633 222.588 68.134H223.96C223.754 68.8713 223.344 69.4733 222.728 69.94C222.112 70.3973 221.346 70.626 220.432 70.626C219.704 70.626 219.05 70.4627 218.472 70.136C217.902 69.8093 217.454 69.3473 217.128 68.75C216.801 68.1433 216.638 67.4433 216.638 66.65C216.638 65.8567 216.796 65.1613 217.114 64.564C217.431 63.9667 217.874 63.5093 218.444 63.192C219.022 62.8653 219.685 62.702 220.432 62.702C221.16 62.702 221.804 62.8607 222.364 63.178C222.924 63.4953 223.353 63.934 223.652 64.494C223.96 65.0447 224.114 65.67 224.114 66.37ZM222.798 66.104C222.798 65.6187 222.69 65.2033 222.476 64.858C222.261 64.5033 221.967 64.2373 221.594 64.06C221.23 63.8733 220.824 63.78 220.376 63.78C219.732 63.78 219.181 63.9853 218.724 64.396C218.276 64.8067 218.019 65.376 217.954 66.104H222.798Z" fill="#173244"/>
<g opacity="0.5">
<path d="M377.528 67.624C377.528 68.024 377.428 68.4 377.228 68.752C377.036 69.104 376.748 69.4 376.364 69.64C375.988 69.88 375.54 70.024 375.02 70.072V71.044H374.24V70.072C373.488 70 372.88 69.764 372.416 69.364C371.952 68.964 371.72 68.436 371.72 67.78H373.184C373.208 68.092 373.308 68.352 373.484 68.56C373.66 68.76 373.912 68.888 374.24 68.944V66.304C373.704 66.168 373.268 66.032 372.932 65.896C372.596 65.752 372.308 65.528 372.068 65.224C371.836 64.92 371.72 64.504 371.72 63.976C371.72 63.312 371.952 62.764 372.416 62.332C372.88 61.892 373.488 61.636 374.24 61.564V60.592H375.02V61.564C375.724 61.628 376.288 61.852 376.712 62.236C377.144 62.612 377.388 63.132 377.444 63.796H375.98C375.956 63.548 375.86 63.328 375.692 63.136C375.524 62.936 375.3 62.8 375.02 62.728V65.32C375.556 65.448 375.992 65.584 376.328 65.728C376.664 65.864 376.948 66.084 377.18 66.388C377.412 66.684 377.528 67.096 377.528 67.624ZM373.112 63.904C373.112 64.232 373.208 64.488 373.4 64.672C373.6 64.856 373.88 65.004 374.24 65.116V62.692C373.896 62.732 373.62 62.856 373.412 63.064C373.212 63.272 373.112 63.552 373.112 63.904ZM375.02 68.944C375.372 68.888 375.648 68.748 375.848 68.524C376.048 68.292 376.148 68.016 376.148 67.696C376.148 67.376 376.048 67.128 375.848 66.952C375.656 66.768 375.38 66.62 375.02 66.508V68.944ZM382.862 62.5V61.252H385.358V70H383.978V62.5H382.862ZM388.193 68.14C388.961 67.476 389.565 66.932 390.005 66.508C390.453 66.076 390.825 65.628 391.121 65.164C391.417 64.7 391.565 64.236 391.565 63.772C391.565 63.292 391.449 62.916 391.217 62.644C390.993 62.372 390.637 62.236 390.149 62.236C389.677 62.236 389.309 62.388 389.045 62.692C388.789 62.988 388.653 63.388 388.637 63.892H387.317C387.341 62.98 387.613 62.284 388.133 61.804C388.661 61.316 389.329 61.072 390.137 61.072C391.009 61.072 391.689 61.312 392.177 61.792C392.673 62.272 392.921 62.912 392.921 63.712C392.921 64.288 392.773 64.844 392.477 65.38C392.189 65.908 391.841 66.384 391.433 66.808C391.033 67.224 390.521 67.708 389.897 68.26L389.357 68.74H393.161V69.88H387.329V68.884L388.193 68.14ZM394.563 65.512C394.563 64.128 394.795 63.048 395.259 62.272C395.731 61.488 396.539 61.096 397.683 61.096C398.827 61.096 399.631 61.488 400.095 62.272C400.567 63.048 400.803 64.128 400.803 65.512C400.803 66.912 400.567 68.008 400.095 68.8C399.631 69.584 398.827 69.976 397.683 69.976C396.539 69.976 395.731 69.584 395.259 68.8C394.795 68.008 394.563 66.912 394.563 65.512ZM399.459 65.512C399.459 64.864 399.415 64.316 399.327 63.868C399.247 63.42 399.079 63.056 398.823 62.776C398.567 62.488 398.187 62.344 397.683 62.344C397.179 62.344 396.799 62.488 396.543 62.776C396.287 63.056 396.115 63.42 396.027 63.868C395.947 64.316 395.907 64.864 395.907 65.512C395.907 66.184 395.947 66.748 396.027 67.204C396.107 67.66 396.275 68.028 396.531 68.308C396.795 68.588 397.179 68.728 397.683 68.728C398.187 68.728 398.567 68.588 398.823 68.308C399.087 68.028 399.259 67.66 399.339 67.204C399.419 66.748 399.459 66.184 399.459 65.512ZM402.45 65.512C402.45 64.128 402.682 63.048 403.146 62.272C403.618 61.488 404.426 61.096 405.57 61.096C406.714 61.096 407.518 61.488 407.982 62.272C408.454 63.048 408.69 64.128 408.69 65.512C408.69 66.912 408.454 68.008 407.982 68.8C407.518 69.584 406.714 69.976 405.57 69.976C404.426 69.976 403.618 69.584 403.146 68.8C402.682 68.008 402.45 66.912 402.45 65.512ZM407.346 65.512C407.346 64.864 407.302 64.316 407.214 63.868C407.134 63.42 406.966 63.056 406.71 62.776C406.454 62.488 406.074 62.344 405.57 62.344C405.066 62.344 404.686 62.488 404.43 62.776C404.174 63.056 404.002 63.42 403.914 63.868C403.834 64.316 403.794 64.864 403.794 65.512C403.794 66.184 403.834 66.748 403.914 67.204C403.994 67.66 404.162 68.028 404.418 68.308C404.682 68.588 405.066 68.728 405.57 68.728C406.074 68.728 406.454 68.588 406.71 68.308C406.974 68.028 407.146 67.66 407.226 67.204C407.306 66.748 407.346 66.184 407.346 65.512ZM412.018 68.356L410.566 71.668H409.678L410.53 68.356H412.018ZM413.233 65.512C413.233 64.128 413.465 63.048 413.929 62.272C414.401 61.488 415.209 61.096 416.353 61.096C417.497 61.096 418.301 61.488 418.765 62.272C419.237 63.048 419.473 64.128 419.473 65.512C419.473 66.912 419.237 68.008 418.765 68.8C418.301 69.584 417.497 69.976 416.353 69.976C415.209 69.976 414.401 69.584 413.929 68.8C413.465 68.008 413.233 66.912 413.233 65.512ZM418.129 65.512C418.129 64.864 418.085 64.316 417.997 63.868C417.917 63.42 417.749 63.056 417.493 62.776C417.237 62.488 416.857 62.344 416.353 62.344C415.849 62.344 415.469 62.488 415.213 62.776C414.957 63.056 414.785 63.42 414.697 63.868C414.617 64.316 414.577 64.864 414.577 65.512C414.577 66.184 414.617 66.748 414.697 67.204C414.777 67.66 414.945 68.028 415.201 68.308C415.465 68.588 415.849 68.728 416.353 68.728C416.857 68.728 417.237 68.588 417.493 68.308C417.757 68.028 417.929 67.66 418.009 67.204C418.089 66.748 418.129 66.184 418.129 65.512ZM421.121 65.512C421.121 64.128 421.353 63.048 421.817 62.272C422.289 61.488 423.097 61.096 424.241 61.096C425.385 61.096 426.189 61.488 426.653 62.272C427.125 63.048 427.361 64.128 427.361 65.512C427.361 66.912 427.125 68.008 426.653 68.8C426.189 69.584 425.385 69.976 424.241 69.976C423.097 69.976 422.289 69.584 421.817 68.8C421.353 68.008 421.121 66.912 421.121 65.512ZM426.017 65.512C426.017 64.864 425.973 64.316 425.885 63.868C425.805 63.42 425.637 63.056 425.381 62.776C425.125 62.488 424.745 62.344 424.241 62.344C423.737 62.344 423.357 62.488 423.101 62.776C422.845 63.056 422.673 63.42 422.585 63.868C422.505 64.316 422.465 64.864 422.465 65.512C422.465 66.184 422.505 66.748 422.585 67.204C422.665 67.66 422.833 68.028 423.089 68.308C423.353 68.588 423.737 68.728 424.241 68.728C424.745 68.728 425.125 68.588 425.381 68.308C425.645 68.028 425.817 67.66 425.897 67.204C425.977 66.748 426.017 66.184 426.017 65.512Z" fill="#173244"/>
<rect x="359.5" y="48.5" width="169" height="34" rx="3.5" stroke="#173244"/>
</g>
<rect x="48" y="112.5" width="77" height="24" rx="12" fill="#129590"/>
<rect x="105" y="116.5" width="16" height="16" rx="8" fill="white"/>
<path d="M167.976 119.812V129.5H166.702V122.276L163.482 129.5H162.586L159.352 122.262V129.5H158.078V119.812H159.45L163.034 127.82L166.618 119.812H167.976ZM173.683 129.626C172.964 129.626 172.311 129.463 171.723 129.136C171.144 128.809 170.687 128.347 170.351 127.75C170.024 127.143 169.861 126.443 169.861 125.65C169.861 124.866 170.029 124.175 170.365 123.578C170.71 122.971 171.177 122.509 171.765 122.192C172.353 121.865 173.011 121.702 173.739 121.702C174.467 121.702 175.125 121.865 175.713 122.192C176.301 122.509 176.763 122.967 177.099 123.564C177.444 124.161 177.617 124.857 177.617 125.65C177.617 126.443 177.439 127.143 177.085 127.75C176.739 128.347 176.268 128.809 175.671 129.136C175.073 129.463 174.411 129.626 173.683 129.626ZM173.683 128.506C174.14 128.506 174.569 128.399 174.971 128.184C175.372 127.969 175.694 127.647 175.937 127.218C176.189 126.789 176.315 126.266 176.315 125.65C176.315 125.034 176.193 124.511 175.951 124.082C175.708 123.653 175.391 123.335 174.999 123.13C174.607 122.915 174.182 122.808 173.725 122.808C173.258 122.808 172.829 122.915 172.437 123.13C172.054 123.335 171.746 123.653 171.513 124.082C171.279 124.511 171.163 125.034 171.163 125.65C171.163 126.275 171.275 126.803 171.499 127.232C171.732 127.661 172.04 127.983 172.423 128.198C172.805 128.403 173.225 128.506 173.683 128.506ZM183.23 121.688C184.163 121.688 184.919 121.973 185.498 122.542C186.076 123.102 186.366 123.914 186.366 124.978V129.5H185.106V125.16C185.106 124.395 184.914 123.811 184.532 123.41C184.149 122.999 183.626 122.794 182.964 122.794C182.292 122.794 181.755 123.004 181.354 123.424C180.962 123.844 180.766 124.455 180.766 125.258V129.5H179.492V121.828H180.766V122.92C181.018 122.528 181.358 122.225 181.788 122.01C182.226 121.795 182.707 121.688 183.23 121.688ZM190.201 122.878V127.4C190.201 127.773 190.28 128.039 190.439 128.198C190.597 128.347 190.873 128.422 191.265 128.422H192.203V129.5H191.055C190.345 129.5 189.813 129.337 189.459 129.01C189.104 128.683 188.927 128.147 188.927 127.4V122.878H187.933V121.828H188.927V119.896H190.201V121.828H192.203V122.878H190.201ZM197.754 121.688C198.333 121.688 198.856 121.814 199.322 122.066C199.789 122.309 200.153 122.677 200.414 123.172C200.685 123.667 200.82 124.269 200.82 124.978V129.5H199.56V125.16C199.56 124.395 199.369 123.811 198.986 123.41C198.604 122.999 198.081 122.794 197.418 122.794C196.746 122.794 196.21 123.004 195.808 123.424C195.416 123.844 195.22 124.455 195.22 125.258V129.5H193.946V119.14H195.22V122.92C195.472 122.528 195.818 122.225 196.256 122.01C196.704 121.795 197.204 121.688 197.754 121.688ZM204.375 119.14V129.5H203.101V119.14H204.375ZM213.355 121.828L208.735 133.112H207.419L208.931 129.416L205.837 121.828H207.251L209.659 128.044L212.039 121.828H213.355ZM221.89 122.878H220.28V129.5H219.006V122.878H218.012V121.828H219.006V121.282C219.006 120.423 219.225 119.798 219.664 119.406C220.112 119.005 220.826 118.804 221.806 118.804V119.868C221.246 119.868 220.849 119.98 220.616 120.204C220.392 120.419 220.28 120.778 220.28 121.282V121.828H221.89V122.878ZM230.575 125.37C230.575 125.613 230.561 125.869 230.533 126.14H224.401C224.448 126.896 224.705 127.489 225.171 127.918C225.647 128.338 226.221 128.548 226.893 128.548C227.444 128.548 227.901 128.422 228.265 128.17C228.639 127.909 228.9 127.563 229.049 127.134H230.421C230.216 127.871 229.805 128.473 229.189 128.94C228.573 129.397 227.808 129.626 226.893 129.626C226.165 129.626 225.512 129.463 224.933 129.136C224.364 128.809 223.916 128.347 223.589 127.75C223.263 127.143 223.099 126.443 223.099 125.65C223.099 124.857 223.258 124.161 223.575 123.564C223.893 122.967 224.336 122.509 224.905 122.192C225.484 121.865 226.147 121.702 226.893 121.702C227.621 121.702 228.265 121.861 228.825 122.178C229.385 122.495 229.815 122.934 230.113 123.494C230.421 124.045 230.575 124.67 230.575 125.37ZM229.259 125.104C229.259 124.619 229.152 124.203 228.937 123.858C228.723 123.503 228.429 123.237 228.055 123.06C227.691 122.873 227.285 122.78 226.837 122.78C226.193 122.78 225.643 122.985 225.185 123.396C224.737 123.807 224.481 124.376 224.415 125.104H229.259ZM239.457 125.37C239.457 125.613 239.443 125.869 239.415 126.14H233.283C233.33 126.896 233.586 127.489 234.053 127.918C234.529 128.338 235.103 128.548 235.775 128.548C236.326 128.548 236.783 128.422 237.147 128.17C237.52 127.909 237.782 127.563 237.931 127.134H239.303C239.098 127.871 238.687 128.473 238.071 128.94C237.455 129.397 236.69 129.626 235.775 129.626C235.047 129.626 234.394 129.463 233.815 129.136C233.246 128.809 232.798 128.347 232.471 127.75C232.144 127.143 231.981 126.443 231.981 125.65C231.981 124.857 232.14 124.161 232.457 123.564C232.774 122.967 233.218 122.509 233.787 122.192C234.366 121.865 235.028 121.702 235.775 121.702C236.503 121.702 237.147 121.861 237.707 122.178C238.267 122.495 238.696 122.934 238.995 123.494C239.303 124.045 239.457 124.67 239.457 125.37ZM238.141 125.104C238.141 124.619 238.034 124.203 237.819 123.858C237.604 123.503 237.31 123.237 236.937 123.06C236.573 122.873 236.167 122.78 235.719 122.78C235.075 122.78 234.524 122.985 234.067 123.396C233.619 123.807 233.362 124.376 233.297 125.104H238.141Z" fill="#173244"/>
<g opacity="0.5">
<path d="M377.528 126.624C377.528 127.024 377.428 127.4 377.228 127.752C377.036 128.104 376.748 128.4 376.364 128.64C375.988 128.88 375.54 129.024 375.02 129.072V130.044H374.24V129.072C373.488 129 372.88 128.764 372.416 128.364C371.952 127.964 371.72 127.436 371.72 126.78H373.184C373.208 127.092 373.308 127.352 373.484 127.56C373.66 127.76 373.912 127.888 374.24 127.944V125.304C373.704 125.168 373.268 125.032 372.932 124.896C372.596 124.752 372.308 124.528 372.068 124.224C371.836 123.92 371.72 123.504 371.72 122.976C371.72 122.312 371.952 121.764 372.416 121.332C372.88 120.892 373.488 120.636 374.24 120.564V119.592H375.02V120.564C375.724 120.628 376.288 120.852 376.712 121.236C377.144 121.612 377.388 122.132 377.444 122.796H375.98C375.956 122.548 375.86 122.328 375.692 122.136C375.524 121.936 375.3 121.8 375.02 121.728V124.32C375.556 124.448 375.992 124.584 376.328 124.728C376.664 124.864 376.948 125.084 377.18 125.388C377.412 125.684 377.528 126.096 377.528 126.624ZM373.112 122.904C373.112 123.232 373.208 123.488 373.4 123.672C373.6 123.856 373.88 124.004 374.24 124.116V121.692C373.896 121.732 373.62 121.856 373.412 122.064C373.212 122.272 373.112 122.552 373.112 122.904ZM375.02 127.944C375.372 127.888 375.648 127.748 375.848 127.524C376.048 127.292 376.148 127.016 376.148 126.696C376.148 126.376 376.048 126.128 375.848 125.952C375.656 125.768 375.38 125.62 375.02 125.508V127.944ZM388.586 121.308L385.25 129H383.87L387.242 121.452H382.802V120.288H388.586V121.308ZM395.597 121.428H391.577V123.816C391.745 123.592 391.993 123.404 392.321 123.252C392.657 123.1 393.013 123.024 393.389 123.024C394.061 123.024 394.605 123.168 395.021 123.456C395.445 123.744 395.745 124.108 395.921 124.548C396.105 124.988 396.197 125.452 396.197 125.94C396.197 126.532 396.081 127.06 395.849 127.524C395.625 127.98 395.285 128.34 394.829 128.604C394.381 128.868 393.829 129 393.173 129C392.301 129 391.601 128.784 391.073 128.352C390.545 127.92 390.229 127.348 390.125 126.636H391.457C391.545 127.012 391.741 127.312 392.045 127.536C392.349 127.752 392.729 127.86 393.185 127.86C393.753 127.86 394.177 127.688 394.457 127.344C394.745 127 394.889 126.544 394.889 125.976C394.889 125.4 394.745 124.96 394.457 124.656C394.169 124.344 393.745 124.188 393.185 124.188C392.793 124.188 392.461 124.288 392.189 124.488C391.925 124.68 391.733 124.944 391.613 125.28H390.317V120.228H395.597V121.428ZM397.821 124.512C397.821 123.128 398.053 122.048 398.517 121.272C398.989 120.488 399.797 120.096 400.941 120.096C402.085 120.096 402.889 120.488 403.353 121.272C403.825 122.048 404.061 123.128 404.061 124.512C404.061 125.912 403.825 127.008 403.353 127.8C402.889 128.584 402.085 128.976 400.941 128.976C399.797 128.976 398.989 128.584 398.517 127.8C398.053 127.008 397.821 125.912 397.821 124.512ZM402.717 124.512C402.717 123.864 402.673 123.316 402.585 122.868C402.505 122.42 402.337 122.056 402.081 121.776C401.825 121.488 401.445 121.344 400.941 121.344C400.437 121.344 400.057 121.488 399.801 121.776C399.545 122.056 399.373 122.42 399.285 122.868C399.205 123.316 399.165 123.864 399.165 124.512C399.165 125.184 399.205 125.748 399.285 126.204C399.365 126.66 399.533 127.028 399.789 127.308C400.053 127.588 400.437 127.728 400.941 127.728C401.445 127.728 401.825 127.588 402.081 127.308C402.345 127.028 402.517 126.66 402.597 126.204C402.677 125.748 402.717 125.184 402.717 124.512ZM407.388 127.356L405.936 130.668H405.048L405.9 127.356H407.388ZM408.604 124.512C408.604 123.128 408.836 122.048 409.3 121.272C409.772 120.488 410.58 120.096 411.724 120.096C412.868 120.096 413.672 120.488 414.136 121.272C414.608 122.048 414.844 123.128 414.844 124.512C414.844 125.912 414.608 127.008 414.136 127.8C413.672 128.584 412.868 128.976 411.724 128.976C410.58 128.976 409.772 128.584 409.3 127.8C408.836 127.008 408.604 125.912 408.604 124.512ZM413.5 124.512C413.5 123.864 413.456 123.316 413.368 122.868C413.288 122.42 413.12 122.056 412.864 121.776C412.608 121.488 412.228 121.344 411.724 121.344C411.22 121.344 410.84 121.488 410.584 121.776C410.328 122.056 410.156 122.42 410.068 122.868C409.988 123.316 409.948 123.864 409.948 124.512C409.948 125.184 409.988 125.748 410.068 126.204C410.148 126.66 410.316 127.028 410.572 127.308C410.836 127.588 411.22 127.728 411.724 127.728C412.228 127.728 412.608 127.588 412.864 127.308C413.128 127.028 413.3 126.66 413.38 126.204C413.46 125.748 413.5 125.184 413.5 124.512ZM416.491 124.512C416.491 123.128 416.723 122.048 417.187 121.272C417.659 120.488 418.467 120.096 419.611 120.096C420.755 120.096 421.559 120.488 422.023 121.272C422.495 122.048 422.731 123.128 422.731 124.512C422.731 125.912 422.495 127.008 422.023 127.8C421.559 128.584 420.755 128.976 419.611 128.976C418.467 128.976 417.659 128.584 417.187 127.8C416.723 127.008 416.491 125.912 416.491 124.512ZM421.387 124.512C421.387 123.864 421.343 123.316 421.255 122.868C421.175 122.42 421.007 122.056 420.751 121.776C420.495 121.488 420.115 121.344 419.611 121.344C419.107 121.344 418.727 121.488 418.471 121.776C418.215 122.056 418.043 122.42 417.955 122.868C417.875 123.316 417.835 123.864 417.835 124.512C417.835 125.184 417.875 125.748 417.955 126.204C418.035 126.66 418.203 127.028 418.459 127.308C418.723 127.588 419.107 127.728 419.611 127.728C420.115 127.728 420.495 127.588 420.751 127.308C421.015 127.028 421.187 126.66 421.267 126.204C421.347 125.748 421.387 125.184 421.387 124.512Z" fill="#173244"/>
<rect x="359.5" y="107.5" width="169" height="34" rx="3.5" stroke="#173244"/>
</g>
<rect x="48" y="171.5" width="77" height="24" rx="12" fill="#129590"/>
<rect x="105" y="175.5" width="16" height="16" rx="8" fill="white"/>
<path d="M163.216 188.5L160.892 184.51H159.352V188.5H158.078V178.742H161.228C161.965 178.742 162.586 178.868 163.09 179.12C163.603 179.372 163.986 179.713 164.238 180.142C164.49 180.571 164.616 181.061 164.616 181.612C164.616 182.284 164.42 182.877 164.028 183.39C163.645 183.903 163.067 184.244 162.292 184.412L164.742 188.5H163.216ZM159.352 183.488H161.228C161.919 183.488 162.437 183.32 162.782 182.984C163.127 182.639 163.3 182.181 163.3 181.612C163.3 181.033 163.127 180.585 162.782 180.268C162.446 179.951 161.928 179.792 161.228 179.792H159.352V183.488ZM173.796 184.37C173.796 184.613 173.782 184.869 173.754 185.14H167.622C167.668 185.896 167.925 186.489 168.392 186.918C168.868 187.338 169.442 187.548 170.114 187.548C170.664 187.548 171.122 187.422 171.486 187.17C171.859 186.909 172.12 186.563 172.27 186.134H173.642C173.436 186.871 173.026 187.473 172.41 187.94C171.794 188.397 171.028 188.626 170.114 188.626C169.386 188.626 168.732 188.463 168.154 188.136C167.584 187.809 167.136 187.347 166.81 186.75C166.483 186.143 166.32 185.443 166.32 184.65C166.32 183.857 166.478 183.161 166.796 182.564C167.113 181.967 167.556 181.509 168.126 181.192C168.704 180.865 169.367 180.702 170.114 180.702C170.842 180.702 171.486 180.861 172.046 181.178C172.606 181.495 173.035 181.934 173.334 182.494C173.642 183.045 173.796 183.67 173.796 184.37ZM172.48 184.104C172.48 183.619 172.372 183.203 172.158 182.858C171.943 182.503 171.649 182.237 171.276 182.06C170.912 181.873 170.506 181.78 170.058 181.78C169.414 181.78 168.863 181.985 168.406 182.396C167.958 182.807 167.701 183.376 167.636 184.104H172.48ZM178.799 181.878H177.189V188.5H175.915V181.878H174.921V180.828H175.915V180.282C175.915 179.423 176.135 178.798 176.573 178.406C177.021 178.005 177.735 177.804 178.715 177.804V178.868C178.155 178.868 177.759 178.98 177.525 179.204C177.301 179.419 177.189 179.778 177.189 180.282V180.828H178.799V181.878ZM187.289 180.828V188.5H186.015V187.366C185.772 187.758 185.431 188.066 184.993 188.29C184.563 188.505 184.087 188.612 183.565 188.612C182.967 188.612 182.431 188.491 181.955 188.248C181.479 187.996 181.101 187.623 180.821 187.128C180.55 186.633 180.415 186.031 180.415 185.322V180.828H181.675V185.154C181.675 185.91 181.866 186.493 182.249 186.904C182.631 187.305 183.154 187.506 183.817 187.506C184.498 187.506 185.035 187.296 185.427 186.876C185.819 186.456 186.015 185.845 186.015 185.042V180.828H187.289ZM193.378 180.688C194.311 180.688 195.067 180.973 195.646 181.542C196.224 182.102 196.514 182.914 196.514 183.978V188.5H195.254V184.16C195.254 183.395 195.062 182.811 194.68 182.41C194.297 181.999 193.774 181.794 193.112 181.794C192.44 181.794 191.903 182.004 191.502 182.424C191.11 182.844 190.914 183.455 190.914 184.258V188.5H189.64V180.828H190.914V181.92C191.166 181.528 191.506 181.225 191.936 181.01C192.374 180.795 192.855 180.688 193.378 180.688ZM198.319 184.636C198.319 183.852 198.477 183.166 198.795 182.578C199.112 181.981 199.546 181.519 200.097 181.192C200.657 180.865 201.282 180.702 201.973 180.702C202.57 180.702 203.125 180.842 203.639 181.122C204.152 181.393 204.544 181.752 204.815 182.2V178.14H206.103V188.5H204.815V187.058C204.563 187.515 204.189 187.893 203.695 188.192C203.2 188.481 202.621 188.626 201.959 188.626C201.277 188.626 200.657 188.458 200.097 188.122C199.546 187.786 199.112 187.315 198.795 186.708C198.477 186.101 198.319 185.411 198.319 184.636ZM204.815 184.65C204.815 184.071 204.698 183.567 204.465 183.138C204.231 182.709 203.914 182.382 203.513 182.158C203.121 181.925 202.687 181.808 202.211 181.808C201.735 181.808 201.301 181.92 200.909 182.144C200.517 182.368 200.204 182.695 199.971 183.124C199.737 183.553 199.621 184.057 199.621 184.636C199.621 185.224 199.737 185.737 199.971 186.176C200.204 186.605 200.517 186.937 200.909 187.17C201.301 187.394 201.735 187.506 202.211 187.506C202.687 187.506 203.121 187.394 203.513 187.17C203.914 186.937 204.231 186.605 204.465 186.176C204.698 185.737 204.815 185.229 204.815 184.65ZM215.51 181.878H213.9V188.5H212.626V181.878H211.632V180.828H212.626V180.282C212.626 179.423 212.845 178.798 213.284 178.406C213.732 178.005 214.446 177.804 215.426 177.804V178.868C214.866 178.868 214.469 178.98 214.236 179.204C214.012 179.419 213.9 179.778 213.9 180.282V180.828H215.51V181.878ZM224.196 184.37C224.196 184.613 224.182 184.869 224.154 185.14H218.022C218.068 185.896 218.325 186.489 218.792 186.918C219.268 187.338 219.842 187.548 220.514 187.548C221.064 187.548 221.522 187.422 221.886 187.17C222.259 186.909 222.52 186.563 222.67 186.134H224.042C223.836 186.871 223.426 187.473 222.81 187.94C222.194 188.397 221.428 188.626 220.514 188.626C219.786 188.626 219.132 188.463 218.554 188.136C217.984 187.809 217.536 187.347 217.21 186.75C216.883 186.143 216.72 185.443 216.72 184.65C216.72 183.857 216.878 183.161 217.196 182.564C217.513 181.967 217.956 181.509 218.526 181.192C219.104 180.865 219.767 180.702 220.514 180.702C221.242 180.702 221.886 180.861 222.446 181.178C223.006 181.495 223.435 181.934 223.734 182.494C224.042 183.045 224.196 183.67 224.196 184.37ZM222.88 184.104C222.88 183.619 222.772 183.203 222.558 182.858C222.343 182.503 222.049 182.237 221.676 182.06C221.312 181.873 220.906 181.78 220.458 181.78C219.814 181.78 219.263 181.985 218.806 182.396C218.358 182.807 218.101 183.376 218.036 184.104H222.88ZM233.077 184.37C233.077 184.613 233.063 184.869 233.035 185.14H226.903C226.95 185.896 227.207 186.489 227.673 186.918C228.149 187.338 228.723 187.548 229.395 187.548C229.946 187.548 230.403 187.422 230.767 187.17C231.141 186.909 231.402 186.563 231.551 186.134H232.923C232.718 186.871 232.307 187.473 231.691 187.94C231.075 188.397 230.31 188.626 229.395 188.626C228.667 188.626 228.014 188.463 227.435 188.136C226.866 187.809 226.418 187.347 226.091 186.75C225.765 186.143 225.601 185.443 225.601 184.65C225.601 183.857 225.76 183.161 226.077 182.564C226.395 181.967 226.838 181.509 227.407 181.192C227.986 180.865 228.649 180.702 229.395 180.702C230.123 180.702 230.767 180.861 231.327 181.178C231.887 181.495 232.317 181.934 232.615 182.494C232.923 183.045 233.077 183.67 233.077 184.37ZM231.761 184.104C231.761 183.619 231.654 183.203 231.439 182.858C231.225 182.503 230.931 182.237 230.557 182.06C230.193 181.873 229.787 181.78 229.339 181.78C228.695 181.78 228.145 181.985 227.687 182.396C227.239 182.807 226.983 183.376 226.917 184.104H231.761Z" fill="#173244"/>
<g opacity="0.5">
<path d="M377.528 185.624C377.528 186.024 377.428 186.4 377.228 186.752C377.036 187.104 376.748 187.4 376.364 187.64C375.988 187.88 375.54 188.024 375.02 188.072V189.044H374.24V188.072C373.488 188 372.88 187.764 372.416 187.364C371.952 186.964 371.72 186.436 371.72 185.78H373.184C373.208 186.092 373.308 186.352 373.484 186.56C373.66 186.76 373.912 186.888 374.24 186.944V184.304C373.704 184.168 373.268 184.032 372.932 183.896C372.596 183.752 372.308 183.528 372.068 183.224C371.836 182.92 371.72 182.504 371.72 181.976C371.72 181.312 371.952 180.764 372.416 180.332C372.88 179.892 373.488 179.636 374.24 179.564V178.592H375.02V179.564C375.724 179.628 376.288 179.852 376.712 180.236C377.144 180.612 377.388 181.132 377.444 181.796H375.98C375.956 181.548 375.86 181.328 375.692 181.136C375.524 180.936 375.3 180.8 375.02 180.728V183.32C375.556 183.448 375.992 183.584 376.328 183.728C376.664 183.864 376.948 184.084 377.18 184.388C377.412 184.684 377.528 185.096 377.528 185.624ZM373.112 181.904C373.112 182.232 373.208 182.488 373.4 182.672C373.6 182.856 373.88 183.004 374.24 183.116V180.692C373.896 180.732 373.62 180.856 373.412 181.064C373.212 181.272 373.112 181.552 373.112 181.904ZM375.02 186.944C375.372 186.888 375.648 186.748 375.848 186.524C376.048 186.292 376.148 186.016 376.148 185.696C376.148 185.376 376.048 185.128 375.848 184.952C375.656 184.768 375.38 184.62 375.02 184.508V186.944ZM383.042 183.512C383.042 182.128 383.274 181.048 383.738 180.272C384.21 179.488 385.018 179.096 386.162 179.096C387.306 179.096 388.11 179.488 388.574 180.272C389.046 181.048 389.282 182.128 389.282 183.512C389.282 184.912 389.046 186.008 388.574 186.8C388.11 187.584 387.306 187.976 386.162 187.976C385.018 187.976 384.21 187.584 383.738 186.8C383.274 186.008 383.042 184.912 383.042 183.512ZM387.938 183.512C387.938 182.864 387.894 182.316 387.806 181.868C387.726 181.42 387.558 181.056 387.302 180.776C387.046 180.488 386.666 180.344 386.162 180.344C385.658 180.344 385.278 180.488 385.022 180.776C384.766 181.056 384.594 181.42 384.506 181.868C384.426 182.316 384.386 182.864 384.386 183.512C384.386 184.184 384.426 184.748 384.506 185.204C384.586 185.66 384.754 186.028 385.01 186.308C385.274 186.588 385.658 186.728 386.162 186.728C386.666 186.728 387.046 186.588 387.302 186.308C387.566 186.028 387.738 185.66 387.818 185.204C387.898 184.748 387.938 184.184 387.938 183.512ZM392.609 186.356L391.157 189.668H390.269L391.121 186.356H392.609ZM399.465 180.428H395.445V182.816C395.613 182.592 395.861 182.404 396.189 182.252C396.525 182.1 396.881 182.024 397.257 182.024C397.929 182.024 398.473 182.168 398.889 182.456C399.313 182.744 399.613 183.108 399.789 183.548C399.973 183.988 400.065 184.452 400.065 184.94C400.065 185.532 399.949 186.06 399.717 186.524C399.493 186.98 399.153 187.34 398.697 187.604C398.249 187.868 397.697 188 397.041 188C396.169 188 395.469 187.784 394.941 187.352C394.413 186.92 394.097 186.348 393.993 185.636H395.325C395.413 186.012 395.609 186.312 395.913 186.536C396.217 186.752 396.597 186.86 397.053 186.86C397.621 186.86 398.045 186.688 398.325 186.344C398.613 186 398.757 185.544 398.757 184.976C398.757 184.4 398.613 183.96 398.325 183.656C398.037 183.344 397.613 183.188 397.053 183.188C396.661 183.188 396.329 183.288 396.057 183.488C395.793 183.68 395.601 183.944 395.481 184.28H394.185V179.228H399.465V180.428ZM401.689 183.512C401.689 182.128 401.921 181.048 402.385 180.272C402.857 179.488 403.665 179.096 404.809 179.096C405.953 179.096 406.757 179.488 407.221 180.272C407.693 181.048 407.929 182.128 407.929 183.512C407.929 184.912 407.693 186.008 407.221 186.8C406.757 187.584 405.953 187.976 404.809 187.976C403.665 187.976 402.857 187.584 402.385 186.8C401.921 186.008 401.689 184.912 401.689 183.512ZM406.585 183.512C406.585 182.864 406.541 182.316 406.453 181.868C406.373 181.42 406.205 181.056 405.949 180.776C405.693 180.488 405.313 180.344 404.809 180.344C404.305 180.344 403.925 180.488 403.669 180.776C403.413 181.056 403.241 181.42 403.153 181.868C403.073 182.316 403.033 182.864 403.033 183.512C403.033 184.184 403.073 184.748 403.153 185.204C403.233 185.66 403.401 186.028 403.657 186.308C403.921 186.588 404.305 186.728 404.809 186.728C405.313 186.728 405.693 186.588 405.949 186.308C406.213 186.028 406.385 185.66 406.465 185.204C406.545 184.748 406.585 184.184 406.585 183.512Z" fill="#173244"/>
<rect x="359.5" y="166.5" width="169" height="34" rx="3.5" stroke="#173244"/>
</g>
<rect x="48" y="225" width="77" height="24" rx="12" fill="#F82530"/>
<rect x="52" y="229" width="16" height="16" rx="8" fill="white"/>
<path d="M157.602 237.114C157.602 236.162 157.817 235.308 158.246 234.552C158.675 233.787 159.259 233.189 159.996 232.76C160.743 232.331 161.569 232.116 162.474 232.116C163.538 232.116 164.467 232.373 165.26 232.886C166.053 233.399 166.632 234.127 166.996 235.07H165.47C165.199 234.482 164.807 234.029 164.294 233.712C163.79 233.395 163.183 233.236 162.474 233.236C161.793 233.236 161.181 233.395 160.64 233.712C160.099 234.029 159.674 234.482 159.366 235.07C159.058 235.649 158.904 236.33 158.904 237.114C158.904 237.889 159.058 238.57 159.366 239.158C159.674 239.737 160.099 240.185 160.64 240.502C161.181 240.819 161.793 240.978 162.474 240.978C163.183 240.978 163.79 240.824 164.294 240.516C164.807 240.199 165.199 239.746 165.47 239.158H166.996C166.632 240.091 166.053 240.815 165.26 241.328C164.467 241.832 163.538 242.084 162.474 242.084C161.569 242.084 160.743 241.874 159.996 241.454C159.259 241.025 158.675 240.432 158.246 239.676C157.817 238.92 157.602 238.066 157.602 237.114ZM172.9 234.188C173.479 234.188 174.002 234.314 174.468 234.566C174.935 234.809 175.299 235.177 175.56 235.672C175.831 236.167 175.966 236.769 175.966 237.478V242H174.706V237.66C174.706 236.895 174.515 236.311 174.132 235.91C173.75 235.499 173.227 235.294 172.564 235.294C171.892 235.294 171.356 235.504 170.954 235.924C170.562 236.344 170.366 236.955 170.366 237.758V242H169.092V231.64H170.366V235.42C170.618 235.028 170.964 234.725 171.402 234.51C171.85 234.295 172.35 234.188 172.9 234.188ZM177.772 238.136C177.772 237.352 177.93 236.666 178.248 236.078C178.565 235.481 178.999 235.019 179.55 234.692C180.11 234.365 180.73 234.202 181.412 234.202C182.084 234.202 182.667 234.347 183.162 234.636C183.656 234.925 184.025 235.289 184.268 235.728V234.328H185.556V242H184.268V240.572C184.016 241.02 183.638 241.393 183.134 241.692C182.639 241.981 182.06 242.126 181.398 242.126C180.716 242.126 180.1 241.958 179.55 241.622C178.999 241.286 178.565 240.815 178.248 240.208C177.93 239.601 177.772 238.911 177.772 238.136ZM184.268 238.15C184.268 237.571 184.151 237.067 183.918 236.638C183.684 236.209 183.367 235.882 182.966 235.658C182.574 235.425 182.14 235.308 181.664 235.308C181.188 235.308 180.754 235.42 180.362 235.644C179.97 235.868 179.657 236.195 179.424 236.624C179.19 237.053 179.074 237.557 179.074 238.136C179.074 238.724 179.19 239.237 179.424 239.676C179.657 240.105 179.97 240.437 180.362 240.67C180.754 240.894 181.188 241.006 181.664 241.006C182.14 241.006 182.574 240.894 182.966 240.67C183.367 240.437 183.684 240.105 183.918 239.676C184.151 239.237 184.268 238.729 184.268 238.15ZM189.182 235.574C189.406 235.135 189.724 234.795 190.134 234.552C190.554 234.309 191.063 234.188 191.66 234.188V235.504H191.324C189.896 235.504 189.182 236.279 189.182 237.828V242H187.908V234.328H189.182V235.574ZM196.495 234.202C197.158 234.202 197.736 234.347 198.231 234.636C198.735 234.925 199.108 235.289 199.351 235.728V234.328H200.639V242.168C200.639 242.868 200.49 243.489 200.191 244.03C199.892 244.581 199.463 245.01 198.903 245.318C198.352 245.626 197.708 245.78 196.971 245.78C195.963 245.78 195.123 245.542 194.451 245.066C193.779 244.59 193.382 243.941 193.261 243.12H194.521C194.661 243.587 194.95 243.96 195.389 244.24C195.828 244.529 196.355 244.674 196.971 244.674C197.671 244.674 198.24 244.455 198.679 244.016C199.127 243.577 199.351 242.961 199.351 242.168V240.558C199.099 241.006 198.726 241.379 198.231 241.678C197.736 241.977 197.158 242.126 196.495 242.126C195.814 242.126 195.193 241.958 194.633 241.622C194.082 241.286 193.648 240.815 193.331 240.208C193.014 239.601 192.855 238.911 192.855 238.136C192.855 237.352 193.014 236.666 193.331 236.078C193.648 235.481 194.082 235.019 194.633 234.692C195.193 234.365 195.814 234.202 196.495 234.202ZM199.351 238.15C199.351 237.571 199.234 237.067 199.001 236.638C198.768 236.209 198.45 235.882 198.049 235.658C197.657 235.425 197.223 235.308 196.747 235.308C196.271 235.308 195.837 235.42 195.445 235.644C195.053 235.868 194.74 236.195 194.507 236.624C194.274 237.053 194.157 237.557 194.157 238.136C194.157 238.724 194.274 239.237 194.507 239.676C194.74 240.105 195.053 240.437 195.445 240.67C195.837 240.894 196.271 241.006 196.747 241.006C197.223 241.006 197.657 240.894 198.049 240.67C198.45 240.437 198.768 240.105 199.001 239.676C199.234 239.237 199.351 238.729 199.351 238.15ZM209.992 237.87C209.992 238.113 209.978 238.369 209.95 238.64H203.818C203.865 239.396 204.121 239.989 204.588 240.418C205.064 240.838 205.638 241.048 206.31 241.048C206.861 241.048 207.318 240.922 207.682 240.67C208.055 240.409 208.317 240.063 208.466 239.634H209.838C209.633 240.371 209.222 240.973 208.606 241.44C207.99 241.897 207.225 242.126 206.31 242.126C205.582 242.126 204.929 241.963 204.35 241.636C203.781 241.309 203.333 240.847 203.006 240.25C202.679 239.643 202.516 238.943 202.516 238.15C202.516 237.357 202.675 236.661 202.992 236.064C203.309 235.467 203.753 235.009 204.322 234.692C204.901 234.365 205.563 234.202 206.31 234.202C207.038 234.202 207.682 234.361 208.242 234.678C208.802 234.995 209.231 235.434 209.53 235.994C209.838 236.545 209.992 237.17 209.992 237.87ZM208.676 237.604C208.676 237.119 208.569 236.703 208.354 236.358C208.139 236.003 207.845 235.737 207.472 235.56C207.108 235.373 206.702 235.28 206.254 235.28C205.61 235.28 205.059 235.485 204.602 235.896C204.154 236.307 203.897 236.876 203.832 237.604H208.676ZM213.148 235.756C213.409 235.299 213.792 234.925 214.296 234.636C214.8 234.347 215.374 234.202 216.018 234.202C216.708 234.202 217.329 234.365 217.88 234.692C218.43 235.019 218.864 235.481 219.182 236.078C219.499 236.666 219.658 237.352 219.658 238.136C219.658 238.911 219.499 239.601 219.182 240.208C218.864 240.815 218.426 241.286 217.866 241.622C217.315 241.958 216.699 242.126 216.018 242.126C215.355 242.126 214.772 241.981 214.268 241.692C213.773 241.403 213.4 241.034 213.148 240.586V242H211.874V231.64H213.148V235.756ZM218.356 238.136C218.356 237.557 218.239 237.053 218.006 236.624C217.772 236.195 217.455 235.868 217.054 235.644C216.662 235.42 216.228 235.308 215.752 235.308C215.285 235.308 214.851 235.425 214.45 235.658C214.058 235.882 213.74 236.213 213.498 236.652C213.264 237.081 213.148 237.581 213.148 238.15C213.148 238.729 213.264 239.237 213.498 239.676C213.74 240.105 214.058 240.437 214.45 240.67C214.851 240.894 215.285 241.006 215.752 241.006C216.228 241.006 216.662 240.894 217.054 240.67C217.455 240.437 217.772 240.105 218.006 239.676C218.239 239.237 218.356 238.724 218.356 238.136ZM221.059 238.136C221.059 237.352 221.217 236.666 221.535 236.078C221.852 235.481 222.286 235.019 222.837 234.692C223.397 234.365 224.017 234.202 224.699 234.202C225.371 234.202 225.954 234.347 226.449 234.636C226.943 234.925 227.312 235.289 227.555 235.728V234.328H228.843V242H227.555V240.572C227.303 241.02 226.925 241.393 226.421 241.692C225.926 241.981 225.347 242.126 224.685 242.126C224.003 242.126 223.387 241.958 222.837 241.622C222.286 241.286 221.852 240.815 221.535 240.208C221.217 239.601 221.059 238.911 221.059 238.136ZM227.555 238.15C227.555 237.571 227.438 237.067 227.205 236.638C226.971 236.209 226.654 235.882 226.253 235.658C225.861 235.425 225.427 235.308 224.951 235.308C224.475 235.308 224.041 235.42 223.649 235.644C223.257 235.868 222.944 236.195 222.711 236.624C222.477 237.053 222.361 237.557 222.361 238.136C222.361 238.724 222.477 239.237 222.711 239.676C222.944 240.105 223.257 240.437 223.649 240.67C224.041 240.894 224.475 241.006 224.951 241.006C225.427 241.006 225.861 240.894 226.253 240.67C226.654 240.437 226.971 240.105 227.205 239.676C227.438 239.237 227.555 238.729 227.555 238.15ZM230.72 238.15C230.72 237.357 230.878 236.666 231.196 236.078C231.513 235.481 231.952 235.019 232.512 234.692C233.081 234.365 233.73 234.202 234.458 234.202C235.4 234.202 236.175 234.431 236.782 234.888C237.398 235.345 237.804 235.98 238 236.792H236.628C236.497 236.325 236.24 235.957 235.858 235.686C235.484 235.415 235.018 235.28 234.458 235.28C233.73 235.28 233.142 235.532 232.694 236.036C232.246 236.531 232.022 237.235 232.022 238.15C232.022 239.074 232.246 239.788 232.694 240.292C233.142 240.796 233.73 241.048 234.458 241.048C235.018 241.048 235.484 240.917 235.858 240.656C236.231 240.395 236.488 240.021 236.628 239.536H238C237.794 240.32 237.384 240.95 236.768 241.426C236.152 241.893 235.382 242.126 234.458 242.126C233.73 242.126 233.081 241.963 232.512 241.636C231.952 241.309 231.513 240.847 231.196 240.25C230.878 239.653 230.72 238.953 230.72 238.15ZM244.183 242L241.173 238.612V242H239.899V231.64H241.173V237.73L244.127 234.328H245.905L242.293 238.15L245.919 242H244.183ZM254.359 235.378H252.749V242H251.475V235.378H250.481V234.328H251.475V233.782C251.475 232.923 251.694 232.298 252.133 231.906C252.581 231.505 253.295 231.304 254.275 231.304V232.368C253.715 232.368 253.318 232.48 253.085 232.704C252.861 232.919 252.749 233.278 252.749 233.782V234.328H254.359V235.378ZM263.044 237.87C263.044 238.113 263.03 238.369 263.002 238.64H256.87C256.917 239.396 257.174 239.989 257.64 240.418C258.116 240.838 258.69 241.048 259.362 241.048C259.913 241.048 260.37 240.922 260.734 240.67C261.108 240.409 261.369 240.063 261.518 239.634H262.89C262.685 240.371 262.274 240.973 261.658 241.44C261.042 241.897 260.277 242.126 259.362 242.126C258.634 242.126 257.981 241.963 257.402 241.636C256.833 241.309 256.385 240.847 256.058 240.25C255.732 239.643 255.568 238.943 255.568 238.15C255.568 237.357 255.727 236.661 256.044 236.064C256.362 235.467 256.805 235.009 257.374 234.692C257.953 234.365 258.616 234.202 259.362 234.202C260.09 234.202 260.734 234.361 261.294 234.678C261.854 234.995 262.284 235.434 262.582 235.994C262.89 236.545 263.044 237.17 263.044 237.87ZM261.728 237.604C261.728 237.119 261.621 236.703 261.406 236.358C261.192 236.003 260.898 235.737 260.524 235.56C260.16 235.373 259.754 235.28 259.306 235.28C258.662 235.28 258.112 235.485 257.654 235.896C257.206 236.307 256.95 236.876 256.884 237.604H261.728ZM271.926 237.87C271.926 238.113 271.912 238.369 271.884 238.64H265.752C265.799 239.396 266.055 239.989 266.522 240.418C266.998 240.838 267.572 241.048 268.244 241.048C268.795 241.048 269.252 240.922 269.616 240.67C269.989 240.409 270.251 240.063 270.4 239.634H271.772C271.567 240.371 271.156 240.973 270.54 241.44C269.924 241.897 269.159 242.126 268.244 242.126C267.516 242.126 266.863 241.963 266.284 241.636C265.715 241.309 265.267 240.847 264.94 240.25C264.613 239.643 264.45 238.943 264.45 238.15C264.45 237.357 264.609 236.661 264.926 236.064C265.243 235.467 265.687 235.009 266.256 234.692C266.835 234.365 267.497 234.202 268.244 234.202C268.972 234.202 269.616 234.361 270.176 234.678C270.736 234.995 271.165 235.434 271.464 235.994C271.772 236.545 271.926 237.17 271.926 237.87ZM270.61 237.604C270.61 237.119 270.503 236.703 270.288 236.358C270.073 236.003 269.779 235.737 269.406 235.56C269.042 235.373 268.636 235.28 268.188 235.28C267.544 235.28 266.993 235.485 266.536 235.896C266.088 236.307 265.831 236.876 265.766 237.604H270.61Z" fill="#173244"/>
<rect x="48" y="273" width="77" height="24" rx="12" fill="#F82530"/>
<rect x="52" y="277" width="16" height="16" rx="8" fill="white"/>
<path d="M161.116 280.242C162.18 280.242 163.099 280.443 163.874 280.844C164.658 281.236 165.255 281.801 165.666 282.538C166.086 283.275 166.296 284.143 166.296 285.142C166.296 286.141 166.086 287.009 165.666 287.746C165.255 288.474 164.658 289.034 163.874 289.426C163.099 289.809 162.18 290 161.116 290H158.078V280.242H161.116ZM161.116 288.95C162.376 288.95 163.337 288.619 164 287.956C164.663 287.284 164.994 286.346 164.994 285.142C164.994 283.929 164.658 282.981 163.986 282.3C163.323 281.619 162.367 281.278 161.116 281.278H159.352V288.95H161.116ZM175.176 285.87C175.176 286.113 175.162 286.369 175.134 286.64H169.002C169.049 287.396 169.306 287.989 169.772 288.418C170.248 288.838 170.822 289.048 171.494 289.048C172.045 289.048 172.502 288.922 172.866 288.67C173.24 288.409 173.501 288.063 173.65 287.634H175.022C174.817 288.371 174.406 288.973 173.79 289.44C173.174 289.897 172.409 290.126 171.494 290.126C170.766 290.126 170.113 289.963 169.534 289.636C168.965 289.309 168.517 288.847 168.19 288.25C167.864 287.643 167.7 286.943 167.7 286.15C167.7 285.357 167.859 284.661 168.176 284.064C168.494 283.467 168.937 283.009 169.506 282.692C170.085 282.365 170.748 282.202 171.494 282.202C172.222 282.202 172.866 282.361 173.426 282.678C173.986 282.995 174.416 283.434 174.714 283.994C175.022 284.545 175.176 285.17 175.176 285.87ZM173.86 285.604C173.86 285.119 173.753 284.703 173.538 284.358C173.324 284.003 173.03 283.737 172.656 283.56C172.292 283.373 171.886 283.28 171.438 283.28C170.794 283.28 170.244 283.485 169.786 283.896C169.338 284.307 169.082 284.876 169.016 285.604H173.86ZM176.582 286.15C176.582 285.357 176.741 284.666 177.058 284.078C177.375 283.481 177.814 283.019 178.374 282.692C178.943 282.365 179.592 282.202 180.32 282.202C181.263 282.202 182.037 282.431 182.644 282.888C183.26 283.345 183.666 283.98 183.862 284.792H182.49C182.359 284.325 182.103 283.957 181.72 283.686C181.347 283.415 180.88 283.28 180.32 283.28C179.592 283.28 179.004 283.532 178.556 284.036C178.108 284.531 177.884 285.235 177.884 286.15C177.884 287.074 178.108 287.788 178.556 288.292C179.004 288.796 179.592 289.048 180.32 289.048C180.88 289.048 181.347 288.917 181.72 288.656C182.093 288.395 182.35 288.021 182.49 287.536H183.862C183.657 288.32 183.246 288.95 182.63 289.426C182.014 289.893 181.244 290.126 180.32 290.126C179.592 290.126 178.943 289.963 178.374 289.636C177.814 289.309 177.375 288.847 177.058 288.25C176.741 287.653 176.582 286.953 176.582 286.15ZM187.036 279.64V290H185.762V279.64H187.036ZM190.065 281.082C189.823 281.082 189.617 280.998 189.449 280.83C189.281 280.662 189.197 280.457 189.197 280.214C189.197 279.971 189.281 279.766 189.449 279.598C189.617 279.43 189.823 279.346 190.065 279.346C190.299 279.346 190.495 279.43 190.653 279.598C190.821 279.766 190.905 279.971 190.905 280.214C190.905 280.457 190.821 280.662 190.653 280.83C190.495 280.998 190.299 281.082 190.065 281.082ZM190.681 282.328V290H189.407V282.328H190.681ZM196.791 282.188C197.724 282.188 198.48 282.473 199.059 283.042C199.637 283.602 199.927 284.414 199.927 285.478V290H198.667V285.66C198.667 284.895 198.475 284.311 198.093 283.91C197.71 283.499 197.187 283.294 196.525 283.294C195.853 283.294 195.316 283.504 194.915 283.924C194.523 284.344 194.327 284.955 194.327 285.758V290H193.053V282.328H194.327V283.42C194.579 283.028 194.919 282.725 195.349 282.51C195.787 282.295 196.268 282.188 196.791 282.188ZM209.208 285.87C209.208 286.113 209.194 286.369 209.166 286.64H203.034C203.08 287.396 203.337 287.989 203.804 288.418C204.28 288.838 204.854 289.048 205.526 289.048C206.076 289.048 206.534 288.922 206.898 288.67C207.271 288.409 207.532 288.063 207.682 287.634H209.054C208.848 288.371 208.438 288.973 207.822 289.44C207.206 289.897 206.44 290.126 205.526 290.126C204.798 290.126 204.144 289.963 203.566 289.636C202.996 289.309 202.548 288.847 202.222 288.25C201.895 287.643 201.732 286.943 201.732 286.15C201.732 285.357 201.89 284.661 202.208 284.064C202.525 283.467 202.968 283.009 203.538 282.692C204.116 282.365 204.779 282.202 205.526 282.202C206.254 282.202 206.898 282.361 207.458 282.678C208.018 282.995 208.447 283.434 208.746 283.994C209.054 284.545 209.208 285.17 209.208 285.87ZM207.892 285.604C207.892 285.119 207.784 284.703 207.57 284.358C207.355 284.003 207.061 283.737 206.688 283.56C206.324 283.373 205.918 283.28 205.47 283.28C204.826 283.28 204.275 283.485 203.818 283.896C203.37 284.307 203.113 284.876 203.048 285.604H207.892ZM218.144 283.378H216.534V290H215.26V283.378H214.266V282.328H215.26V281.782C215.26 280.923 215.479 280.298 215.918 279.906C216.366 279.505 217.08 279.304 218.06 279.304V280.368C217.5 280.368 217.103 280.48 216.87 280.704C216.646 280.919 216.534 281.278 216.534 281.782V282.328H218.144V283.378ZM226.829 285.87C226.829 286.113 226.815 286.369 226.787 286.64H220.655C220.702 287.396 220.959 287.989 221.425 288.418C221.901 288.838 222.475 289.048 223.147 289.048C223.698 289.048 224.155 288.922 224.519 288.67C224.893 288.409 225.154 288.063 225.303 287.634H226.675C226.47 288.371 226.059 288.973 225.443 289.44C224.827 289.897 224.062 290.126 223.147 290.126C222.419 290.126 221.766 289.963 221.187 289.636C220.618 289.309 220.17 288.847 219.843 288.25C219.517 287.643 219.353 286.943 219.353 286.15C219.353 285.357 219.512 284.661 219.829 284.064C220.147 283.467 220.59 283.009 221.159 282.692C221.738 282.365 222.401 282.202 223.147 282.202C223.875 282.202 224.519 282.361 225.079 282.678C225.639 282.995 226.069 283.434 226.367 283.994C226.675 284.545 226.829 285.17 226.829 285.87ZM225.513 285.604C225.513 285.119 225.406 284.703 225.191 284.358C224.977 284.003 224.683 283.737 224.309 283.56C223.945 283.373 223.539 283.28 223.091 283.28C222.447 283.28 221.897 283.485 221.439 283.896C220.991 284.307 220.735 284.876 220.669 285.604H225.513ZM235.711 285.87C235.711 286.113 235.697 286.369 235.669 286.64H229.537C229.583 287.396 229.84 287.989 230.307 288.418C230.783 288.838 231.357 289.048 232.029 289.048C232.579 289.048 233.037 288.922 233.401 288.67C233.774 288.409 234.035 288.063 234.185 287.634H235.557C235.351 288.371 234.941 288.973 234.325 289.44C233.709 289.897 232.943 290.126 232.029 290.126C231.301 290.126 230.647 289.963 230.069 289.636C229.499 289.309 229.051 288.847 228.725 288.25C228.398 287.643 228.235 286.943 228.235 286.15C228.235 285.357 228.393 284.661 228.711 284.064C229.028 283.467 229.471 283.009 230.041 282.692C230.619 282.365 231.282 282.202 232.029 282.202C232.757 282.202 233.401 282.361 233.961 282.678C234.521 282.995 234.95 283.434 235.249 283.994C235.557 284.545 235.711 285.17 235.711 285.87ZM234.395 285.604C234.395 285.119 234.287 284.703 234.073 284.358C233.858 284.003 233.564 283.737 233.191 283.56C232.827 283.373 232.421 283.28 231.973 283.28C231.329 283.28 230.778 283.485 230.321 283.896C229.873 284.307 229.616 284.876 229.551 285.604H234.395Z" fill="#173244"/>
<rect x="48" y="326.5" width="77" height="24" rx="12" fill="#129590"/>
<rect x="105" y="330.5" width="16" height="16" rx="8" fill="white"/>
<path d="M163.216 343.5L160.892 339.51H159.352V343.5H158.078V333.742H161.228C161.965 333.742 162.586 333.868 163.09 334.12C163.603 334.372 163.986 334.713 164.238 335.142C164.49 335.571 164.616 336.061 164.616 336.612C164.616 337.284 164.42 337.877 164.028 338.39C163.645 338.903 163.067 339.244 162.292 339.412L164.742 343.5H163.216ZM159.352 338.488H161.228C161.919 338.488 162.437 338.32 162.782 337.984C163.127 337.639 163.3 337.181 163.3 336.612C163.3 336.033 163.127 335.585 162.782 335.268C162.446 334.951 161.928 334.792 161.228 334.792H159.352V338.488ZM170.142 343.626C169.423 343.626 168.77 343.463 168.182 343.136C167.603 342.809 167.146 342.347 166.81 341.75C166.483 341.143 166.32 340.443 166.32 339.65C166.32 338.866 166.488 338.175 166.824 337.578C167.169 336.971 167.636 336.509 168.224 336.192C168.812 335.865 169.47 335.702 170.198 335.702C170.926 335.702 171.584 335.865 172.172 336.192C172.76 336.509 173.222 336.967 173.558 337.564C173.903 338.161 174.076 338.857 174.076 339.65C174.076 340.443 173.898 341.143 173.544 341.75C173.198 342.347 172.727 342.809 172.13 343.136C171.532 343.463 170.87 343.626 170.142 343.626ZM170.142 342.506C170.599 342.506 171.028 342.399 171.43 342.184C171.831 341.969 172.153 341.647 172.396 341.218C172.648 340.789 172.774 340.266 172.774 339.65C172.774 339.034 172.652 338.511 172.41 338.082C172.167 337.653 171.85 337.335 171.458 337.13C171.066 336.915 170.641 336.808 170.184 336.808C169.717 336.808 169.288 336.915 168.896 337.13C168.513 337.335 168.205 337.653 167.972 338.082C167.738 338.511 167.622 339.034 167.622 339.65C167.622 340.275 167.734 340.803 167.958 341.232C168.191 341.661 168.499 341.983 168.882 342.198C169.264 342.403 169.684 342.506 170.142 342.506ZM177.225 333.14V343.5H175.951V333.14H177.225ZM180.87 333.14V343.5H179.596V333.14H180.87ZM183.899 334.582C183.657 334.582 183.451 334.498 183.283 334.33C183.115 334.162 183.031 333.957 183.031 333.714C183.031 333.471 183.115 333.266 183.283 333.098C183.451 332.93 183.657 332.846 183.899 332.846C184.133 332.846 184.329 332.93 184.487 333.098C184.655 333.266 184.739 333.471 184.739 333.714C184.739 333.957 184.655 334.162 184.487 334.33C184.329 334.498 184.133 334.582 183.899 334.582ZM184.515 335.828V343.5H183.241V335.828H184.515ZM190.625 335.688C191.558 335.688 192.314 335.973 192.893 336.542C193.471 337.102 193.761 337.914 193.761 338.978V343.5H192.501V339.16C192.501 338.395 192.309 337.811 191.927 337.41C191.544 336.999 191.021 336.794 190.359 336.794C189.687 336.794 189.15 337.004 188.749 337.424C188.357 337.844 188.161 338.455 188.161 339.258V343.5H186.887V335.828H188.161V336.92C188.413 336.528 188.753 336.225 189.183 336.01C189.621 335.795 190.102 335.688 190.625 335.688ZM199.206 335.702C199.868 335.702 200.447 335.847 200.942 336.136C201.446 336.425 201.819 336.789 202.062 337.228V335.828H203.35V343.668C203.35 344.368 203.2 344.989 202.902 345.53C202.603 346.081 202.174 346.51 201.614 346.818C201.063 347.126 200.419 347.28 199.682 347.28C198.674 347.28 197.834 347.042 197.162 346.566C196.49 346.09 196.093 345.441 195.972 344.62H197.232C197.372 345.087 197.661 345.46 198.1 345.74C198.538 346.029 199.066 346.174 199.682 346.174C200.382 346.174 200.951 345.955 201.39 345.516C201.838 345.077 202.062 344.461 202.062 343.668V342.058C201.81 342.506 201.436 342.879 200.942 343.178C200.447 343.477 199.868 343.626 199.206 343.626C198.524 343.626 197.904 343.458 197.344 343.122C196.793 342.786 196.359 342.315 196.042 341.708C195.724 341.101 195.566 340.411 195.566 339.636C195.566 338.852 195.724 338.166 196.042 337.578C196.359 336.981 196.793 336.519 197.344 336.192C197.904 335.865 198.524 335.702 199.206 335.702ZM202.062 339.65C202.062 339.071 201.945 338.567 201.712 338.138C201.478 337.709 201.161 337.382 200.76 337.158C200.368 336.925 199.934 336.808 199.458 336.808C198.982 336.808 198.548 336.92 198.156 337.144C197.764 337.368 197.451 337.695 197.218 338.124C196.984 338.553 196.868 339.057 196.868 339.636C196.868 340.224 196.984 340.737 197.218 341.176C197.451 341.605 197.764 341.937 198.156 342.17C198.548 342.394 198.982 342.506 199.458 342.506C199.934 342.506 200.368 342.394 200.76 342.17C201.161 341.937 201.478 341.605 201.712 341.176C201.945 340.737 202.062 340.229 202.062 339.65ZM210.909 337.074C211.133 336.635 211.45 336.295 211.861 336.052C212.281 335.809 212.79 335.688 213.387 335.688V337.004H213.051C211.623 337.004 210.909 337.779 210.909 339.328V343.5H209.635V335.828H210.909V337.074ZM222.058 339.37C222.058 339.613 222.044 339.869 222.016 340.14H215.884C215.93 340.896 216.187 341.489 216.654 341.918C217.13 342.338 217.704 342.548 218.376 342.548C218.926 342.548 219.384 342.422 219.748 342.17C220.121 341.909 220.382 341.563 220.532 341.134H221.904C221.698 341.871 221.288 342.473 220.672 342.94C220.056 343.397 219.29 343.626 218.376 343.626C217.648 343.626 216.994 343.463 216.416 343.136C215.846 342.809 215.398 342.347 215.072 341.75C214.745 341.143 214.582 340.443 214.582 339.65C214.582 338.857 214.74 338.161 215.058 337.564C215.375 336.967 215.818 336.509 216.388 336.192C216.966 335.865 217.629 335.702 218.376 335.702C219.104 335.702 219.748 335.861 220.308 336.178C220.868 336.495 221.297 336.934 221.596 337.494C221.904 338.045 222.058 338.67 222.058 339.37ZM220.742 339.104C220.742 338.619 220.634 338.203 220.42 337.858C220.205 337.503 219.911 337.237 219.538 337.06C219.174 336.873 218.768 336.78 218.32 336.78C217.676 336.78 217.125 336.985 216.668 337.396C216.22 337.807 215.963 338.376 215.898 339.104H220.742ZM226.655 343.626C226.067 343.626 225.54 343.528 225.073 343.332C224.607 343.127 224.238 342.847 223.967 342.492C223.697 342.128 223.547 341.713 223.519 341.246H224.835C224.873 341.629 225.05 341.941 225.367 342.184C225.694 342.427 226.119 342.548 226.641 342.548C227.127 342.548 227.509 342.441 227.789 342.226C228.069 342.011 228.209 341.741 228.209 341.414C228.209 341.078 228.06 340.831 227.761 340.672C227.463 340.504 227.001 340.341 226.375 340.182C225.806 340.033 225.339 339.883 224.975 339.734C224.621 339.575 224.313 339.347 224.051 339.048C223.799 338.74 223.673 338.339 223.673 337.844C223.673 337.452 223.79 337.093 224.023 336.766C224.257 336.439 224.588 336.183 225.017 335.996C225.447 335.8 225.937 335.702 226.487 335.702C227.337 335.702 228.023 335.917 228.545 336.346C229.068 336.775 229.348 337.363 229.385 338.11H228.111C228.083 337.709 227.92 337.387 227.621 337.144C227.332 336.901 226.94 336.78 226.445 336.78C225.988 336.78 225.624 336.878 225.353 337.074C225.083 337.27 224.947 337.527 224.947 337.844C224.947 338.096 225.027 338.306 225.185 338.474C225.353 338.633 225.559 338.763 225.801 338.866C226.053 338.959 226.399 339.067 226.837 339.188C227.388 339.337 227.836 339.487 228.181 339.636C228.527 339.776 228.821 339.991 229.063 340.28C229.315 340.569 229.446 340.947 229.455 341.414C229.455 341.834 229.339 342.212 229.105 342.548C228.872 342.884 228.541 343.15 228.111 343.346C227.691 343.533 227.206 343.626 226.655 343.626ZM238.454 339.37C238.454 339.613 238.44 339.869 238.412 340.14H232.28C232.326 340.896 232.583 341.489 233.05 341.918C233.526 342.338 234.1 342.548 234.772 342.548C235.322 342.548 235.78 342.422 236.144 342.17C236.517 341.909 236.778 341.563 236.928 341.134H238.3C238.094 341.871 237.684 342.473 237.068 342.94C236.452 343.397 235.686 343.626 234.772 343.626C234.044 343.626 233.39 343.463 232.812 343.136C232.242 342.809 231.794 342.347 231.468 341.75C231.141 341.143 230.978 340.443 230.978 339.65C230.978 338.857 231.136 338.161 231.454 337.564C231.771 336.967 232.214 336.509 232.784 336.192C233.362 335.865 234.025 335.702 234.772 335.702C235.5 335.702 236.144 335.861 236.704 336.178C237.264 336.495 237.693 336.934 237.992 337.494C238.3 338.045 238.454 338.67 238.454 339.37ZM237.138 339.104C237.138 338.619 237.03 338.203 236.816 337.858C236.601 337.503 236.307 337.237 235.934 337.06C235.57 336.873 235.164 336.78 234.716 336.78C234.072 336.78 233.521 336.985 233.064 337.396C232.616 337.807 232.359 338.376 232.294 339.104H237.138ZM241.609 337.074C241.833 336.635 242.151 336.295 242.561 336.052C242.981 335.809 243.49 335.688 244.087 335.688V337.004H243.751C242.323 337.004 241.609 337.779 241.609 339.328V343.5H240.335V335.828H241.609V337.074ZM248.614 342.324L250.994 335.828H252.352L249.342 343.5H247.858L244.848 335.828H246.22L248.614 342.324ZM260.806 339.37C260.806 339.613 260.792 339.869 260.764 340.14H254.632C254.678 340.896 254.935 341.489 255.402 341.918C255.878 342.338 256.452 342.548 257.124 342.548C257.674 342.548 258.132 342.422 258.496 342.17C258.869 341.909 259.13 341.563 259.28 341.134H260.652C260.446 341.871 260.036 342.473 259.42 342.94C258.804 343.397 258.038 343.626 257.124 343.626C256.396 343.626 255.742 343.463 255.164 343.136C254.594 342.809 254.146 342.347 253.82 341.75C253.493 341.143 253.33 340.443 253.33 339.65C253.33 338.857 253.488 338.161 253.806 337.564C254.123 336.967 254.566 336.509 255.136 336.192C255.714 335.865 256.377 335.702 257.124 335.702C257.852 335.702 258.496 335.861 259.056 336.178C259.616 336.495 260.045 336.934 260.344 337.494C260.652 338.045 260.806 338.67 260.806 339.37ZM259.49 339.104C259.49 338.619 259.382 338.203 259.168 337.858C258.953 337.503 258.659 337.237 258.286 337.06C257.922 336.873 257.516 336.78 257.068 336.78C256.424 336.78 255.873 336.985 255.416 337.396C254.968 337.807 254.711 338.376 254.646 339.104H259.49Z" fill="#173244"/>
<g opacity="0.5">
<path d="M371.54 335.5V334.252H374.036V343H372.656V335.5H371.54ZM376.115 338.512C376.115 337.128 376.347 336.048 376.811 335.272C377.283 334.488 378.091 334.096 379.235 334.096C380.379 334.096 381.183 334.488 381.647 335.272C382.119 336.048 382.355 337.128 382.355 338.512C382.355 339.912 382.119 341.008 381.647 341.8C381.183 342.584 380.379 342.976 379.235 342.976C378.091 342.976 377.283 342.584 376.811 341.8C376.347 341.008 376.115 339.912 376.115 338.512ZM381.011 338.512C381.011 337.864 380.967 337.316 380.879 336.868C380.799 336.42 380.631 336.056 380.375 335.776C380.119 335.488 379.739 335.344 379.235 335.344C378.731 335.344 378.351 335.488 378.095 335.776C377.839 336.056 377.667 336.42 377.579 336.868C377.499 337.316 377.459 337.864 377.459 338.512C377.459 339.184 377.499 339.748 377.579 340.204C377.659 340.66 377.827 341.028 378.083 341.308C378.347 341.588 378.731 341.728 379.235 341.728C379.739 341.728 380.119 341.588 380.375 341.308C380.639 341.028 380.811 340.66 380.891 340.204C380.971 339.748 381.011 339.184 381.011 338.512ZM383.787 336.364C383.787 335.78 383.955 335.324 384.291 334.996C384.635 334.66 385.075 334.492 385.611 334.492C386.147 334.492 386.583 334.66 386.919 334.996C387.263 335.324 387.435 335.78 387.435 336.364C387.435 336.948 387.263 337.408 386.919 337.744C386.583 338.08 386.147 338.248 385.611 338.248C385.075 338.248 384.635 338.08 384.291 337.744C383.955 337.408 383.787 336.948 383.787 336.364ZM391.107 334.648L386.319 343H384.975L389.763 334.648H391.107ZM385.611 335.32C385.107 335.32 384.855 335.668 384.855 336.364C384.855 337.068 385.107 337.42 385.611 337.42C385.851 337.42 386.035 337.336 386.163 337.168C386.299 336.992 386.367 336.724 386.367 336.364C386.367 335.668 386.115 335.32 385.611 335.32ZM388.671 341.272C388.671 340.688 388.839 340.232 389.175 339.904C389.519 339.568 389.959 339.4 390.495 339.4C391.023 339.4 391.455 339.568 391.791 339.904C392.135 340.232 392.307 340.688 392.307 341.272C392.307 341.856 392.135 342.316 391.791 342.652C391.455 342.988 391.023 343.156 390.495 343.156C389.959 343.156 389.519 342.988 389.175 342.652C388.839 342.316 388.671 341.856 388.671 341.272ZM390.483 340.228C389.979 340.228 389.727 340.576 389.727 341.272C389.727 341.968 389.979 342.316 390.483 342.316C390.987 342.316 391.239 341.968 391.239 341.272C391.239 340.576 390.987 340.228 390.483 340.228Z" fill="#173244"/>
<rect x="359.5" y="321.5" width="169" height="34" rx="3.5" stroke="#173244"/>
</g>
</svg>
