<svg width="576" height="482" viewBox="0 0 576 482" fill="none" xmlns="http://www.w3.org/2000/svg">
<rect width="350.974" height="241.387" rx="23.6945" transform="matrix(0.866025 0.5 -0.866025 0.5 240.547 185.113)" fill="white"/>
<path d="M240.795 246.511L231.881 251.657L230.419 250.813L239.333 245.667L240.795 246.511ZM245.882 249.448C246.831 249.996 247.476 250.581 247.818 251.203C248.178 251.825 248.207 252.445 247.908 253.062C247.626 253.679 247.032 254.249 246.126 254.772C245.219 255.295 244.236 255.636 243.176 255.794C242.124 255.957 241.06 255.935 239.982 255.727C238.922 255.52 237.918 255.142 236.968 254.594L234.057 252.914L242.971 247.767L245.882 249.448ZM238.161 253.906C239.204 254.508 240.286 254.807 241.406 254.802C242.526 254.797 243.599 254.498 244.625 253.906C245.66 253.309 246.19 252.682 246.215 252.025C246.241 251.369 245.732 250.739 244.689 250.137L243.24 249.3L236.712 253.069L238.161 253.906ZM254.625 255.533L255.959 254.763L258.627 256.303L249.277 261.701L247.802 260.849L255.818 256.222L254.625 255.533ZM254.338 262.327C255.869 262.392 257.096 262.429 258.019 262.438C258.959 262.448 259.836 262.401 260.648 262.298C261.46 262.194 262.114 261.999 262.61 261.713C263.123 261.417 263.401 261.113 263.444 260.802C263.495 260.496 263.26 260.192 262.739 259.891C262.234 259.6 261.678 259.467 261.071 259.491C260.481 259.516 259.908 259.679 259.353 259.98L257.942 259.166C258.942 258.618 259.977 258.356 261.046 258.381C262.131 258.405 263.106 258.667 263.97 259.166C264.902 259.704 265.372 260.271 265.38 260.869C265.398 261.471 264.979 262.019 264.124 262.513C263.508 262.868 262.756 263.12 261.866 263.268C260.994 263.416 260.114 263.495 259.224 263.505C258.352 263.515 257.288 263.497 256.031 263.453L254.941 263.416L259.006 265.763L257.788 266.467L251.555 262.868L252.62 262.253L254.338 262.327ZM266.216 263.35C267.062 262.921 267.986 262.738 268.986 262.802C269.995 262.872 270.936 263.158 271.808 263.661C272.406 264.007 272.817 264.367 273.039 264.742C273.261 265.118 273.3 265.475 273.154 265.816C273.009 266.157 272.705 266.46 272.244 266.727C271.714 267.033 271.119 267.213 270.461 267.267C269.803 267.322 269.213 267.272 268.691 267.119L268.64 267.149C268.99 267.529 269.102 267.919 268.973 268.319C268.854 268.714 268.477 269.094 267.845 269.459C267.34 269.75 266.776 269.943 266.152 270.037C265.528 270.13 264.874 270.113 264.19 269.985C263.514 269.851 262.86 269.602 262.227 269.237C261.304 268.704 260.778 268.129 260.65 267.512C260.539 266.895 260.906 266.317 261.753 265.779L263.164 266.594C262.745 266.875 262.548 267.191 262.574 267.541C262.608 267.887 262.894 268.215 263.433 268.526C263.955 268.827 264.497 268.978 265.062 268.978C265.635 268.973 266.148 268.84 266.601 268.578C267.199 268.232 267.43 267.877 267.293 267.512C267.174 267.146 266.72 266.737 265.934 266.283L265.6 266.09L266.806 265.394L267.152 265.594C267.853 265.989 268.495 266.226 269.076 266.305C269.666 266.389 270.2 266.292 270.679 266.016C271.09 265.779 271.282 265.515 271.256 265.224C271.239 264.927 270.987 264.639 270.5 264.357C270.021 264.081 269.525 263.938 269.012 263.928C268.507 263.913 268.05 263.995 267.64 264.172L266.216 263.35ZM269.868 271.294C271.398 271.358 272.625 271.395 273.549 271.405C274.489 271.414 275.366 271.368 276.178 271.264C276.99 271.16 277.644 270.965 278.14 270.679C278.653 270.383 278.931 270.079 278.974 269.768C279.025 269.462 278.79 269.159 278.268 268.857C277.764 268.566 277.208 268.433 276.601 268.458C276.011 268.482 275.438 268.645 274.883 268.946L273.472 268.132C274.472 267.584 275.507 267.322 276.575 267.347C277.661 267.372 278.636 267.633 279.5 268.132C280.431 268.67 280.902 269.238 280.91 269.835C280.927 270.437 280.508 270.985 279.653 271.479C279.038 271.834 278.285 272.086 277.396 272.234C276.524 272.382 275.643 272.461 274.754 272.471C273.882 272.481 272.818 272.463 271.561 272.419L270.471 272.382L274.536 274.729L273.318 275.433L267.085 271.834L268.149 271.219L269.868 271.294Z" fill="#173244"/>
<path d="M230.287 230.281C235.953 227.01 245.14 227.01 250.807 230.281L319.207 269.772L272.182 296.922L193.522 251.507L230.287 230.281Z" stroke="#129590" stroke-width="2"/>
<path d="M322.519 296.658C322.733 296.268 322.746 295.89 322.558 295.525C322.378 295.154 322.019 294.814 321.48 294.503C320.89 294.162 320.232 293.935 319.505 293.822C318.779 293.708 318.039 293.715 317.287 293.844C316.543 293.977 315.85 294.229 315.209 294.599C314.568 294.969 314.127 295.372 313.888 295.806C313.666 296.24 313.653 296.667 313.85 297.087C314.046 297.507 314.44 297.887 315.029 298.227C315.825 298.686 316.692 298.931 317.633 298.96C318.573 298.99 319.48 298.817 320.352 298.442L317.005 296.509L318.172 295.836L323.084 298.672L321.942 299.331C321.156 299.676 320.271 299.901 319.287 300.004C318.313 300.113 317.329 300.083 316.338 299.916C315.363 299.748 314.487 299.439 313.708 298.99C312.871 298.506 312.298 297.953 311.99 297.331C311.691 296.704 311.682 296.073 311.964 295.436C312.255 294.804 312.836 294.236 313.708 293.733C314.581 293.229 315.564 292.894 316.658 292.726C317.761 292.563 318.851 292.57 319.929 292.748C321.023 292.926 321.985 293.254 322.814 293.733C323.763 294.281 324.37 294.903 324.635 295.599C324.918 296.295 324.798 296.986 324.276 297.672L322.519 296.658ZM333.824 301.17L329.527 298.69L326.975 300.163C327.394 300.129 327.86 300.166 328.373 300.274C328.895 300.388 329.356 300.56 329.758 300.793C330.476 301.207 330.904 301.632 331.041 302.066C331.186 302.505 331.118 302.915 330.835 303.295C330.562 303.68 330.164 304.023 329.643 304.324C329.01 304.69 328.322 304.944 327.578 305.087C326.851 305.23 326.103 305.243 325.334 305.124C324.573 305.011 323.842 304.751 323.14 304.347C322.209 303.809 321.691 303.243 321.589 302.651C321.486 302.059 321.76 301.511 322.409 301.007L323.833 301.829C323.525 302.115 323.414 302.421 323.5 302.747C323.594 303.068 323.884 303.369 324.372 303.651C324.979 304.001 325.616 304.157 326.283 304.117C326.958 304.083 327.599 303.89 328.206 303.54C328.822 303.184 329.138 302.824 329.155 302.459C329.181 302.088 328.895 301.73 328.296 301.385C327.877 301.143 327.415 301 326.911 300.955C326.424 300.911 325.936 300.955 325.449 301.089L324.064 300.289L329.463 297.172L335.106 300.43L333.824 301.17ZM340.36 305.995C340.659 305.714 340.783 305.445 340.732 305.188C340.681 304.932 340.433 304.675 339.988 304.418C339.313 304.028 338.548 303.888 337.693 303.996C336.846 304.1 335.816 304.492 334.602 305.174C335.2 305.085 335.816 305.104 336.449 305.233C337.081 305.361 337.646 305.568 338.142 305.855C338.706 306.181 339.078 306.538 339.257 306.928C339.454 307.318 339.441 307.716 339.219 308.121C339.005 308.53 338.578 308.92 337.936 309.29C337.338 309.636 336.684 309.875 335.974 310.009C335.273 310.147 334.555 310.162 333.819 310.053C333.093 309.94 332.404 309.695 331.755 309.32C330.874 308.812 330.374 308.301 330.254 307.787C330.152 307.274 330.352 306.753 330.857 306.225C331.37 305.702 332.157 305.134 333.217 304.522C336.346 302.715 339.014 302.449 341.22 303.722C342.075 304.216 342.515 304.737 342.54 305.285C342.575 305.837 342.297 306.334 341.707 306.773L340.36 305.995ZM336.59 306.38C336.068 306.079 335.465 305.914 334.781 305.884C334.114 305.855 333.486 306.01 332.896 306.351C332.306 306.691 332.003 307.059 331.986 307.454C331.986 307.849 332.289 308.222 332.896 308.572C333.435 308.883 334.025 309.031 334.666 309.016C335.316 309.007 335.919 308.841 336.474 308.52C337.056 308.185 337.363 307.829 337.398 307.454C337.449 307.079 337.18 306.721 336.59 306.38ZM350.782 310.813L338.996 313.501L337.521 312.649L349.192 310.072L344.446 307.333L345.69 306.614L351.872 310.183L350.782 310.813ZM350.533 314.519C350.088 313.749 350.345 313.088 351.302 312.535C351.764 312.268 352.303 312.091 352.918 312.002C353.534 311.913 354.184 311.938 354.868 312.076C355.56 312.209 356.24 312.468 356.907 312.853C357.565 313.233 358.01 313.623 358.24 314.023C358.488 314.423 358.535 314.801 358.382 315.156C358.228 315.512 357.92 315.823 357.458 316.089C356.979 316.366 356.432 316.538 355.817 316.607C355.218 316.677 354.62 316.652 354.021 316.533C354.329 316.918 354.419 317.311 354.29 317.711C354.171 318.106 353.837 318.461 353.29 318.777C352.734 319.098 352.102 319.3 351.392 319.384C350.682 319.468 349.96 319.431 349.225 319.273C348.489 319.115 347.801 318.851 347.16 318.481C346.518 318.111 346.061 317.713 345.787 317.289C345.522 316.869 345.463 316.454 345.608 316.045C345.753 315.635 346.104 315.27 346.66 314.949C347.215 314.628 347.835 314.433 348.519 314.364C349.203 314.295 349.874 314.347 350.533 314.519ZM355.881 315.386C356.359 315.109 356.578 314.811 356.535 314.49C356.492 314.169 356.21 313.858 355.688 313.557C355.175 313.261 354.641 313.1 354.085 313.075C353.529 313.051 353.008 313.179 352.521 313.46C352.093 313.707 351.896 313.999 351.931 314.334C351.982 314.67 352.251 314.978 352.739 315.26C353.226 315.541 353.765 315.694 354.355 315.719C354.944 315.744 355.453 315.632 355.881 315.386ZM351.636 315.897C351.071 315.571 350.469 315.386 349.827 315.341C349.203 315.297 348.63 315.425 348.109 315.726C347.621 316.008 347.395 316.336 347.429 316.711C347.472 317.081 347.788 317.437 348.378 317.777C348.959 318.113 349.571 318.288 350.212 318.303C350.862 318.323 351.426 318.194 351.905 317.918C352.418 317.622 352.64 317.291 352.572 316.926C352.512 316.565 352.2 316.222 351.636 315.897Z" fill="#173244"/>
<rect width="90.8287" height="54.2998" transform="matrix(0.866025 0.5 -0.866025 0.5 319.207 269.771)" stroke="#129590" stroke-width="2"/>
<path d="M391.165 340.687C390.737 340.934 390.229 341.104 389.639 341.198C389.057 341.297 388.433 341.302 387.766 341.213C387.108 341.129 386.475 340.941 385.868 340.65L384.829 341.25L383.996 340.768L385.034 340.169C384.308 339.66 383.91 339.139 383.842 338.606C383.773 338.073 384.09 337.604 384.791 337.199L386.355 338.103C386.048 338.31 385.877 338.532 385.842 338.769C385.817 339.001 385.949 339.236 386.24 339.473L389.062 337.844C388.634 337.429 388.313 337.076 388.1 336.785C387.894 336.489 387.826 336.173 387.894 335.837C387.971 335.506 388.292 335.178 388.856 334.852C389.566 334.442 390.4 334.248 391.357 334.267C392.323 334.282 393.247 334.499 394.127 334.919L395.166 334.319L396 334.8L394.961 335.4C395.645 335.874 396.008 336.36 396.051 336.859C396.111 337.357 395.816 337.829 395.166 338.273L393.602 337.37C393.841 337.202 393.973 337.007 393.999 336.785C394.033 336.558 393.939 336.336 393.717 336.118L390.947 337.718C391.383 338.127 391.703 338.48 391.909 338.777C392.122 339.068 392.191 339.379 392.114 339.71C392.045 340.035 391.729 340.361 391.165 340.687ZM390.421 335.667C390.07 335.869 389.899 336.086 389.908 336.318C389.925 336.555 390.066 336.819 390.331 337.111L392.922 335.615C392.511 335.427 392.084 335.333 391.639 335.333C391.203 335.338 390.797 335.45 390.421 335.667ZM387.074 339.954C387.51 340.137 387.954 340.22 388.407 340.206C388.869 340.186 389.271 340.077 389.613 339.88C389.955 339.682 390.113 339.468 390.088 339.236C390.079 339.004 389.942 338.742 389.677 338.451L387.074 339.954ZM398.839 338.794L400.173 338.024L402.841 339.564L393.491 344.962L392.016 344.111L400.032 339.483L398.839 338.794ZM409.876 345.078L405.58 342.597L403.028 344.071C403.447 344.036 403.913 344.073 404.426 344.182C404.947 344.295 405.409 344.468 405.811 344.7C406.529 345.115 406.957 345.539 407.093 345.974C407.239 346.413 407.17 346.823 406.888 347.203C406.615 347.588 406.217 347.931 405.696 348.232C405.063 348.597 404.375 348.852 403.631 348.995C402.904 349.138 402.156 349.15 401.386 349.032C400.625 348.918 399.894 348.659 399.193 348.254C398.261 347.716 397.744 347.151 397.641 346.559C397.539 345.966 397.812 345.418 398.462 344.915L399.886 345.737C399.578 346.023 399.467 346.329 399.552 346.655C399.646 346.976 399.937 347.277 400.424 347.558C401.032 347.909 401.668 348.064 402.335 348.025C403.011 347.99 403.652 347.798 404.259 347.447C404.875 347.092 405.191 346.732 405.208 346.366C405.234 345.996 404.947 345.638 404.349 345.293C403.93 345.051 403.468 344.908 402.964 344.863C402.476 344.819 401.989 344.863 401.502 344.996L400.117 344.197L405.516 341.079L411.159 344.337L409.876 345.078ZM405.973 349.918L407.076 349.281L417.567 348.2L419.337 349.222L413.322 352.695L414.515 353.383L413.245 354.116L412.053 353.428L410.103 354.553L408.667 353.724L410.616 352.598L405.973 349.918ZM416.477 349.289L408.923 350.155L411.95 351.902L416.477 349.289ZM426.91 354.764L415.124 357.452L413.649 356.6L425.319 354.023L420.574 351.284L421.818 350.566L428 354.135L426.91 354.764ZM423.749 360.403L418.658 361.551L417.709 361.003L422.159 359.485L423.749 360.403ZM428.13 359.423C429.61 358.569 431.012 358.045 432.337 357.853C433.679 357.66 434.962 357.917 436.185 358.623C437.407 359.329 437.848 360.067 437.506 360.837C437.181 361.607 436.279 362.419 434.799 363.273C433.303 364.137 431.88 364.668 430.529 364.865C429.195 365.062 427.917 364.808 426.694 364.102C425.471 363.396 425.027 362.656 425.36 361.881C425.711 361.106 426.634 360.287 428.13 359.423ZM433.363 362.444C434.056 362.044 434.594 361.679 434.979 361.348C435.372 361.022 435.582 360.694 435.607 360.363C435.642 360.027 435.389 359.704 434.851 359.393C434.312 359.082 433.752 358.936 433.171 358.956C432.598 358.971 432.025 359.09 431.452 359.312C430.888 359.539 430.259 359.852 429.567 360.252C428.849 360.667 428.289 361.039 427.887 361.37C427.485 361.701 427.271 362.032 427.246 362.362C427.228 362.698 427.489 363.021 428.028 363.332C428.567 363.643 429.122 363.791 429.695 363.777C430.277 363.767 430.854 363.646 431.426 363.414C431.999 363.182 432.645 362.858 433.363 362.444ZM439.63 362.345L440.963 361.575L443.631 363.115L434.282 368.513L432.807 367.661L440.822 363.033L439.63 362.345Z" fill="#173244"/>
<path d="M397.867 315.186L466.267 354.676C471.934 357.948 471.934 363.252 466.267 366.524L429.502 387.75L350.842 342.335L397.867 315.186Z" stroke="#129590" stroke-width="2"/>
<path d="M193.771 273.662L184.858 278.808L183.396 277.964L192.309 272.817L193.771 273.662ZM198.858 276.599C199.807 277.147 200.453 277.732 200.795 278.354C201.154 278.976 201.184 279.595 200.885 280.212C200.603 280.829 200.008 281.399 199.102 281.923C198.196 282.446 197.213 282.786 196.152 282.944C195.101 283.107 194.036 283.085 192.959 282.878C191.899 282.67 190.894 282.293 189.945 281.745L187.034 280.064L195.947 274.918L198.858 276.599ZM191.138 281.056C192.181 281.658 193.262 281.957 194.383 281.952C195.503 281.947 196.576 281.649 197.602 281.056C198.636 280.459 199.166 279.832 199.192 279.175C199.218 278.519 198.709 277.89 197.666 277.287L196.216 276.451L189.689 280.219L191.138 281.056ZM207.602 282.683L208.936 281.913L211.603 283.453L202.254 288.851L200.779 288L208.795 283.372L207.602 282.683ZM207.315 289.478C208.845 289.542 210.072 289.579 210.995 289.589C211.936 289.599 212.812 289.552 213.625 289.448C214.437 289.345 215.091 289.15 215.587 288.863C216.1 288.567 216.378 288.263 216.42 287.952C216.472 287.646 216.237 287.343 215.715 287.042C215.211 286.75 214.655 286.617 214.048 286.642C213.458 286.667 212.885 286.829 212.329 287.131L210.919 286.316C211.919 285.768 212.953 285.507 214.022 285.531C215.108 285.556 216.083 285.817 216.946 286.316C217.878 286.854 218.348 287.422 218.357 288.019C218.374 288.621 217.955 289.169 217.1 289.663C216.485 290.018 215.732 290.27 214.843 290.418C213.971 290.566 213.09 290.645 212.201 290.655C211.329 290.665 210.264 290.648 209.008 290.603L207.917 290.566L211.983 292.913L210.765 293.617L204.532 290.018L205.596 289.404L207.315 289.478ZM219.193 290.501C220.039 290.071 220.962 289.889 221.963 289.953C222.972 290.022 223.912 290.308 224.784 290.812C225.383 291.157 225.793 291.518 226.015 291.893C226.238 292.268 226.276 292.626 226.131 292.966C225.986 293.307 225.682 293.611 225.22 293.877C224.69 294.183 224.096 294.363 223.438 294.418C222.779 294.472 222.189 294.423 221.668 294.27L221.616 294.299C221.967 294.679 222.078 295.069 221.95 295.469C221.83 295.864 221.454 296.244 220.821 296.609C220.317 296.901 219.753 297.093 219.128 297.187C218.504 297.281 217.85 297.264 217.166 297.135C216.491 297.002 215.837 296.753 215.204 296.387C214.281 295.854 213.755 295.279 213.627 294.662C213.515 294.045 213.883 293.467 214.729 292.929L216.14 293.744C215.721 294.025 215.525 294.341 215.55 294.692C215.584 295.037 215.871 295.365 216.41 295.676C216.931 295.978 217.474 296.128 218.038 296.128C218.611 296.123 219.124 295.99 219.577 295.728C220.176 295.383 220.407 295.027 220.27 294.662C220.15 294.297 219.697 293.887 218.91 293.433L218.577 293.24L219.783 292.544L220.129 292.744C220.83 293.139 221.471 293.376 222.053 293.455C222.642 293.539 223.177 293.443 223.656 293.166C224.066 292.929 224.258 292.665 224.233 292.374C224.216 292.078 223.963 291.789 223.476 291.508C222.997 291.231 222.501 291.088 221.988 291.078C221.484 291.063 221.027 291.145 220.616 291.323L219.193 290.501ZM227.064 295.045C227.91 294.616 228.834 294.433 229.834 294.497C230.843 294.566 231.784 294.853 232.656 295.356C233.254 295.702 233.665 296.062 233.887 296.437C234.109 296.812 234.148 297.17 234.002 297.511C233.857 297.852 233.553 298.155 233.092 298.422C232.562 298.728 231.967 298.908 231.309 298.962C230.651 299.017 230.061 298.967 229.539 298.814L229.488 298.844C229.838 299.224 229.95 299.614 229.821 300.014C229.702 300.409 229.325 300.789 228.693 301.154C228.188 301.445 227.624 301.638 227 301.732C226.376 301.825 225.722 301.808 225.038 301.68C224.362 301.546 223.708 301.297 223.075 300.932C222.152 300.399 221.626 299.824 221.498 299.207C221.387 298.59 221.754 298.012 222.601 297.474L224.012 298.288C223.593 298.57 223.396 298.886 223.422 299.236C223.456 299.582 223.742 299.91 224.281 300.221C224.802 300.522 225.345 300.673 225.91 300.673C226.483 300.668 226.996 300.534 227.449 300.273C228.047 299.927 228.278 299.572 228.141 299.207C228.022 298.841 227.568 298.432 226.782 297.977L226.448 297.785L227.654 297.089L228 297.289C228.701 297.684 229.342 297.921 229.924 298C230.514 298.084 231.048 297.987 231.527 297.711C231.937 297.474 232.13 297.21 232.104 296.919C232.087 296.622 231.835 296.334 231.347 296.052C230.869 295.776 230.373 295.633 229.86 295.623C229.355 295.608 228.898 295.689 228.487 295.867L227.064 295.045Z" fill="#173244"/>
<rect width="90.8287" height="54.2998" transform="matrix(0.866025 0.5 -0.866025 0.5 193.523 251.508)" stroke="#129590" stroke-width="2"/>
<path d="M275.496 323.808C275.71 323.418 275.722 323.04 275.534 322.675C275.355 322.305 274.996 321.964 274.457 321.653C273.867 321.313 273.209 321.086 272.482 320.972C271.755 320.858 271.016 320.866 270.263 320.994C269.519 321.127 268.827 321.379 268.186 321.749C267.544 322.12 267.104 322.522 266.865 322.956C266.642 323.391 266.629 323.818 266.826 324.237C267.023 324.657 267.416 325.037 268.006 325.378C268.801 325.837 269.669 326.081 270.609 326.111C271.55 326.14 272.456 325.968 273.328 325.592L269.981 323.66L271.148 322.986L276.06 325.822L274.919 326.481C274.132 326.827 273.247 327.051 272.264 327.155C271.289 327.263 270.306 327.234 269.314 327.066C268.339 326.898 267.463 326.59 266.685 326.14C265.847 325.657 265.274 325.104 264.966 324.482C264.667 323.855 264.659 323.223 264.941 322.586C265.232 321.954 265.813 321.387 266.685 320.883C267.557 320.38 268.54 320.044 269.635 319.876C270.738 319.713 271.828 319.721 272.905 319.898C274 320.076 274.961 320.404 275.791 320.883C276.74 321.431 277.347 322.053 277.612 322.749C277.894 323.445 277.774 324.136 277.253 324.822L275.496 323.808ZM274.45 328.284L275.553 327.647L286.044 326.566L287.813 327.587L281.799 331.06L282.991 331.749L281.722 332.482L280.529 331.793L278.579 332.919L277.143 332.089L279.092 330.964L274.45 328.284ZM284.953 327.654L277.4 328.52L280.426 330.268L284.953 327.654ZM293.45 333.211C293.749 332.93 293.873 332.661 293.821 332.404C293.77 332.147 293.522 331.89 293.078 331.634C292.402 331.244 291.637 331.103 290.782 331.212C289.935 331.315 288.905 331.708 287.691 332.389C288.29 332.3 288.905 332.32 289.538 332.448C290.171 332.577 290.735 332.784 291.231 333.07C291.795 333.396 292.167 333.754 292.347 334.144C292.543 334.534 292.53 334.931 292.308 335.336C292.094 335.746 291.667 336.136 291.026 336.506C290.427 336.851 289.773 337.091 289.063 337.224C288.362 337.362 287.644 337.377 286.909 337.269C286.182 337.155 285.494 336.911 284.844 336.536C283.963 336.027 283.463 335.516 283.343 335.003C283.241 334.489 283.442 333.969 283.946 333.44C284.459 332.917 285.246 332.35 286.306 331.737C289.435 329.931 292.103 329.664 294.309 330.938C295.164 331.431 295.604 331.952 295.63 332.5C295.664 333.053 295.386 333.549 294.796 333.988L293.45 333.211ZM289.679 333.596C289.157 333.295 288.555 333.129 287.871 333.1C287.204 333.07 286.575 333.226 285.985 333.566C285.395 333.907 285.092 334.275 285.075 334.67C285.075 335.065 285.378 335.437 285.985 335.788C286.524 336.099 287.114 336.247 287.755 336.232C288.405 336.222 289.008 336.057 289.564 335.736C290.145 335.4 290.453 335.045 290.487 334.67C290.538 334.294 290.269 333.937 289.679 333.596ZM303.871 338.028L292.085 340.716L290.61 339.865L302.281 337.288L297.536 334.548L298.78 333.83L304.961 337.399L303.871 338.028ZM303.622 341.735C303.177 340.965 303.434 340.303 304.391 339.75C304.853 339.484 305.392 339.306 306.007 339.217C306.623 339.128 307.273 339.153 307.957 339.291C308.649 339.425 309.329 339.684 309.996 340.069C310.654 340.449 311.099 340.839 311.33 341.239C311.578 341.639 311.625 342.016 311.471 342.372C311.317 342.727 311.009 343.038 310.547 343.305C310.069 343.581 309.521 343.754 308.906 343.823C308.307 343.892 307.709 343.867 307.11 343.749C307.418 344.134 307.508 344.526 307.38 344.926C307.26 345.321 306.927 345.676 306.379 345.992C305.824 346.313 305.191 346.516 304.481 346.6C303.772 346.683 303.049 346.646 302.314 346.488C301.579 346.331 300.89 346.066 300.249 345.696C299.608 345.326 299.15 344.929 298.877 344.504C298.612 344.084 298.552 343.67 298.697 343.26C298.843 342.85 299.193 342.485 299.749 342.164C300.305 341.843 300.924 341.648 301.608 341.579C302.292 341.51 302.964 341.562 303.622 341.735ZM308.97 342.601C309.449 342.325 309.667 342.026 309.624 341.705C309.581 341.384 309.299 341.073 308.778 340.772C308.265 340.476 307.73 340.316 307.174 340.291C306.619 340.266 306.097 340.395 305.61 340.676C305.182 340.923 304.986 341.214 305.02 341.55C305.071 341.885 305.341 342.194 305.828 342.475C306.315 342.757 306.854 342.91 307.444 342.934C308.034 342.959 308.542 342.848 308.97 342.601ZM304.725 343.112C304.161 342.786 303.558 342.601 302.917 342.557C302.292 342.512 301.72 342.641 301.198 342.942C300.711 343.223 300.484 343.551 300.518 343.927C300.561 344.297 300.877 344.652 301.467 344.993C302.049 345.328 302.66 345.504 303.301 345.519C303.951 345.538 304.515 345.41 304.994 345.133C305.507 344.837 305.73 344.507 305.661 344.141C305.601 343.781 305.289 343.438 304.725 343.112Z" fill="#173244"/>
<rect width="90.8287" height="54.2998" transform="matrix(0.866025 0.5 -0.866025 0.5 272.184 296.922)" stroke="#129590" stroke-width="2"/>
<path d="M349.911 371.169C349.483 371.416 348.975 371.587 348.385 371.68C347.803 371.779 347.179 371.784 346.512 371.695C345.854 371.611 345.221 371.424 344.614 371.132L343.575 371.732L342.742 371.251L343.781 370.651C343.054 370.143 342.656 369.622 342.588 369.089C342.519 368.556 342.836 368.087 343.537 367.682L345.102 368.585C344.794 368.793 344.623 369.015 344.589 369.252C344.563 369.484 344.695 369.718 344.986 369.955L347.808 368.326C347.38 367.911 347.059 367.558 346.846 367.267C346.641 366.971 346.572 366.655 346.641 366.319C346.717 365.989 347.038 365.66 347.602 365.335C348.312 364.925 349.146 364.73 350.103 364.75C351.069 364.764 351.993 364.982 352.873 365.401L353.912 364.801L354.746 365.283L353.707 365.883C354.391 366.356 354.754 366.843 354.797 367.341C354.857 367.84 354.562 368.311 353.912 368.756L352.348 367.852C352.587 367.684 352.72 367.489 352.745 367.267C352.779 367.04 352.685 366.818 352.463 366.601L349.693 368.2C350.129 368.61 350.45 368.963 350.655 369.259C350.869 369.55 350.937 369.861 350.86 370.192C350.792 370.518 350.475 370.844 349.911 371.169ZM349.167 366.149C348.817 366.352 348.646 366.569 348.654 366.801C348.671 367.038 348.812 367.302 349.077 367.593L351.668 366.097C351.258 365.91 350.83 365.816 350.385 365.816C349.949 365.821 349.543 365.932 349.167 366.149ZM345.82 370.436C346.256 370.619 346.7 370.703 347.154 370.688C347.615 370.668 348.017 370.56 348.359 370.362C348.701 370.165 348.859 369.95 348.834 369.718C348.825 369.486 348.688 369.224 348.423 368.933L345.82 370.436ZM361.971 372.772C362.271 372.49 362.395 372.221 362.343 371.965C362.292 371.708 362.044 371.451 361.599 371.194C360.924 370.805 360.159 370.664 359.304 370.772C358.457 370.876 357.427 371.269 356.213 371.95C356.811 371.861 357.427 371.881 358.06 372.009C358.692 372.137 359.257 372.345 359.753 372.631C360.317 372.957 360.689 373.315 360.868 373.705C361.065 374.095 361.052 374.492 360.83 374.897C360.616 375.306 360.189 375.696 359.547 376.067C358.949 376.412 358.295 376.652 357.585 376.785C356.884 376.923 356.166 376.938 355.431 376.829C354.704 376.716 354.016 376.471 353.366 376.096C352.485 375.588 351.985 375.077 351.865 374.564C351.763 374.05 351.964 373.529 352.468 373.001C352.981 372.478 353.768 371.91 354.828 371.298C357.957 369.491 360.625 369.225 362.831 370.498C363.686 370.992 364.126 371.513 364.152 372.061C364.186 372.614 363.908 373.11 363.318 373.549L361.971 372.772ZM358.201 373.157C357.679 372.856 357.077 372.69 356.393 372.661C355.726 372.631 355.097 372.786 354.507 373.127C353.917 373.468 353.614 373.835 353.597 374.23C353.597 374.625 353.9 374.998 354.507 375.348C355.046 375.659 355.636 375.808 356.277 375.793C356.927 375.783 357.53 375.617 358.085 375.297C358.667 374.961 358.975 374.606 359.009 374.23C359.06 373.855 358.791 373.497 358.201 373.157ZM372.367 377.722L368.071 375.242L365.519 376.715C365.938 376.681 366.404 376.718 366.917 376.826C367.438 376.94 367.9 377.113 368.302 377.345C369.02 377.759 369.448 378.184 369.584 378.618C369.73 379.058 369.661 379.467 369.379 379.847C369.106 380.232 368.708 380.576 368.186 380.877C367.554 381.242 366.865 381.496 366.122 381.639C365.395 381.782 364.647 381.795 363.877 381.676C363.116 381.563 362.385 381.304 361.684 380.899C360.752 380.361 360.235 379.796 360.132 379.203C360.03 378.611 360.303 378.063 360.953 377.559L362.377 378.381C362.069 378.668 361.958 378.974 362.043 379.299C362.137 379.62 362.428 379.921 362.915 380.203C363.522 380.553 364.159 380.709 364.826 380.669C365.502 380.635 366.143 380.442 366.75 380.092C367.366 379.736 367.682 379.376 367.699 379.011C367.725 378.64 367.438 378.283 366.84 377.937C366.421 377.695 365.959 377.552 365.455 377.508C364.967 377.463 364.48 377.508 363.993 377.641L362.608 376.841L368.007 373.724L373.65 376.982L372.367 377.722ZM380.84 382.466L369.054 385.154L367.579 384.303L379.25 381.726L374.505 378.986L375.749 378.268L381.931 381.837L380.84 382.466ZM377.68 388.105L372.589 389.253L371.639 388.705L376.09 387.187L377.68 388.105ZM391.411 388.569L379.624 391.257L378.15 390.405L389.82 387.828L385.075 385.089L386.319 384.37L392.501 387.939L391.411 388.569Z" fill="#173244"/>
<rect width="90.8287" height="54.2998" transform="matrix(0.866025 0.5 -0.866025 0.5 350.844 342.336)" stroke="#129590" stroke-width="2"/>
<path d="M146.103 300.441L137.19 305.587L135.728 304.743L144.641 299.597L146.103 300.441ZM151.19 303.378C152.14 303.926 152.785 304.511 153.127 305.133C153.486 305.755 153.516 306.374 153.217 306.991C152.935 307.608 152.34 308.179 151.434 308.702C150.528 309.225 149.545 309.566 148.484 309.724C147.433 309.887 146.368 309.864 145.291 309.657C144.231 309.45 143.226 309.072 142.277 308.524L139.366 306.843L148.279 301.697L151.19 303.378ZM143.47 307.835C144.513 308.438 145.594 308.736 146.715 308.731C147.835 308.727 148.908 308.428 149.934 307.835C150.968 307.238 151.498 306.611 151.524 305.955C151.55 305.298 151.041 304.669 149.998 304.067L148.549 303.23L142.021 306.999L143.47 307.835ZM159.934 309.463L161.268 308.693L163.935 310.233L154.586 315.631L153.111 314.779L161.127 310.151L159.934 309.463ZM159.647 316.257C161.177 316.321 162.404 316.358 163.328 316.368C164.268 316.378 165.144 316.331 165.957 316.227C166.769 316.124 167.423 315.929 167.919 315.643C168.432 315.346 168.71 315.043 168.753 314.732C168.804 314.426 168.569 314.122 168.047 313.821C167.543 313.53 166.987 313.396 166.38 313.421C165.79 313.446 165.217 313.609 164.661 313.91L163.251 313.095C164.251 312.547 165.285 312.286 166.354 312.31C167.44 312.335 168.415 312.597 169.278 313.095C170.21 313.633 170.681 314.201 170.689 314.798C170.706 315.401 170.287 315.949 169.432 316.442C168.817 316.798 168.064 317.049 167.175 317.197C166.303 317.346 165.422 317.425 164.533 317.434C163.661 317.444 162.597 317.427 161.34 317.383L160.25 317.346L164.315 319.693L163.097 320.396L156.864 316.798L157.928 316.183L159.647 316.257ZM171.525 317.28C172.371 316.851 173.294 316.668 174.295 316.732C175.304 316.801 176.244 317.088 177.116 317.591C177.715 317.937 178.125 318.297 178.348 318.672C178.57 319.047 178.608 319.405 178.463 319.746C178.318 320.086 178.014 320.39 177.552 320.656C177.022 320.963 176.428 321.143 175.77 321.197C175.111 321.251 174.521 321.202 174 321.049L173.949 321.079C174.299 321.459 174.41 321.849 174.282 322.248C174.162 322.643 173.786 323.023 173.153 323.389C172.649 323.68 172.085 323.873 171.46 323.966C170.836 324.06 170.182 324.043 169.498 323.914C168.823 323.781 168.169 323.532 167.536 323.167C166.613 322.633 166.087 322.058 165.959 321.441C165.847 320.824 166.215 320.247 167.062 319.709L168.472 320.523C168.053 320.805 167.857 321.12 167.882 321.471C167.917 321.817 168.203 322.145 168.742 322.456C169.263 322.757 169.806 322.907 170.37 322.907C170.943 322.903 171.456 322.769 171.909 322.508C172.508 322.162 172.739 321.807 172.602 321.441C172.482 321.076 172.029 320.666 171.242 320.212L170.909 320.02L172.115 319.324L172.461 319.524C173.162 319.918 173.803 320.155 174.385 320.234C174.975 320.318 175.509 320.222 175.988 319.946C176.398 319.709 176.59 319.445 176.565 319.153C176.548 318.857 176.296 318.568 175.808 318.287C175.329 318.011 174.833 317.867 174.32 317.858C173.816 317.843 173.359 317.924 172.948 318.102L171.525 317.28ZM174.151 324.675L175.253 324.038L185.744 322.957L187.514 323.979L181.499 327.452L182.692 328.141L181.422 328.874L180.23 328.185L178.28 329.311L176.844 328.481L178.793 327.356L174.151 324.675ZM184.654 324.046L177.1 324.912L180.127 326.66L184.654 324.046Z" fill="#173244"/>
<path d="M146.496 278.656L225.156 324.071L178.131 351.221L109.731 311.73C104.065 308.458 104.065 303.154 109.731 299.883L146.496 278.656Z" stroke="#129590" stroke-width="2"/>
<path d="M228.468 350.956C228.682 350.566 228.695 350.189 228.507 349.823C228.327 349.453 227.968 349.113 227.43 348.802C226.84 348.461 226.181 348.234 225.455 348.12C224.728 348.007 223.988 348.014 223.236 348.143C222.492 348.276 221.799 348.528 221.158 348.898C220.517 349.268 220.077 349.67 219.837 350.105C219.615 350.539 219.602 350.966 219.799 351.386C219.995 351.805 220.389 352.186 220.979 352.526C221.774 352.985 222.642 353.23 223.582 353.259C224.523 353.289 225.429 353.116 226.301 352.741L222.954 350.808L224.121 350.134L229.033 352.97L227.891 353.629C227.105 353.975 226.22 354.2 225.237 354.303C224.262 354.412 223.279 354.382 222.287 354.214C221.312 354.047 220.436 353.738 219.658 353.289C218.82 352.805 218.247 352.252 217.939 351.63C217.64 351.003 217.631 350.371 217.914 349.735C218.204 349.103 218.786 348.535 219.658 348.032C220.53 347.528 221.513 347.192 222.607 347.025C223.71 346.862 224.801 346.869 225.878 347.047C226.972 347.224 227.934 347.553 228.763 348.032C229.713 348.58 230.32 349.202 230.585 349.898C230.867 350.594 230.747 351.285 230.226 351.971L228.468 350.956ZM227.422 355.432L228.525 354.795L239.016 353.714L240.786 354.736L234.771 358.209L235.964 358.897L234.694 359.63L233.501 358.942L231.552 360.067L230.116 359.238L232.065 358.112L227.422 355.432ZM237.926 354.803L230.372 355.669L233.399 357.416L237.926 354.803ZM248.359 360.278L236.573 362.966L235.098 362.114L246.768 359.537L242.023 356.798L243.267 356.08L249.449 359.649L248.359 360.278ZM248.11 363.984C247.665 363.214 247.921 362.553 248.879 362C249.341 361.733 249.879 361.556 250.495 361.467C251.111 361.378 251.76 361.403 252.444 361.541C253.137 361.674 253.817 361.933 254.484 362.318C255.142 362.698 255.587 363.088 255.817 363.488C256.065 363.888 256.112 364.266 255.958 364.621C255.805 364.977 255.497 365.288 255.035 365.554C254.556 365.831 254.009 366.003 253.393 366.072C252.795 366.142 252.196 366.117 251.598 365.998C251.906 366.383 251.996 366.776 251.867 367.176C251.748 367.571 251.414 367.926 250.867 368.242C250.311 368.563 249.678 368.765 248.969 368.849C248.259 368.933 247.537 368.896 246.801 368.738C246.066 368.58 245.378 368.316 244.737 367.946C244.095 367.576 243.638 367.178 243.364 366.754C243.099 366.334 243.039 365.919 243.185 365.51C243.33 365.1 243.681 364.735 244.236 364.414C244.792 364.093 245.412 363.898 246.096 363.829C246.78 363.76 247.451 363.812 248.11 363.984ZM253.458 364.851C253.936 364.574 254.154 364.276 254.112 363.955C254.069 363.634 253.787 363.323 253.265 363.022C252.752 362.726 252.218 362.565 251.662 362.541C251.106 362.516 250.585 362.644 250.097 362.926C249.67 363.172 249.473 363.464 249.507 363.799C249.559 364.135 249.828 364.443 250.315 364.725C250.803 365.006 251.341 365.159 251.931 365.184C252.521 365.209 253.03 365.098 253.458 364.851ZM249.213 365.362C248.648 365.036 248.045 364.851 247.404 364.806C246.78 364.762 246.207 364.89 245.686 365.191C245.198 365.473 244.972 365.801 245.006 366.176C245.049 366.546 245.365 366.902 245.955 367.242C246.536 367.578 247.148 367.753 247.789 367.768C248.439 367.788 249.003 367.659 249.482 367.383C249.995 367.087 250.217 366.756 250.149 366.391C250.089 366.031 249.777 365.687 249.213 365.362ZM254.441 370.35C254.099 370.646 253.958 370.94 254.018 371.231C254.078 371.522 254.347 371.806 254.826 372.083C255.433 372.433 256.117 372.552 256.878 372.438C257.639 372.325 258.597 371.935 259.751 371.268C259.255 371.318 258.738 371.281 258.199 371.157C257.677 371.034 257.199 370.846 256.763 370.594C256.207 370.274 255.813 369.918 255.583 369.528C255.36 369.133 255.339 368.731 255.519 368.321C255.715 367.911 256.134 367.521 256.775 367.151C257.716 366.608 258.738 366.334 259.841 366.329C260.961 366.324 262.004 366.601 262.97 367.159C264.133 367.83 264.569 368.531 264.278 369.262C264.004 369.992 263.068 370.819 261.469 371.742C260.366 372.379 259.37 372.845 258.481 373.142C257.6 373.443 256.754 373.566 255.942 373.512C255.129 373.457 254.322 373.198 253.518 372.734C252.603 372.206 252.137 371.661 252.12 371.098C252.103 370.535 252.428 370.027 253.095 369.573L254.441 370.35ZM258.25 370.032C258.763 370.328 259.323 370.468 259.93 370.454C260.554 370.439 261.132 370.278 261.662 369.972C262.252 369.632 262.551 369.276 262.559 368.906C262.585 368.536 262.329 368.195 261.79 367.884C261.251 367.573 260.653 367.425 259.994 367.44C259.353 367.455 258.759 367.62 258.212 367.936C257.69 368.237 257.408 368.573 257.365 368.943C257.34 369.313 257.635 369.676 258.25 370.032Z" fill="#173244"/>
<rect width="90.8287" height="54.2998" transform="matrix(0.866025 0.5 -0.866025 0.5 225.156 324.07)" stroke="#129590" stroke-width="2"/>
<path d="M302.243 397.947C301.815 398.194 301.307 398.364 300.717 398.458C300.135 398.556 299.511 398.561 298.844 398.472C298.186 398.389 297.553 398.201 296.946 397.91L295.907 398.509L295.074 398.028L296.113 397.428C295.386 396.92 294.988 396.399 294.92 395.866C294.851 395.333 295.168 394.864 295.869 394.459L297.434 395.363C297.126 395.57 296.955 395.792 296.921 396.029C296.895 396.261 297.027 396.495 297.318 396.732L300.14 395.103C299.712 394.689 299.392 394.336 299.178 394.045C298.973 393.748 298.904 393.432 298.973 393.097C299.05 392.766 299.37 392.438 299.934 392.112C300.644 391.702 301.478 391.507 302.435 391.527C303.401 391.542 304.325 391.759 305.206 392.179L306.244 391.579L307.078 392.06L306.039 392.66C306.723 393.134 307.087 393.62 307.129 394.119C307.189 394.617 306.894 395.089 306.244 395.533L304.68 394.63C304.919 394.462 305.052 394.267 305.077 394.045C305.111 393.817 305.017 393.595 304.795 393.378L302.025 394.978C302.461 395.387 302.782 395.74 302.987 396.036C303.201 396.328 303.269 396.639 303.192 396.969C303.124 397.295 302.807 397.621 302.243 397.947ZM301.499 392.926C301.149 393.129 300.978 393.346 300.986 393.578C301.003 393.815 301.144 394.079 301.409 394.37L304 392.875C303.59 392.687 303.162 392.593 302.717 392.593C302.281 392.598 301.875 392.709 301.499 392.926ZM298.152 397.214C298.588 397.396 299.032 397.48 299.486 397.465C299.947 397.446 300.349 397.337 300.691 397.14C301.033 396.942 301.191 396.727 301.166 396.495C301.157 396.263 301.02 396.002 300.755 395.711L298.152 397.214ZM316.214 399.601L311.918 397.12L309.366 398.594C309.785 398.559 310.251 398.596 310.764 398.705C311.285 398.818 311.747 398.991 312.149 399.223C312.867 399.638 313.295 400.062 313.431 400.497C313.577 400.936 313.508 401.346 313.226 401.726C312.953 402.111 312.555 402.454 312.033 402.755C311.401 403.12 310.712 403.375 309.969 403.518C309.242 403.661 308.494 403.673 307.724 403.555C306.963 403.441 306.232 403.182 305.531 402.777C304.599 402.239 304.082 401.674 303.979 401.082C303.877 400.489 304.15 399.941 304.8 399.438L306.224 400.26C305.916 400.546 305.805 400.852 305.89 401.178C305.984 401.499 306.275 401.8 306.762 402.081C307.369 402.432 308.006 402.587 308.673 402.548C309.349 402.513 309.99 402.321 310.597 401.97C311.213 401.615 311.529 401.255 311.546 400.889C311.572 400.519 311.285 400.161 310.687 399.816C310.268 399.574 309.806 399.431 309.302 399.386C308.814 399.342 308.327 399.386 307.84 399.519L306.455 398.72L311.854 395.602L317.497 398.86L316.214 399.601ZM322.751 404.426C323.05 404.145 323.174 403.876 323.123 403.619C323.072 403.362 322.824 403.106 322.379 402.849C321.704 402.459 320.938 402.318 320.083 402.427C319.237 402.531 318.207 402.923 316.992 403.604C317.591 403.515 318.207 403.535 318.839 403.663C319.472 403.792 320.036 403.999 320.532 404.285C321.096 404.611 321.468 404.969 321.648 405.359C321.845 405.749 321.832 406.146 321.609 406.551C321.396 406.961 320.968 407.351 320.327 407.721C319.728 408.067 319.074 408.306 318.365 408.439C317.664 408.578 316.945 408.592 316.21 408.484C315.483 408.37 314.795 408.126 314.145 407.751C313.265 407.242 312.765 406.731 312.645 406.218C312.542 405.705 312.743 405.184 313.248 404.656C313.761 404.132 314.547 403.565 315.607 402.953C318.737 401.146 321.404 400.879 323.61 402.153C324.465 402.647 324.906 403.167 324.931 403.715C324.965 404.268 324.687 404.764 324.098 405.204L322.751 404.426ZM318.98 404.811C318.459 404.51 317.856 404.345 317.172 404.315C316.505 404.285 315.877 404.441 315.287 404.782C314.697 405.122 314.393 405.49 314.376 405.885C314.376 406.28 314.68 406.652 315.287 407.003C315.825 407.314 316.415 407.462 317.057 407.447C317.706 407.437 318.309 407.272 318.865 406.951C319.446 406.615 319.754 406.26 319.788 405.885C319.84 405.51 319.57 405.152 318.98 404.811ZM333.173 409.244L321.386 411.931L319.911 411.08L331.582 408.503L326.837 405.763L328.081 405.045L334.263 408.614L333.173 409.244ZM330.012 414.883L324.921 416.03L323.971 415.482L328.422 413.964L330.012 414.883ZM343.717 415.479L339.421 412.999L336.868 414.472C337.287 414.438 337.753 414.475 338.266 414.584C338.788 414.697 339.25 414.87 339.651 415.102C340.37 415.516 340.797 415.941 340.934 416.375C341.079 416.815 341.011 417.224 340.729 417.605C340.455 417.99 340.058 418.333 339.536 418.634C338.903 418.999 338.215 419.253 337.471 419.396C336.744 419.54 335.996 419.552 335.227 419.433C334.466 419.32 333.735 419.061 333.034 418.656C332.102 418.118 331.585 417.553 331.482 416.96C331.379 416.368 331.653 415.82 332.303 415.317L333.726 416.138C333.419 416.425 333.307 416.731 333.393 417.057C333.487 417.377 333.778 417.679 334.265 417.96C334.872 418.31 335.509 418.466 336.176 418.426C336.851 418.392 337.493 418.199 338.1 417.849C338.715 417.493 339.032 417.133 339.049 416.768C339.074 416.398 338.788 416.04 338.189 415.694C337.77 415.452 337.309 415.309 336.804 415.265C336.317 415.22 335.83 415.265 335.342 415.398L333.957 414.598L339.356 411.481L344.999 414.739L343.717 415.479Z" fill="#173244"/>
<path d="M303.816 369.484L382.476 414.899L345.711 436.125C340.045 439.397 330.858 439.397 325.191 436.125L256.791 396.634L303.816 369.484Z" stroke="#129590" stroke-width="2"/>
<g filter="url(#filter0_d)">
<rect width="91.816" height="54.2998" transform="matrix(0.866025 0.5 -0.866025 0.5 349.77 327.279)" fill="#F82530"/>
<path d="M341.632 352.56C341.06 352.89 340.38 353.109 339.59 353.217C338.821 353.325 337.989 353.301 337.096 353.145C336.223 352.989 335.376 352.692 334.555 352.254L333.292 352.983L332.295 352.407L333.573 351.669C332.565 350.979 332.004 350.277 331.889 349.563C331.785 348.843 332.201 348.189 333.136 347.601L335.973 349.239C335.412 349.635 335.313 350.04 335.677 350.454L338.14 349.032C337.537 348.444 337.091 347.952 336.8 347.556C336.519 347.166 336.415 346.74 336.488 346.278C336.561 345.816 336.976 345.366 337.735 344.928C338.681 344.382 339.787 344.145 341.055 344.217C342.333 344.295 343.56 344.631 344.734 345.225L345.997 344.496L346.994 345.072L345.732 345.801C346.74 346.479 347.285 347.16 347.369 347.844C347.452 348.528 347.041 349.173 346.137 349.779L343.284 348.132C343.783 347.772 343.882 347.409 343.581 347.043L341.164 348.438C341.788 349.074 342.24 349.581 342.521 349.959C342.801 350.337 342.905 350.757 342.832 351.219C342.78 351.681 342.38 352.128 341.632 352.56ZM340.681 346.485C340.421 346.635 340.281 346.806 340.26 346.998C340.25 347.196 340.328 347.421 340.494 347.673L342.661 346.422C342.318 346.284 341.975 346.218 341.632 346.224C341.299 346.224 340.982 346.311 340.681 346.485ZM336.628 351.057C336.992 351.207 337.361 351.276 337.735 351.264C338.119 351.258 338.457 351.171 338.748 351.003C339.018 350.847 339.148 350.67 339.138 350.472C339.148 350.274 339.05 350.043 338.842 349.779L336.628 351.057ZM355.661 354.738C355.963 354.468 356.103 354.219 356.082 353.991C356.072 353.757 355.875 353.529 355.49 353.307C354.898 352.965 354.212 352.869 353.432 353.019C352.663 353.163 351.718 353.553 350.595 354.189C351.188 354.111 351.801 354.135 352.435 354.261C353.079 354.393 353.661 354.609 354.181 354.909C355.199 355.497 355.693 356.154 355.661 356.88C355.641 357.612 355.054 358.311 353.9 358.977C353.141 359.415 352.32 359.709 351.437 359.859C350.564 360.015 349.67 360.015 348.756 359.859C347.852 359.709 346.999 359.403 346.199 358.941C344.599 358.017 343.986 357.087 344.36 356.151C344.744 355.209 345.877 354.195 347.758 353.109C349.733 351.969 351.525 351.312 353.136 351.138C354.768 350.964 356.311 351.297 357.766 352.137C358.545 352.587 359.044 353.055 359.262 353.541C359.501 354.027 359.507 354.492 359.278 354.936C359.06 355.386 358.68 355.797 358.14 356.169L355.661 354.738ZM351.437 355.755C350.99 355.497 350.481 355.359 349.909 355.341C349.359 355.323 348.839 355.455 348.35 355.737C347.852 356.025 347.597 356.328 347.587 356.646C347.587 356.97 347.841 357.279 348.35 357.573C348.808 357.837 349.301 357.966 349.831 357.96C350.382 357.954 350.897 357.813 351.375 357.537C351.863 357.255 352.118 356.958 352.138 356.646C352.159 356.334 351.925 356.037 351.437 355.755ZM370.276 362.311L365.412 359.503L363.261 360.745C363.697 360.733 364.175 360.793 364.695 360.925C365.215 361.057 365.693 361.249 366.129 361.501C366.909 361.951 367.376 362.425 367.532 362.923C367.698 363.427 367.621 363.91 367.298 364.372C366.976 364.834 366.488 365.254 365.833 365.632C364.617 366.334 363.308 366.694 361.905 366.712C360.512 366.724 359.192 366.37 357.945 365.65C357.114 365.17 356.532 364.672 356.199 364.156C355.877 363.634 355.804 363.13 355.981 362.644C356.158 362.158 356.563 361.714 357.197 361.312L359.8 362.815C359.54 363.037 359.421 363.28 359.442 363.544C359.473 363.802 359.696 364.051 360.112 364.291C360.601 364.573 361.12 364.693 361.671 364.651C362.222 364.609 362.757 364.438 363.277 364.138C363.786 363.844 364.051 363.547 364.072 363.247C364.092 362.947 363.864 362.659 363.386 362.383C363.032 362.179 362.653 362.062 362.248 362.032C361.853 361.996 361.479 362.038 361.125 362.158L358.553 360.673L365.334 356.758L372.614 360.961L370.276 362.311ZM373.162 365.004C374.316 364.386 375.537 364.101 376.826 364.149C378.114 364.197 379.346 364.56 380.52 365.238C381.3 365.688 381.83 366.15 382.11 366.624C382.401 367.104 382.453 367.56 382.266 367.992C382.089 368.43 381.71 368.817 381.128 369.153C380.442 369.549 379.71 369.774 378.93 369.828C378.161 369.876 377.47 369.813 376.857 369.639L376.795 369.675C377.189 370.131 377.33 370.59 377.215 371.052C377.101 371.514 376.685 371.952 375.968 372.366C375.324 372.738 374.602 372.981 373.802 373.095C373.022 373.209 372.206 373.182 371.354 373.014C370.512 372.852 369.702 372.546 368.922 372.096C367.675 371.376 366.984 370.623 366.849 369.837C366.724 369.057 367.26 368.298 368.455 367.56L371.042 369.054C370.595 369.324 370.362 369.609 370.341 369.909C370.33 370.203 370.564 370.488 371.042 370.764C371.448 370.998 371.874 371.112 372.321 371.106C372.788 371.1 373.214 370.986 373.599 370.764C374.098 370.476 374.295 370.176 374.191 369.864C374.108 369.552 373.718 369.195 373.022 368.793L372.523 368.505L374.69 367.254L375.189 367.542C375.719 367.848 376.233 368.043 376.732 368.127C377.252 368.211 377.745 368.118 378.213 367.848C378.587 367.632 378.774 367.404 378.774 367.164C378.774 366.924 378.592 366.699 378.229 366.489C377.834 366.261 377.418 366.159 376.982 366.183C376.555 366.213 376.15 366.321 375.766 366.507L373.162 365.004ZM381.491 376.4L375.286 377.984L373.587 377.003L378.965 374.942L381.491 376.4ZM389.907 377.047C389.45 376.183 389.777 375.43 390.889 374.788C391.45 374.464 392.105 374.254 392.853 374.158C393.612 374.056 394.422 374.098 395.285 374.284C396.158 374.464 397.026 374.803 397.888 375.301C398.751 375.799 399.333 376.297 399.634 376.795C399.956 377.293 400.029 377.761 399.852 378.199C399.686 378.631 399.322 379.009 398.761 379.333C398.2 379.657 397.576 379.861 396.89 379.945C396.215 380.035 395.534 380.02 394.848 379.9C395.139 380.38 395.196 380.845 395.02 381.295C394.854 381.739 394.453 382.144 393.819 382.51C393.082 382.936 392.255 383.197 391.341 383.293C390.437 383.383 389.522 383.323 388.597 383.113C387.683 382.909 386.836 382.582 386.056 382.132C385.277 381.682 384.705 381.19 384.342 380.656C383.988 380.128 383.89 379.603 384.046 379.081C384.212 378.553 384.664 378.076 385.402 377.65C386.046 377.278 386.753 377.044 387.522 376.948C388.301 376.846 389.096 376.879 389.907 377.047ZM395.768 378.073C396.194 377.827 396.397 377.566 396.376 377.29C396.376 377.014 396.173 376.759 395.768 376.525C395.363 376.291 394.916 376.171 394.427 376.165C393.949 376.165 393.497 376.288 393.071 376.534C392.666 376.768 392.468 377.026 392.479 377.308C392.5 377.584 392.708 377.836 393.102 378.064C393.497 378.292 393.939 378.409 394.427 378.415C394.916 378.421 395.363 378.307 395.768 378.073ZM391.232 379.144C390.743 378.862 390.213 378.712 389.642 378.694C389.081 378.67 388.566 378.793 388.099 379.063C387.662 379.315 387.449 379.606 387.459 379.936C387.48 380.272 387.74 380.584 388.239 380.872C388.738 381.16 389.268 381.304 389.829 381.304C390.4 381.31 390.904 381.187 391.341 380.935C391.798 380.671 392.011 380.374 391.98 380.044C391.959 379.72 391.71 379.42 391.232 379.144Z" fill="white"/>
</g>
<g clip-path="url(#clip0)">
<rect width="350.974" height="241.387" rx="23.6945" transform="matrix(0.866025 0.5 -0.866025 0.5 240.547 0)" fill="white"/>
<path d="M240.795 61.3978L231.881 66.544L230.419 65.6999L239.333 60.5537L240.795 61.3978ZM245.882 64.335C246.831 64.8829 247.476 65.4679 247.818 66.0899C248.178 66.7119 248.207 67.3314 247.908 67.9484C247.626 68.5655 247.032 69.1356 246.126 69.6589C245.219 70.1821 244.236 70.5227 243.176 70.6807C242.124 70.8436 241.06 70.8214 239.982 70.614C238.922 70.4067 237.918 70.0291 236.968 69.4812L234.057 67.8003L242.971 62.6542L245.882 64.335ZM238.161 68.7925C239.204 69.3948 240.286 69.6934 241.406 69.6885C242.526 69.6835 243.599 69.3849 244.625 68.7925C245.66 68.1952 246.19 67.5683 246.215 66.9118C246.241 66.2552 245.732 65.6259 244.689 65.0236L243.24 64.1869L236.712 67.9558L238.161 68.7925ZM254.625 70.4197L255.959 69.6496L258.627 71.1897L249.277 76.5876L247.802 75.7361L255.818 71.1083L254.625 70.4197ZM254.338 77.2141C255.869 77.2783 257.096 77.3153 258.019 77.3252C258.959 77.3351 259.836 77.2882 260.648 77.1845C261.46 77.0808 262.114 76.8859 262.61 76.5996C263.123 76.3034 263.401 75.9998 263.444 75.6888C263.495 75.3827 263.26 75.0792 262.739 74.778C262.234 74.4868 261.678 74.3535 261.071 74.3782C260.481 74.4029 259.908 74.5658 259.353 74.8669L257.942 74.0524C258.942 73.5045 259.977 73.2428 261.046 73.2675C262.131 73.2922 263.106 73.5538 263.97 74.0524C264.902 74.5905 265.372 75.1581 265.38 75.7554C265.398 76.3577 264.979 76.9056 264.124 77.3992C263.508 77.7547 262.756 78.0064 261.866 78.1545C260.994 78.3026 260.114 78.3816 259.224 78.3914C258.352 78.4013 257.288 78.384 256.031 78.3396L254.941 78.3026L259.006 80.6498L257.788 81.3533L251.555 77.7547L252.62 77.1401L254.338 77.2141ZM266.216 78.237C267.062 77.8076 267.986 77.6249 268.986 77.6891C269.995 77.7582 270.936 78.0445 271.808 78.548C272.406 78.8936 272.817 79.2539 273.039 79.6291C273.261 80.0043 273.3 80.3621 273.154 80.7028C273.009 81.0434 272.705 81.3469 272.244 81.6135C271.714 81.9196 271.119 82.0997 270.461 82.154C269.803 82.2083 269.213 82.159 268.691 82.0059L268.64 82.0356C268.99 82.4157 269.102 82.8056 268.973 83.2055C268.854 83.6004 268.477 83.9805 267.845 84.3458C267.34 84.637 266.776 84.8295 266.152 84.9233C265.528 85.0171 264.874 84.9998 264.19 84.8715C263.514 84.7382 262.86 84.4889 262.227 84.1236C261.304 83.5905 260.778 83.0154 260.65 82.3984C260.539 81.7813 260.906 81.2038 261.753 80.6657L263.164 81.4802C262.745 81.7616 262.548 82.0775 262.574 82.428C262.608 82.7736 262.894 83.1018 263.433 83.4128C263.955 83.7139 264.497 83.8645 265.062 83.8645C265.635 83.8595 266.148 83.7263 266.601 83.4646C267.199 83.1191 267.43 82.7637 267.293 82.3984C267.174 82.0331 266.72 81.6234 265.934 81.1692L265.6 80.9767L266.806 80.2807L267.152 80.4806C267.853 80.8755 268.495 81.1125 269.076 81.1915C269.666 81.2754 270.2 81.1791 270.679 80.9027C271.09 80.6657 271.282 80.4016 271.256 80.1104C271.239 79.8142 270.987 79.5254 270.5 79.2441C270.021 78.9676 269.525 78.8245 269.012 78.8146C268.507 78.7998 268.05 78.8812 267.64 79.059L266.216 78.237ZM269.868 86.1802C271.398 86.2444 272.625 86.2814 273.549 86.2913C274.489 86.3012 275.366 86.2543 276.178 86.1506C276.99 86.047 277.644 85.852 278.14 85.5657C278.653 85.2695 278.931 84.9659 278.974 84.6549C279.025 84.3489 278.79 84.0453 278.268 83.7442C277.764 83.4529 277.208 83.3196 276.601 83.3443C276.011 83.369 275.438 83.5319 274.883 83.833L273.472 83.0185C274.472 82.4706 275.507 82.209 276.575 82.2336C277.661 82.2583 278.636 82.5199 279.5 83.0185C280.431 83.5566 280.902 84.1243 280.91 84.7216C280.927 85.3238 280.508 85.8717 279.653 86.3654C279.038 86.7208 278.285 86.9725 277.396 87.1206C276.524 87.2687 275.643 87.3477 274.754 87.3576C273.882 87.3674 272.818 87.3502 271.561 87.3057L270.471 87.2687L274.536 89.6159L273.318 90.3194L267.085 86.7208L268.149 86.1062L269.868 86.1802Z" fill="#173244"/>
<path d="M230.287 45.1678C235.953 41.8962 245.14 41.8962 250.807 45.1678L319.207 84.6585L272.182 111.808L193.522 66.394L230.287 45.1678Z" stroke="#129590" stroke-width="2"/>
<path d="M322.519 111.544C322.733 111.154 322.746 110.777 322.558 110.411C322.378 110.041 322.019 109.701 321.48 109.39C320.89 109.049 320.232 108.822 319.505 108.708C318.779 108.595 318.039 108.602 317.287 108.731C316.543 108.864 315.85 109.116 315.209 109.486C314.568 109.856 314.127 110.258 313.888 110.693C313.666 111.127 313.653 111.554 313.85 111.974C314.046 112.393 314.44 112.773 315.029 113.114C315.825 113.573 316.692 113.817 317.633 113.847C318.573 113.877 319.48 113.704 320.352 113.329L317.005 111.396L318.172 110.722L323.084 113.558L321.942 114.217C321.156 114.563 320.271 114.787 319.287 114.891C318.313 115 317.329 114.97 316.338 114.802C315.363 114.634 314.487 114.326 313.708 113.877C312.871 113.393 312.298 112.84 311.99 112.218C311.691 111.591 311.682 110.959 311.964 110.323C312.255 109.691 312.836 109.123 313.708 108.619C314.581 108.116 315.564 107.78 316.658 107.612C317.761 107.45 318.851 107.457 319.929 107.635C321.023 107.812 321.985 108.141 322.814 108.619C323.763 109.167 324.37 109.789 324.635 110.485C324.918 111.181 324.798 111.873 324.276 112.559L322.519 111.544ZM333.824 116.057L329.527 113.576L326.975 115.05C327.394 115.015 327.86 115.052 328.373 115.161C328.895 115.274 329.356 115.447 329.758 115.679C330.476 116.094 330.904 116.518 331.041 116.953C331.186 117.392 331.118 117.802 330.835 118.182C330.562 118.567 330.164 118.91 329.643 119.211C329.01 119.576 328.322 119.831 327.578 119.974C326.851 120.117 326.103 120.129 325.334 120.011C324.573 119.897 323.842 119.638 323.14 119.233C322.209 118.695 321.691 118.13 321.589 117.538C321.486 116.945 321.76 116.397 322.409 115.894L323.833 116.716C323.525 117.002 323.414 117.308 323.5 117.634C323.594 117.955 323.884 118.256 324.372 118.537C324.979 118.888 325.616 119.043 326.283 119.004C326.958 118.969 327.599 118.777 328.206 118.426C328.822 118.071 329.138 117.711 329.155 117.345C329.181 116.975 328.895 116.617 328.296 116.272C327.877 116.03 327.415 115.887 326.911 115.842C326.424 115.798 325.936 115.842 325.449 115.975L324.064 115.176L329.463 112.058L335.106 115.316L333.824 116.057ZM340.36 120.882C340.659 120.601 340.783 120.332 340.732 120.075C340.681 119.818 340.433 119.562 339.988 119.305C339.313 118.915 338.548 118.774 337.693 118.883C336.846 118.987 335.816 119.379 334.602 120.06C335.2 119.971 335.816 119.991 336.449 120.12C337.081 120.248 337.646 120.455 338.142 120.741C338.706 121.067 339.078 121.425 339.257 121.815C339.454 122.205 339.441 122.602 339.219 123.007C339.005 123.417 338.578 123.807 337.936 124.177C337.338 124.523 336.684 124.762 335.974 124.895C335.273 125.034 334.555 125.048 333.819 124.94C333.093 124.826 332.404 124.582 331.755 124.207C330.874 123.698 330.374 123.187 330.254 122.674C330.152 122.161 330.352 121.64 330.857 121.112C331.37 120.588 332.157 120.021 333.217 119.409C336.346 117.602 339.014 117.335 341.22 118.609C342.075 119.103 342.515 119.623 342.54 120.171C342.575 120.724 342.297 121.22 341.707 121.66L340.36 120.882ZM336.59 121.267C336.068 120.966 335.465 120.801 334.781 120.771C334.114 120.741 333.486 120.897 332.896 121.238C332.306 121.578 332.003 121.946 331.986 122.341C331.986 122.736 332.289 123.108 332.896 123.459C333.435 123.77 334.025 123.918 334.666 123.903C335.316 123.893 335.919 123.728 336.474 123.407C337.056 123.071 337.363 122.716 337.398 122.341C337.449 121.966 337.18 121.608 336.59 121.267ZM350.782 125.7L338.996 128.387L337.521 127.536L349.192 124.959L344.446 122.219L345.69 121.501L351.872 125.07L350.782 125.7ZM350.533 129.406C350.088 128.636 350.345 127.975 351.302 127.422C351.764 127.155 352.303 126.977 352.918 126.889C353.534 126.8 354.184 126.824 354.868 126.963C355.56 127.096 356.24 127.355 356.907 127.74C357.565 128.12 358.01 128.51 358.24 128.91C358.488 129.31 358.535 129.687 358.382 130.043C358.228 130.398 357.92 130.709 357.458 130.976C356.979 131.252 356.432 131.425 355.817 131.494C355.218 131.563 354.62 131.539 354.021 131.42C354.329 131.805 354.419 132.198 354.29 132.597C354.171 132.992 353.837 133.348 353.29 133.664C352.734 133.985 352.102 134.187 351.392 134.271C350.682 134.355 349.96 134.318 349.225 134.16C348.489 134.002 347.801 133.738 347.16 133.367C346.518 132.997 346.061 132.6 345.787 132.175C345.522 131.756 345.463 131.341 345.608 130.931C345.753 130.522 346.104 130.156 346.66 129.836C347.215 129.515 347.835 129.32 348.519 129.251C349.203 129.181 349.874 129.233 350.533 129.406ZM355.881 130.272C356.359 129.996 356.578 129.697 356.535 129.376C356.492 129.056 356.21 128.745 355.688 128.443C355.175 128.147 354.641 127.987 354.085 127.962C353.529 127.937 353.008 128.066 352.521 128.347C352.093 128.594 351.896 128.885 351.931 129.221C351.982 129.557 352.251 129.865 352.739 130.146C353.226 130.428 353.765 130.581 354.355 130.606C354.944 130.63 355.453 130.519 355.881 130.272ZM351.636 130.783C351.071 130.457 350.469 130.272 349.827 130.228C349.203 130.184 348.63 130.312 348.109 130.613C347.621 130.894 347.395 131.223 347.429 131.598C347.472 131.968 347.788 132.323 348.378 132.664C348.959 133 349.571 133.175 350.212 133.19C350.862 133.209 351.426 133.081 351.905 132.805C352.418 132.509 352.64 132.178 352.572 131.813C352.512 131.452 352.2 131.109 351.636 130.783Z" fill="#173244"/>
<rect width="90.8287" height="54.2998" transform="matrix(0.866025 0.5 -0.866025 0.5 319.207 84.6582)" stroke="#129590" stroke-width="2"/>
<path d="M391.165 155.574C390.737 155.821 390.229 155.991 389.639 156.085C389.057 156.183 388.433 156.188 387.766 156.099C387.108 156.015 386.475 155.828 385.868 155.537L384.829 156.136L383.996 155.655L385.034 155.055C384.308 154.547 383.91 154.026 383.842 153.493C383.773 152.96 384.09 152.491 384.791 152.086L386.355 152.99C386.048 153.197 385.877 153.419 385.842 153.656C385.817 153.888 385.949 154.122 386.24 154.359L389.062 152.73C388.634 152.316 388.313 151.963 388.1 151.672C387.894 151.375 387.826 151.059 387.894 150.724C387.971 150.393 388.292 150.065 388.856 149.739C389.566 149.329 390.4 149.134 391.357 149.154C392.323 149.169 393.247 149.386 394.127 149.806L395.166 149.206L396 149.687L394.961 150.287C395.645 150.761 396.008 151.247 396.051 151.746C396.111 152.244 395.816 152.716 395.166 153.16L393.602 152.256C393.841 152.089 393.973 151.894 393.999 151.672C394.033 151.444 393.939 151.222 393.717 151.005L390.947 152.604C391.383 153.014 391.703 153.367 391.909 153.663C392.122 153.955 392.191 154.266 392.114 154.596C392.045 154.922 391.729 155.248 391.165 155.574ZM390.421 150.553C390.07 150.756 389.899 150.973 389.908 151.205C389.925 151.442 390.066 151.706 390.331 151.997L392.922 150.502C392.511 150.314 392.084 150.22 391.639 150.22C391.203 150.225 390.797 150.336 390.421 150.553ZM387.074 154.841C387.51 155.023 387.954 155.107 388.407 155.092C388.869 155.073 389.271 154.964 389.613 154.767C389.955 154.569 390.113 154.354 390.088 154.122C390.079 153.89 389.942 153.629 389.677 153.338L387.074 154.841ZM398.839 153.681L400.173 152.911L402.841 154.451L393.491 159.849L392.016 158.997L400.032 154.37L398.839 153.681ZM409.876 159.965L405.58 157.484L403.028 158.958C403.447 158.923 403.913 158.96 404.426 159.069C404.947 159.182 405.409 159.355 405.811 159.587C406.529 160.002 406.957 160.426 407.093 160.861C407.239 161.3 407.17 161.71 406.888 162.09C406.615 162.475 406.217 162.818 405.696 163.119C405.063 163.484 404.375 163.738 403.631 163.882C402.904 164.025 402.156 164.037 401.386 163.919C400.625 163.805 399.894 163.546 399.193 163.141C398.261 162.603 397.744 162.038 397.641 161.445C397.539 160.853 397.812 160.305 398.462 159.802L399.886 160.624C399.578 160.91 399.467 161.216 399.552 161.542C399.646 161.863 399.937 162.164 400.424 162.445C401.032 162.796 401.668 162.951 402.335 162.912C403.011 162.877 403.652 162.684 404.259 162.334C404.875 161.979 405.191 161.618 405.208 161.253C405.234 160.883 404.947 160.525 404.349 160.179C403.93 159.937 403.468 159.794 402.964 159.75C402.476 159.705 401.989 159.75 401.502 159.883L400.117 159.083L405.516 155.966L411.159 159.224L409.876 159.965ZM405.973 164.805L407.076 164.168L417.567 163.087L419.337 164.109L413.322 167.581L414.515 168.27L413.245 169.003L412.053 168.314L410.103 169.44L408.667 168.611L410.616 167.485L405.973 164.805ZM416.477 164.175L408.923 165.042L411.95 166.789L416.477 164.175ZM426.91 169.651L415.124 172.338L413.649 171.487L425.319 168.91L420.574 166.171L421.818 165.452L428 169.021L426.91 169.651ZM423.749 175.29L418.658 176.437L417.709 175.889L422.159 174.372L423.749 175.29ZM428.13 174.309C429.61 173.455 431.012 172.932 432.337 172.74C433.679 172.547 434.962 172.804 436.185 173.51C437.407 174.216 437.848 174.954 437.506 175.724C437.181 176.494 436.279 177.306 434.799 178.16C433.303 179.024 431.88 179.554 430.529 179.752C429.195 179.949 427.917 179.695 426.694 178.989C425.471 178.283 425.027 177.543 425.36 176.768C425.711 175.993 426.634 175.173 428.13 174.309ZM433.363 177.33C434.056 176.931 434.594 176.565 434.979 176.235C435.372 175.909 435.582 175.581 435.607 175.25C435.642 174.914 435.389 174.591 434.851 174.28C434.312 173.969 433.752 173.823 433.171 173.843C432.598 173.858 432.025 173.976 431.452 174.198C430.888 174.425 430.259 174.739 429.567 175.139C428.849 175.553 428.289 175.926 427.887 176.257C427.485 176.588 427.271 176.918 427.246 177.249C427.228 177.585 427.489 177.908 428.028 178.219C428.567 178.53 429.122 178.678 429.695 178.663C430.277 178.653 430.854 178.532 431.426 178.3C431.999 178.068 432.645 177.745 433.363 177.33ZM439.63 177.231L440.963 176.461L443.631 178.002L434.282 183.399L432.807 182.548L440.822 177.92L439.63 177.231Z" fill="#173244"/>
<path d="M397.867 130.072L466.267 169.563C471.934 172.835 471.934 178.139 466.267 181.41L429.502 202.637L350.842 157.222L397.867 130.072Z" stroke="#129590" stroke-width="2"/>
<path d="M193.771 88.5482L184.858 93.6944L183.396 92.8503L192.309 87.7041L193.771 88.5482ZM198.858 91.4854C199.807 92.0333 200.453 92.6183 200.795 93.2403C201.154 93.8623 201.184 94.4818 200.885 95.0988C200.603 95.7158 200.008 96.286 199.102 96.8092C198.196 97.3325 197.213 97.6731 196.152 97.8311C195.101 97.994 194.036 97.9718 192.959 97.7644C191.899 97.5571 190.894 97.1795 189.945 96.6315L187.034 94.9507L195.947 89.8046L198.858 91.4854ZM191.138 95.9429C192.181 96.5452 193.262 96.8438 194.383 96.8389C195.503 96.8339 196.576 96.5353 197.602 95.9429C198.636 95.3456 199.166 94.7187 199.192 94.0622C199.218 93.4056 198.709 92.7763 197.666 92.174L196.216 91.3373L189.689 95.1062L191.138 95.9429ZM207.602 97.5701L208.936 96.8L211.603 98.3401L202.254 103.738L200.779 102.887L208.795 98.2587L207.602 97.5701ZM207.315 104.365C208.845 104.429 210.072 104.466 210.995 104.476C211.936 104.485 212.812 104.439 213.625 104.335C214.437 104.231 215.091 104.036 215.587 103.75C216.1 103.454 216.378 103.15 216.42 102.839C216.472 102.533 216.237 102.23 215.715 101.928C215.211 101.637 214.655 101.504 214.048 101.529C213.458 101.553 212.885 101.716 212.329 102.017L210.919 101.203C211.919 100.655 212.953 100.393 214.022 100.418C215.108 100.443 216.083 100.704 216.946 101.203C217.878 101.741 218.348 102.309 218.357 102.906C218.374 103.508 217.955 104.056 217.1 104.55C216.485 104.905 215.732 105.157 214.843 105.305C213.971 105.453 213.09 105.532 212.201 105.542C211.329 105.552 210.264 105.534 209.008 105.49L207.917 105.453L211.983 107.8L210.765 108.504L204.532 104.905L205.596 104.29L207.315 104.365ZM219.193 105.387C220.039 104.958 220.962 104.775 221.963 104.84C222.972 104.909 223.912 105.195 224.784 105.698C225.383 106.044 225.793 106.404 226.015 106.779C226.238 107.155 226.276 107.513 226.131 107.853C225.986 108.194 225.682 108.497 225.22 108.764C224.69 109.07 224.096 109.25 223.438 109.304C222.779 109.359 222.189 109.309 221.668 109.156L221.616 109.186C221.967 109.566 222.078 109.956 221.95 110.356C221.83 110.751 221.454 111.131 220.821 111.496C220.317 111.787 219.753 111.98 219.128 112.074C218.504 112.168 217.85 112.15 217.166 112.022C216.491 111.889 215.837 111.639 215.204 111.274C214.281 110.741 213.755 110.166 213.627 109.549C213.515 108.932 213.883 108.354 214.729 107.816L216.14 108.631C215.721 108.912 215.525 109.228 215.55 109.578C215.584 109.924 215.871 110.252 216.41 110.563C216.931 110.864 217.474 111.015 218.038 111.015C218.611 111.01 219.124 110.877 219.577 110.615C220.176 110.269 220.407 109.914 220.27 109.549C220.15 109.183 219.697 108.774 218.91 108.32L218.577 108.127L219.783 107.431L220.129 107.631C220.83 108.026 221.471 108.263 222.053 108.342C222.642 108.426 223.177 108.33 223.656 108.053C224.066 107.816 224.258 107.552 224.233 107.261C224.216 106.965 223.963 106.676 223.476 106.394C222.997 106.118 222.501 105.975 221.988 105.965C221.484 105.95 221.027 106.032 220.616 106.209L219.193 105.387ZM227.064 109.932C227.91 109.503 228.834 109.32 229.834 109.384C230.843 109.453 231.784 109.739 232.656 110.243C233.254 110.588 233.665 110.949 233.887 111.324C234.109 111.699 234.148 112.057 234.002 112.398C233.857 112.738 233.553 113.042 233.092 113.308C232.562 113.614 231.967 113.795 231.309 113.849C230.651 113.903 230.061 113.854 229.539 113.701L229.488 113.73C229.838 114.111 229.95 114.501 229.821 114.9C229.702 115.295 229.325 115.675 228.693 116.041C228.188 116.332 227.624 116.524 227 116.618C226.376 116.712 225.722 116.695 225.038 116.566C224.362 116.433 223.708 116.184 223.075 115.819C222.152 115.285 221.626 114.71 221.498 114.093C221.387 113.476 221.754 112.899 222.601 112.361L224.012 113.175C223.593 113.457 223.396 113.772 223.422 114.123C223.456 114.468 223.742 114.797 224.281 115.108C224.802 115.409 225.345 115.559 225.91 115.559C226.483 115.554 226.996 115.421 227.449 115.16C228.047 114.814 228.278 114.459 228.141 114.093C228.022 113.728 227.568 113.318 226.782 112.864L226.448 112.672L227.654 111.976L228 112.176C228.701 112.57 229.342 112.807 229.924 112.886C230.514 112.97 231.048 112.874 231.527 112.598C231.937 112.361 232.13 112.097 232.104 111.805C232.087 111.509 231.835 111.22 231.347 110.939C230.869 110.663 230.373 110.519 229.86 110.51C229.355 110.495 228.898 110.576 228.487 110.754L227.064 109.932Z" fill="#173244"/>
<rect width="90.8287" height="54.2998" transform="matrix(0.866025 0.5 -0.866025 0.5 193.523 66.3945)" stroke="#129590" stroke-width="2"/>
<path d="M275.496 138.695C275.71 138.305 275.722 137.927 275.534 137.562C275.355 137.192 274.996 136.851 274.457 136.54C273.867 136.199 273.209 135.972 272.482 135.859C271.755 135.745 271.016 135.753 270.263 135.881C269.519 136.014 268.827 136.266 268.186 136.636C267.544 137.006 267.104 137.409 266.865 137.843C266.642 138.278 266.629 138.705 266.826 139.124C267.023 139.544 267.416 139.924 268.006 140.264C268.801 140.723 269.669 140.968 270.609 140.997C271.55 141.027 272.456 140.854 273.328 140.479L269.981 138.547L271.148 137.873L276.06 140.709L274.919 141.368C274.132 141.713 273.247 141.938 272.264 142.041C271.289 142.15 270.306 142.12 269.314 141.953C268.339 141.785 267.463 141.476 266.685 141.027C265.847 140.543 265.274 139.99 264.966 139.368C264.667 138.742 264.659 138.11 264.941 137.473C265.232 136.841 265.813 136.273 266.685 135.77C267.557 135.266 268.54 134.931 269.635 134.763C270.738 134.6 271.828 134.607 272.905 134.785C274 134.963 274.961 135.291 275.791 135.77C276.74 136.318 277.347 136.94 277.612 137.636C277.894 138.332 277.774 139.023 277.253 139.709L275.496 138.695ZM274.45 143.17L275.553 142.533L286.044 141.452L287.813 142.474L281.799 145.947L282.991 146.636L281.722 147.369L280.529 146.68L278.579 147.805L277.143 146.976L279.092 145.851L274.45 143.17ZM284.953 142.541L277.4 143.407L280.426 145.155L284.953 142.541ZM293.45 148.098C293.749 147.816 293.873 147.547 293.821 147.291C293.77 147.034 293.522 146.777 293.078 146.52C292.402 146.131 291.637 145.99 290.782 146.098C289.935 146.202 288.905 146.595 287.691 147.276C288.29 147.187 288.905 147.207 289.538 147.335C290.171 147.463 290.735 147.671 291.231 147.957C291.795 148.283 292.167 148.641 292.347 149.031C292.543 149.421 292.53 149.818 292.308 150.223C292.094 150.632 291.667 151.022 291.026 151.393C290.427 151.738 289.773 151.978 289.063 152.111C288.362 152.249 287.644 152.264 286.909 152.155C286.182 152.042 285.494 151.797 284.844 151.422C283.963 150.914 283.463 150.403 283.343 149.89C283.241 149.376 283.442 148.855 283.946 148.327C284.459 147.804 285.246 147.236 286.306 146.624C289.435 144.817 292.103 144.551 294.309 145.824C295.164 146.318 295.604 146.839 295.63 147.387C295.664 147.94 295.386 148.436 294.796 148.875L293.45 148.098ZM289.679 148.483C289.157 148.182 288.555 148.016 287.871 147.987C287.204 147.957 286.575 148.112 285.985 148.453C285.395 148.794 285.092 149.161 285.075 149.556C285.075 149.951 285.378 150.324 285.985 150.674C286.524 150.985 287.114 151.133 287.755 151.119C288.405 151.109 289.008 150.943 289.564 150.623C290.145 150.287 290.453 149.931 290.487 149.556C290.538 149.181 290.269 148.823 289.679 148.483ZM303.871 152.915L292.085 155.603L290.61 154.751L302.281 152.175L297.536 149.435L298.78 148.717L304.961 152.286L303.871 152.915ZM303.622 156.622C303.177 155.851 303.434 155.19 304.391 154.637C304.853 154.371 305.392 154.193 306.007 154.104C306.623 154.015 307.273 154.04 307.957 154.178C308.649 154.311 309.329 154.57 309.996 154.955C310.654 155.336 311.099 155.726 311.33 156.125C311.578 156.525 311.625 156.903 311.471 157.258C311.317 157.614 311.009 157.925 310.547 158.191C310.069 158.468 309.521 158.64 308.906 158.71C308.307 158.779 307.709 158.754 307.11 158.636C307.418 159.021 307.508 159.413 307.38 159.813C307.26 160.208 306.927 160.563 306.379 160.879C305.824 161.2 305.191 161.402 304.481 161.486C303.772 161.57 303.049 161.533 302.314 161.375C301.579 161.217 300.89 160.953 300.249 160.583C299.608 160.213 299.15 159.815 298.877 159.391C298.612 158.971 298.552 158.557 298.697 158.147C298.843 157.737 299.193 157.372 299.749 157.051C300.305 156.73 300.924 156.535 301.608 156.466C302.292 156.397 302.964 156.449 303.622 156.622ZM308.97 157.488C309.449 157.211 309.667 156.913 309.624 156.592C309.581 156.271 309.299 155.96 308.778 155.659C308.265 155.363 307.73 155.202 307.174 155.178C306.619 155.153 306.097 155.281 305.61 155.563C305.182 155.809 304.986 156.101 305.02 156.436C305.071 156.772 305.341 157.081 305.828 157.362C306.315 157.643 306.854 157.796 307.444 157.821C308.034 157.846 308.542 157.735 308.97 157.488ZM304.725 157.999C304.161 157.673 303.558 157.488 302.917 157.443C302.292 157.399 301.72 157.527 301.198 157.828C300.711 158.11 300.484 158.438 300.518 158.813C300.561 159.183 300.877 159.539 301.467 159.879C302.049 160.215 302.66 160.39 303.301 160.405C303.951 160.425 304.515 160.297 304.994 160.02C305.507 159.724 305.73 159.393 305.661 159.028C305.601 158.668 305.289 158.325 304.725 157.999Z" fill="#173244"/>
<rect width="90.8287" height="54.2998" transform="matrix(0.866025 0.5 -0.866025 0.5 272.184 111.809)" stroke="#129590" stroke-width="2"/>
<path d="M349.911 186.056C349.483 186.303 348.975 186.473 348.385 186.567C347.803 186.666 347.179 186.671 346.512 186.582C345.854 186.498 345.221 186.31 344.614 186.019L343.575 186.619L342.742 186.138L343.781 185.538C343.054 185.029 342.656 184.509 342.588 183.975C342.519 183.442 342.836 182.973 343.537 182.569L345.102 183.472C344.794 183.679 344.623 183.901 344.589 184.138C344.563 184.37 344.695 184.605 344.986 184.842L347.808 183.213C347.38 182.798 347.059 182.445 346.846 182.154C346.641 181.858 346.572 181.542 346.641 181.206C346.717 180.875 347.038 180.547 347.602 180.221C348.312 179.812 349.146 179.617 350.103 179.636C351.069 179.651 351.993 179.868 352.873 180.288L353.912 179.688L354.746 180.17L353.707 180.769C354.391 181.243 354.754 181.729 354.797 182.228C354.857 182.727 354.562 183.198 353.912 183.642L352.348 182.739C352.587 182.571 352.72 182.376 352.745 182.154C352.779 181.927 352.685 181.705 352.463 181.488L349.693 183.087C350.129 183.497 350.45 183.85 350.655 184.146C350.869 184.437 350.937 184.748 350.86 185.079C350.792 185.405 350.475 185.73 349.911 186.056ZM349.167 181.036C348.817 181.238 348.646 181.455 348.654 181.687C348.671 181.924 348.812 182.188 349.077 182.48L351.668 180.984C351.258 180.796 350.83 180.703 350.385 180.703C349.949 180.708 349.543 180.819 349.167 181.036ZM345.82 185.323C346.256 185.506 346.7 185.59 347.154 185.575C347.615 185.555 348.017 185.446 348.359 185.249C348.701 185.052 348.859 184.837 348.834 184.605C348.825 184.373 348.688 184.111 348.423 183.82L345.82 185.323ZM363.908 187.577L352.122 190.265L350.647 189.413L362.318 186.836L357.572 184.097L358.816 183.379L364.998 186.948L363.908 187.577ZM358.965 191.965L360.068 191.328L370.559 190.247L372.329 191.269L366.314 194.741L367.506 195.43L366.237 196.163L365.044 195.474L363.095 196.6L361.658 195.771L363.608 194.645L358.965 191.965ZM369.469 191.335L361.915 192.202L364.941 193.949L369.469 191.335ZM379.901 196.811L368.115 199.498L366.64 198.647L378.311 196.07L373.566 193.33L374.81 192.612L380.991 196.181L379.901 196.811ZM376.741 202.45L371.649 203.597L370.7 203.049L375.15 201.531L376.741 202.45ZM390.471 202.913L378.685 205.601L377.21 204.75L388.881 202.173L384.136 199.433L385.38 198.715L391.561 202.284L390.471 202.913Z" fill="#173244"/>
<rect width="90.8287" height="54.2998" transform="matrix(0.866025 0.5 -0.866025 0.5 350.844 157.223)" stroke="#129590" stroke-width="2"/>
<path d="M146.103 115.328L137.19 120.474L135.728 119.63L144.641 114.483L146.103 115.328ZM151.19 118.265C152.14 118.813 152.785 119.398 153.127 120.02C153.486 120.642 153.516 121.261 153.217 121.878C152.935 122.495 152.34 123.065 151.434 123.589C150.528 124.112 149.545 124.452 148.484 124.61C147.433 124.773 146.368 124.751 145.291 124.544C144.231 124.336 143.226 123.959 142.277 123.411L139.366 121.73L148.279 116.584L151.19 118.265ZM143.47 122.722C144.513 123.324 145.594 123.623 146.715 123.618C147.835 123.613 148.908 123.315 149.934 122.722C150.968 122.125 151.498 121.498 151.524 120.841C151.55 120.185 151.041 119.556 149.998 118.953L148.549 118.117L142.021 121.886L143.47 122.722ZM159.934 124.349L161.268 123.579L163.935 125.119L154.586 130.517L153.111 129.666L161.127 125.038L159.934 124.349ZM159.647 131.144C161.177 131.208 162.404 131.245 163.328 131.255C164.268 131.265 165.144 131.218 165.957 131.114C166.769 131.011 167.423 130.816 167.919 130.529C168.432 130.233 168.71 129.929 168.753 129.618C168.804 129.312 168.569 129.009 168.047 128.708C167.543 128.416 166.987 128.283 166.38 128.308C165.79 128.333 165.217 128.495 164.661 128.797L163.251 127.982C164.251 127.434 165.285 127.173 166.354 127.197C167.44 127.222 168.415 127.484 169.278 127.982C170.21 128.52 170.681 129.088 170.689 129.685C170.706 130.287 170.287 130.835 169.432 131.329C168.817 131.684 168.064 131.936 167.175 132.084C166.303 132.232 165.422 132.311 164.533 132.321C163.661 132.331 162.597 132.314 161.34 132.269L160.25 132.232L164.315 134.58L163.097 135.283L156.864 131.684L157.928 131.07L159.647 131.144ZM171.525 132.167C172.371 131.737 173.294 131.555 174.295 131.619C175.304 131.688 176.244 131.974 177.116 132.478C177.715 132.823 178.125 133.184 178.348 133.559C178.57 133.934 178.608 134.292 178.463 134.632C178.318 134.973 178.014 135.277 177.552 135.543C177.022 135.849 176.428 136.029 175.77 136.084C175.111 136.138 174.521 136.089 174 135.936L173.949 135.965C174.299 136.345 174.41 136.735 174.282 137.135C174.162 137.53 173.786 137.91 173.153 138.275C172.649 138.567 172.085 138.759 171.46 138.853C170.836 138.947 170.182 138.93 169.498 138.801C168.823 138.668 168.169 138.419 167.536 138.053C166.613 137.52 166.087 136.945 165.959 136.328C165.847 135.711 166.215 135.133 167.062 134.595L168.472 135.41C168.053 135.691 167.857 136.007 167.882 136.358C167.917 136.703 168.203 137.032 168.742 137.342C169.263 137.644 169.806 137.794 170.37 137.794C170.943 137.789 171.456 137.656 171.909 137.394C172.508 137.049 172.739 136.693 172.602 136.328C172.482 135.963 172.029 135.553 171.242 135.099L170.909 134.906L172.115 134.21L172.461 134.41C173.162 134.805 173.803 135.042 174.385 135.121C174.975 135.205 175.509 135.109 175.988 134.832C176.398 134.595 176.59 134.331 176.565 134.04C176.548 133.744 176.296 133.455 175.808 133.174C175.329 132.897 174.833 132.754 174.32 132.744C173.816 132.729 173.359 132.811 172.948 132.989L171.525 132.167ZM174.151 139.562L175.253 138.925L185.744 137.844L187.514 138.866L181.499 142.339L182.692 143.027L181.422 143.76L180.23 143.072L178.28 144.197L176.844 143.368L178.793 142.242L174.151 139.562ZM184.654 138.933L177.1 139.799L180.127 141.546L184.654 138.933Z" fill="#173244"/>
<path d="M146.496 93.543L225.156 138.957L178.131 166.107L109.731 126.616C104.065 123.345 104.065 118.041 109.731 114.769L146.496 93.543Z" stroke="#129590" stroke-width="2"/>
<path d="M228.468 165.843C228.682 165.453 228.695 165.075 228.507 164.71C228.327 164.34 227.968 163.999 227.43 163.688C226.84 163.348 226.181 163.121 225.455 163.007C224.728 162.894 223.988 162.901 223.236 163.029C222.492 163.163 221.799 163.414 221.158 163.785C220.517 164.155 220.077 164.557 219.837 164.992C219.615 165.426 219.602 165.853 219.799 166.273C219.995 166.692 220.389 167.072 220.979 167.413C221.774 167.872 222.642 168.116 223.582 168.146C224.523 168.176 225.429 168.003 226.301 167.628L222.954 165.695L224.121 165.021L229.033 167.857L227.891 168.516C227.105 168.862 226.22 169.086 225.237 169.19C224.262 169.299 223.279 169.269 222.287 169.101C221.312 168.933 220.436 168.625 219.658 168.176C218.82 167.692 218.247 167.139 217.939 166.517C217.64 165.89 217.631 165.258 217.914 164.621C218.204 163.989 218.786 163.422 219.658 162.918C220.53 162.415 221.513 162.079 222.607 161.911C223.71 161.748 224.801 161.756 225.878 161.934C226.972 162.111 227.934 162.439 228.763 162.918C229.713 163.466 230.32 164.088 230.585 164.784C230.867 165.48 230.747 166.171 230.226 166.858L228.468 165.843ZM227.422 170.319L228.525 169.682L239.016 168.601L240.786 169.623L234.771 173.095L235.964 173.784L234.694 174.517L233.501 173.828L231.552 174.954L230.116 174.125L232.065 172.999L227.422 170.319ZM237.926 169.689L230.372 170.556L233.399 172.303L237.926 169.689ZM248.359 175.165L236.573 177.852L235.098 177.001L246.768 174.424L242.023 171.685L243.267 170.966L249.449 174.535L248.359 175.165ZM248.11 178.871C247.665 178.101 247.921 177.44 248.879 176.887C249.341 176.62 249.879 176.442 250.495 176.354C251.111 176.265 251.76 176.289 252.444 176.428C253.137 176.561 253.817 176.82 254.484 177.205C255.142 177.585 255.587 177.975 255.817 178.375C256.065 178.775 256.112 179.152 255.958 179.508C255.805 179.863 255.497 180.174 255.035 180.441C254.556 180.717 254.009 180.89 253.393 180.959C252.795 181.028 252.196 181.004 251.598 180.885C251.906 181.27 251.996 181.663 251.867 182.062C251.748 182.457 251.414 182.813 250.867 183.129C250.311 183.45 249.678 183.652 248.969 183.736C248.259 183.82 247.537 183.783 246.801 183.625C246.066 183.467 245.378 183.203 244.737 182.833C244.095 182.462 243.638 182.065 243.364 181.64C243.099 181.221 243.039 180.806 243.185 180.396C243.33 179.987 243.681 179.621 244.236 179.301C244.792 178.98 245.412 178.785 246.096 178.716C246.78 178.647 247.451 178.698 248.11 178.871ZM253.458 179.737C253.936 179.461 254.154 179.162 254.112 178.841C254.069 178.521 253.787 178.21 253.265 177.909C252.752 177.612 252.218 177.452 251.662 177.427C251.106 177.403 250.585 177.531 250.097 177.812C249.67 178.059 249.473 178.35 249.507 178.686C249.559 179.022 249.828 179.33 250.315 179.612C250.803 179.893 251.341 180.046 251.931 180.071C252.521 180.095 253.03 179.984 253.458 179.737ZM249.213 180.248C248.648 179.923 248.045 179.737 247.404 179.693C246.78 179.649 246.207 179.777 245.686 180.078C245.198 180.359 244.972 180.688 245.006 181.063C245.049 181.433 245.365 181.788 245.955 182.129C246.536 182.465 247.148 182.64 247.789 182.655C248.439 182.675 249.003 182.546 249.482 182.27C249.995 181.974 250.217 181.643 250.149 181.278C250.089 180.917 249.777 180.574 249.213 180.248ZM254.441 185.237C254.099 185.533 253.958 185.827 254.018 186.118C254.078 186.409 254.347 186.693 254.826 186.969C255.433 187.32 256.117 187.438 256.878 187.325C257.639 187.211 258.597 186.821 259.751 186.155C259.255 186.204 258.738 186.167 258.199 186.044C257.677 185.92 257.199 185.733 256.763 185.481C256.207 185.16 255.813 184.805 255.583 184.415C255.36 184.02 255.339 183.618 255.519 183.208C255.715 182.798 256.134 182.408 256.775 182.038C257.716 181.495 258.738 181.221 259.841 181.216C260.961 181.211 262.004 181.488 262.97 182.045C264.133 182.717 264.569 183.418 264.278 184.148C264.004 184.879 263.068 185.706 261.469 186.629C260.366 187.266 259.37 187.732 258.481 188.028C257.6 188.329 256.754 188.453 255.942 188.398C255.129 188.344 254.322 188.085 253.518 187.621C252.603 187.093 252.137 186.547 252.12 185.985C252.103 185.422 252.428 184.913 253.095 184.459L254.441 185.237ZM258.25 184.918C258.763 185.215 259.323 185.355 259.93 185.34C260.554 185.326 261.132 185.165 261.662 184.859C262.252 184.518 262.551 184.163 262.559 183.793C262.585 183.423 262.329 183.082 261.79 182.771C261.251 182.46 260.653 182.312 259.994 182.327C259.353 182.342 258.759 182.507 258.212 182.823C257.69 183.124 257.408 183.46 257.365 183.83C257.34 184.2 257.635 184.563 258.25 184.918Z" fill="#173244"/>
<rect width="90.8287" height="54.2998" transform="matrix(0.866025 0.5 -0.866025 0.5 225.156 138.957)" stroke="#129590" stroke-width="2"/>
<path d="M302.243 212.833C301.815 213.08 301.307 213.251 300.717 213.344C300.135 213.443 299.511 213.448 298.844 213.359C298.186 213.275 297.553 213.088 296.946 212.796L295.907 213.396L295.074 212.915L296.113 212.315C295.386 211.807 294.988 211.286 294.92 210.753C294.851 210.22 295.168 209.751 295.869 209.346L297.434 210.249C297.126 210.457 296.955 210.679 296.921 210.916C296.895 211.148 297.027 211.382 297.318 211.619L300.14 209.99C299.712 209.575 299.392 209.223 299.178 208.931C298.973 208.635 298.904 208.319 298.973 207.983C299.05 207.653 299.37 207.324 299.934 206.999C300.644 206.589 301.478 206.394 302.435 206.414C303.401 206.429 304.325 206.646 305.206 207.065L306.244 206.466L307.078 206.947L306.039 207.547C306.723 208.021 307.087 208.507 307.129 209.005C307.189 209.504 306.894 209.975 306.244 210.42L304.68 209.516C304.919 209.348 305.052 209.153 305.077 208.931C305.111 208.704 305.017 208.482 304.795 208.265L302.025 209.864C302.461 210.274 302.782 210.627 302.987 210.923C303.201 211.214 303.269 211.525 303.192 211.856C303.124 212.182 302.807 212.508 302.243 212.833ZM301.499 207.813C301.149 208.016 300.978 208.233 300.986 208.465C301.003 208.702 301.144 208.966 301.409 209.257L304 207.761C303.59 207.574 303.162 207.48 302.717 207.48C302.281 207.485 301.875 207.596 301.499 207.813ZM298.152 212.1C298.588 212.283 299.032 212.367 299.486 212.352C299.947 212.332 300.349 212.224 300.691 212.026C301.033 211.829 301.191 211.614 301.166 211.382C301.157 211.15 301.02 210.889 300.755 210.597L298.152 212.1ZM316.214 214.488L311.918 212.007L309.366 213.481C309.785 213.446 310.251 213.483 310.764 213.592C311.285 213.705 311.747 213.878 312.149 214.11C312.867 214.525 313.295 214.949 313.431 215.383C313.577 215.823 313.508 216.233 313.226 216.613C312.953 216.998 312.555 217.341 312.033 217.642C311.401 218.007 310.712 218.261 309.969 218.405C309.242 218.548 308.494 218.56 307.724 218.442C306.963 218.328 306.232 218.069 305.531 217.664C304.599 217.126 304.082 216.561 303.979 215.968C303.877 215.376 304.15 214.828 304.8 214.325L306.224 215.147C305.916 215.433 305.805 215.739 305.89 216.065C305.984 216.386 306.275 216.687 306.762 216.968C307.369 217.319 308.006 217.474 308.673 217.435C309.349 217.4 309.99 217.207 310.597 216.857C311.213 216.502 311.529 216.141 311.546 215.776C311.572 215.406 311.285 215.048 310.687 214.702C310.268 214.46 309.806 214.317 309.302 214.273C308.814 214.228 308.327 214.273 307.84 214.406L306.455 213.606L311.854 210.489L317.497 213.747L316.214 214.488ZM322.751 219.313C323.05 219.031 323.174 218.762 323.123 218.506C323.072 218.249 322.824 217.992 322.379 217.736C321.704 217.346 320.938 217.205 320.083 217.314C319.237 217.417 318.207 217.81 316.992 218.491C317.591 218.402 318.207 218.422 318.839 218.55C319.472 218.679 320.036 218.886 320.532 219.172C321.096 219.498 321.468 219.856 321.648 220.246C321.845 220.636 321.832 221.033 321.609 221.438C321.396 221.848 320.968 222.238 320.327 222.608C319.728 222.953 319.074 223.193 318.365 223.326C317.664 223.464 316.945 223.479 316.21 223.371C315.483 223.257 314.795 223.013 314.145 222.637C313.265 222.129 312.765 221.618 312.645 221.105C312.542 220.591 312.743 220.071 313.248 219.542C313.761 219.019 314.547 218.451 315.607 217.839C318.737 216.033 321.404 215.766 323.61 217.04C324.465 217.533 324.906 218.054 324.931 218.602C324.965 219.155 324.687 219.651 324.098 220.09L322.751 219.313ZM318.98 219.698C318.459 219.397 317.856 219.231 317.172 219.202C316.505 219.172 315.877 219.328 315.287 219.668C314.697 220.009 314.393 220.377 314.376 220.772C314.376 221.166 314.68 221.539 315.287 221.89C315.825 222.201 316.415 222.349 317.057 222.334C317.706 222.324 318.309 222.159 318.865 221.838C319.446 221.502 319.754 221.147 319.788 220.772C319.84 220.396 319.57 220.039 318.98 219.698ZM333.173 224.13L321.386 226.818L319.911 225.967L331.582 223.39L326.837 220.65L328.081 219.932L334.263 223.501L333.173 224.13ZM330.012 229.769L324.921 230.917L323.971 230.369L328.422 228.851L330.012 229.769ZM343.717 230.366L339.421 227.886L336.868 229.359C337.287 229.325 337.753 229.362 338.266 229.47C338.788 229.584 339.25 229.757 339.651 229.989C340.37 230.403 340.797 230.828 340.934 231.262C341.079 231.701 341.011 232.111 340.729 232.491C340.455 232.876 340.058 233.219 339.536 233.521C338.903 233.886 338.215 234.14 337.471 234.283C336.744 234.426 335.996 234.439 335.227 234.32C334.466 234.207 333.735 233.948 333.034 233.543C332.102 233.005 331.585 232.439 331.482 231.847C331.379 231.255 331.653 230.707 332.303 230.203L333.726 231.025C333.419 231.311 333.307 231.618 333.393 231.943C333.487 232.264 333.778 232.565 334.265 232.847C334.872 233.197 335.509 233.353 336.176 233.313C336.851 233.279 337.493 233.086 338.1 232.736C338.715 232.38 339.032 232.02 339.049 231.655C339.074 231.284 338.788 230.926 338.189 230.581C337.77 230.339 337.309 230.196 336.804 230.151C336.317 230.107 335.83 230.151 335.342 230.285L333.957 229.485L339.356 226.368L344.999 229.626L343.717 230.366Z" fill="#173244"/>
<path d="M303.816 184.371L382.476 229.785L345.711 251.012C340.045 254.283 330.858 254.283 325.191 251.012L256.791 211.521L303.816 184.371Z" stroke="#129590" stroke-width="2"/>
</g>
<g filter="url(#filter1_d)">
<rect width="91.816" height="54.2998" transform="matrix(0.866025 0.5 -0.866025 0.5 350.133 140.686)" fill="#F82530"/>
<path d="M341.995 165.966C341.424 166.296 340.743 166.515 339.953 166.623C339.184 166.731 338.353 166.707 337.459 166.551C336.586 166.395 335.739 166.098 334.918 165.66L333.655 166.389L332.658 165.813L333.936 165.075C332.928 164.385 332.367 163.683 332.252 162.969C332.149 162.249 332.564 161.595 333.5 161.007L336.337 162.645C335.775 163.041 335.677 163.446 336.04 163.86L338.503 162.438C337.901 161.85 337.454 161.358 337.163 160.962C336.882 160.572 336.778 160.146 336.851 159.684C336.924 159.222 337.34 158.772 338.098 158.334C339.044 157.788 340.151 157.551 341.419 157.623C342.697 157.701 343.923 158.037 345.097 158.631L346.36 157.902L347.358 158.478L346.095 159.207C347.103 159.885 347.649 160.566 347.732 161.25C347.815 161.934 347.404 162.579 346.5 163.185L343.648 161.538C344.146 161.178 344.245 160.815 343.944 160.449L341.528 161.844C342.151 162.48 342.603 162.987 342.884 163.365C343.164 163.743 343.268 164.163 343.196 164.625C343.144 165.087 342.744 165.534 341.995 165.966ZM341.044 159.891C340.785 160.041 340.644 160.212 340.623 160.404C340.613 160.602 340.691 160.827 340.857 161.079L343.024 159.828C342.681 159.69 342.338 159.624 341.995 159.63C341.663 159.63 341.346 159.717 341.044 159.891ZM336.991 164.463C337.355 164.613 337.724 164.682 338.098 164.67C338.483 164.664 338.82 164.577 339.111 164.409C339.382 164.253 339.512 164.076 339.501 163.878C339.512 163.68 339.413 163.449 339.205 163.185L336.991 164.463ZM359.158 169.089L354.294 166.281L352.143 167.523C352.58 167.511 353.058 167.571 353.577 167.703C354.097 167.835 354.575 168.027 355.011 168.279C355.791 168.729 356.259 169.203 356.414 169.701C356.581 170.205 356.503 170.688 356.181 171.15C355.858 171.612 355.37 172.032 354.715 172.41C353.499 173.112 352.19 173.472 350.787 173.49C349.394 173.502 348.075 173.148 346.828 172.428C345.996 171.948 345.414 171.45 345.082 170.934C344.759 170.412 344.687 169.908 344.863 169.422C345.04 168.936 345.445 168.492 346.079 168.09L348.683 169.593C348.423 169.815 348.303 170.058 348.324 170.322C348.355 170.58 348.579 170.829 348.994 171.069C349.483 171.351 350.002 171.471 350.553 171.429C351.104 171.387 351.639 171.216 352.159 170.916C352.668 170.622 352.933 170.325 352.954 170.025C352.975 169.725 352.746 169.437 352.268 169.161C351.915 168.957 351.535 168.84 351.13 168.81C350.735 168.774 350.361 168.816 350.008 168.936L347.436 167.451L354.216 163.536L361.496 167.739L359.158 169.089ZM367.719 174.895C368.02 174.625 368.161 174.376 368.14 174.148C368.129 173.914 367.932 173.686 367.547 173.464C366.955 173.122 366.269 173.026 365.49 173.176C364.721 173.32 363.775 173.71 362.653 174.346C363.245 174.268 363.858 174.292 364.492 174.418C365.136 174.55 365.718 174.766 366.238 175.066C367.256 175.654 367.75 176.311 367.719 177.037C367.698 177.769 367.111 178.468 365.957 179.134C365.199 179.572 364.378 179.866 363.494 180.016C362.621 180.172 361.728 180.172 360.813 180.016C359.909 179.866 359.057 179.56 358.257 179.098C356.656 178.174 356.043 177.244 356.417 176.308C356.802 175.366 357.935 174.352 359.816 173.266C361.79 172.126 363.583 171.469 365.194 171.295C366.825 171.121 368.368 171.454 369.823 172.294C370.603 172.744 371.102 173.212 371.32 173.698C371.559 174.184 371.564 174.649 371.335 175.093C371.117 175.543 370.738 175.954 370.197 176.326L367.719 174.895ZM363.494 175.912C363.048 175.654 362.538 175.516 361.967 175.498C361.416 175.48 360.896 175.612 360.408 175.894C359.909 176.182 359.654 176.485 359.644 176.803C359.644 177.127 359.899 177.436 360.408 177.73C360.865 177.994 361.359 178.123 361.889 178.117C362.44 178.111 362.954 177.97 363.432 177.694C363.92 177.412 364.175 177.115 364.196 176.803C364.217 176.491 363.983 176.194 363.494 175.912ZM373.245 180.624C372.788 179.76 373.115 179.007 374.227 178.365C374.788 178.041 375.443 177.831 376.191 177.735C376.95 177.633 377.761 177.675 378.623 177.861C379.496 178.041 380.364 178.38 381.226 178.878C382.089 179.376 382.671 179.874 382.972 180.372C383.294 180.87 383.367 181.338 383.191 181.776C383.024 182.208 382.661 182.586 382.099 182.91C381.538 183.234 380.915 183.438 380.229 183.522C379.553 183.612 378.873 183.597 378.187 183.477C378.478 183.957 378.535 184.422 378.358 184.872C378.192 185.316 377.792 185.721 377.158 186.087C376.42 186.513 375.594 186.774 374.679 186.87C373.775 186.96 372.861 186.9 371.936 186.69C371.021 186.486 370.174 186.159 369.395 185.709C368.615 185.259 368.044 184.767 367.68 184.233C367.327 183.705 367.228 183.18 367.384 182.658C367.55 182.13 368.002 181.653 368.74 181.227C369.384 180.855 370.091 180.621 370.86 180.525C371.639 180.423 372.434 180.456 373.245 180.624ZM379.106 181.65C379.532 181.404 379.735 181.143 379.714 180.867C379.714 180.591 379.512 180.336 379.106 180.102C378.701 179.868 378.254 179.748 377.766 179.742C377.288 179.742 376.836 179.865 376.41 180.111C376.004 180.345 375.807 180.603 375.817 180.885C375.838 181.161 376.046 181.413 376.441 181.641C376.836 181.869 377.277 181.986 377.766 181.992C378.254 181.998 378.701 181.884 379.106 181.65ZM374.57 182.721C374.082 182.439 373.552 182.289 372.98 182.271C372.419 182.247 371.904 182.37 371.437 182.64C371 182.892 370.787 183.183 370.798 183.513C370.818 183.849 371.078 184.161 371.577 184.449C372.076 184.737 372.606 184.881 373.167 184.881C373.739 184.887 374.243 184.764 374.679 184.512C375.136 184.248 375.35 183.951 375.318 183.621C375.298 183.297 375.048 182.997 374.57 182.721ZM382.524 190.193L376.32 191.777L374.62 190.796L379.998 188.735L382.524 190.193ZM389.163 193.018C388.498 193.582 388.565 194.095 389.365 194.557C389.916 194.875 390.55 194.959 391.267 194.809C391.984 194.659 392.894 194.266 393.995 193.63C393.444 193.684 392.883 193.648 392.312 193.522C391.74 193.396 391.21 193.192 390.722 192.91C390.057 192.526 389.599 192.106 389.35 191.65C389.111 191.188 389.111 190.714 389.35 190.228C389.61 189.742 390.129 189.274 390.909 188.824C391.678 188.38 392.504 188.083 393.387 187.933C394.281 187.789 395.175 187.795 396.068 187.951C396.973 188.113 397.825 188.425 398.625 188.887C400.163 189.775 400.761 190.672 400.418 191.578C400.075 192.484 398.973 193.474 397.113 194.548C395.762 195.328 394.52 195.901 393.387 196.267C392.275 196.633 391.2 196.78 390.16 196.708C389.132 196.642 388.118 196.321 387.121 195.745C386.331 195.289 385.811 194.809 385.562 194.305C385.323 193.807 385.307 193.324 385.515 192.856C385.733 192.394 386.128 191.974 386.7 191.596L389.163 193.018ZM393.434 192.046C393.871 192.298 394.349 192.424 394.868 192.424C395.398 192.418 395.892 192.283 396.349 192.019C396.848 191.731 397.097 191.431 397.097 191.119C397.097 190.807 396.869 190.519 396.411 190.255C395.954 189.991 395.45 189.862 394.899 189.868C394.369 189.874 393.865 190.015 393.387 190.291C392.94 190.549 392.707 190.834 392.686 191.146C392.686 191.458 392.935 191.758 393.434 192.046Z" fill="white"/>
</g>
<defs>
<filter id="filter0_d" x="274.746" y="319.279" width="182.542" height="129.058" filterUnits="userSpaceOnUse" color-interpolation-filters="sRGB">
<feFlood flood-opacity="0" result="BackgroundImageFix"/>
<feColorMatrix in="SourceAlpha" type="matrix" values="0 0 0 0 0 0 0 0 0 0 0 0 0 0 0 0 0 0 127 0"/>
<feOffset dy="20"/>
<feGaussianBlur stdDeviation="14"/>
<feColorMatrix type="matrix" values="0 0 0 0 0.972549 0 0 0 0 0.145098 0 0 0 0 0.188235 0 0 0 0.3 0"/>
<feBlend mode="normal" in2="BackgroundImageFix" result="effect1_dropShadow"/>
<feBlend mode="normal" in="SourceGraphic" in2="effect1_dropShadow" result="shape"/>
</filter>
<filter id="filter1_d" x="275.109" y="132.686" width="182.542" height="129.058" filterUnits="userSpaceOnUse" color-interpolation-filters="sRGB">
<feFlood flood-opacity="0" result="BackgroundImageFix"/>
<feColorMatrix in="SourceAlpha" type="matrix" values="0 0 0 0 0 0 0 0 0 0 0 0 0 0 0 0 0 0 127 0"/>
<feOffset dy="20"/>
<feGaussianBlur stdDeviation="14"/>
<feColorMatrix type="matrix" values="0 0 0 0 0.972549 0 0 0 0 0.145098 0 0 0 0 0.188235 0 0 0 0.3 0"/>
<feBlend mode="normal" in2="BackgroundImageFix" result="effect1_dropShadow"/>
<feBlend mode="normal" in="SourceGraphic" in2="effect1_dropShadow" result="shape"/>
</filter>
<clipPath id="clip0">
<rect width="350.974" height="241.387" rx="23.6945" transform="matrix(0.866025 0.5 -0.866025 0.5 240.547 0)" fill="white"/>
</clipPath>
</defs>
</svg>
