<svg width="435" height="435" viewBox="0 0 435 435" fill="none" xmlns="http://www.w3.org/2000/svg">
<path opacity="0.2" d="M217.5 0C274.593 6.80826e-07 329.397 22.4487 370.083 62.5011C410.77 102.554 434.076 156.998 434.973 214.084C435.87 271.17 414.285 326.319 374.876 367.63C335.468 408.94 281.396 433.099 224.332 434.893C167.267 436.686 111.785 415.97 69.8608 377.215C27.9362 338.46 2.93086 284.775 0.241447 227.746C-2.44797 170.716 17.3942 114.916 55.4856 72.3877C93.577 29.8595 146.863 4.01403 203.843 0.429178L208.46 73.8158C170.744 76.1887 135.473 93.2965 110.259 121.447C85.0454 149.597 71.9114 186.533 73.6916 224.282C75.4717 262.031 92.0234 297.566 119.774 323.219C147.525 348.872 184.25 362.584 222.022 361.397C259.795 360.21 295.586 344.219 321.671 316.874C347.756 289.53 362.044 253.025 361.451 215.239C360.857 177.452 345.43 141.414 318.498 114.903C291.567 88.391 255.291 73.5317 217.5 73.5317L217.5 0Z" fill="#129590"/>
<path d="M217.501 50.1426C261.432 50.1426 303.601 67.416 334.908 98.2349C366.215 129.054 384.148 170.947 384.838 214.872C385.529 258.798 368.92 301.233 338.596 333.02C308.273 364.807 266.667 383.397 222.758 384.777C178.848 386.156 136.157 370.216 103.898 340.396C71.6385 310.575 52.3978 269.267 50.3284 225.384C48.259 181.502 63.5268 138.566 92.8367 105.842C122.147 73.1184 163.148 53.2312 206.992 50.4728L208.864 80.2274C172.831 82.4944 139.133 98.8388 115.045 125.733C90.9559 152.628 78.4079 187.915 80.1087 223.98C81.8094 260.045 97.6225 293.995 124.135 318.503C150.648 343.011 185.734 356.112 221.821 354.978C257.908 353.844 292.103 338.566 317.024 312.441C341.946 286.317 355.596 251.441 355.029 215.34C354.462 179.24 339.723 144.81 313.993 119.481C288.263 94.1523 253.606 79.956 217.501 79.956L217.501 50.1426Z" fill="#129590"/>
<path d="M161.249 222.957C162.486 229.475 166.281 232.733 172.634 232.733C177.006 232.733 180.1 230.794 181.915 226.917C183.73 223.04 184.637 216.729 184.637 207.984C182.822 210.541 180.347 212.521 177.212 213.924C174.077 215.326 170.571 216.027 166.694 216.027C161.414 216.027 156.712 214.955 152.587 212.81C148.462 210.582 145.203 207.324 142.811 203.034C140.501 198.661 139.346 193.382 139.346 187.194C139.346 181.089 140.583 175.768 143.058 171.231C145.616 166.694 149.204 163.187 153.824 160.712C158.526 158.237 164.054 157 170.406 157C182.616 157 191.154 160.795 196.022 168.385C200.889 175.975 203.323 187.153 203.323 201.92C203.323 212.645 202.333 221.513 200.353 228.526C198.456 235.456 195.197 240.735 190.577 244.365C186.04 247.995 179.811 249.81 171.891 249.81C165.621 249.81 160.259 248.573 155.804 246.098C151.432 243.623 148.049 240.364 145.657 236.322C143.347 232.279 142.027 227.825 141.697 222.957H161.249ZM171.52 199.321C174.985 199.321 177.749 198.29 179.811 196.228C181.873 194.083 182.905 191.195 182.905 187.566C182.905 183.606 181.832 180.553 179.687 178.408C177.542 176.263 174.655 175.191 171.025 175.191C167.395 175.191 164.508 176.305 162.363 178.532C160.3 180.677 159.269 183.647 159.269 187.442C159.269 190.989 160.3 193.877 162.363 196.104C164.508 198.249 167.56 199.321 171.52 199.321Z" fill="#F82530"/>
<path d="M231.41 222.957C232.647 229.475 236.442 232.733 242.795 232.733C247.167 232.733 250.261 230.794 252.076 226.917C253.891 223.04 254.798 216.729 254.798 207.984C252.983 210.541 250.508 212.521 247.373 213.924C244.238 215.326 240.732 216.027 236.855 216.027C231.575 216.027 226.872 214.955 222.748 212.81C218.623 210.582 215.364 207.324 212.971 203.034C210.662 198.661 209.507 193.382 209.507 187.194C209.507 181.089 210.744 175.768 213.219 171.231C215.776 166.694 219.365 163.187 223.985 160.712C228.687 158.237 234.215 157 240.567 157C252.777 157 261.315 160.795 266.183 168.385C271.05 175.975 273.484 187.153 273.484 201.92C273.484 212.645 272.494 221.513 270.514 228.526C268.616 235.456 265.358 240.735 260.738 244.365C256.2 247.995 249.972 249.81 242.052 249.81C235.782 249.81 230.42 248.573 225.965 246.098C221.593 243.623 218.21 240.364 215.818 236.322C213.508 232.279 212.188 227.825 211.858 222.957H231.41ZM241.681 199.321C245.146 199.321 247.909 198.29 249.972 196.228C252.034 194.083 253.066 191.195 253.066 187.566C253.066 183.606 251.993 180.553 249.848 178.408C247.703 176.263 244.816 175.191 241.186 175.191C237.556 175.191 234.668 176.305 232.524 178.532C230.461 180.677 229.43 183.647 229.43 187.442C229.43 190.989 230.461 193.877 232.524 196.104C234.668 198.249 237.721 199.321 241.681 199.321Z" fill="#F82530"/>
<path d="M280.789 222.778C280.789 220.157 281.531 218.135 283.015 216.712C284.531 215.288 286.483 214.576 288.871 214.576C291.258 214.576 293.194 215.288 294.678 216.712C296.162 218.135 296.904 220.157 296.904 222.778C296.904 225.399 296.162 227.421 294.678 228.844C293.194 230.268 291.258 230.98 288.871 230.98C286.483 230.98 284.531 230.268 283.015 228.844C281.531 227.421 280.789 225.399 280.789 222.778ZM313.647 215.11L295.016 249.276H287.032L305.662 215.11H313.647ZM288.822 219.429C287.274 219.429 286.499 220.545 286.499 222.778C286.499 224.978 287.274 226.078 288.822 226.078C289.564 226.078 290.145 225.803 290.564 225.253C290.984 224.703 291.193 223.878 291.193 222.778C291.193 220.545 290.403 219.429 288.822 219.429ZM303.824 241.608C303.824 238.987 304.566 236.965 306.05 235.542C307.534 234.118 309.469 233.406 311.857 233.406C314.244 233.406 316.18 234.118 317.664 235.542C319.148 236.965 319.89 238.987 319.89 241.608C319.89 244.229 319.148 246.251 317.664 247.674C316.18 249.098 314.244 249.81 311.857 249.81C309.469 249.81 307.534 249.098 306.05 247.674C304.566 246.251 303.824 244.229 303.824 241.608ZM311.808 238.259C311.066 238.259 310.486 238.534 310.066 239.084C309.679 239.634 309.485 240.476 309.485 241.608C309.485 243.808 310.26 244.908 311.808 244.908C312.55 244.908 313.131 244.633 313.55 244.083C313.97 243.533 314.179 242.708 314.179 241.608C314.179 240.508 313.97 239.683 313.55 239.133C313.131 238.55 312.55 238.259 311.808 238.259Z" fill="#F82530"/>
<path d="M128.151 284.985C127.373 284.985 126.676 284.862 126.06 284.614C125.444 284.367 124.949 284.001 124.576 283.517C124.212 283.032 124.02 282.449 124 281.766H126.757C126.797 282.152 126.934 282.449 127.166 282.656C127.398 282.854 127.701 282.953 128.075 282.953C128.459 282.953 128.762 282.869 128.984 282.701C129.206 282.523 129.317 282.281 129.317 281.974C129.317 281.717 129.226 281.504 129.044 281.336C128.873 281.168 128.655 281.03 128.393 280.921C128.14 280.812 127.777 280.689 127.302 280.55C126.616 280.342 126.055 280.135 125.621 279.927C125.187 279.719 124.813 279.413 124.5 279.007C124.187 278.602 124.03 278.073 124.03 277.42C124.03 276.451 124.389 275.695 125.106 275.151C125.823 274.597 126.757 274.32 127.908 274.32C129.08 274.32 130.024 274.597 130.741 275.151C131.458 275.695 131.842 276.456 131.892 277.435H129.09C129.07 277.099 128.943 276.837 128.711 276.649C128.479 276.451 128.181 276.352 127.817 276.352C127.504 276.352 127.252 276.436 127.06 276.604C126.868 276.763 126.772 276.995 126.772 277.302C126.772 277.638 126.934 277.9 127.257 278.088C127.58 278.276 128.085 278.478 128.772 278.696C129.458 278.923 130.014 279.141 130.438 279.349C130.872 279.556 131.246 279.858 131.559 280.253C131.872 280.649 132.028 281.158 132.028 281.781C132.028 282.375 131.872 282.913 131.559 283.398C131.256 283.883 130.812 284.268 130.226 284.555C129.64 284.842 128.948 284.985 128.151 284.985Z" fill="#173244"/>
<path d="M142.064 276.604V284.881H139.473V283.754C139.211 284.12 138.852 284.417 138.398 284.644C137.954 284.862 137.459 284.97 136.913 284.97C136.267 284.97 135.697 284.832 135.202 284.555C134.707 284.268 134.323 283.858 134.05 283.324C133.778 282.79 133.641 282.162 133.641 281.44V276.604H136.217V281.099C136.217 281.653 136.363 282.083 136.656 282.389C136.949 282.696 137.343 282.849 137.837 282.849C138.342 282.849 138.741 282.696 139.034 282.389C139.327 282.083 139.473 281.653 139.473 281.099V276.604H142.064Z" fill="#173244"/>
<path d="M143.504 280.743C143.504 279.883 143.681 279.131 144.034 278.488C144.398 277.845 144.898 277.351 145.534 277.005C146.18 276.659 146.917 276.486 147.745 276.486C148.806 276.486 149.689 276.758 150.396 277.302C151.113 277.845 151.583 278.612 151.805 279.601H149.048C148.816 278.968 148.366 278.651 147.7 278.651C147.225 278.651 146.847 278.834 146.564 279.2C146.281 279.556 146.14 280.07 146.14 280.743C146.14 281.415 146.281 281.934 146.564 282.3C146.847 282.656 147.225 282.834 147.7 282.834C148.366 282.834 148.816 282.518 149.048 281.885H151.805C151.583 282.854 151.113 283.616 150.396 284.169C149.679 284.723 148.796 285 147.745 285C146.917 285 146.18 284.827 145.534 284.481C144.898 284.135 144.398 283.64 144.034 282.998C143.681 282.355 143.504 281.603 143.504 280.743Z" fill="#173244"/>
<path d="M152.77 280.743C152.77 279.883 152.947 279.131 153.3 278.488C153.664 277.845 154.164 277.351 154.8 277.005C155.446 276.659 156.184 276.486 157.012 276.486C158.072 276.486 158.956 276.758 159.663 277.302C160.38 277.845 160.849 278.612 161.071 279.601H158.314C158.082 278.968 157.633 278.651 156.966 278.651C156.492 278.651 156.113 278.834 155.83 279.2C155.547 279.556 155.406 280.07 155.406 280.743C155.406 281.415 155.547 281.934 155.83 282.3C156.113 282.656 156.492 282.834 156.966 282.834C157.633 282.834 158.082 282.518 158.314 281.885H161.071C160.849 282.854 160.38 283.616 159.663 284.169C158.946 284.723 158.062 285 157.012 285C156.184 285 155.446 284.827 154.8 284.481C154.164 284.135 153.664 283.64 153.3 282.998C152.947 282.355 152.77 281.603 152.77 280.743Z" fill="#173244"/>
<path d="M170.519 280.609C170.519 280.847 170.504 281.094 170.474 281.351H164.612C164.652 281.865 164.819 282.261 165.112 282.538C165.415 282.805 165.783 282.938 166.217 282.938C166.864 282.938 167.313 282.671 167.566 282.137H170.323C170.181 282.681 169.924 283.171 169.55 283.606C169.186 284.041 168.727 284.382 168.172 284.629C167.616 284.876 166.995 285 166.308 285C165.48 285 164.743 284.827 164.097 284.481C163.45 284.135 162.945 283.64 162.582 282.998C162.218 282.355 162.037 281.603 162.037 280.743C162.037 279.883 162.213 279.131 162.567 278.488C162.93 277.845 163.435 277.351 164.082 277.005C164.728 276.659 165.47 276.486 166.308 276.486C167.126 276.486 167.853 276.654 168.49 276.99C169.126 277.326 169.621 277.806 169.974 278.429C170.338 279.052 170.519 279.779 170.519 280.609ZM167.869 279.942C167.869 279.507 167.717 279.161 167.414 278.904C167.111 278.646 166.732 278.518 166.278 278.518C165.844 278.518 165.475 278.642 165.172 278.889C164.879 279.136 164.698 279.487 164.627 279.942H167.869Z" fill="#173244"/>
<path d="M175.419 285C174.682 285 174.026 284.876 173.45 284.629C172.874 284.382 172.42 284.046 172.087 283.621C171.753 283.185 171.567 282.701 171.526 282.167H174.086C174.117 282.454 174.253 282.686 174.495 282.864C174.738 283.042 175.035 283.131 175.389 283.131C175.712 283.131 175.96 283.072 176.131 282.953C176.313 282.824 176.404 282.661 176.404 282.464C176.404 282.226 176.278 282.053 176.025 281.944C175.773 281.826 175.364 281.697 174.798 281.559C174.192 281.42 173.687 281.277 173.283 281.129C172.879 280.97 172.531 280.728 172.238 280.402C171.945 280.066 171.799 279.616 171.799 279.052C171.799 278.577 171.93 278.147 172.193 277.761C172.465 277.366 172.859 277.054 173.374 276.827C173.899 276.6 174.52 276.486 175.237 276.486C176.298 276.486 177.131 276.743 177.737 277.257C178.353 277.771 178.706 278.454 178.797 279.304H176.404C176.363 279.017 176.232 278.79 176.01 278.622C175.798 278.454 175.515 278.37 175.162 278.37C174.859 278.37 174.627 278.429 174.465 278.548C174.303 278.656 174.223 278.81 174.223 279.007C174.223 279.245 174.349 279.423 174.601 279.541C174.864 279.66 175.268 279.779 175.813 279.897C176.439 280.056 176.949 280.214 177.343 280.372C177.737 280.52 178.08 280.768 178.373 281.114C178.676 281.45 178.833 281.905 178.843 282.478C178.843 282.963 178.701 283.398 178.419 283.784C178.146 284.159 177.747 284.456 177.222 284.674C176.707 284.891 176.106 285 175.419 285Z" fill="#173244"/>
<path d="M184.764 278.711H183.37V284.881H180.78V278.711H179.84V276.604H180.78V276.367C180.78 275.349 181.078 274.577 181.673 274.053C182.269 273.519 183.143 273.252 184.294 273.252C184.486 273.252 184.627 273.257 184.718 273.267V275.418C184.223 275.388 183.875 275.457 183.673 275.625C183.471 275.794 183.37 276.095 183.37 276.53V276.604H184.764V278.711Z" fill="#173244"/>
<path d="M194.422 276.604V284.881H191.832V283.754C191.569 284.12 191.211 284.417 190.756 284.644C190.312 284.862 189.817 284.97 189.272 284.97C188.625 284.97 188.055 284.832 187.56 284.555C187.065 284.268 186.681 283.858 186.409 283.324C186.136 282.79 186 282.162 186 281.44V276.604H188.575V281.099C188.575 281.653 188.721 282.083 189.014 282.389C189.307 282.696 189.701 282.849 190.196 282.849C190.701 282.849 191.099 282.696 191.392 282.389C191.685 282.083 191.832 281.653 191.832 281.099V276.604H194.422Z" fill="#173244"/>
<path d="M198.968 273.905V284.881H196.377V273.905H198.968Z" fill="#173244"/>
<path d="M203.53 273.905V284.881H200.939V273.905H203.53Z" fill="#173244"/>
<path d="M216.456 274.468V276.501H213.638V284.881H211.048V276.501H208.231V274.468H216.456Z" fill="#173244"/>
<path d="M220.441 277.984C220.744 277.529 221.123 277.173 221.577 276.916C222.031 276.649 222.536 276.515 223.092 276.515V279.2H222.38C221.734 279.2 221.249 279.339 220.926 279.616C220.603 279.883 220.441 280.357 220.441 281.04V284.881H217.851V276.604H220.441V277.984Z" fill="#173244"/>
<path d="M223.91 280.728C223.91 279.878 224.071 279.131 224.394 278.488C224.728 277.845 225.177 277.351 225.743 277.005C226.308 276.659 226.939 276.486 227.636 276.486C228.232 276.486 228.752 276.604 229.196 276.842C229.651 277.079 229.999 277.391 230.241 277.776V276.604H232.832V284.881H230.241V283.71C229.989 284.095 229.636 284.407 229.181 284.644C228.737 284.881 228.217 285 227.621 285C226.934 285 226.308 284.827 225.743 284.481C225.177 284.125 224.728 283.625 224.394 282.983C224.071 282.33 223.91 281.578 223.91 280.728ZM230.241 280.743C230.241 280.11 230.06 279.611 229.696 279.245C229.343 278.879 228.908 278.696 228.393 278.696C227.878 278.696 227.439 278.879 227.076 279.245C226.722 279.601 226.545 280.095 226.545 280.728C226.545 281.361 226.722 281.865 227.076 282.241C227.439 282.607 227.878 282.79 228.393 282.79C228.908 282.79 229.343 282.607 229.696 282.241C230.06 281.875 230.241 281.376 230.241 280.743Z" fill="#173244"/>
<path d="M239.951 276.515C240.94 276.515 241.728 276.832 242.314 277.465C242.91 278.088 243.208 278.948 243.208 280.046V284.881H240.632V280.387C240.632 279.833 240.486 279.403 240.193 279.096C239.9 278.79 239.506 278.637 239.012 278.637C238.517 278.637 238.123 278.79 237.83 279.096C237.537 279.403 237.391 279.833 237.391 280.387V284.881H234.8V276.604H237.391V277.702C237.653 277.336 238.007 277.049 238.451 276.842C238.895 276.624 239.395 276.515 239.951 276.515Z" fill="#173244"/>
<path d="M248.541 285C247.804 285 247.147 284.876 246.572 284.629C245.996 284.382 245.542 284.046 245.208 283.621C244.875 283.185 244.688 282.701 244.648 282.167H247.208C247.238 282.454 247.374 282.686 247.617 282.864C247.859 283.042 248.157 283.131 248.511 283.131C248.834 283.131 249.081 283.072 249.253 282.953C249.435 282.824 249.525 282.661 249.525 282.464C249.525 282.226 249.399 282.053 249.147 281.944C248.894 281.826 248.485 281.697 247.92 281.559C247.314 281.42 246.809 281.277 246.405 281.129C246.001 280.97 245.653 280.728 245.36 280.402C245.067 280.066 244.92 279.616 244.92 279.052C244.92 278.577 245.052 278.147 245.314 277.761C245.587 277.366 245.981 277.054 246.496 276.827C247.021 276.6 247.642 276.486 248.359 276.486C249.419 276.486 250.253 276.743 250.858 277.257C251.474 277.771 251.828 278.454 251.919 279.304H249.525C249.485 279.017 249.354 278.79 249.132 278.622C248.92 278.454 248.637 278.37 248.283 278.37C247.98 278.37 247.748 278.429 247.587 278.548C247.425 278.656 247.344 278.81 247.344 279.007C247.344 279.245 247.47 279.423 247.723 279.541C247.985 279.66 248.389 279.779 248.935 279.897C249.561 280.056 250.071 280.214 250.465 280.372C250.858 280.52 251.202 280.768 251.495 281.114C251.798 281.45 251.954 281.905 251.964 282.478C251.964 282.963 251.823 283.398 251.54 283.784C251.267 284.159 250.869 284.456 250.343 284.674C249.828 284.891 249.228 285 248.541 285Z" fill="#173244"/>
<path d="M253.129 280.728C253.129 279.878 253.29 279.131 253.613 278.488C253.947 277.845 254.396 277.351 254.962 277.005C255.527 276.659 256.158 276.486 256.855 276.486C257.451 276.486 257.971 276.604 258.415 276.842C258.87 277.079 259.218 277.391 259.461 277.776V276.604H262.051V284.881H259.461V283.71C259.208 284.095 258.855 284.407 258.4 284.644C257.956 284.881 257.436 285 256.84 285C256.153 285 255.527 284.827 254.962 284.481C254.396 284.125 253.947 283.625 253.613 282.983C253.29 282.33 253.129 281.578 253.129 280.728ZM259.461 280.743C259.461 280.11 259.279 279.611 258.915 279.245C258.562 278.879 258.127 278.696 257.612 278.696C257.097 278.696 256.658 278.879 256.295 279.245C255.941 279.601 255.764 280.095 255.764 280.728C255.764 281.361 255.941 281.865 256.295 282.241C256.658 282.607 257.097 282.79 257.612 282.79C258.127 282.79 258.562 282.607 258.915 282.241C259.279 281.875 259.461 281.376 259.461 280.743Z" fill="#173244"/>
<path d="M263.504 280.743C263.504 279.883 263.681 279.131 264.035 278.488C264.398 277.845 264.898 277.351 265.534 277.005C266.181 276.659 266.918 276.486 267.746 276.486C268.806 276.486 269.69 276.758 270.397 277.302C271.114 277.845 271.583 278.612 271.806 279.601H269.049C268.816 278.968 268.367 278.651 267.7 278.651C267.226 278.651 266.847 278.834 266.564 279.2C266.282 279.556 266.14 280.07 266.14 280.743C266.14 281.415 266.282 281.934 266.564 282.3C266.847 282.656 267.226 282.834 267.7 282.834C268.367 282.834 268.816 282.518 269.049 281.885H271.806C271.583 282.854 271.114 283.616 270.397 284.169C269.68 284.723 268.796 285 267.746 285C266.918 285 266.181 284.827 265.534 284.481C264.898 284.135 264.398 283.64 264.035 282.998C263.681 282.355 263.504 281.603 263.504 280.743Z" fill="#173244"/>
<path d="M277.997 282.731V284.881H276.679C275.74 284.881 275.008 284.659 274.482 284.214C273.957 283.759 273.695 283.022 273.695 282.004V278.711H272.665V276.604H273.695V274.587H276.285V276.604H277.982V278.711H276.285V282.033C276.285 282.281 276.346 282.459 276.467 282.567C276.588 282.676 276.79 282.731 277.073 282.731H277.997Z" fill="#173244"/>
<path d="M280.837 275.744C280.383 275.744 280.009 275.616 279.716 275.358C279.433 275.091 279.292 274.765 279.292 274.379C279.292 273.984 279.433 273.658 279.716 273.4C280.009 273.133 280.383 273 280.837 273C281.281 273 281.645 273.133 281.928 273.4C282.221 273.658 282.367 273.984 282.367 274.379C282.367 274.765 282.221 275.091 281.928 275.358C281.645 275.616 281.281 275.744 280.837 275.744ZM282.125 276.604V284.881H279.534V276.604H282.125Z" fill="#173244"/>
<path d="M287.944 285C287.116 285 286.369 284.827 285.702 284.481C285.046 284.135 284.526 283.64 284.142 282.998C283.768 282.355 283.581 281.603 283.581 280.743C283.581 279.892 283.773 279.146 284.157 278.503C284.541 277.85 285.066 277.351 285.732 277.005C286.399 276.659 287.146 276.486 287.974 276.486C288.802 276.486 289.55 276.659 290.216 277.005C290.883 277.351 291.408 277.85 291.792 278.503C292.175 279.146 292.367 279.892 292.367 280.743C292.367 281.593 292.17 282.345 291.777 282.998C291.393 283.64 290.863 284.135 290.186 284.481C289.519 284.827 288.772 285 287.944 285ZM287.944 282.805C288.439 282.805 288.858 282.627 289.201 282.271C289.555 281.915 289.732 281.405 289.732 280.743C289.732 280.08 289.56 279.571 289.216 279.215C288.883 278.859 288.469 278.681 287.974 278.681C287.469 278.681 287.05 278.859 286.717 279.215C286.384 279.561 286.217 280.07 286.217 280.743C286.217 281.405 286.379 281.915 286.702 282.271C287.035 282.627 287.449 282.805 287.944 282.805Z" fill="#173244"/>
<path d="M298.986 276.515C299.976 276.515 300.764 276.832 301.35 277.465C301.945 278.088 302.243 278.948 302.243 280.046V284.881H299.668V280.387C299.668 279.833 299.522 279.403 299.229 279.096C298.936 278.79 298.542 278.637 298.047 278.637C297.552 278.637 297.159 278.79 296.866 279.096C296.573 279.403 296.426 279.833 296.426 280.387V284.881H293.836V276.604H296.426V277.702C296.689 277.336 297.042 277.049 297.487 276.842C297.931 276.624 298.431 276.515 298.986 276.515Z" fill="#173244"/>
<path d="M307.577 285C306.839 285 306.183 284.876 305.607 284.629C305.032 284.382 304.577 284.046 304.244 283.621C303.911 283.185 303.724 282.701 303.684 282.167H306.244C306.274 282.454 306.41 282.686 306.653 282.864C306.895 283.042 307.193 283.131 307.546 283.131C307.869 283.131 308.117 283.072 308.289 282.953C308.47 282.824 308.561 282.661 308.561 282.464C308.561 282.226 308.435 282.053 308.182 281.944C307.93 281.826 307.521 281.697 306.955 281.559C306.35 281.42 305.845 281.277 305.441 281.129C305.037 280.97 304.688 280.728 304.395 280.402C304.103 280.066 303.956 279.616 303.956 279.052C303.956 278.577 304.087 278.147 304.35 277.761C304.623 277.366 305.017 277.054 305.532 276.827C306.057 276.6 306.678 276.486 307.395 276.486C308.455 276.486 309.288 276.743 309.894 277.257C310.51 277.771 310.864 278.454 310.955 279.304H308.561C308.521 279.017 308.39 278.79 308.167 278.622C307.955 278.454 307.672 278.37 307.319 278.37C307.016 278.37 306.784 278.429 306.622 278.548C306.461 278.656 306.38 278.81 306.38 279.007C306.38 279.245 306.506 279.423 306.759 279.541C307.021 279.66 307.425 279.779 307.97 279.897C308.597 280.056 309.107 280.214 309.5 280.372C309.894 280.52 310.238 280.768 310.53 281.114C310.833 281.45 310.99 281.905 311 282.478C311 282.963 310.859 283.398 310.576 283.784C310.303 284.159 309.904 284.456 309.379 284.674C308.864 284.891 308.263 285 307.577 285Z" fill="#173244"/>
</svg>
