<svg width="368" height="368" viewBox="0 0 368 368" fill="none" xmlns="http://www.w3.org/2000/svg">
<path d="M138 293.25H97.75C94.7 293.25 91.7749 294.462 89.6183 296.618C87.4616 298.775 86.25 301.7 86.25 304.75V362.25C86.25 363.775 86.8558 365.238 87.9341 366.316C89.0125 367.394 90.475 368 92 368H138C139.525 368 140.988 367.394 142.066 366.316C143.144 365.238 143.75 363.775 143.75 362.25V299C143.75 297.475 143.144 296.012 142.066 294.934C140.988 293.856 139.525 293.25 138 293.25Z" fill="#F82530"/>
<path d="M212.75 270.25H166.75C163.574 270.25 161 272.824 161 276V362.25C161 365.426 163.574 368 166.75 368H212.75C215.926 368 218.5 365.426 218.5 362.25V276C218.5 272.824 215.926 270.25 212.75 270.25Z" fill="#F82530"/>
<path d="M287.5 224.25H241.5C238.324 224.25 235.75 226.824 235.75 230V362.25C235.75 365.426 238.324 368 241.5 368H287.5C290.676 368 293.25 365.426 293.25 362.25V230C293.25 226.824 290.676 224.25 287.5 224.25Z" fill="#F82530"/>
<path d="M362.25 178.25H316.25C313.074 178.25 310.5 180.824 310.5 184V362.25C310.5 365.426 313.074 368 316.25 368H362.25C365.426 368 368 365.426 368 362.25V184C368 180.824 365.426 178.25 362.25 178.25Z" fill="#F82530"/>
<path d="M115 230C117.687 229.995 120.335 229.359 122.732 228.145C125.128 226.931 127.207 225.171 128.8 223.008L172.587 236.48C172.837 240.936 174.808 245.121 178.083 248.153C181.359 251.185 185.684 252.826 190.146 252.731C194.608 252.637 198.859 250.813 202.004 247.645C205.148 244.478 206.939 240.213 207 235.75C206.997 234.534 206.864 233.321 206.604 232.133L253.754 203.124C256.784 205.613 260.579 206.981 264.5 207C269.075 207 273.463 205.183 276.698 201.948C279.933 198.713 281.75 194.325 281.75 189.75C281.747 188.534 281.614 187.321 281.354 186.133L328.504 157.125C331.534 159.613 335.329 160.981 339.25 161C342.662 161 345.997 159.988 348.834 158.093C351.671 156.197 353.882 153.503 355.187 150.351C356.493 147.199 356.834 143.731 356.169 140.385C355.503 137.039 353.86 133.965 351.448 131.552C349.035 129.14 345.962 127.497 342.616 126.831C339.269 126.166 335.801 126.507 332.649 127.813C329.497 129.119 326.803 131.33 324.907 134.166C323.012 137.003 322 140.338 322 143.75C322.003 144.966 322.136 146.179 322.397 147.367L275.247 176.375C272.216 173.887 268.421 172.519 264.5 172.5C259.925 172.5 255.538 174.317 252.303 177.552C249.068 180.787 247.25 185.175 247.25 189.75C247.253 190.966 247.386 192.179 247.647 193.367L200.497 222.375C198.708 220.902 196.637 219.81 194.411 219.167C192.184 218.524 189.85 218.342 187.551 218.634C185.252 218.926 183.037 219.685 181.042 220.864C179.047 222.044 177.314 223.618 175.95 225.492L132.164 212.02C132.015 208.648 130.879 205.393 128.896 202.662C126.913 199.93 124.171 197.842 121.011 196.656C117.85 195.47 114.411 195.238 111.121 195.991C107.83 196.743 104.833 198.446 102.503 200.888C100.172 203.329 98.6102 206.402 98.0114 209.724C97.4126 213.046 97.8033 216.47 99.1348 219.572C100.466 222.674 102.68 225.316 105.501 227.17C108.321 229.024 111.625 230.008 115 230V230Z" fill="#F82530"/>
<path d="M270.25 69.7182H218.207C216.786 50.9418 208.325 33.3952 194.517 20.5923C180.709 7.78953 162.574 0.675781 143.744 0.675781C124.914 0.675781 106.779 7.78953 92.9714 20.5923C79.1635 33.3952 70.7021 50.9418 69.2817 69.7182H17.25C12.675 69.7182 8.28741 71.5356 5.05241 74.7706C1.81741 78.0056 0 82.3932 0 86.9682V213.468C0 218.043 1.81741 222.431 5.05241 225.666C8.28741 228.901 12.675 230.718 17.25 230.718H119.14L110.515 265.218H97.75C96.225 265.218 94.7625 265.824 93.6841 266.902C92.6058 267.981 92 269.443 92 270.968C92 272.493 92.6058 273.956 93.6841 275.034C94.7625 276.112 96.225 276.718 97.75 276.718H189.75C191.275 276.718 192.738 276.112 193.816 275.034C194.894 273.956 195.5 272.493 195.5 270.968C195.5 269.443 194.894 267.981 193.816 266.902C192.738 265.824 191.275 265.218 189.75 265.218H176.985L168.36 230.718H270.25C274.825 230.718 279.213 228.901 282.448 225.666C285.683 222.431 287.5 218.043 287.5 213.468V86.9682C287.5 82.3932 285.683 78.0056 282.448 74.7706C279.213 71.5356 274.825 69.7182 270.25 69.7182ZM143.75 12.2182C156.26 12.2182 168.488 15.9277 178.89 22.8777C189.291 29.8277 197.398 39.706 202.185 51.2635C206.973 62.8209 208.225 75.5383 205.785 87.8076C203.344 100.077 197.32 111.347 188.475 120.193C179.629 129.038 168.359 135.062 156.089 137.503C143.82 139.943 131.103 138.691 119.545 133.904C107.988 129.116 98.1095 121.009 91.1595 110.608C84.2095 100.207 80.5 87.9779 80.5 75.4682C80.5198 58.6993 87.19 42.6229 99.0473 30.7655C110.905 18.9081 126.981 12.238 143.75 12.2182V12.2182ZM17.25 81.2182H69.2932C70.7136 99.9946 79.175 117.541 92.9829 130.344C106.791 143.147 124.926 150.261 143.756 150.261C162.586 150.261 180.721 143.147 194.529 130.344C208.336 117.541 216.798 99.9946 218.218 81.2182H270.25C271.775 81.2182 273.238 81.824 274.316 82.9023C275.394 83.9807 276 85.4432 276 86.9682V184.718H11.5V86.9682C11.5 85.4432 12.1058 83.9807 13.1841 82.9023C14.2625 81.824 15.725 81.2182 17.25 81.2182V81.2182ZM165.134 265.218H122.366L130.991 230.718H156.509L165.134 265.218ZM270.25 219.218H17.25C15.725 219.218 14.2625 218.612 13.1841 217.534C12.1058 216.456 11.5 214.993 11.5 213.468V196.218H276V213.468C276 214.993 275.394 216.456 274.316 217.534C273.238 218.612 271.775 219.218 270.25 219.218Z" fill="white"/>
<path d="M123.092 108.773C127.419 111.908 132.492 113.855 137.806 114.419V121.469C137.806 122.994 138.412 124.456 139.49 125.535C140.569 126.613 142.031 127.219 143.556 127.219C145.081 127.219 146.544 126.613 147.622 125.535C148.7 124.456 149.306 122.994 149.306 121.469V114.201C154.34 113.217 158.956 110.726 162.541 107.059C166.127 103.392 168.514 98.7219 169.385 93.6675C170.41 88.3379 169.43 82.8175 166.634 78.1661C163.837 73.5147 159.422 70.06 154.234 68.4653C152.618 67.8903 150.956 67.2865 149.306 66.654V45.08C151.424 45.5471 153.413 46.4758 155.131 47.7998C156.266 48.7703 157.734 49.2613 159.224 49.1689C160.714 49.0765 162.11 48.4078 163.117 47.3045C164.123 46.2012 164.66 44.7496 164.616 43.2571C164.571 41.7645 163.947 40.3479 162.876 39.307C158.982 36.1373 154.284 34.1127 149.306 33.4593V29.4688C149.306 27.9438 148.7 26.4812 147.622 25.4029C146.544 24.3246 145.081 23.7188 143.556 23.7188C142.031 23.7188 140.569 24.3246 139.49 25.4029C138.412 26.4812 137.806 27.9438 137.806 29.4688V34.3045C137.616 34.3563 137.45 34.3563 137.231 34.4138C133.565 35.5668 130.288 37.7071 127.758 40.5998C125.229 43.4925 123.545 47.026 122.891 50.8128C122.139 54.1204 122.31 57.571 123.385 60.7882C124.46 64.0054 126.397 66.8658 128.986 69.0575C131.71 71.1222 134.659 72.8718 137.777 74.2728V102.827C134.727 102.254 131.847 100.996 129.354 99.1473C128.722 98.7208 128.011 98.4242 127.264 98.2747C126.516 98.1253 125.747 98.126 124.999 98.2767C124.252 98.4275 123.542 98.7254 122.911 99.153C122.28 99.5806 121.74 100.129 121.323 100.768C120.906 101.406 120.62 102.12 120.482 102.87C120.344 103.62 120.356 104.389 120.518 105.134C120.68 105.879 120.988 106.584 121.425 107.209C121.862 107.834 122.419 108.365 123.063 108.773H123.092ZM136.11 60.007C135.2 59.1011 134.547 57.9707 134.216 56.7306C133.884 55.4904 133.887 54.1847 134.224 52.946C134.666 50.5729 135.935 48.4334 137.806 46.9085V61.0938C137.243 60.7373 136.593 60.3865 136.11 60.007ZM150.404 79.304C153.013 80.0355 155.249 81.7247 156.666 84.0338C158.083 86.3429 158.576 89.1017 158.046 91.7585C157.646 94.1321 156.628 96.3583 155.094 98.2127C153.559 100.067 151.563 101.484 149.306 102.321V78.9188C149.68 79.0395 150.019 79.1718 150.404 79.304Z" fill="white"/>
</svg>
