<svg width="65" height="64" viewBox="0 0 65 64" fill="none" xmlns="http://www.w3.org/2000/svg">
<path d="M63.6378 24.9838L50.8138 14.6838C50.3596 14.3199 49.8117 14.0919 49.2334 14.0261C48.6551 13.9603 48.07 14.0595 47.5457 14.3122C47.0213 14.5648 46.5791 14.9606 46.2702 15.4539C45.9613 15.9472 45.7982 16.5178 45.7998 17.0998V60.9048C45.7993 61.7241 46.1238 62.5101 46.7022 63.0903C47.2806 63.6706 48.0655 63.9977 48.8848 63.9998H53.0558C53.8748 63.9979 54.6596 63.6712 55.238 63.0913C55.8164 62.5115 56.1411 61.7258 56.1408 60.9068V31.5858C56.14 31.2968 56.2539 31.0193 56.4575 30.8142C56.6611 30.6091 56.9378 30.4931 57.2268 30.4918H61.7088C62.3475 30.487 62.9691 30.2851 63.4886 29.9137C64.0081 29.5422 64.4003 29.0193 64.6114 28.4166C64.8225 27.8138 64.8423 27.1605 64.668 26.5461C64.4937 25.9316 64.1339 25.386 63.6378 24.9838Z" fill="#F82530"/>
<path d="M39.7145 14H35.5435C34.7244 14.0021 33.9396 14.3291 33.3613 14.9091C32.7829 15.4891 32.4582 16.2749 32.4585 17.094V46.41C32.4583 46.6983 32.3439 46.9748 32.1404 47.179C31.9369 47.3833 31.6608 47.4986 31.3725 47.5H26.8905C26.2516 47.5045 25.6297 47.7063 25.1099 48.0778C24.5901 48.4493 24.1978 48.9724 23.9867 49.5754C23.7755 50.1784 23.7559 50.8319 23.9304 51.4466C24.1049 52.0612 24.465 52.6069 24.9615 53.009L37.7855 63.309C38.2393 63.6728 38.7866 63.901 39.3644 63.9672C39.9423 64.0334 40.527 63.9349 41.0513 63.683C41.5756 63.4312 42.018 63.0363 42.3275 62.5439C42.637 62.0515 42.8009 61.4816 42.8005 60.9V17.092C42.8 16.2731 42.4749 15.4879 41.8964 14.9083C41.318 14.3288 40.5334 14.0021 39.7145 14Z" fill="#F82530"/>
<path d="M47.7998 20H44.7998V19C44.7998 18.2043 44.4837 17.4413 43.9211 16.8787C43.3585 16.316 42.5955 16 41.7998 16H33.0808L33.1488 15.728C33.2595 15.2856 33.2678 14.8238 33.1732 14.3778C33.0787 13.9317 32.8836 13.513 32.603 13.1536C32.3224 12.7942 31.9635 12.5035 31.5537 12.3036C31.1438 12.1037 30.6938 11.9999 30.2378 12H26.7998V9.99999H29.7998C30.5955 9.99999 31.3585 9.68392 31.9211 9.12131C32.4837 8.5587 32.7998 7.79564 32.7998 6.99999V3C32.7998 2.20435 32.4837 1.44129 31.9211 0.878679C31.3585 0.31607 30.5955 0 29.7998 0H21.7998C21.0042 0 20.2411 0.31607 19.6785 0.878679C19.1159 1.44129 18.7998 2.20435 18.7998 3V6.99999C18.7998 7.79564 19.1159 8.5587 19.6785 9.12131C20.2411 9.68392 21.0042 9.99999 21.7998 9.99999H24.7998V12H22.3618C21.6927 11.9998 21.0428 12.2234 20.5153 12.635C19.9879 13.0467 19.6132 13.6229 19.4508 14.272L19.0188 16H9.7998C9.00416 16 8.24109 16.316 7.67848 16.8787C7.11588 17.4413 6.7998 18.2043 6.7998 19V20H3.7998C3.00416 20 2.24109 20.316 1.67848 20.8787C1.11588 21.4413 0.799805 22.2043 0.799805 23V27C0.799805 27.7956 1.11588 28.5587 1.67848 29.1213C2.24109 29.6839 3.00416 30 3.7998 30H6.7998V31C6.7998 31.7956 7.11588 32.5587 7.67848 33.1213C8.24109 33.6839 9.00416 34 9.7998 34H18.5188L18.4508 34.272C18.3401 34.7143 18.3318 35.1761 18.4264 35.6222C18.5209 36.0682 18.716 36.4869 18.9966 36.8463C19.2772 37.2057 19.6361 37.4964 20.046 37.6963C20.4558 37.8962 20.9058 38.0001 21.3618 38H24.7998V39.9999H21.7998C21.0042 39.9999 20.2411 40.316 19.6785 40.8786C19.1159 41.4412 18.7998 42.2043 18.7998 42.9999V46.9999C18.7998 47.7956 19.1159 48.5586 19.6785 49.1213C20.2411 49.6839 21.0042 49.9999 21.7998 49.9999H29.7998C30.5955 49.9999 31.3585 49.6839 31.9211 49.1213C32.4837 48.5586 32.7998 47.7956 32.7998 46.9999V42.9999C32.7998 42.2043 32.4837 41.4412 31.9211 40.8786C31.3585 40.316 30.5955 39.9999 29.7998 39.9999H26.7998V38H29.2378C29.9069 38.0001 30.5568 37.7766 31.0843 37.3649C31.6117 36.9532 31.9864 36.377 32.1488 35.728L32.5808 34H41.7998C42.5955 34 43.3585 33.6839 43.9211 33.1213C44.4837 32.5587 44.7998 31.7956 44.7998 31V30H47.7998C48.5955 30 49.3585 29.6839 49.9211 29.1213C50.4837 28.5587 50.7998 27.7956 50.7998 27V23C50.7998 22.2043 50.4837 21.4413 49.9211 20.8787C49.3585 20.316 48.5955 20 47.7998 20ZM20.7998 6.99999V3C20.7998 2.73478 20.9052 2.48043 21.0927 2.29289C21.2802 2.10535 21.5346 2 21.7998 2H29.7998C30.065 2 30.3194 2.10535 30.5069 2.29289C30.6944 2.48043 30.7998 2.73478 30.7998 3V6.99999C30.7998 7.26521 30.6944 7.51956 30.5069 7.7071C30.3194 7.89463 30.065 7.99999 29.7998 7.99999H21.7998C21.5346 7.99999 21.2802 7.89463 21.0927 7.7071C20.9052 7.51956 20.7998 7.26521 20.7998 6.99999ZM30.7998 42.9999V46.9999C30.7998 47.2652 30.6944 47.5195 30.5069 47.707C30.3194 47.8946 30.065 47.9999 29.7998 47.9999H21.7998C21.5346 47.9999 21.2802 47.8946 21.0927 47.707C20.9052 47.5195 20.7998 47.2652 20.7998 46.9999V42.9999C20.7998 42.7347 20.9052 42.4804 21.0927 42.2928C21.2802 42.1053 21.5346 41.9999 21.7998 41.9999H29.7998C30.065 41.9999 30.3194 42.1053 30.5069 42.2928C30.6944 42.4804 30.7998 42.7347 30.7998 42.9999ZM22.3618 14H30.2378C30.3899 13.9998 30.54 14.0344 30.6767 14.101C30.8135 14.1676 30.9332 14.2645 31.0268 14.3844C31.1205 14.5042 31.1855 14.6439 31.217 14.7926C31.2486 14.9414 31.2458 15.0954 31.2088 15.243L30.2088 19.243C30.1548 19.4596 30.0298 19.6519 29.8539 19.7892C29.6779 19.9266 29.461 20.0011 29.2378 20.001H21.3618C21.2097 20.0011 21.0596 19.9666 20.9229 19.9C20.7861 19.8334 20.6664 19.7364 20.5728 19.6166C20.4791 19.4967 20.4141 19.3571 20.3826 19.2083C20.351 19.0595 20.3538 18.9055 20.3908 18.758L21.3908 14.758C21.4448 14.5414 21.5698 14.3491 21.7457 14.2117C21.9217 14.0744 22.1386 13.9998 22.3618 14ZM2.7998 27V23C2.7998 22.7348 2.90516 22.4804 3.0927 22.2929C3.28023 22.1053 3.53459 22 3.7998 22H11.7998C12.065 22 12.3194 22.1053 12.5069 22.2929C12.6944 22.4804 12.7998 22.7348 12.7998 23V27C12.7998 27.2652 12.6944 27.5195 12.5069 27.7071C12.3194 27.8946 12.065 28 11.7998 28H3.7998C3.53459 28 3.28023 27.8946 3.0927 27.7071C2.90516 27.5195 2.7998 27.2652 2.7998 27ZM29.2378 36H21.3618C21.2097 36.0001 21.0596 35.9656 20.9229 35.8989C20.7861 35.8323 20.6664 35.7354 20.5728 35.6156C20.4791 35.4957 20.4141 35.3561 20.3826 35.2073C20.351 35.0585 20.3538 34.9045 20.3908 34.757L21.3908 30.757C21.445 30.5405 21.57 30.3485 21.746 30.2113C21.9219 30.0741 22.1387 29.9997 22.3618 30H30.2378C30.3899 29.9998 30.54 30.0344 30.6767 30.101C30.8135 30.1676 30.9332 30.2645 31.0268 30.3844C31.1205 30.5042 31.1855 30.6438 31.217 30.7926C31.2486 30.9414 31.2458 31.0954 31.2088 31.243L30.2088 35.243C30.1546 35.4594 30.0296 35.6514 29.8536 35.7886C29.6777 35.9258 29.4609 36.0002 29.2378 36ZM42.7998 31C42.7998 31.2652 42.6945 31.5195 42.5069 31.7071C42.3194 31.8946 42.065 32 41.7998 32H33.0808L33.1488 31.728C33.2595 31.2856 33.2678 30.8238 33.1732 30.3778C33.0787 29.9317 32.8836 29.513 32.603 29.1536C32.3224 28.7942 31.9635 28.5035 31.5537 28.3036C31.1438 28.1037 30.6938 27.9999 30.2378 28H22.3618C21.6927 27.9998 21.0428 28.2233 20.5153 28.635C19.9879 29.0467 19.6132 29.6229 19.4508 30.272L19.0188 32H9.7998C9.53459 32 9.28023 31.8946 9.0927 31.7071C8.90516 31.5195 8.7998 31.2652 8.7998 31V30H11.7998C12.5955 30 13.3585 29.6839 13.9211 29.1213C14.4837 28.5587 14.7998 27.7956 14.7998 27V23C14.7998 22.2043 14.4837 21.4413 13.9211 20.8787C13.3585 20.316 12.5955 20 11.7998 20H8.7998V19C8.7998 18.7348 8.90516 18.4804 9.0927 18.2929C9.28023 18.1053 9.53459 18 9.7998 18H18.5188L18.4508 18.272C18.3401 18.7143 18.3318 19.1761 18.4264 19.6222C18.5209 20.0683 18.716 20.4869 18.9966 20.8463C19.2772 21.2057 19.6361 21.4964 20.046 21.6963C20.4558 21.8962 20.9058 22.0001 21.3618 22H29.2378C29.9069 22.0001 30.5568 21.7766 31.0843 21.3649C31.6117 20.9532 31.9864 20.3771 32.1488 19.728L32.5808 18H41.7998C42.065 18 42.3194 18.1053 42.5069 18.2929C42.6945 18.4804 42.7998 18.7348 42.7998 19V20H39.7998C39.0042 20 38.2411 20.316 37.6785 20.8787C37.1159 21.4413 36.7998 22.2043 36.7998 23V27C36.7998 27.7956 37.1159 28.5587 37.6785 29.1213C38.2411 29.6839 39.0042 30 39.7998 30H42.7998V31ZM48.7998 27C48.7998 27.2652 48.6945 27.5195 48.5069 27.7071C48.3194 27.8946 48.065 28 47.7998 28H39.7998C39.5346 28 39.2802 27.8946 39.0927 27.7071C38.9052 27.5195 38.7998 27.2652 38.7998 27V23C38.7998 22.7348 38.9052 22.4804 39.0927 22.2929C39.2802 22.1053 39.5346 22 39.7998 22H47.7998C48.065 22 48.3194 22.1053 48.5069 22.2929C48.6945 22.4804 48.7998 22.7348 48.7998 23V27Z" fill="#129590"/>
</svg>
