<svg width="579" height="306" viewBox="0 0 579 306" fill="none" xmlns="http://www.w3.org/2000/svg">
<path d="M11.4291 11.692C11.4291 12.2573 11.2958 12.7907 11.0291 13.292C10.7625 13.7933 10.3358 14.204 9.74913 14.524C9.16246 14.8333 8.41046 14.988 7.49313 14.988H5.47713V19.5H3.65313V8.38H7.49313C8.34646 8.38 9.06646 8.52933 9.65313 8.828C10.2505 9.116 10.6931 9.51067 10.9811 10.012C11.2798 10.5133 11.4291 11.0733 11.4291 11.692ZM7.49313 13.5C8.18646 13.5 8.70379 13.3453 9.04513 13.036C9.38646 12.716 9.55713 12.268 9.55713 11.692C9.55713 10.476 8.86913 9.868 7.49313 9.868H5.47713V13.5H7.49313ZM20.4448 19.5L17.8848 15.052H16.4928V19.5H14.6688V8.38H18.5088C19.3621 8.38 20.0821 8.52933 20.6688 8.828C21.2661 9.12667 21.7088 9.52667 21.9968 10.028C22.2954 10.5293 22.4448 11.0893 22.4448 11.708C22.4448 12.4333 22.2314 13.0947 21.8048 13.692C21.3888 14.2787 20.7434 14.6787 19.8688 14.892L22.6208 19.5H20.4448ZM16.4928 13.596H18.5088C19.1914 13.596 19.7034 13.4253 20.0448 13.084C20.3968 12.7427 20.5728 12.284 20.5728 11.708C20.5728 11.132 20.4021 10.684 20.0608 10.364C19.7194 10.0333 19.2021 9.868 18.5088 9.868H16.4928V13.596ZM31.3501 19.612C30.3155 19.612 29.3608 19.372 28.4861 18.892C27.6221 18.4013 26.9341 17.724 26.4221 16.86C25.9208 15.9853 25.6701 15.004 25.6701 13.916C25.6701 12.828 25.9208 11.852 26.4221 10.988C26.9341 10.124 27.6221 9.452 28.4861 8.972C29.3608 8.48133 30.3155 8.236 31.3501 8.236C32.3955 8.236 33.3501 8.48133 34.2141 8.972C35.0888 9.452 35.7768 10.124 36.2781 10.988C36.7795 11.852 37.0301 12.828 37.0301 13.916C37.0301 15.004 36.7795 15.9853 36.2781 16.86C35.7768 17.724 35.0888 18.4013 34.2141 18.892C33.3501 19.372 32.3955 19.612 31.3501 19.612ZM31.3501 18.028C32.0861 18.028 32.7421 17.8627 33.3181 17.532C33.8941 17.1907 34.3421 16.7107 34.6621 16.092C34.9928 15.4627 35.1581 14.7373 35.1581 13.916C35.1581 13.0947 34.9928 12.3747 34.6621 11.756C34.3421 11.1373 33.8941 10.6627 33.3181 10.332C32.7421 10.0013 32.0861 9.836 31.3501 9.836C30.6141 9.836 29.9581 10.0013 29.3821 10.332C28.8061 10.6627 28.3528 11.1373 28.0221 11.756C27.7021 12.3747 27.5421 13.0947 27.5421 13.916C27.5421 14.7373 27.7021 15.4627 28.0221 16.092C28.3528 16.7107 28.8061 17.1907 29.3821 17.532C29.9581 17.8627 30.6141 18.028 31.3501 18.028ZM39.717 13.916C39.717 12.828 39.9677 11.852 40.469 10.988C40.981 10.124 41.669 9.452 42.533 8.972C43.4077 8.48133 44.3623 8.236 45.397 8.236C46.581 8.236 47.6317 8.52933 48.549 9.116C49.477 9.692 50.149 10.5133 50.565 11.58H48.373C48.085 10.9933 47.685 10.556 47.173 10.268C46.661 9.98 46.069 9.836 45.397 9.836C44.661 9.836 44.005 10.0013 43.429 10.332C42.853 10.6627 42.3997 11.1373 42.069 11.756C41.749 12.3747 41.589 13.0947 41.589 13.916C41.589 14.7373 41.749 15.4573 42.069 16.076C42.3997 16.6947 42.853 17.1747 43.429 17.516C44.005 17.8467 44.661 18.012 45.397 18.012C46.069 18.012 46.661 17.868 47.173 17.58C47.685 17.292 48.085 16.8547 48.373 16.268H50.565C50.149 17.3347 49.477 18.156 48.549 18.732C47.6317 19.308 46.581 19.596 45.397 19.596C44.3517 19.596 43.397 19.356 42.533 18.876C41.669 18.3853 40.981 17.708 40.469 16.844C39.9677 15.98 39.717 15.004 39.717 13.916ZM56.024 9.852V13.116H59.864V14.604H56.024V18.012H60.344V19.5H54.2V8.364H60.344V9.852H56.024ZM67.7546 19.612C67.008 19.612 66.336 19.484 65.7386 19.228C65.1413 18.9613 64.672 18.588 64.3306 18.108C63.9893 17.628 63.8186 17.068 63.8186 16.428H65.7706C65.8133 16.908 66 17.3027 66.3306 17.612C66.672 17.9213 67.1466 18.076 67.7546 18.076C68.384 18.076 68.8746 17.9267 69.2266 17.628C69.5786 17.3187 69.7546 16.924 69.7546 16.444C69.7546 16.0707 69.6426 15.7667 69.4186 15.532C69.2053 15.2973 68.9333 15.116 68.6026 14.988C68.2826 14.86 67.8346 14.7213 67.2586 14.572C66.5333 14.38 65.9413 14.188 65.4826 13.996C65.0346 13.7933 64.6506 13.484 64.3306 13.068C64.0106 12.652 63.8506 12.0973 63.8506 11.404C63.8506 10.764 64.0106 10.204 64.3306 9.724C64.6506 9.244 65.0986 8.876 65.6746 8.62C66.2506 8.364 66.9173 8.236 67.6746 8.236C68.752 8.236 69.632 8.508 70.3146 9.052C71.008 9.58533 71.392 10.3213 71.4666 11.26H69.4506C69.4186 10.8547 69.2266 10.508 68.8746 10.22C68.5226 9.932 68.0586 9.788 67.4826 9.788C66.96 9.788 66.5333 9.92133 66.2026 10.188C65.872 10.4547 65.7066 10.8387 65.7066 11.34C65.7066 11.6813 65.808 11.964 66.0106 12.188C66.224 12.4013 66.4906 12.572 66.8106 12.7C67.1306 12.828 67.568 12.9667 68.1226 13.116C68.8586 13.3187 69.456 13.5213 69.9146 13.724C70.384 13.9267 70.7786 14.2413 71.0986 14.668C71.4293 15.084 71.5946 15.644 71.5946 16.348C71.5946 16.9133 71.44 17.4467 71.1306 17.948C70.832 18.4493 70.3893 18.8547 69.8026 19.164C69.2266 19.4627 68.544 19.612 67.7546 19.612ZM78.9109 19.612C78.1642 19.612 77.4922 19.484 76.8949 19.228C76.2975 18.9613 75.8282 18.588 75.4869 18.108C75.1455 17.628 74.9749 17.068 74.9749 16.428H76.9269C76.9695 16.908 77.1562 17.3027 77.4869 17.612C77.8282 17.9213 78.3029 18.076 78.9109 18.076C79.5402 18.076 80.0309 17.9267 80.3829 17.628C80.7349 17.3187 80.9109 16.924 80.9109 16.444C80.9109 16.0707 80.7989 15.7667 80.5749 15.532C80.3615 15.2973 80.0895 15.116 79.7589 14.988C79.4389 14.86 78.9909 14.7213 78.4149 14.572C77.6895 14.38 77.0975 14.188 76.6389 13.996C76.1909 13.7933 75.8069 13.484 75.4869 13.068C75.1669 12.652 75.0069 12.0973 75.0069 11.404C75.0069 10.764 75.1669 10.204 75.4869 9.724C75.8069 9.244 76.2549 8.876 76.8309 8.62C77.4069 8.364 78.0735 8.236 78.8309 8.236C79.9082 8.236 80.7882 8.508 81.4709 9.052C82.1642 9.58533 82.5482 10.3213 82.6229 11.26H80.6069C80.5749 10.8547 80.3829 10.508 80.0309 10.22C79.6789 9.932 79.2149 9.788 78.6389 9.788C78.1162 9.788 77.6895 9.92133 77.3589 10.188C77.0282 10.4547 76.8629 10.8387 76.8629 11.34C76.8629 11.6813 76.9642 11.964 77.1669 12.188C77.3802 12.4013 77.6469 12.572 77.9669 12.7C78.2869 12.828 78.7242 12.9667 79.2789 13.116C80.0149 13.3187 80.6122 13.5213 81.0709 13.724C81.5402 13.9267 81.9349 14.2413 82.2549 14.668C82.5855 15.084 82.7509 15.644 82.7509 16.348C82.7509 16.9133 82.5962 17.4467 82.2869 17.948C81.9882 18.4493 81.5455 18.8547 80.9589 19.164C80.3829 19.4627 79.7002 19.612 78.9109 19.612ZM88.2271 8.38V19.5H86.4031V8.38H88.2271ZM101.258 19.5H99.4339L93.9459 11.196V19.5H92.1219V8.364H93.9459L99.4339 16.652V8.364H101.258V19.5ZM113.201 11.58C112.913 11.0253 112.513 10.6093 112.001 10.332C111.489 10.044 110.897 9.9 110.225 9.9C109.489 9.9 108.833 10.0653 108.257 10.396C107.681 10.7267 107.228 11.196 106.897 11.804C106.577 12.412 106.417 13.116 106.417 13.916C106.417 14.716 106.577 15.4253 106.897 16.044C107.228 16.652 107.681 17.1213 108.257 17.452C108.833 17.7827 109.489 17.948 110.225 17.948C111.217 17.948 112.022 17.6707 112.641 17.116C113.26 16.5613 113.638 15.8093 113.777 14.86H109.601V13.404H115.729V14.828C115.612 15.692 115.302 16.4867 114.801 17.212C114.31 17.9373 113.665 18.5187 112.865 18.956C112.076 19.3827 111.196 19.596 110.225 19.596C109.18 19.596 108.225 19.356 107.361 18.876C106.497 18.3853 105.809 17.708 105.297 16.844C104.796 15.98 104.545 15.004 104.545 13.916C104.545 12.828 104.796 11.852 105.297 10.988C105.809 10.124 106.497 9.452 107.361 8.972C108.236 8.48133 109.19 8.236 110.225 8.236C111.409 8.236 112.46 8.52933 113.377 9.116C114.305 9.692 114.977 10.5133 115.393 11.58H113.201ZM124.076 13.916C124.076 12.828 124.327 11.852 124.828 10.988C125.34 10.124 126.028 9.452 126.892 8.972C127.767 8.48133 128.722 8.236 129.756 8.236C130.94 8.236 131.991 8.52933 132.908 9.116C133.836 9.692 134.508 10.5133 134.924 11.58H132.732C132.444 10.9933 132.044 10.556 131.532 10.268C131.02 9.98 130.428 9.836 129.756 9.836C129.02 9.836 128.364 10.0013 127.788 10.332C127.212 10.6627 126.759 11.1373 126.428 11.756C126.108 12.3747 125.948 13.0947 125.948 13.916C125.948 14.7373 126.108 15.4573 126.428 16.076C126.759 16.6947 127.212 17.1747 127.788 17.516C128.364 17.8467 129.02 18.012 129.756 18.012C130.428 18.012 131.02 17.868 131.532 17.58C132.044 17.292 132.444 16.8547 132.732 16.268H134.924C134.508 17.3347 133.836 18.156 132.908 18.732C131.991 19.308 130.94 19.596 129.756 19.596C128.711 19.596 127.756 19.356 126.892 18.876C126.028 18.3853 125.34 17.708 124.828 16.844C124.327 15.98 124.076 15.004 124.076 13.916ZM143.631 19.612C142.597 19.612 141.642 19.372 140.767 18.892C139.903 18.4013 139.215 17.724 138.703 16.86C138.202 15.9853 137.951 15.004 137.951 13.916C137.951 12.828 138.202 11.852 138.703 10.988C139.215 10.124 139.903 9.452 140.767 8.972C141.642 8.48133 142.597 8.236 143.631 8.236C144.677 8.236 145.631 8.48133 146.495 8.972C147.37 9.452 148.058 10.124 148.559 10.988C149.061 11.852 149.311 12.828 149.311 13.916C149.311 15.004 149.061 15.9853 148.559 16.86C148.058 17.724 147.37 18.4013 146.495 18.892C145.631 19.372 144.677 19.612 143.631 19.612ZM143.631 18.028C144.367 18.028 145.023 17.8627 145.599 17.532C146.175 17.1907 146.623 16.7107 146.943 16.092C147.274 15.4627 147.439 14.7373 147.439 13.916C147.439 13.0947 147.274 12.3747 146.943 11.756C146.623 11.1373 146.175 10.6627 145.599 10.332C145.023 10.0013 144.367 9.836 143.631 9.836C142.895 9.836 142.239 10.0013 141.663 10.332C141.087 10.6627 140.634 11.1373 140.303 11.756C139.983 12.3747 139.823 13.0947 139.823 13.916C139.823 14.7373 139.983 15.4627 140.303 16.092C140.634 16.7107 141.087 17.1907 141.663 17.532C142.239 17.8627 142.895 18.028 143.631 18.028ZM156.27 19.612C155.524 19.612 154.852 19.484 154.254 19.228C153.657 18.9613 153.188 18.588 152.846 18.108C152.505 17.628 152.334 17.068 152.334 16.428H154.286C154.329 16.908 154.516 17.3027 154.846 17.612C155.188 17.9213 155.662 18.076 156.27 18.076C156.9 18.076 157.39 17.9267 157.742 17.628C158.094 17.3187 158.27 16.924 158.27 16.444C158.27 16.0707 158.158 15.7667 157.934 15.532C157.721 15.2973 157.449 15.116 157.118 14.988C156.798 14.86 156.35 14.7213 155.774 14.572C155.049 14.38 154.457 14.188 153.998 13.996C153.55 13.7933 153.166 13.484 152.846 13.068C152.526 12.652 152.366 12.0973 152.366 11.404C152.366 10.764 152.526 10.204 152.846 9.724C153.166 9.244 153.614 8.876 154.19 8.62C154.766 8.364 155.433 8.236 156.19 8.236C157.268 8.236 158.148 8.508 158.83 9.052C159.524 9.58533 159.908 10.3213 159.982 11.26H157.966C157.934 10.8547 157.742 10.508 157.39 10.22C157.038 9.932 156.574 9.788 155.998 9.788C155.476 9.788 155.049 9.92133 154.718 10.188C154.388 10.4547 154.222 10.8387 154.222 11.34C154.222 11.6813 154.324 11.964 154.526 12.188C154.74 12.4013 155.006 12.572 155.326 12.7C155.646 12.828 156.084 12.9667 156.638 13.116C157.374 13.3187 157.972 13.5213 158.43 13.724C158.9 13.9267 159.294 14.2413 159.614 14.668C159.945 15.084 160.11 15.644 160.11 16.348C160.11 16.9133 159.956 17.4467 159.646 17.948C159.348 18.4493 158.905 18.8547 158.318 19.164C157.742 19.4627 157.06 19.612 156.27 19.612ZM170.947 8.38V9.868H167.987V19.5H166.163V9.868H163.187V8.38H170.947ZM176.294 17.308L174.358 21.724H173.174L174.31 17.308H176.294ZM184.516 10.652C184.516 9.87333 184.74 9.26533 185.188 8.828C185.646 8.38 186.233 8.156 186.948 8.156C187.662 8.156 188.244 8.38 188.692 8.828C189.15 9.26533 189.38 9.87333 189.38 10.652C189.38 11.4307 189.15 12.044 188.692 12.492C188.244 12.94 187.662 13.164 186.948 13.164C186.233 13.164 185.646 12.94 185.188 12.492C184.74 12.044 184.516 11.4307 184.516 10.652ZM194.276 8.364L187.892 19.5H186.1L192.484 8.364H194.276ZM186.948 9.26C186.276 9.26 185.94 9.724 185.94 10.652C185.94 11.5907 186.276 12.06 186.948 12.06C187.268 12.06 187.513 11.948 187.684 11.724C187.865 11.4893 187.956 11.132 187.956 10.652C187.956 9.724 187.62 9.26 186.948 9.26ZM191.028 17.196C191.028 16.4173 191.252 15.8093 191.7 15.372C192.158 14.924 192.745 14.7 193.46 14.7C194.164 14.7 194.74 14.924 195.188 15.372C195.646 15.8093 195.876 16.4173 195.876 17.196C195.876 17.9747 195.646 18.588 195.188 19.036C194.74 19.484 194.164 19.708 193.46 19.708C192.745 19.708 192.158 19.484 191.7 19.036C191.252 18.588 191.028 17.9747 191.028 17.196ZM193.444 15.804C192.772 15.804 192.436 16.268 192.436 17.196C192.436 18.124 192.772 18.588 193.444 18.588C194.116 18.588 194.452 18.124 194.452 17.196C194.452 16.268 194.116 15.804 193.444 15.804Z" fill="#173244"/>
<path d="M1 68.5C325.138 83.64 251.7 261.955 578 278.5" stroke="#6445A9"/>
<path d="M108.204 128.768L106.008 126.392C105.468 126.548 104.874 126.626 104.226 126.626C103.062 126.626 101.988 126.356 101.004 125.816C100.032 125.264 99.2575 124.502 98.6815 123.53C98.1175 122.546 97.8355 121.442 97.8355 120.218C97.8355 118.994 98.1175 117.896 98.6815 116.924C99.2575 115.952 100.032 115.196 101.004 114.656C101.988 114.104 103.062 113.828 104.226 113.828C105.402 113.828 106.476 114.104 107.448 114.656C108.432 115.196 109.206 115.952 109.77 116.924C110.334 117.896 110.616 118.994 110.616 120.218C110.616 121.37 110.364 122.414 109.86 123.35C109.368 124.274 108.684 125.018 107.808 125.582L110.814 128.768H108.204ZM99.9415 120.218C99.9415 121.142 100.122 121.958 100.482 122.666C100.854 123.362 101.364 123.902 102.012 124.286C102.66 124.658 103.398 124.844 104.226 124.844C105.054 124.844 105.792 124.658 106.44 124.286C107.088 123.902 107.592 123.362 107.952 122.666C108.324 121.958 108.51 121.142 108.51 120.218C108.51 119.294 108.324 118.484 107.952 117.788C107.592 117.092 107.088 116.558 106.44 116.186C105.792 115.814 105.054 115.628 104.226 115.628C103.398 115.628 102.66 115.814 102.012 116.186C101.364 116.558 100.854 117.092 100.482 117.788C100.122 118.484 99.9415 119.294 99.9415 120.218ZM112.347 115.25V113.378H116.091V126.5H114.021V115.25H112.347Z" fill="#129590"/>
<path d="M220.156 170.768L217.96 168.392C217.42 168.548 216.826 168.626 216.178 168.626C215.014 168.626 213.94 168.356 212.956 167.816C211.984 167.264 211.21 166.502 210.634 165.53C210.07 164.546 209.788 163.442 209.788 162.218C209.788 160.994 210.07 159.896 210.634 158.924C211.21 157.952 211.984 157.196 212.956 156.656C213.94 156.104 215.014 155.828 216.178 155.828C217.354 155.828 218.428 156.104 219.4 156.656C220.384 157.196 221.158 157.952 221.722 158.924C222.286 159.896 222.568 160.994 222.568 162.218C222.568 163.37 222.316 164.414 221.812 165.35C221.32 166.274 220.636 167.018 219.76 167.582L222.766 170.768H220.156ZM211.894 162.218C211.894 163.142 212.074 163.958 212.434 164.666C212.806 165.362 213.316 165.902 213.964 166.286C214.612 166.658 215.35 166.844 216.178 166.844C217.006 166.844 217.744 166.658 218.392 166.286C219.04 165.902 219.544 165.362 219.904 164.666C220.276 163.958 220.462 163.142 220.462 162.218C220.462 161.294 220.276 160.484 219.904 159.788C219.544 159.092 219.04 158.558 218.392 158.186C217.744 157.814 217.006 157.628 216.178 157.628C215.35 157.628 214.612 157.814 213.964 158.186C213.316 158.558 212.806 159.092 212.434 159.788C212.074 160.484 211.894 161.294 211.894 162.218ZM225.704 165.71C226.856 164.714 227.762 163.898 228.422 163.262C229.094 162.614 229.652 161.942 230.096 161.246C230.54 160.55 230.762 159.854 230.762 159.158C230.762 158.438 230.588 157.874 230.24 157.466C229.904 157.058 229.37 156.854 228.638 156.854C227.93 156.854 227.378 157.082 226.982 157.538C226.598 157.982 226.394 158.582 226.37 159.338H224.39C224.426 157.97 224.834 156.926 225.614 156.206C226.406 155.474 227.408 155.108 228.62 155.108C229.928 155.108 230.948 155.468 231.68 156.188C232.424 156.908 232.796 157.868 232.796 159.068C232.796 159.932 232.574 160.766 232.13 161.57C231.698 162.362 231.176 163.076 230.564 163.712C229.964 164.336 229.196 165.062 228.26 165.89L227.45 166.61H233.156V168.32H224.408V166.826L225.704 165.71Z" fill="#129590"/>
<path d="M326.506 246.768L324.31 244.392C323.77 244.548 323.176 244.626 322.528 244.626C321.364 244.626 320.29 244.356 319.306 243.816C318.334 243.264 317.56 242.502 316.984 241.53C316.42 240.546 316.138 239.442 316.138 238.218C316.138 236.994 316.42 235.896 316.984 234.924C317.56 233.952 318.334 233.196 319.306 232.656C320.29 232.104 321.364 231.828 322.528 231.828C323.704 231.828 324.778 232.104 325.75 232.656C326.734 233.196 327.508 233.952 328.072 234.924C328.636 235.896 328.918 236.994 328.918 238.218C328.918 239.37 328.666 240.414 328.162 241.35C327.67 242.274 326.986 243.018 326.11 243.582L329.116 246.768H326.506ZM318.244 238.218C318.244 239.142 318.424 239.958 318.784 240.666C319.156 241.362 319.666 241.902 320.314 242.286C320.962 242.658 321.7 242.844 322.528 242.844C323.356 242.844 324.094 242.658 324.742 242.286C325.39 241.902 325.894 241.362 326.254 240.666C326.626 239.958 326.812 239.142 326.812 238.218C326.812 237.294 326.626 236.484 326.254 235.788C325.894 235.092 325.39 234.558 324.742 234.186C324.094 233.814 323.356 233.628 322.528 233.628C321.7 233.628 320.962 233.814 320.314 234.186C319.666 234.558 319.156 235.092 318.784 235.788C318.424 236.484 318.244 237.294 318.244 238.218ZM330.884 234.618C330.956 233.502 331.382 232.632 332.162 232.008C332.954 231.384 333.962 231.072 335.186 231.072C336.026 231.072 336.752 231.222 337.364 231.522C337.976 231.822 338.438 232.23 338.75 232.746C339.062 233.262 339.218 233.844 339.218 234.492C339.218 235.236 339.02 235.872 338.624 236.4C338.228 236.928 337.754 237.282 337.202 237.462V237.534C337.91 237.75 338.462 238.146 338.858 238.722C339.254 239.286 339.452 240.012 339.452 240.9C339.452 241.608 339.29 242.238 338.966 242.79C338.642 243.342 338.162 243.78 337.526 244.104C336.89 244.416 336.128 244.572 335.24 244.572C333.944 244.572 332.876 244.242 332.036 243.582C331.208 242.91 330.764 241.95 330.704 240.702H332.684C332.732 241.338 332.978 241.86 333.422 242.268C333.866 242.664 334.466 242.862 335.222 242.862C335.954 242.862 336.518 242.664 336.914 242.268C337.31 241.86 337.508 241.338 337.508 240.702C337.508 239.862 337.238 239.268 336.698 238.92C336.17 238.56 335.354 238.38 334.25 238.38H333.782V236.688H334.268C335.24 236.676 335.978 236.514 336.482 236.202C336.998 235.89 337.256 235.398 337.256 234.726C337.256 234.15 337.07 233.694 336.698 233.358C336.326 233.01 335.798 232.836 335.114 232.836C334.442 232.836 333.92 233.01 333.548 233.358C333.176 233.694 332.954 234.114 332.882 234.618H330.884Z" fill="#129590"/>
<path d="M433.523 300.768L431.327 298.392C430.787 298.548 430.193 298.626 429.545 298.626C428.381 298.626 427.307 298.356 426.323 297.816C425.351 297.264 424.577 296.502 424.001 295.53C423.437 294.546 423.155 293.442 423.155 292.218C423.155 290.994 423.437 289.896 424.001 288.924C424.577 287.952 425.351 287.196 426.323 286.656C427.307 286.104 428.381 285.828 429.545 285.828C430.721 285.828 431.795 286.104 432.767 286.656C433.751 287.196 434.525 287.952 435.089 288.924C435.653 289.896 435.935 290.994 435.935 292.218C435.935 293.37 435.683 294.414 435.179 295.35C434.687 296.274 434.003 297.018 433.127 297.582L436.133 300.768H433.523ZM425.261 292.218C425.261 293.142 425.441 293.958 425.801 294.666C426.173 295.362 426.683 295.902 427.331 296.286C427.979 296.658 428.717 296.844 429.545 296.844C430.373 296.844 431.111 296.658 431.759 296.286C432.407 295.902 432.911 295.362 433.271 294.666C433.643 293.958 433.829 293.142 433.829 292.218C433.829 291.294 433.643 290.484 433.271 289.788C432.911 289.092 432.407 288.558 431.759 288.186C431.111 287.814 430.373 287.628 429.545 287.628C428.717 287.628 427.979 287.814 427.331 288.186C426.683 288.558 426.173 289.092 425.801 289.788C425.441 290.484 425.261 291.294 425.261 292.218ZM437.685 295.764V294.216L443.733 285.54H446.217V293.982H447.891V295.764H446.217V298.5H444.201V295.764H437.685ZM444.291 287.628L440.043 293.982H444.291V287.628Z" fill="#129590"/>
<rect x="92" y="68.5" width="30" height="30" rx="15" fill="#F82530"/>
<path d="M99.81 82.512C98.9327 82.0453 98.494 81.3127 98.494 80.314C98.494 79.81 98.6247 79.3527 98.886 78.942C99.1473 78.522 99.544 78.1907 100.076 77.948C100.608 77.696 101.261 77.57 102.036 77.57C102.811 77.57 103.459 77.696 103.982 77.948C104.514 78.1907 104.911 78.522 105.172 78.942C105.433 79.3527 105.564 79.81 105.564 80.314C105.564 80.818 105.443 81.2567 105.2 81.63C104.967 82.0033 104.649 82.2973 104.248 82.512C104.752 82.7547 105.139 83.0907 105.41 83.52C105.681 83.94 105.816 84.4347 105.816 85.004C105.816 85.6667 105.648 86.2407 105.312 86.726C104.976 87.202 104.519 87.566 103.94 87.818C103.371 88.07 102.736 88.196 102.036 88.196C101.336 88.196 100.697 88.07 100.118 87.818C99.5487 87.566 99.096 87.202 98.76 86.726C98.424 86.2407 98.256 85.6667 98.256 85.004C98.256 84.4253 98.3913 83.926 98.662 83.506C98.9327 83.0767 99.3153 82.7453 99.81 82.512ZM103.24 80.678C103.24 80.2953 103.128 80.0013 102.904 79.796C102.689 79.5813 102.4 79.474 102.036 79.474C101.672 79.474 101.378 79.5813 101.154 79.796C100.939 80.0107 100.832 80.3093 100.832 80.692C100.832 81.056 100.944 81.3453 101.168 81.56C101.392 81.7653 101.681 81.868 102.036 81.868C102.391 81.868 102.68 81.7607 102.904 81.546C103.128 81.3313 103.24 81.042 103.24 80.678ZM102.036 83.548C101.597 83.548 101.243 83.6693 100.972 83.912C100.701 84.1453 100.566 84.472 100.566 84.892C100.566 85.284 100.697 85.606 100.958 85.858C101.229 86.11 101.588 86.236 102.036 86.236C102.484 86.236 102.834 86.11 103.086 85.858C103.347 85.606 103.478 85.284 103.478 84.892C103.478 84.4813 103.343 84.1547 103.072 83.912C102.811 83.6693 102.465 83.548 102.036 83.548ZM107.382 81.364C107.382 80.78 107.55 80.324 107.886 79.996C108.23 79.66 108.67 79.492 109.206 79.492C109.742 79.492 110.178 79.66 110.514 79.996C110.858 80.324 111.03 80.78 111.03 81.364C111.03 81.948 110.858 82.408 110.514 82.744C110.178 83.08 109.742 83.248 109.206 83.248C108.67 83.248 108.23 83.08 107.886 82.744C107.55 82.408 107.382 81.948 107.382 81.364ZM114.702 79.648L109.914 88H108.57L113.358 79.648H114.702ZM109.206 80.32C108.702 80.32 108.45 80.668 108.45 81.364C108.45 82.068 108.702 82.42 109.206 82.42C109.446 82.42 109.63 82.336 109.758 82.168C109.894 81.992 109.962 81.724 109.962 81.364C109.962 80.668 109.71 80.32 109.206 80.32ZM112.266 86.272C112.266 85.688 112.434 85.232 112.77 84.904C113.114 84.568 113.554 84.4 114.09 84.4C114.618 84.4 115.05 84.568 115.386 84.904C115.73 85.232 115.902 85.688 115.902 86.272C115.902 86.856 115.73 87.316 115.386 87.652C115.05 87.988 114.618 88.156 114.09 88.156C113.554 88.156 113.114 87.988 112.77 87.652C112.434 87.316 112.266 86.856 112.266 86.272ZM114.078 85.228C113.574 85.228 113.322 85.576 113.322 86.272C113.322 86.968 113.574 87.316 114.078 87.316C114.582 87.316 114.834 86.968 114.834 86.272C114.834 85.576 114.582 85.228 114.078 85.228Z" fill="white"/>
<rect x="208" y="110.5" width="30" height="30" rx="15" fill="#F82530"/>
<path d="M221.154 121.572L217.64 130H215.19L218.746 121.838H214.392V119.794H221.154V121.572ZM222.296 123.364C222.296 122.78 222.464 122.324 222.8 121.996C223.144 121.66 223.584 121.492 224.12 121.492C224.656 121.492 225.092 121.66 225.428 121.996C225.772 122.324 225.944 122.78 225.944 123.364C225.944 123.948 225.772 124.408 225.428 124.744C225.092 125.08 224.656 125.248 224.12 125.248C223.584 125.248 223.144 125.08 222.8 124.744C222.464 124.408 222.296 123.948 222.296 123.364ZM229.616 121.648L224.828 130H223.484L228.272 121.648H229.616ZM224.12 122.32C223.616 122.32 223.364 122.668 223.364 123.364C223.364 124.068 223.616 124.42 224.12 124.42C224.36 124.42 224.544 124.336 224.672 124.168C224.808 123.992 224.876 123.724 224.876 123.364C224.876 122.668 224.624 122.32 224.12 122.32ZM227.18 128.272C227.18 127.688 227.348 127.232 227.684 126.904C228.028 126.568 228.468 126.4 229.004 126.4C229.532 126.4 229.964 126.568 230.3 126.904C230.644 127.232 230.816 127.688 230.816 128.272C230.816 128.856 230.644 129.316 230.3 129.652C229.964 129.988 229.532 130.156 229.004 130.156C228.468 130.156 228.028 129.988 227.684 129.652C227.348 129.316 227.18 128.856 227.18 128.272ZM228.992 127.228C228.488 127.228 228.236 127.576 228.236 128.272C228.236 128.968 228.488 129.316 228.992 129.316C229.496 129.316 229.748 128.968 229.748 128.272C229.748 127.576 229.496 127.228 228.992 127.228Z" fill="white"/>
<rect x="314" y="186.5" width="30" height="30" rx="15" fill="#F82530"/>
<path d="M325.184 198.538C325.109 198.193 324.979 197.936 324.792 197.768C324.605 197.591 324.339 197.502 323.994 197.502C323.462 197.502 323.079 197.735 322.846 198.202C322.613 198.659 322.491 199.387 322.482 200.386C322.687 200.059 322.981 199.803 323.364 199.616C323.756 199.429 324.185 199.336 324.652 199.336C325.567 199.336 326.299 199.625 326.85 200.204C327.41 200.783 327.69 201.59 327.69 202.626C327.69 203.307 327.55 203.905 327.27 204.418C326.999 204.931 326.598 205.333 326.066 205.622C325.543 205.911 324.923 206.056 324.204 206.056C322.767 206.056 321.768 205.608 321.208 204.712C320.648 203.807 320.368 202.509 320.368 200.82C320.368 199.047 320.662 197.731 321.25 196.872C321.847 196.004 322.799 195.57 324.106 195.57C324.806 195.57 325.394 195.71 325.87 195.99C326.355 196.261 326.719 196.62 326.962 197.068C327.214 197.516 327.363 198.006 327.41 198.538H325.184ZM324.078 201.226C323.677 201.226 323.341 201.347 323.07 201.59C322.809 201.823 322.678 202.159 322.678 202.598C322.678 203.046 322.799 203.396 323.042 203.648C323.294 203.9 323.649 204.026 324.106 204.026C324.517 204.026 324.839 203.905 325.072 203.662C325.315 203.41 325.436 203.069 325.436 202.64C325.436 202.201 325.319 201.856 325.086 201.604C324.853 201.352 324.517 201.226 324.078 201.226ZM329.218 199.364C329.218 198.78 329.386 198.324 329.722 197.996C330.066 197.66 330.506 197.492 331.042 197.492C331.578 197.492 332.014 197.66 332.35 197.996C332.694 198.324 332.866 198.78 332.866 199.364C332.866 199.948 332.694 200.408 332.35 200.744C332.014 201.08 331.578 201.248 331.042 201.248C330.506 201.248 330.066 201.08 329.722 200.744C329.386 200.408 329.218 199.948 329.218 199.364ZM336.538 197.648L331.75 206H330.406L335.194 197.648H336.538ZM331.042 198.32C330.538 198.32 330.286 198.668 330.286 199.364C330.286 200.068 330.538 200.42 331.042 200.42C331.282 200.42 331.466 200.336 331.594 200.168C331.73 199.992 331.798 199.724 331.798 199.364C331.798 198.668 331.546 198.32 331.042 198.32ZM334.102 204.272C334.102 203.688 334.27 203.232 334.606 202.904C334.95 202.568 335.39 202.4 335.926 202.4C336.454 202.4 336.886 202.568 337.222 202.904C337.566 203.232 337.738 203.688 337.738 204.272C337.738 204.856 337.566 205.316 337.222 205.652C336.886 205.988 336.454 206.156 335.926 206.156C335.39 206.156 334.95 205.988 334.606 205.652C334.27 205.316 334.102 204.856 334.102 204.272ZM335.914 203.228C335.41 203.228 335.158 203.576 335.158 204.272C335.158 204.968 335.41 205.316 335.914 205.316C336.418 205.316 336.67 204.968 336.67 204.272C336.67 203.576 336.418 203.228 335.914 203.228Z" fill="white"/>
<rect x="421" y="240.5" width="30" height="30" rx="15" fill="#0062FF"/>
<path d="M434.326 251.866H429.958V253.798C430.145 253.593 430.406 253.425 430.742 253.294C431.078 253.163 431.442 253.098 431.834 253.098C432.534 253.098 433.113 253.257 433.57 253.574C434.037 253.891 434.377 254.302 434.592 254.806C434.807 255.31 434.914 255.856 434.914 256.444C434.914 257.536 434.606 258.404 433.99 259.048C433.374 259.683 432.506 260 431.386 260C430.639 260 429.991 259.874 429.44 259.622C428.889 259.361 428.465 259.001 428.166 258.544C427.867 258.087 427.704 257.559 427.676 256.962H430.014C430.07 257.251 430.205 257.494 430.42 257.69C430.635 257.877 430.929 257.97 431.302 257.97C431.741 257.97 432.067 257.83 432.282 257.55C432.497 257.27 432.604 256.897 432.604 256.43C432.604 255.973 432.492 255.623 432.268 255.38C432.044 255.137 431.717 255.016 431.288 255.016C430.971 255.016 430.709 255.095 430.504 255.254C430.299 255.403 430.163 255.604 430.098 255.856H427.788V249.766H434.326V251.866ZM436.409 253.364C436.409 252.78 436.577 252.324 436.913 251.996C437.257 251.66 437.697 251.492 438.233 251.492C438.769 251.492 439.205 251.66 439.541 251.996C439.885 252.324 440.057 252.78 440.057 253.364C440.057 253.948 439.885 254.408 439.541 254.744C439.205 255.08 438.769 255.248 438.233 255.248C437.697 255.248 437.257 255.08 436.913 254.744C436.577 254.408 436.409 253.948 436.409 253.364ZM443.729 251.648L438.941 260H437.597L442.385 251.648H443.729ZM438.233 252.32C437.729 252.32 437.477 252.668 437.477 253.364C437.477 254.068 437.729 254.42 438.233 254.42C438.473 254.42 438.657 254.336 438.785 254.168C438.921 253.992 438.989 253.724 438.989 253.364C438.989 252.668 438.737 252.32 438.233 252.32ZM441.293 258.272C441.293 257.688 441.461 257.232 441.797 256.904C442.141 256.568 442.581 256.4 443.117 256.4C443.645 256.4 444.077 256.568 444.413 256.904C444.757 257.232 444.929 257.688 444.929 258.272C444.929 258.856 444.757 259.316 444.413 259.652C444.077 259.988 443.645 260.156 443.117 260.156C442.581 260.156 442.141 259.988 441.797 259.652C441.461 259.316 441.293 258.856 441.293 258.272ZM443.105 257.228C442.601 257.228 442.349 257.576 442.349 258.272C442.349 258.968 442.601 259.316 443.105 259.316C443.609 259.316 443.861 258.968 443.861 258.272C443.861 257.576 443.609 257.228 443.105 257.228Z" fill="white"/>
</svg>
