<svg width="64" height="64" viewBox="0 0 64 64" fill="none" xmlns="http://www.w3.org/2000/svg">
<path d="M44.339 42.6816C44.22 42.6396 44.114 42.5996 44 42.5586V47.5866C44.502 47.4267 44.9502 47.1315 45.2954 46.7335C45.6407 46.3356 45.8696 45.8501 45.957 45.3306C46.0702 44.7665 45.9664 44.1804 45.6665 43.6894C45.3666 43.1984 44.8926 42.8385 44.339 42.6816Z" fill="#F82530"/>
<path d="M40.9234 37.5354C40.8491 37.809 40.8498 38.0976 40.9254 38.3709C41.0011 38.6442 41.1489 38.892 41.3534 39.0884C41.5587 39.2449 41.7745 39.3869 41.9994 39.5134V36.0664C41.7216 36.2151 41.4806 36.4243 41.2944 36.6785C41.1081 36.9328 40.9814 37.2256 40.9234 37.5354Z" fill="#F82530"/>
<path d="M32.1213 22.9995H53.8833C56.1718 20.9281 57.8988 18.3112 58.9033 15.3925C59.0143 15.1335 59.9483 12.8255 58.5573 11.6705C57.5973 10.8705 55.6813 10.5065 49.4513 14.5035C48.8025 13.3824 47.8569 12.4622 46.7187 11.8439C45.5805 11.2257 44.2938 10.9335 43.0003 10.9995C41.7071 10.9331 40.4207 11.2247 39.2825 11.8422C38.1444 12.4597 37.1986 13.3792 36.5493 14.4995C30.3183 10.4995 28.4033 10.8665 27.4433 11.6665C26.0523 12.8215 26.9863 15.1295 27.0673 15.3115C28.0777 18.2589 29.8161 20.9033 32.1213 22.9995Z" fill="#F82530"/>
<path d="M53.6066 25H32.3926C25.1996 31.547 21.2336 37.1 23.7666 49.062C24.4871 52.4264 26.3349 55.4439 29.0041 57.6148C31.6734 59.7858 35.004 60.9801 38.4446 61H47.5546C50.9952 60.9801 54.3259 59.7858 56.9951 57.6148C59.6644 55.4439 61.5122 52.4264 62.2326 49.062C64.7656 37.1 60.7996 31.547 53.6066 25ZM47.9286 45.663C47.7678 46.6522 47.3032 47.5669 46.5992 48.2803C45.8952 48.9936 44.9867 49.4702 43.9996 49.644V51C43.9996 51.2652 43.8943 51.5196 43.7067 51.7071C43.5192 51.8946 43.2648 52 42.9996 52C42.7344 52 42.4801 51.8946 42.2925 51.7071C42.105 51.5196 41.9996 51.2652 41.9996 51V49.7C40.8906 49.6213 39.826 49.2321 38.9276 48.577C38.8178 48.5048 38.7234 48.4116 38.6496 48.3029C38.5758 48.1941 38.5241 48.0719 38.4976 47.9432C38.471 47.8145 38.4701 47.6819 38.4948 47.5528C38.5195 47.4237 38.5694 47.3008 38.6416 47.191C38.7139 47.0812 38.807 46.9867 38.9157 46.9129C39.0245 46.8392 39.1467 46.7875 39.2754 46.7609C39.4041 46.7344 39.5368 46.7334 39.6658 46.7582C39.7949 46.7829 39.9178 46.8328 40.0276 46.905C40.6061 47.3362 41.2873 47.6086 42.0036 47.695V41.755C41.3352 41.4642 40.7038 41.0949 40.1226 40.655C39.6268 40.2341 39.2562 39.685 39.0513 39.0678C38.8464 38.4505 38.815 37.7889 38.9606 37.155C39.0858 36.4265 39.4092 35.7466 39.8953 35.1899C40.3815 34.6331 41.0117 34.2211 41.7166 33.999C41.8166 33.969 41.9076 33.95 42.0036 33.926V33C42.0036 32.7348 42.109 32.4804 42.2965 32.2929C42.4841 32.1054 42.7384 32 43.0036 32C43.2688 32 43.5232 32.1054 43.7107 32.2929C43.8983 32.4804 44.0036 32.7348 44.0036 33V33.8C44.9892 33.916 45.9196 34.3163 46.6816 34.952C46.8774 35.1312 46.9939 35.3807 47.0056 35.6458C47.0173 35.9109 46.9233 36.1698 46.7441 36.3655C46.565 36.5612 46.3154 36.6778 46.0503 36.6895C45.7852 36.7012 45.5264 36.6072 45.3306 36.428C44.944 36.1225 44.4884 35.9165 44.0036 35.828V40.428C44.3406 40.557 44.6796 40.681 45.0106 40.798C46.0111 41.1068 46.8622 41.7742 47.4007 42.672C47.9393 43.5699 48.1273 44.635 47.9286 45.663Z" fill="#F82530"/>
<path d="M26 11C22.6377 11 19.3509 11.997 16.5553 13.865C13.7597 15.733 11.5807 18.388 10.2941 21.4944C9.00737 24.6007 8.67071 28.0189 9.32666 31.3165C9.98261 34.6142 11.6017 37.6433 13.9792 40.0208C16.3567 42.3983 19.3858 44.0174 22.6835 44.6734C25.9811 45.3293 29.3993 44.9926 32.5056 43.706C35.612 42.4193 38.267 40.2403 40.135 37.4447C42.003 34.6491 43 31.3623 43 28C42.995 23.4929 41.2023 19.1718 38.0153 15.9847C34.8282 12.7977 30.5071 11.005 26 11ZM26 43C23.0333 43 20.1332 42.1203 17.6665 40.472C15.1997 38.8238 13.2771 36.4811 12.1418 33.7402C11.0065 30.9994 10.7094 27.9834 11.2882 25.0736C11.867 22.1639 13.2956 19.4912 15.3934 17.3934C17.4912 15.2956 20.1639 13.867 23.0737 13.2882C25.9834 12.7094 28.9994 13.0065 31.7403 14.1418C34.4812 15.2771 36.8238 17.1997 38.4721 19.6664C40.1203 22.1332 41 25.0333 41 28C40.9955 31.9769 39.4137 35.7896 36.6016 38.6016C33.7896 41.4137 29.9769 42.9955 26 43Z" fill="#129590"/>
<path d="M28.32 26.689C27.872 26.531 27.411 26.361 26.955 26.183V20.559C27.6476 20.6385 28.3049 20.907 28.855 21.335C29.0508 21.5141 29.3096 21.608 29.5746 21.5962C29.8396 21.5844 30.089 21.4678 30.268 21.272C30.4471 21.0763 30.541 20.8175 30.5292 20.5525C30.5174 20.2875 30.4008 20.0381 30.205 19.859C29.2825 19.0941 28.1458 18.6334 26.951 18.54V17.332C26.951 17.0668 26.8457 16.8125 26.6582 16.6249C26.4706 16.4374 26.2163 16.332 25.951 16.332C25.6858 16.332 25.4315 16.4374 25.2439 16.6249C25.0564 16.8125 24.951 17.0668 24.951 17.332V18.706C24.0796 18.9017 23.2862 19.3522 22.6716 20.0002C22.0571 20.6482 21.6492 21.4645 21.5 22.345C21.3381 23.051 21.3728 23.7879 21.6004 24.4755C21.828 25.1631 22.2399 25.7751 22.791 26.245C23.4611 26.7488 24.1885 27.1714 24.958 27.504V34.717C24.0632 34.634 23.2088 34.3045 22.49 33.765C22.2681 33.6198 21.9975 33.5688 21.7378 33.623C21.4782 33.6773 21.2508 33.8325 21.1055 34.0545C20.9603 34.2765 20.9093 34.5471 20.9636 34.8067C21.0179 35.0664 21.1731 35.2938 21.395 35.439C22.4369 36.1959 23.6728 36.6402 24.958 36.72V38.662C24.958 38.9272 25.0634 39.1816 25.2509 39.3691C25.4385 39.5567 25.6928 39.662 25.958 39.662C26.2233 39.662 26.4776 39.5567 26.6652 39.3691C26.8527 39.1816 26.958 38.9272 26.958 38.662V36.682C28.1171 36.5294 29.1963 36.0076 30.0358 35.1939C30.8752 34.3802 31.4304 33.3178 31.619 32.164C31.8406 31.0053 31.6264 29.8055 31.0175 28.795C30.4087 27.7846 29.448 27.0346 28.32 26.689ZM24.02 24.675C23.7586 24.4293 23.5685 24.1173 23.4701 23.7722C23.3717 23.4271 23.3686 23.0618 23.461 22.715C23.5338 22.2977 23.7082 21.9048 23.9687 21.5708C24.2293 21.2368 24.568 20.9721 24.955 20.8V25.278C24.6284 25.1023 24.3164 24.9007 24.022 24.675H24.02ZM29.642 31.832C29.53 32.5207 29.2138 33.1598 28.7344 33.6667C28.255 34.1736 27.6344 34.5249 26.953 34.675V28.321C27.179 28.404 27.406 28.488 27.653 28.575C28.3341 28.7675 28.9174 29.2098 29.2865 29.8136C29.6556 30.4174 29.7833 31.1382 29.644 31.832H29.642Z" fill="#129590"/>
<path d="M9.2926 8.70584C9.48121 8.88799 9.73381 8.98879 9.99601 8.98651C10.2582 8.98423 10.509 8.87906 10.6944 8.69366C10.8798 8.50825 10.985 8.25743 10.9873 7.99524C10.9896 7.73304 10.8888 7.48044 10.7066 7.29184L6.7066 3.29183C6.61371 3.19871 6.50336 3.12482 6.38187 3.07441C6.26038 3.024 6.13014 2.99805 5.9986 2.99805C5.86707 2.99805 5.73683 3.024 5.61534 3.07441C5.49385 3.12482 5.38349 3.19871 5.2906 3.29183L1.2906 7.29184C1.1031 7.47961 0.99786 7.73418 0.998047 7.99954C0.998235 8.26491 1.10383 8.51933 1.2916 8.70684C1.47938 8.89434 1.73395 8.99958 1.99931 8.99939C2.26467 8.99921 2.5191 8.89361 2.7066 8.70584L4.9996 6.41284V51.9998C4.9996 52.2651 5.10496 52.5194 5.2925 52.707C5.48003 52.8945 5.73439 52.9998 5.9996 52.9998C6.26482 52.9998 6.51917 52.8945 6.70671 52.707C6.89425 52.5194 6.9996 52.2651 6.9996 51.9998V6.41284L9.2926 8.70584Z" fill="#129590"/>
<path d="M50.7065 7.29184L46.7065 3.29183C46.6136 3.19871 46.5032 3.12482 46.3817 3.07441C46.2603 3.024 46.13 2.99805 45.9985 2.99805C45.8669 2.99805 45.7367 3.024 45.6152 3.07441C45.4937 3.12482 45.3834 3.19871 45.2905 3.29183L41.2905 7.29184C41.1083 7.48044 41.0075 7.73304 41.0098 7.99524C41.0121 8.25743 41.1172 8.50825 41.3027 8.69366C41.4881 8.87906 41.7389 8.98423 42.0011 8.98651C42.2633 8.98879 42.5159 8.88799 42.7045 8.70584L44.9995 6.41284V51.9998C44.9995 52.2651 45.1048 52.5194 45.2924 52.707C45.4799 52.8945 45.7343 52.9998 45.9995 52.9998C46.2647 52.9998 46.519 52.8945 46.7066 52.707C46.8941 52.5194 46.9995 52.2651 46.9995 51.9998V6.41284L49.2925 8.70584C49.4811 8.88799 49.7337 8.98879 49.9959 8.98651C50.2581 8.98423 50.5089 8.87906 50.6943 8.69366C50.8797 8.50825 50.9849 8.25743 50.9871 7.99524C50.9894 7.73304 50.8886 7.48044 50.7065 7.29184Z" fill="#129590"/>
</svg>
