<svg width="64" height="64" viewBox="0 0 64 64" fill="none" xmlns="http://www.w3.org/2000/svg">
<path d="M61.838 22.9833L49.014 12.6833C48.5598 12.3194 48.0119 12.0914 47.4336 12.0256C46.8553 11.9599 46.2702 12.059 45.7458 12.3117C45.2215 12.5643 44.7793 12.9601 44.4704 13.4534C44.1615 13.9467 43.9984 14.5173 44 15.0993V58.9043C43.9995 59.7236 44.324 60.5096 44.9024 61.0899C45.4808 61.6701 46.2657 61.9972 47.085 61.9993H51.256C52.075 61.9975 52.8598 61.6708 53.4382 61.0909C54.0166 60.511 54.3413 59.7254 54.341 58.9063V29.5853C54.3402 29.2963 54.4541 29.0188 54.6577 28.8137C54.8613 28.6086 55.138 28.4927 55.427 28.4913H59.909C60.5477 28.4866 61.1693 28.2846 61.6888 27.9132C62.2083 27.5417 62.6005 27.0189 62.8116 26.4161C63.0227 25.8133 63.0425 25.16 62.8682 24.5456C62.6939 23.9312 62.3341 23.3855 61.838 22.9833Z" fill="#F82530"/>
<path d="M37.9137 12H33.7427C32.9236 12.0021 32.1388 12.3291 31.5605 12.9091C30.9821 13.4891 30.6575 14.2749 30.6577 15.094V44.41C30.6575 44.6983 30.5431 44.9748 30.3396 45.179C30.1361 45.3833 29.8601 45.4987 29.5717 45.5H25.0897C24.4508 45.5045 23.829 45.7064 23.3092 46.0779C22.7894 46.4494 22.397 46.9724 22.1859 47.5754C21.9748 48.1784 21.9551 48.832 22.1296 49.4466C22.3041 50.0612 22.6642 50.6069 23.1607 51.009L35.9847 61.309C36.4385 61.6729 36.9858 61.901 37.5637 61.9672C38.1415 62.0334 38.7263 61.9349 39.2505 61.6831C39.7748 61.4313 40.2172 61.0363 40.5267 60.5439C40.8362 60.0515 41.0002 59.4816 40.9997 58.9V15.092C40.9992 14.2732 40.6741 13.4879 40.0957 12.9083C39.5172 12.3288 38.7326 12.0021 37.9137 12Z" fill="#F82530"/>
<path d="M47.0008 26.9997C47.0199 22.366 45.6312 17.8357 43.0185 14.0086C40.4058 10.1816 36.6923 7.23844 32.3698 5.56874C32.1226 5.47207 31.8471 5.47755 31.604 5.58398C31.3609 5.69041 31.17 5.88906 31.0733 6.13624C30.9766 6.38342 30.9821 6.65888 31.0885 6.90203C31.1949 7.14517 31.3936 7.33607 31.6408 7.43274C35.993 9.13123 39.6543 12.233 42.045 16.2469C44.4356 20.2608 45.4191 24.9574 44.8396 29.5933C44.2601 34.2291 42.1507 38.5391 38.8455 41.841C35.5404 45.1429 31.2282 47.2479 26.5918 47.8227L26.7078 47.7067C26.8899 47.5181 26.9907 47.2655 26.9885 47.0033C26.9862 46.7411 26.881 46.4903 26.6956 46.3049C26.5102 46.1195 26.2594 46.0143 25.9972 46.0121C25.735 46.0098 25.4824 46.1106 25.2938 46.2927L23.2938 48.2927C23.2007 48.3856 23.1268 48.496 23.0764 48.6175C23.0259 48.739 23 48.8692 23 49.0007C23 49.1323 23.0259 49.2625 23.0764 49.384C23.1268 49.5055 23.2007 49.6158 23.2938 49.7087L25.2938 51.7087C25.4824 51.8909 25.735 51.9917 25.9972 51.9894C26.2594 51.9871 26.5102 51.882 26.6956 51.6966C26.881 51.5112 26.9862 51.2603 26.9885 50.9981C26.9907 50.7359 26.8899 50.4833 26.7078 50.2947L26.2998 49.8867C31.9709 49.3101 37.2266 46.6507 41.0504 42.4231C44.8742 38.1955 46.9944 32.7001 47.0008 26.9997Z" fill="#129590"/>
<path d="M16.3634 46.5675C12.0108 44.8695 8.34891 41.7681 5.9577 37.7542C3.56648 33.7404 2.58257 29.0436 3.16175 24.4075C3.74093 19.7714 5.8501 15.461 9.1553 12.1589C12.4605 8.85667 16.7728 6.75143 21.4094 6.17648L21.2934 6.29248C21.1113 6.48108 21.0105 6.73368 21.0127 6.99588C21.015 7.25808 21.1202 7.50889 21.3056 7.6943C21.491 7.8797 21.7418 7.98487 22.004 7.98715C22.2662 7.98943 22.5188 7.88864 22.7074 7.70648L24.7074 5.70648C24.8005 5.61359 24.8744 5.50324 24.9248 5.38175C24.9753 5.26025 25.0012 5.13001 25.0012 4.99848C25.0012 4.86694 24.9753 4.7367 24.9248 4.61521C24.8744 4.49372 24.8005 4.38337 24.7074 4.29048L22.7074 2.29048C22.5188 2.10832 22.2662 2.00753 22.004 2.0098C21.7418 2.01208 21.491 2.11725 21.3056 2.30266C21.1202 2.48807 21.015 2.73888 21.0127 3.00108C21.0105 3.26327 21.1113 3.51588 21.2934 3.70448L21.7014 4.11248C16.5603 4.62576 11.7418 6.85508 8.02241 10.4412C4.30299 14.0272 1.89932 18.7612 1.19877 23.8801C0.498224 28.999 1.5416 34.2047 4.16076 38.6583C6.77992 43.1118 10.8223 46.5538 15.6364 48.4295C15.8836 48.5259 16.159 48.5201 16.4019 48.4135C16.6449 48.3069 16.8355 48.1082 16.9319 47.861C17.0283 47.6138 17.0226 47.3384 16.916 47.0955C16.8094 46.8525 16.6106 46.6619 16.3634 46.5655V46.5675Z" fill="#129590"/>
<path d="M11.9793 14.98C10.3513 16.6024 9.0702 18.5388 8.21385 20.6717C7.35751 22.8046 6.94379 25.0893 6.99785 27.387C7.05192 29.6847 7.57263 31.9474 8.52833 34.0377C9.48404 36.1279 10.8548 38.002 12.5573 39.546C12.6537 39.702 12.7924 39.8276 12.9573 39.908C16.1926 42.6878 20.3567 44.1462 24.6194 43.9926C28.8822 43.8389 32.9305 42.0845 35.9573 39.079L35.9763 39.061C35.9903 39.047 36.0063 39.036 36.0203 39.021C36.0503 38.991 36.0753 38.958 36.1053 38.928L36.1213 38.91C39.1088 35.8807 40.8479 31.8388 40.9933 27.5867C41.1387 23.3346 39.6798 19.1833 36.9063 15.957C36.8247 15.792 36.6982 15.6533 36.5413 15.557C34.9965 13.8565 33.1223 12.4875 31.0325 11.533C28.9427 10.5786 26.6807 10.0586 24.3839 10.0047C22.0871 9.95072 19.8033 10.3639 17.6709 11.2191C15.5386 12.0744 13.6022 13.3539 11.9793 14.98ZM34.5003 36.091L31.7533 33.345C32.5375 32.4843 33.2496 31.5605 33.8823 30.583C34.3576 32.3787 34.5658 34.2346 34.5003 36.091ZM13.5003 17.911L20.4373 24.848C19.0907 26.0623 17.5769 27.0773 15.9423 27.862C14.2214 24.8356 13.3759 21.3902 13.5003 17.911ZM21.8513 26.262L28.9343 33.345C27.7728 34.3946 26.4865 35.297 25.1043 36.032C21.8652 34.6585 19.0686 32.4167 17.0233 29.554C18.7766 28.6869 20.4 27.5788 21.8463 26.262H21.8513ZM30.3343 34.745L33.0953 37.506C31.2358 37.5719 29.3768 37.3629 27.5783 36.886C28.5523 36.2488 29.4724 35.5327 30.3293 34.745H30.3343ZM30.3483 31.931L23.2603 24.848C24.5773 23.3996 25.6854 21.7742 26.5523 20.019C29.4149 22.0643 31.6567 24.8609 33.0303 28.1C32.2954 29.4825 31.3929 30.7692 30.3433 31.931H30.3483ZM21.8483 23.431L14.9083 16.5C18.3882 16.3745 21.8343 17.2197 24.8613 18.941C24.0759 20.5749 23.0606 22.0879 21.8463 23.434L21.8483 23.431ZM15.7203 14.49C18.9396 12.352 22.8634 11.5478 26.6643 12.247C26.5361 13.8954 26.1925 15.5199 25.6423 17.079C22.6039 15.3989 19.1922 14.5087 15.7203 14.49ZM11.4883 18.721C11.5068 22.1932 12.3971 25.6053 14.0773 28.644C12.5181 29.1939 10.8936 29.5371 9.24527 29.665C8.5465 25.8642 9.35066 21.9405 11.4883 18.721ZM9.73228 31.621C11.5846 31.4462 13.4053 31.0252 15.1463 30.369C17.0798 33.1862 19.6647 35.4952 22.6813 37.1C19.8742 38.1099 16.8685 38.4436 13.9083 38.074C11.9682 36.3322 10.5268 34.1052 9.73228 31.622V31.621ZM16.8663 40.2C19.7491 40.1191 22.5835 39.438 25.1883 38.2C27.4562 39.0463 29.8547 39.4897 32.2753 39.51C30.0096 41.0084 27.3798 41.864 24.6662 41.9855C21.9525 42.107 19.2568 41.4899 16.8663 40.2ZM36.5103 35.281C36.496 32.8636 36.0598 30.4673 35.2213 28.2C36.4566 25.602 37.1377 22.7754 37.2213 19.9C38.5023 22.2891 39.1126 24.9805 38.9874 27.6886C38.8622 30.3966 38.0062 33.0202 36.5103 35.281ZM35.0733 16.91C35.4443 19.8709 35.1106 22.8775 34.0993 25.685C32.4954 22.6669 30.1863 20.0809 27.3683 18.147C28.0244 16.4063 28.4458 14.586 28.6213 12.734C31.1047 13.5282 33.3317 14.9696 35.0733 16.91Z" fill="#129590"/>
</svg>
