<svg width="368" height="389" viewBox="0 0 368 389" fill="none" xmlns="http://www.w3.org/2000/svg">
<path d="M367.259 293.311L315.508 385.382C314.967 386.217 314.225 386.904 313.35 387.379C312.475 387.854 311.496 388.103 310.5 388.103C309.504 388.103 308.525 387.854 307.65 387.379C306.775 386.904 306.033 386.217 305.492 385.382L253.741 293.311C253.247 292.435 252.992 291.446 253 290.442C253.008 289.437 253.279 288.452 253.786 287.585C254.293 286.717 255.019 285.998 255.891 285.498C256.763 284.999 257.75 284.736 258.755 284.737H281.755V117.846C281.755 113.271 283.573 108.883 286.808 105.648C290.043 102.413 294.43 100.596 299.005 100.596H322.006C326.581 100.596 330.969 102.413 334.204 105.648C337.439 108.883 339.256 113.271 339.256 117.846V284.737H362.257C363.26 284.738 364.246 285.002 365.116 285.503C365.987 286.003 366.711 286.723 367.216 287.589C367.722 288.456 367.992 289.441 368 290.444C368.007 291.448 367.752 292.436 367.259 293.311Z" fill="#F82530"/>
<path d="M183.255 103.317C182.712 102.482 181.97 101.795 181.095 101.32C180.219 100.845 179.239 100.596 178.243 100.596C177.247 100.596 176.267 100.845 175.392 101.32C174.517 101.795 173.774 102.482 173.232 103.317L121.481 195.388C120.988 196.264 120.732 197.254 120.74 198.259C120.749 199.264 121.02 200.249 121.528 201.117C122.036 201.984 122.763 202.703 123.635 203.203C124.508 203.702 125.496 203.963 126.501 203.962H149.501V370.853C149.501 375.428 151.319 379.816 154.554 383.051C157.789 386.286 162.177 388.103 166.752 388.103H189.752C194.327 388.103 198.715 386.286 201.95 383.051C205.185 379.816 207.003 375.428 207.003 370.853V203.962H230.003C231.007 203.961 231.994 203.698 232.865 203.198C233.736 202.698 234.461 201.979 234.967 201.112C235.474 200.245 235.744 199.26 235.752 198.256C235.76 197.252 235.504 196.263 235.011 195.388L183.255 103.317Z" fill="#F82530"/>
<path d="M257.364 139.77C257.471 113.853 249.704 88.5143 235.091 67.1094C220.477 45.7045 199.708 29.2428 175.531 19.904C174.149 19.3633 172.608 19.394 171.248 19.9892C169.888 20.5845 168.82 21.6956 168.28 23.0781C167.739 24.4606 167.77 26.0013 168.365 27.3612C168.96 28.7211 170.071 29.7889 171.454 30.3296C195.796 39.8294 216.274 57.1778 229.646 79.6279C243.017 102.078 248.517 128.347 245.276 154.276C242.035 180.204 230.237 204.311 211.751 222.779C193.265 241.247 169.146 253.02 143.214 256.235L143.863 255.587C144.882 254.532 145.446 253.119 145.433 251.652C145.42 250.186 144.832 248.783 143.795 247.746C142.758 246.709 141.355 246.121 139.889 246.108C138.422 246.095 137.009 246.659 135.954 247.678L124.768 258.864C124.247 259.384 123.834 260.001 123.552 260.68C123.27 261.36 123.125 262.088 123.125 262.824C123.125 263.56 123.27 264.288 123.552 264.968C123.834 265.647 124.247 266.264 124.768 266.784L135.954 277.97C137.009 278.989 138.422 279.553 139.889 279.54C141.355 279.527 142.758 278.939 143.795 277.902C144.832 276.865 145.42 275.462 145.433 273.996C145.446 272.529 144.882 271.116 143.863 270.062L141.581 267.78C173.3 264.554 202.696 249.68 224.083 226.035C245.47 202.389 257.328 171.653 257.364 139.77V139.77Z" fill="white"/>
<path d="M86.0058 249.216C61.6609 239.719 41.1798 222.373 27.8054 199.923C14.4311 177.473 8.92794 151.203 12.1674 125.273C15.4068 99.343 27.2036 75.2345 45.69 56.765C64.1763 38.2955 88.2956 26.5207 114.229 23.3049L113.58 23.9537C112.561 25.0086 111.997 26.4214 112.01 27.8879C112.023 29.3544 112.611 30.7572 113.648 31.7942C114.685 32.8312 116.088 33.4194 117.554 33.4322C119.021 33.4449 120.434 32.8812 121.489 31.8623L132.675 20.6761C133.196 20.1566 133.609 19.5394 133.891 18.8599C134.173 18.1804 134.318 17.4519 134.318 16.7162C134.318 15.9805 134.173 15.2521 133.891 14.5725C133.609 13.893 133.196 13.2758 132.675 12.7563L121.489 1.57005C120.434 0.551222 119.021 -0.012532 117.554 0.000211434C116.088 0.0129549 114.685 0.601177 113.648 1.63819C112.611 2.67519 112.023 4.07802 112.01 5.54451C111.997 7.01101 112.561 8.42384 113.58 9.47871L115.862 11.7607C87.1073 14.6315 60.1568 27.1004 39.3536 47.1577C18.5505 67.215 5.10647 93.6926 1.18823 122.323C-2.73002 150.954 3.10571 180.07 17.755 204.979C32.4042 229.888 55.0137 249.14 81.9396 259.631C83.3221 260.17 84.8622 260.138 86.2211 259.542C87.5799 258.945 88.6463 257.833 89.1855 256.451C89.7247 255.068 89.6926 253.528 89.0963 252.17C88.5 250.811 87.3883 249.744 86.0058 249.205V249.216Z" fill="white"/>
<path d="M61.4894 72.5411C52.384 81.6152 45.2187 92.4461 40.429 104.375C35.6394 116.305 33.3254 129.083 33.6278 141.935C33.9302 154.786 36.8426 167.442 42.1879 179.133C47.5333 190.824 55.2001 201.306 64.7223 209.942C65.2615 210.814 66.0373 211.516 66.9595 211.966C85.0551 227.514 108.345 235.671 132.187 234.812C156.029 233.952 178.672 224.14 195.601 207.33L195.707 207.229C195.786 207.151 195.875 207.089 195.953 207.005C196.121 206.837 196.261 206.653 196.429 206.485L196.518 206.384C213.228 189.441 222.955 166.834 223.768 143.052C224.582 119.269 216.422 96.0506 200.909 78.0056C200.453 77.0825 199.745 76.3071 198.867 75.7683C190.227 66.2571 179.745 58.6001 168.056 53.2619C156.368 47.9237 143.716 45.0155 130.87 44.7137C118.024 44.4119 105.25 46.7228 93.3236 51.5063C81.3972 56.2898 70.5669 63.4461 61.4894 72.5411V72.5411ZM187.452 190.617L172.088 175.259C176.474 170.445 180.457 165.278 183.995 159.81C186.654 169.854 187.819 180.234 187.452 190.617ZM69.9966 88.9345L108.796 127.734C101.264 134.526 92.7977 140.203 83.6549 144.592C74.0296 127.665 69.3007 108.394 69.9966 88.9345V88.9345ZM116.705 135.643L156.321 175.259C149.825 181.129 142.63 186.177 134.899 190.287C116.782 182.605 101.141 170.067 89.7011 154.055C99.5075 149.205 108.587 143.008 116.677 135.643H116.705ZM164.151 183.089L179.594 198.532C169.193 198.9 158.796 197.732 148.736 195.064C154.184 191.5 159.331 187.495 164.123 183.089H164.151ZM164.229 167.35L124.585 127.734C131.952 119.633 138.149 110.542 142.998 100.725C159.009 112.165 171.548 127.806 179.23 145.923C175.12 153.655 170.072 160.852 164.201 167.35H164.229ZM116.688 119.808L77.8717 81.0426C97.335 80.3409 116.61 85.0681 133.54 94.6954C129.147 103.834 123.469 112.297 116.677 119.825L116.688 119.808ZM82.4133 69.8005C100.419 57.8424 122.366 53.3444 143.624 57.2551C142.907 66.4747 140.986 75.5607 137.908 84.2811C120.914 74.8841 101.832 69.905 82.4133 69.8005V69.8005ZM58.7432 93.4649C58.8471 112.886 63.8262 131.969 73.2238 148.965C64.5032 152.041 55.4172 153.961 46.1979 154.676C42.2895 133.418 46.7873 111.472 58.7432 93.4649V93.4649ZM48.9217 165.616C59.2819 164.639 69.4654 162.284 79.2028 158.614C90.0175 174.37 104.475 187.285 121.347 196.261C105.647 201.909 88.8355 203.776 72.2786 201.708C61.4275 191.966 53.3657 179.511 48.9217 165.622V165.616ZM88.823 213.599C104.947 213.147 120.8 209.337 135.369 202.413C148.054 207.147 161.468 209.626 175.007 209.74C162.335 218.121 147.626 222.906 132.449 223.586C117.271 224.266 102.193 220.814 88.823 213.599V213.599ZM198.694 186.087C198.614 172.566 196.174 159.163 191.485 146.482C198.394 131.951 202.203 116.142 202.671 100.059C209.836 113.422 213.249 128.475 212.549 143.622C211.849 158.768 207.061 173.442 198.694 186.087V186.087ZM190.657 83.3358C192.732 99.8964 190.866 116.713 185.209 132.415C176.239 115.535 163.323 101.071 147.562 90.2545C151.232 80.5186 153.589 70.3372 154.57 59.979C168.46 64.421 180.916 72.4831 190.657 83.3358Z" fill="white"/>
</svg>
