<svg width="578" height="486" viewBox="0 0 578 486" fill="none" xmlns="http://www.w3.org/2000/svg">
<path fill-rule="evenodd" clip-rule="evenodd" d="M126.008 11.9114L122.138 0L118.268 11.9114H105.743L115.876 19.2731L112.005 31.1845L122.138 23.8228L132.27 31.1845L128.4 19.2731L138.533 11.9114H126.008ZM126.008 223.081L122.138 211.17L118.268 223.081H105.743L115.876 230.443L112.005 242.355L122.138 234.993L132.27 242.355L128.4 230.443L138.533 223.081H126.008ZM227.185 106.123L231.055 118.035H243.58L233.447 125.397L237.317 137.308L227.185 129.946L217.052 137.308L220.923 125.397L210.79 118.035H223.315L227.185 106.123ZM20.4231 118.035L16.5529 106.123L12.6826 118.035H0.158203L10.2907 125.397L6.4204 137.308L16.5529 129.946L26.6853 137.308L22.8151 125.397L32.9475 118.035H20.4231ZM174.527 197.33L178.397 209.241H190.922L180.789 216.603L184.659 228.514L174.527 221.153L164.394 228.514L168.265 216.603L158.132 209.241H170.657L174.527 197.33ZM216.943 170.693L213.073 158.781L209.203 170.693H196.678L206.811 178.055L202.941 189.966L213.073 182.604L223.206 189.966L219.335 178.055L229.468 170.693H216.943ZM69.2093 14.9176L73.0795 26.829H85.6039L75.4715 34.1907L79.3417 46.1021L69.2093 38.7404L59.0768 46.1021L62.9471 34.1907L52.8146 26.829H65.339L69.2093 14.9176ZM73.0795 209.075L69.2093 197.164L65.339 209.075H52.8146L62.9471 216.437L59.0768 228.348L69.2093 220.987L79.3417 228.348L75.4715 216.437L85.6039 209.075H73.0795ZM30.663 53.4659L34.5332 65.3773H47.0576L36.9252 72.739L40.7954 84.6504L30.663 77.2887L20.5305 84.6504L24.4008 72.739L14.2683 65.3773H26.7927L30.663 53.4659ZM170.655 26.829L174.526 14.9176L178.396 26.829H190.92L180.788 34.1907L184.658 46.1021L174.526 38.7404L164.393 46.1021L168.263 34.1907L158.131 26.829L170.655 26.829ZM213.075 53.4659L209.205 65.3773H196.68L206.813 72.739L202.943 84.6504L213.075 77.2887L223.208 84.6504L219.337 72.739L229.47 65.3773L216.945 65.3773L213.075 53.4659ZM26.7931 170.693L30.6633 158.781L34.5336 170.693L47.058 170.693L36.9255 178.055L40.7958 189.966L30.6633 182.604L20.5309 189.966L24.4011 178.055L14.2687 170.693H26.7931Z" fill="#FFB222"/>
<path d="M82.4317 114.372C82.4317 116.718 81.8932 118.872 80.8162 120.834C79.7391 122.757 78.0851 124.315 75.8542 125.508C73.6232 126.7 70.8537 127.296 67.5458 127.296H61.4298V141.836H51.5636V101.332H67.5458C70.7768 101.332 73.5078 101.89 75.7388 103.006C77.9698 104.121 79.643 105.66 80.7585 107.621C81.8739 109.583 82.4317 111.833 82.4317 114.372ZM66.7957 119.449C68.6805 119.449 70.0844 119.007 71.0076 118.122C71.9308 117.238 72.3923 115.987 72.3923 114.372C72.3923 112.756 71.9308 111.506 71.0076 110.622C70.0844 109.737 68.6805 109.295 66.7957 109.295H61.4298V119.449H66.7957ZM102.584 142.24C99.6221 142.24 96.968 141.759 94.6216 140.797C92.2753 139.836 90.3905 138.413 88.9673 136.528C87.5825 134.643 86.8517 132.374 86.7748 129.719H97.2757C97.4296 131.22 97.9488 132.374 98.8335 133.181C99.7182 133.951 100.872 134.335 102.295 134.335C103.757 134.335 104.911 134.008 105.757 133.354C106.603 132.662 107.027 131.72 107.027 130.527C107.027 129.527 106.68 128.7 105.988 128.046C105.334 127.392 104.507 126.854 103.507 126.431C102.545 126.008 101.161 125.527 99.3528 124.988C96.7372 124.181 94.6024 123.373 92.9484 122.565C91.2944 121.757 89.8712 120.565 88.6788 118.988C87.4864 117.411 86.8902 115.353 86.8902 112.814C86.8902 109.045 88.2557 106.102 90.9867 103.986C93.7177 101.832 97.2757 100.755 101.661 100.755C106.123 100.755 109.719 101.832 112.45 103.986C115.181 106.102 116.643 109.064 116.835 112.872H106.161C106.084 111.564 105.603 110.545 104.719 109.814C103.834 109.045 102.699 108.66 101.315 108.66C100.122 108.66 99.1605 108.987 98.4296 109.641C97.6988 110.256 97.3334 111.16 97.3334 112.353C97.3334 113.66 97.9488 114.68 99.1797 115.411C100.411 116.141 102.334 116.93 104.949 117.776C107.565 118.661 109.681 119.507 111.296 120.315C112.95 121.123 114.373 122.296 115.566 123.834C116.758 125.373 117.354 127.354 117.354 129.777C117.354 132.085 116.758 134.181 115.566 136.066C114.412 137.951 112.719 139.451 110.488 140.567C108.257 141.682 105.623 142.24 102.584 142.24ZM138.961 101.332C143.231 101.332 146.962 102.179 150.154 103.871C153.347 105.563 155.809 107.948 157.54 111.026C159.309 114.064 160.194 117.584 160.194 121.584C160.194 125.546 159.309 129.066 157.54 132.143C155.809 135.22 153.328 137.605 150.097 139.297C146.904 140.99 143.192 141.836 138.961 141.836H123.787V101.332H138.961ZM138.327 133.297C142.058 133.297 144.962 132.277 147.039 130.239C149.116 128.2 150.154 125.315 150.154 121.584C150.154 117.853 149.116 114.949 147.039 112.872C144.962 110.795 142.058 109.756 138.327 109.756H133.653V133.297H138.327ZM164.741 133.931C166.049 132.893 166.645 132.412 166.53 132.489C170.299 129.373 173.261 126.815 175.415 124.815C177.608 122.815 179.454 120.719 180.954 118.526C182.454 116.334 183.204 114.199 183.204 112.122C183.204 110.545 182.839 109.314 182.108 108.429C181.377 107.544 180.281 107.102 178.819 107.102C177.358 107.102 176.204 107.66 175.357 108.775C174.55 109.852 174.146 111.391 174.146 113.391H164.626C164.703 110.122 165.395 107.391 166.703 105.198C168.049 103.006 169.799 101.39 171.953 100.351C174.146 99.3129 176.569 98.7937 179.223 98.7937C183.8 98.7937 187.243 99.9668 189.551 102.313C191.897 104.66 193.071 107.718 193.071 111.487C193.071 115.603 191.667 119.43 188.859 122.969C186.051 126.469 182.473 129.893 178.127 133.239H193.705V141.259H164.741V133.931Z" fill="#223E92"/>
<path d="M409.736 119.711H394.34C393.125 119.711 392.141 120.696 392.141 121.91V129.608C392.141 130.823 393.125 131.808 394.34 131.808H409.736C410.951 131.808 411.936 130.823 411.936 129.608V121.91C411.936 120.696 410.951 119.711 409.736 119.711Z" stroke="#223E92" stroke-width="3.29918" stroke-linecap="round" stroke-linejoin="round"/>
<path d="M396.541 119.712V115.313C396.541 113.855 397.12 112.456 398.152 111.425C399.183 110.394 400.581 109.814 402.04 109.814C403.498 109.814 404.897 110.394 405.928 111.425C406.959 112.456 407.538 113.855 407.538 115.313V119.712" stroke="#223E92" stroke-width="3.29918" stroke-linecap="round" stroke-linejoin="round"/>
<path d="M439.95 115.97C439.516 115.169 438.887 114.563 438.063 114.151C437.263 113.717 436.313 113.5 435.215 113.5C433.317 113.5 431.796 114.129 430.652 115.387C429.508 116.622 428.936 118.28 428.936 120.362C428.936 122.581 429.531 124.319 430.721 125.577C431.933 126.812 433.591 127.43 435.696 127.43C437.137 127.43 438.349 127.064 439.333 126.332C440.339 125.6 441.071 124.548 441.529 123.175H434.083V118.852H446.847V124.308C446.412 125.772 445.669 127.133 444.617 128.391C443.587 129.649 442.272 130.667 440.671 131.444C439.07 132.222 437.263 132.611 435.25 132.611C432.871 132.611 430.744 132.096 428.868 131.067C427.015 130.015 425.562 128.562 424.51 126.709C423.481 124.857 422.966 122.741 422.966 120.362C422.966 117.983 423.481 115.867 424.51 114.014C425.562 112.138 427.015 110.686 428.868 109.657C430.721 108.604 432.837 108.078 435.215 108.078C438.098 108.078 440.522 108.776 442.489 110.171C444.48 111.567 445.795 113.5 446.435 115.97H439.95ZM459.335 108.353C461.874 108.353 464.093 108.856 465.992 109.863C467.89 110.869 469.354 112.287 470.384 114.117C471.436 115.924 471.962 118.017 471.962 120.396C471.962 122.752 471.436 124.845 470.384 126.675C469.354 128.505 467.879 129.923 465.957 130.93C464.059 131.936 461.852 132.439 459.335 132.439H450.311V108.353H459.335ZM458.958 127.361C461.177 127.361 462.904 126.755 464.139 125.543C465.374 124.331 465.992 122.615 465.992 120.396C465.992 118.177 465.374 116.45 464.139 115.215C462.904 113.98 461.177 113.362 458.958 113.362H456.179V127.361H458.958ZM493.812 116.107C493.812 117.503 493.492 118.783 492.851 119.95C492.211 121.094 491.227 122.02 489.9 122.729C488.574 123.438 486.927 123.793 484.96 123.793H481.323V132.439H475.455V108.353H484.96C486.881 108.353 488.505 108.684 489.832 109.348C491.159 110.011 492.154 110.926 492.817 112.093C493.48 113.259 493.812 114.597 493.812 116.107ZM484.514 119.127C485.634 119.127 486.469 118.864 487.018 118.337C487.567 117.811 487.842 117.068 487.842 116.107C487.842 115.146 487.567 114.403 487.018 113.877C486.469 113.351 485.634 113.088 484.514 113.088H481.323V119.127H484.514ZM509.364 132.439L504.355 123.347H502.948V132.439H497.081V108.353H506.928C508.827 108.353 510.44 108.684 511.766 109.348C513.116 110.011 514.122 110.926 514.786 112.093C515.449 113.236 515.781 114.517 515.781 115.936C515.781 117.537 515.323 118.966 514.408 120.225C513.516 121.483 512.189 122.375 510.428 122.901L515.987 132.439H509.364ZM502.948 119.195H506.585C507.66 119.195 508.461 118.932 508.987 118.406C509.536 117.88 509.81 117.137 509.81 116.176C509.81 115.261 509.536 114.54 508.987 114.014C508.461 113.488 507.66 113.225 506.585 113.225H502.948V119.195Z" fill="#223E92"/>
<path fill-rule="evenodd" clip-rule="evenodd" d="M459.43 11.9114L455.56 0L451.69 11.9114H439.165L449.298 19.2731L445.427 31.1845L455.56 23.8228L465.692 31.1845L461.822 19.2731L471.954 11.9114H459.43ZM459.43 223.081L455.56 211.17L451.69 223.081H439.165L449.298 230.443L445.427 242.355L455.56 234.993L465.692 242.355L461.822 230.443L471.954 223.081H459.43ZM560.607 106.123L564.477 118.035H577.001L566.869 125.397L570.739 137.308L560.607 129.946L550.474 137.308L554.345 125.397L544.212 118.035H556.736L560.607 106.123ZM353.845 118.035L349.975 106.123L346.104 118.035H333.58L343.713 125.397L339.842 137.308L349.975 129.946L360.107 137.308L356.237 125.397L366.369 118.035H353.845ZM507.949 197.33L511.819 209.241H524.343L514.211 216.603L518.081 228.514L507.949 221.153L497.816 228.514L501.687 216.603L491.554 209.241H504.078L507.949 197.33ZM550.365 170.693L546.495 158.781L542.625 170.693H530.1L540.233 178.055L536.363 189.966L546.495 182.604L556.627 189.966L552.757 178.055L562.89 170.693H550.365ZM402.631 14.9176L406.501 26.829H419.026L408.893 34.1907L412.764 46.1021L402.631 38.7404L392.499 46.1021L396.369 34.1907L386.236 26.829H398.761L402.631 14.9176ZM406.501 209.075L402.631 197.164L398.761 209.075H386.236L396.369 216.437L392.499 228.348L402.631 220.987L412.764 228.348L408.893 216.437L419.026 209.075H406.501ZM364.085 53.4659L367.955 65.3773H380.48L370.347 72.739L374.217 84.6504L364.085 77.2887L353.952 84.6504L357.823 72.739L347.69 65.3773H360.215L364.085 53.4659ZM504.077 26.829L507.947 14.9176L511.818 26.829H524.342L514.21 34.1907L518.08 46.1021L507.947 38.7404L497.815 46.1021L501.685 34.1907L491.553 26.829L504.077 26.829ZM546.497 53.4659L542.627 65.3773H530.102L540.235 72.739L536.365 84.6504L546.497 77.2887L556.629 84.6504L552.759 72.739L562.892 65.3773L550.367 65.3773L546.497 53.4659ZM360.215 170.693L364.085 158.781L367.955 170.693L380.48 170.693L370.347 178.055L374.218 189.966L364.085 182.604L353.953 189.966L357.823 178.055L347.691 170.693H360.215Z" fill="#FFB222"/>
<path d="M32.0801 300.84L274.693 286.355L279.551 297.191C276.189 294.063 271.681 292.149 266.727 292.149C256.328 292.149 247.897 300.58 247.897 310.979C247.897 321.378 256.328 329.809 266.727 329.809C277.126 329.809 285.557 321.378 285.557 310.979C285.557 310.846 285.555 310.712 285.553 310.58L313.632 373.219L282.268 404.583V334.935H252.083V426.32L239.313 413.549C243.329 407.924 246.001 401.389 247.331 393.945H219.708L219.632 393.869L219.557 393.945H215.514C214.064 397.117 211.979 399.61 209.26 401.423C206.631 403.145 203.595 404.006 200.15 404.006C195.074 404.006 191.04 402.103 188.049 398.295C185.148 394.488 183.698 389.367 183.698 382.931C183.698 376.495 185.148 371.374 188.049 367.567C191.04 363.76 195.074 361.856 200.15 361.856C203.595 361.856 206.631 362.763 209.26 364.575C211.979 366.298 214.064 368.745 215.514 371.918H247.331C245.971 364.304 243.206 357.641 239.037 351.931C234.958 346.22 229.61 341.824 222.993 338.742C216.466 335.569 209.033 333.983 200.694 333.983C190.995 333.983 182.565 336.068 175.404 340.237C168.243 344.316 162.714 350.072 158.816 357.505C155.009 364.938 153.105 373.413 153.105 382.931C153.105 392.449 155.009 400.924 158.816 408.357C162.714 415.79 168.243 421.591 175.404 425.761C182.565 429.84 190.995 431.879 200.694 431.879C205.785 431.879 210.537 431.305 214.953 430.157L229.24 444.445L98.7082 485.516L79.1119 431.2H103.825V400.607H115.791C123.586 400.607 130.203 399.157 135.642 396.256C141.171 393.355 145.341 389.458 148.151 384.563C150.961 379.577 152.366 374.048 152.366 367.975C152.366 357.913 149.193 349.891 142.848 343.908C136.594 337.926 127.574 334.935 115.791 334.935H73.6406V416.035L32.0801 300.84Z" fill="#129590"/>
<path d="M308.227 419.592L331.183 412.37L326.313 401.506L308.227 419.592Z" fill="#129590"/>
<path d="M112.391 376.813C118.646 376.813 121.773 373.867 121.773 367.975C121.773 362.083 118.646 359.137 112.391 359.137H103.825V376.813H112.391Z" fill="#129590"/>
<path fill-rule="evenodd" clip-rule="evenodd" d="M256.307 438.738L219.632 402.063L207.342 414.354L256.307 463.319L348.093 371.533L335.803 359.243L256.307 438.738Z" fill="#09F04A"/>
<path d="M478.397 401.131C471.908 401.131 466.542 399.642 462.301 396.665C458.111 393.637 455.837 389.222 455.48 383.419H473.568C473.824 386.497 475.203 388.036 477.707 388.036C478.627 388.036 479.393 387.834 480.007 387.431C480.671 386.977 481.003 386.295 481.003 385.387C481.003 384.126 480.313 383.116 478.933 382.359C477.554 381.552 475.408 380.644 472.495 379.635C469.021 378.424 466.134 377.238 463.834 376.077C461.586 374.917 459.644 373.226 458.009 371.006C456.374 368.786 455.582 365.935 455.633 362.453C455.633 358.971 456.527 356.019 458.316 353.597C460.155 351.124 462.633 349.257 465.75 347.996C468.918 346.734 472.47 346.104 476.404 346.104C483.047 346.104 488.31 347.617 492.193 350.645C496.128 353.673 498.197 357.937 498.402 363.437H480.083C480.032 361.923 479.649 360.838 478.933 360.182C478.218 359.526 477.349 359.198 476.327 359.198C475.612 359.198 475.025 359.45 474.565 359.955C474.105 360.409 473.875 361.065 473.875 361.923C473.875 363.134 474.539 364.143 475.868 364.951C477.247 365.707 479.419 366.641 482.383 367.751C485.806 369.013 488.616 370.224 490.814 371.384C493.062 372.545 495.004 374.16 496.639 376.228C498.274 378.297 499.091 380.896 499.091 384.025C499.091 387.305 498.274 390.257 496.639 392.88C495.004 395.454 492.628 397.472 489.511 398.936C486.394 400.399 482.689 401.131 478.397 401.131Z" fill="#129590"/>
<path fill-rule="evenodd" clip-rule="evenodd" d="M426.263 347.012C431.935 347.012 436.892 348.147 441.133 350.418C445.425 352.689 448.721 355.842 451.02 359.879C453.319 363.916 454.469 368.508 454.469 373.655C454.469 378.752 453.319 383.343 451.02 387.431C448.721 391.518 445.425 394.748 441.133 397.119C436.892 399.44 431.935 400.601 426.263 400.601H403.653V347.012H426.263ZM424.73 385.614C428.563 385.614 431.603 384.58 433.851 382.511C436.1 380.442 437.224 377.49 437.224 373.655C437.224 369.82 436.1 366.868 433.851 364.799C431.603 362.73 428.563 361.696 424.73 361.696H420.668V385.614H424.73Z" fill="#129590"/>
<path d="M506.758 396.665C510.999 399.642 516.364 401.131 522.853 401.131C527.146 401.131 530.85 400.399 533.967 398.936C537.084 397.472 539.46 395.454 541.095 392.88C542.73 390.257 543.548 387.305 543.548 384.025C543.548 380.896 542.73 378.297 541.095 376.228C539.46 374.16 537.518 372.545 535.27 371.384C533.073 370.224 530.263 369.013 526.839 367.751C523.875 366.641 521.704 365.707 520.324 364.951C518.996 364.143 518.331 363.134 518.331 361.923C518.331 361.065 518.561 360.409 519.021 359.955C519.481 359.45 520.069 359.198 520.784 359.198C521.806 359.198 522.675 359.526 523.39 360.182C524.105 360.838 524.489 361.923 524.54 363.437H542.858C542.654 357.937 540.584 353.673 536.65 350.645C532.766 347.617 527.503 346.104 520.861 346.104C516.926 346.104 513.375 346.734 510.207 347.996C507.09 349.257 504.612 351.124 502.772 353.597C500.984 356.019 500.09 358.971 500.09 362.453C500.038 365.935 500.83 368.786 502.466 371.006C504.101 373.226 506.042 374.917 508.291 376.077C510.59 377.238 513.477 378.424 516.952 379.635C519.864 380.644 522.01 381.552 523.39 382.359C524.77 383.116 525.459 384.126 525.459 385.387C525.459 386.295 525.127 386.977 524.463 387.431C523.85 387.834 523.083 388.036 522.164 388.036C519.66 388.036 518.28 386.497 518.025 383.419H499.936C500.294 389.222 502.568 393.637 506.758 396.665Z" fill="#129590"/>
<path fill-rule="evenodd" clip-rule="evenodd" d="M430.881 425.768C429.27 425.768 427.791 425.394 426.443 424.648C425.096 423.901 424.027 422.871 423.238 421.556C422.45 420.225 422.055 418.724 422.055 417.052C422.055 415.397 422.45 413.912 423.238 412.597C424.027 411.266 425.096 410.227 426.443 409.481C427.791 408.734 429.27 408.361 430.881 408.361C432.508 408.361 433.987 408.734 435.318 409.481C436.666 410.227 437.726 411.266 438.498 412.597C439.287 413.912 439.681 415.397 439.681 417.052C439.681 418.724 439.287 420.225 438.498 421.556C437.726 422.871 436.666 423.901 435.318 424.648C433.97 425.394 432.491 425.768 430.881 425.768ZM430.881 422.725C431.916 422.725 432.828 422.497 433.617 422.043C434.406 421.572 435.022 420.907 435.466 420.047C435.91 419.186 436.131 418.188 436.131 417.052C436.131 415.916 435.91 414.926 435.466 414.082C435.022 413.222 434.406 412.565 433.617 412.11C432.828 411.656 431.916 411.429 430.881 411.429C429.845 411.429 428.925 411.656 428.12 412.11C427.331 412.565 426.714 413.222 426.271 414.082C425.827 414.926 425.605 415.916 425.605 417.052C425.605 418.188 425.827 419.186 426.271 420.047C426.714 420.907 427.331 421.572 428.12 422.043C428.925 422.497 429.845 422.725 430.881 422.725Z" fill="#129590"/>
<path d="M403.133 417.077C403.133 415.405 403.511 413.912 404.267 412.597C405.039 411.266 406.083 410.236 407.398 409.505C408.729 408.759 410.216 408.385 411.86 408.385C413.782 408.385 415.467 408.872 416.913 409.846C418.36 410.82 419.37 412.167 419.945 413.887H415.977C415.582 413.076 415.023 412.467 414.3 412.061C413.593 411.656 412.772 411.453 411.835 411.453C410.832 411.453 409.937 411.688 409.148 412.159C408.375 412.613 407.767 413.262 407.324 414.106C406.896 414.95 406.683 415.94 406.683 417.077C406.683 418.196 406.896 419.186 407.324 420.047C407.767 420.891 408.375 421.548 409.148 422.019C409.937 422.473 410.832 422.7 411.835 422.7C412.772 422.7 413.593 422.497 414.3 422.092C415.023 421.67 415.582 421.053 415.977 420.241H419.945C419.37 421.978 418.36 423.333 416.913 424.307C415.483 425.264 413.799 425.743 411.86 425.743C410.216 425.743 408.729 425.378 407.398 424.648C406.083 423.901 405.039 422.871 404.267 421.556C403.511 420.241 403.133 418.748 403.133 417.077Z" fill="#129590"/>
<path d="M461.009 425.597V408.605H457.114L451.641 421.239L446.169 408.605H442.249V425.597H445.7V414.545L450.335 425.597H452.948L457.558 414.545V425.597H461.009Z" fill="#129590"/>
<path fill-rule="evenodd" clip-rule="evenodd" d="M476.969 413.863C476.969 414.772 476.747 415.624 476.304 416.419C475.876 417.214 475.194 417.856 474.258 418.342C473.337 418.829 472.17 419.073 470.757 419.073H467.873V425.597H464.421V408.605H470.757C472.088 408.605 473.222 408.832 474.159 409.286C475.096 409.741 475.794 410.365 476.254 411.161C476.731 411.956 476.969 412.857 476.969 413.863ZM470.609 416.322C471.562 416.322 472.269 416.111 472.729 415.689C473.189 415.251 473.419 414.642 473.419 413.863C473.419 412.208 472.483 411.38 470.609 411.38H467.873V416.322H470.609Z" fill="#129590"/>
<path d="M482.871 425.597V408.605H479.42V425.597H482.871Z" fill="#129590"/>
<path d="M489.732 422.895H495.402V425.597H486.281V408.605H489.732V422.895Z" fill="#129590"/>
<path fill-rule="evenodd" clip-rule="evenodd" d="M500.16 425.597L501.294 422.359H508.147L509.281 425.597H512.929L506.742 408.58H502.723L496.536 425.597H500.16ZM504.72 412.524L507.21 419.633H502.23L504.72 412.524Z" fill="#129590"/>
<path d="M529.959 425.597H526.508L518.693 413.936V425.597H515.242V408.58H518.693L526.508 420.266V408.58H529.959V425.597Z" fill="#129590"/>
<path d="M545.08 411.355V408.605H532.458V411.355H537.043V425.597H540.494V411.355H545.08Z" fill="#129590"/>
</svg>
