<svg width="65" height="64" viewBox="0 0 65 64" fill="none" xmlns="http://www.w3.org/2000/svg">
<path d="M62.338 22.9833L49.514 12.6833C49.0598 12.3194 48.5119 12.0914 47.9336 12.0256C47.3553 11.9599 46.7702 12.059 46.2458 12.3117C45.7215 12.5643 45.2793 12.9601 44.9704 13.4534C44.6615 13.9467 44.4984 14.5173 44.5 15.0993V58.9043C44.4995 59.7236 44.824 60.5096 45.4024 61.0899C45.9808 61.6701 46.7657 61.9972 47.585 61.9993H51.756C52.575 61.9975 53.3598 61.6708 53.9382 61.0909C54.5166 60.511 54.8413 59.7254 54.841 58.9063V29.5853C54.8402 29.2963 54.9541 29.0188 55.1577 28.8137C55.3613 28.6086 55.638 28.4927 55.927 28.4913H60.409C61.0477 28.4866 61.6693 28.2846 62.1888 27.9132C62.7083 27.5417 63.1005 27.0189 63.3116 26.4161C63.5227 25.8133 63.5425 25.16 63.3682 24.5456C63.1939 23.9312 62.8341 23.3855 62.338 22.9833V22.9833Z" fill="#F82530"/>
<path d="M38.4137 12H34.2427C33.4236 12.0021 32.6388 12.3291 32.0605 12.9091C31.4821 13.4891 31.1575 14.2749 31.1577 15.094V44.41C31.1575 44.6983 31.0431 44.9748 30.8396 45.179C30.6361 45.3833 30.3601 45.4987 30.0717 45.5H25.5897C24.9508 45.5045 24.329 45.7064 23.8092 46.0779C23.2894 46.4494 22.897 46.9724 22.6859 47.5754C22.4748 48.1784 22.4551 48.832 22.6296 49.4466C22.8041 50.0612 23.1642 50.6069 23.6607 51.009L36.4847 61.309C36.9385 61.6729 37.4858 61.901 38.0637 61.9672C38.6415 62.0334 39.2263 61.9349 39.7505 61.6831C40.2748 61.4313 40.7172 61.0363 41.0267 60.5439C41.3362 60.0515 41.5002 59.4816 41.4997 58.9V15.092C41.4992 14.2732 41.1741 13.4879 40.5957 12.9083C40.0172 12.3288 39.2326 12.0021 38.4137 12V12Z" fill="#F82530"/>
<path d="M47.5008 26.9997C47.5199 22.366 46.1312 17.8357 43.5185 14.0086C40.9058 10.1816 37.1923 7.23844 32.8698 5.56874C32.6226 5.47207 32.3471 5.47755 32.104 5.58398C31.8609 5.69041 31.67 5.88906 31.5733 6.13624C31.4766 6.38342 31.4821 6.65888 31.5885 6.90203C31.6949 7.14517 31.8936 7.33607 32.1408 7.43274C36.493 9.13123 40.1543 12.233 42.545 16.2469C44.9356 20.2608 45.9191 24.9574 45.3396 29.5933C44.7601 34.2291 42.6507 38.5391 39.3455 41.841C36.0404 45.1429 31.7282 47.2479 27.0918 47.8227L27.2078 47.7067C27.3899 47.5181 27.4907 47.2655 27.4885 47.0033C27.4862 46.7411 27.381 46.4903 27.1956 46.3049C27.0102 46.1195 26.7594 46.0143 26.4972 46.0121C26.235 46.0098 25.9824 46.1106 25.7938 46.2927L23.7938 48.2927C23.7007 48.3856 23.6268 48.496 23.5764 48.6175C23.5259 48.739 23.5 48.8692 23.5 49.0007C23.5 49.1323 23.5259 49.2625 23.5764 49.384C23.6268 49.5055 23.7007 49.6158 23.7938 49.7087L25.7938 51.7087C25.9824 51.8909 26.235 51.9917 26.4972 51.9894C26.7594 51.9871 27.0102 51.882 27.1956 51.6966C27.381 51.5112 27.4862 51.2603 27.4885 50.9981C27.4907 50.7359 27.3899 50.4833 27.2078 50.2947L26.7998 49.8867C32.4709 49.3101 37.7266 46.6507 41.5504 42.4231C45.3742 38.1955 47.4944 32.7001 47.5008 26.9997V26.9997Z" fill="#129590"/>
<path d="M16.8634 46.5675C12.5108 44.8695 8.84891 41.7681 6.4577 37.7542C4.06648 33.7404 3.08257 29.0436 3.66175 24.4075C4.24093 19.7714 6.3501 15.461 9.6553 12.1589C12.9605 8.85667 17.2728 6.75143 21.9094 6.17648L21.7934 6.29248C21.6113 6.48108 21.5105 6.73368 21.5127 6.99588C21.515 7.25808 21.6202 7.50889 21.8056 7.6943C21.991 7.8797 22.2418 7.98487 22.504 7.98715C22.7662 7.98943 23.0188 7.88864 23.2074 7.70648L25.2074 5.70648C25.3005 5.61359 25.3744 5.50324 25.4248 5.38175C25.4753 5.26025 25.5012 5.13001 25.5012 4.99848C25.5012 4.86694 25.4753 4.7367 25.4248 4.61521C25.3744 4.49372 25.3005 4.38337 25.2074 4.29048L23.2074 2.29048C23.0188 2.10832 22.7662 2.00753 22.504 2.0098C22.2418 2.01208 21.991 2.11725 21.8056 2.30266C21.6202 2.48807 21.515 2.73888 21.5127 3.00108C21.5105 3.26327 21.6113 3.51588 21.7934 3.70448L22.2014 4.11248C17.0603 4.62576 12.2418 6.85508 8.52241 10.4412C4.80299 14.0272 2.39932 18.7612 1.69877 23.8801C0.998224 28.999 2.0416 34.2047 4.66076 38.6583C7.27992 43.1118 11.3223 46.5538 16.1364 48.4295C16.3836 48.5259 16.659 48.5202 16.9019 48.4135C17.1449 48.3069 17.3355 48.1082 17.4319 47.861C17.5283 47.6138 17.5226 47.3384 17.416 47.0955C17.3094 46.8525 17.1106 46.6619 16.8634 46.5655V46.5675Z" fill="#129590"/>
<path d="M12.4803 14.98C10.8523 16.6024 9.57118 18.5388 8.71483 20.6717C7.85848 22.8046 7.44477 25.0893 7.49883 27.387C7.55289 29.6847 8.0736 31.9474 9.02931 34.0377C9.98502 36.1279 11.3558 38.002 13.0583 39.546C13.1547 39.702 13.2934 39.8276 13.4583 39.908C16.6936 42.6878 20.8577 44.1462 25.1204 43.9926C29.3832 43.8389 33.4314 42.0845 36.4583 39.079L36.4773 39.061C36.4913 39.047 36.5073 39.036 36.5213 39.021C36.5513 38.991 36.5763 38.958 36.6063 38.928L36.6222 38.91C39.6097 35.8807 41.3489 31.8388 41.4943 27.5867C41.6397 23.3346 40.1808 19.1833 37.4072 15.957C37.3257 15.792 37.1991 15.6533 37.0423 15.557C35.4974 13.8565 33.6233 12.4875 31.5335 11.533C29.4436 10.5786 27.1817 10.0586 24.8849 10.0047C22.5881 9.95072 20.3043 10.3639 18.1719 11.2191C16.0396 12.0744 14.1032 13.3539 12.4803 14.98V14.98ZM35.0013 36.091L32.2543 33.345C33.0385 32.4843 33.7505 31.5605 34.3833 30.583C34.8586 32.3787 35.0668 34.2346 35.0013 36.091ZM14.0013 17.911L20.9383 24.848C19.5916 26.0623 18.0779 27.0773 16.4433 27.862C14.7223 24.8356 13.8768 21.3902 14.0013 17.911V17.911ZM22.3523 26.262L29.4353 33.345C28.2738 34.3946 26.9874 35.297 25.6053 36.032C22.3661 34.6585 19.5695 32.4167 17.5243 29.554C19.2775 28.6869 20.9009 27.5788 22.3473 26.262H22.3523ZM30.8353 34.745L33.5963 37.506C31.7368 37.5719 29.8777 37.3629 28.0793 36.886C29.0533 36.2488 29.9734 35.5327 30.8303 34.745H30.8353ZM30.8493 31.931L23.7613 24.848C25.0783 23.3996 26.1864 21.7742 27.0533 20.019C29.9159 22.0643 32.1577 24.8609 33.5312 28.1C32.7964 29.4825 31.8939 30.7692 30.8443 31.931H30.8493ZM22.3493 23.431L15.4093 16.5C18.8891 16.3745 22.3353 17.2197 25.3623 18.941C24.5769 20.5749 23.5616 22.0879 22.3473 23.434L22.3493 23.431ZM16.2213 14.49C19.4406 12.352 23.3644 11.5478 27.1653 12.247C27.0371 13.8954 26.6935 15.5199 26.1433 17.079C23.1048 15.3989 19.6932 14.5087 16.2213 14.49V14.49ZM11.9893 18.721C12.0078 22.1932 12.898 25.6053 14.5783 28.644C13.0191 29.1939 11.3946 29.5371 9.74625 29.665C9.04747 25.8642 9.85164 21.9405 11.9893 18.721V18.721ZM10.2333 31.621C12.0856 31.4462 13.9063 31.0252 15.6473 30.369C17.5808 33.1862 20.1656 35.4952 23.1823 37.1C20.3752 38.1099 17.3695 38.4436 14.4093 38.074C12.4692 36.3322 11.0278 34.1052 10.2333 31.622V31.621ZM17.3673 40.2C20.2501 40.1191 23.0845 39.438 25.6893 38.2C27.9572 39.0463 30.3556 39.4897 32.7763 39.51C30.5106 41.0084 27.8808 41.864 25.1672 41.9855C22.4535 42.107 19.7578 41.4899 17.3673 40.2V40.2ZM37.0112 35.281C36.997 32.8636 36.5607 30.4673 35.7223 28.2C36.9576 25.602 37.6387 22.7754 37.7223 19.9C39.0033 22.2891 39.6136 24.9805 39.4884 27.6886C39.3632 30.3966 38.5072 33.0202 37.0112 35.281V35.281ZM35.5743 16.91C35.9453 19.8709 35.6116 22.8775 34.6003 25.685C32.9964 22.6669 30.6873 20.0809 27.8693 18.147C28.5254 16.4063 28.9468 14.586 29.1223 12.734C31.6057 13.5282 33.8327 14.9696 35.5743 16.91Z" fill="#129590"/>
</svg>
