<svg width="369" height="369" viewBox="0 0 369 369" fill="none" xmlns="http://www.w3.org/2000/svg">
<path d="M117.667 159.088H304.352L312.113 128.221C313.007 124.712 315.035 121.604 317.874 119.391C320.714 117.177 324.203 115.984 327.789 116H362.671C364.085 116 365.44 116.568 366.44 117.578C367.44 118.588 368.001 119.958 368.001 121.386C368.001 122.815 367.44 124.185 366.44 125.195C365.44 126.205 364.085 126.772 362.671 126.772H327.789C326.577 126.763 325.396 127.16 324.431 127.902C323.467 128.643 322.773 129.688 322.459 130.871L283.206 286.908C282.311 290.415 280.284 293.521 277.446 295.733C274.607 297.946 271.12 299.139 267.535 299.124H153.786C150.411 299.138 147.116 298.083 144.366 296.106C141.616 294.129 139.549 291.33 138.456 288.104L102.337 180.384C101.534 177.941 101.318 175.339 101.709 172.794C102.1 170.25 103.086 167.837 104.585 165.754C106.084 163.672 108.052 161.981 110.328 160.822C112.603 159.662 115.119 159.068 117.667 159.088Z" fill="#F82530"/>
<path d="M255.93 368.313C270.574 368.313 282.445 356.441 282.445 341.797C282.445 327.153 270.574 315.281 255.93 315.281C241.285 315.281 229.414 327.153 229.414 341.797C229.414 356.441 241.285 368.313 255.93 368.313Z" fill="#F82530"/>
<path d="M170.648 368.313C185.293 368.313 197.164 356.441 197.164 341.797C197.164 327.153 185.293 315.281 170.648 315.281C156.004 315.281 144.133 327.153 144.133 341.797C144.133 356.441 156.004 368.313 170.648 368.313Z" fill="#F82530"/>
<path d="M270.25 69.719H218.207C216.786 50.9427 208.325 33.396 194.517 20.5932C180.709 7.79038 162.574 0.676636 143.744 0.676636C124.914 0.676636 106.779 7.79038 92.9714 20.5932C79.1635 33.396 70.7021 50.9427 69.2817 69.719H17.25C12.675 69.719 8.28741 71.5364 5.05241 74.7714C1.81741 78.0064 0 82.3941 0 86.969V213.469C0 218.044 1.81741 222.432 5.05241 225.667C8.28741 228.902 12.675 230.719 17.25 230.719H119.14L110.515 265.219H97.75C96.225 265.219 94.7625 265.825 93.6841 266.903C92.6058 267.982 92 269.444 92 270.969C92 272.494 92.6058 273.957 93.6841 275.035C94.7625 276.113 96.225 276.719 97.75 276.719H189.75C191.275 276.719 192.738 276.113 193.816 275.035C194.894 273.957 195.5 272.494 195.5 270.969C195.5 269.444 194.894 267.982 193.816 266.903C192.738 265.825 191.275 265.219 189.75 265.219H176.985L168.36 230.719H270.25C274.825 230.719 279.213 228.902 282.448 225.667C285.683 222.432 287.5 218.044 287.5 213.469V86.969C287.5 82.3941 285.683 78.0064 282.448 74.7714C279.213 71.5364 274.825 69.719 270.25 69.719ZM143.75 12.219C156.26 12.219 168.488 15.9286 178.89 22.8786C189.291 29.8286 197.398 39.7069 202.185 51.2643C206.973 62.8217 208.225 75.5392 205.785 87.8085C203.344 100.078 197.32 111.348 188.475 120.194C179.629 129.039 168.359 135.063 156.089 137.504C143.82 139.944 131.103 138.692 119.545 133.904C107.988 129.117 98.1095 121.01 91.1595 110.609C84.2095 100.207 80.5 87.9787 80.5 75.469C80.5198 58.7002 87.19 42.6238 99.0473 30.7664C110.905 18.909 126.981 12.2388 143.75 12.219ZM17.25 81.219H69.2933C70.7136 99.9954 79.175 117.542 92.9829 130.345C106.791 143.148 124.926 150.261 143.756 150.261C162.586 150.261 180.721 143.148 194.529 130.345C208.336 117.542 216.798 99.9954 218.218 81.219H270.25C271.775 81.219 273.238 81.8248 274.316 82.9032C275.394 83.9815 276 85.444 276 86.969V184.719H11.5V86.969C11.5 85.444 12.1058 83.9815 13.1841 82.9032C14.2625 81.8248 15.725 81.219 17.25 81.219ZM165.134 265.219H122.366L130.991 230.719H156.509L165.134 265.219ZM270.25 219.219H17.25C15.725 219.219 14.2625 218.613 13.1841 217.535C12.1058 216.457 11.5 214.994 11.5 213.469V196.219H276V213.469C276 214.994 275.394 216.457 274.316 217.535C273.238 218.613 271.775 219.219 270.25 219.219Z" fill="white"/>
<path d="M123.092 108.773C127.419 111.909 132.492 113.855 137.806 114.42V121.469C137.806 122.994 138.412 124.457 139.49 125.535C140.569 126.613 142.031 127.219 143.556 127.219C145.081 127.219 146.544 126.613 147.622 125.535C148.7 124.457 149.306 122.994 149.306 121.469V114.201C154.34 113.217 158.956 110.727 162.541 107.06C166.127 103.392 168.514 98.7222 169.385 93.6678C170.41 88.3381 169.43 82.8177 166.634 78.1663C163.837 73.5149 159.422 70.0603 154.234 68.4655C152.618 67.8905 150.956 67.2868 149.306 66.6543V45.0802C151.424 45.5473 153.413 46.476 155.131 47.8C156.266 48.7706 157.734 49.2616 159.224 49.1691C160.714 49.0767 162.11 48.4081 163.117 47.3047C164.123 46.2014 164.66 44.7499 164.616 43.2573C164.571 41.7647 163.947 40.3481 162.876 39.3072C158.982 36.1376 154.284 34.1129 149.306 33.4595V29.469C149.306 27.944 148.7 26.4815 147.622 25.4031C146.544 24.3248 145.081 23.719 143.556 23.719C142.031 23.719 140.569 24.3248 139.49 25.4031C138.412 26.4815 137.806 27.944 137.806 29.469V34.3047C137.616 34.3565 137.45 34.3565 137.231 34.414C133.565 35.5671 130.288 37.7073 127.758 40.6001C125.229 43.4928 123.545 47.0263 122.891 50.813C122.139 54.1207 122.31 57.5712 123.385 60.7884C124.46 64.0056 126.397 66.866 128.986 69.0578C131.71 71.1224 134.659 72.872 137.777 74.273V102.828C134.727 102.254 131.847 100.996 129.354 99.1475C128.722 98.721 128.011 98.4244 127.264 98.275C126.516 98.1255 125.747 98.1262 124.999 98.277C124.252 98.4278 123.542 98.7256 122.911 99.1532C122.28 99.5808 121.74 100.13 121.323 100.768C120.906 101.406 120.62 102.121 120.482 102.87C120.344 103.62 120.356 104.39 120.518 105.135C120.68 105.879 120.988 106.585 121.425 107.209C121.862 107.834 122.419 108.366 123.063 108.773H123.092ZM136.11 60.0072C135.2 59.1014 134.547 57.971 134.216 56.7308C133.884 55.4907 133.887 54.1849 134.224 52.9463C134.666 50.5731 135.935 48.4337 137.806 46.9087V61.094C137.243 60.7375 136.593 60.3867 136.11 60.0072ZM150.404 79.3043C153.013 80.0358 155.249 81.7249 156.666 84.034C158.083 86.3431 158.576 89.1019 158.046 91.7588C157.646 94.1323 156.628 96.3585 155.094 98.213C153.559 100.067 151.563 101.485 149.306 102.322V78.919C149.68 79.0398 150.019 79.172 150.404 79.3043Z" fill="white"/>
</svg>
