<svg width="368" height="368" viewBox="0 0 368 368" fill="none" xmlns="http://www.w3.org/2000/svg">
<path d="M356.498 271.889L328.858 255.932C330.453 246.377 330.453 236.623 328.858 227.068L356.498 211.111C357.819 210.349 358.782 209.093 359.177 207.62C359.572 206.147 359.365 204.577 358.603 203.257L333.044 158.982C332.281 157.661 331.026 156.698 329.553 156.303C328.08 155.908 326.51 156.115 325.189 156.877L297.486 172.868C290.026 166.71 281.6 161.825 272.548 158.412V126.5C272.548 124.975 271.942 123.512 270.864 122.434C269.786 121.356 268.323 120.75 266.798 120.75H215.698C214.173 120.75 212.71 121.356 211.632 122.434C210.554 123.512 209.948 124.975 209.948 126.5V158.412C200.898 161.829 192.474 166.718 185.016 172.88L157.307 156.889C155.986 156.126 154.417 155.92 152.944 156.314C151.471 156.709 150.215 157.673 149.452 158.993L123.899 203.268C123.137 204.589 122.93 206.158 123.325 207.631C123.719 209.104 124.683 210.36 126.004 211.123L153.638 227.068C152.044 236.623 152.044 246.377 153.638 255.932L126.004 271.889C124.683 272.651 123.719 273.907 123.325 275.38C122.93 276.853 123.137 278.423 123.899 279.743L149.452 324.018C150.215 325.339 151.471 326.302 152.944 326.697C154.417 327.092 155.986 326.885 157.307 326.123L185.016 310.132C192.474 316.294 200.898 321.182 209.948 324.599V356.5C209.948 358.025 210.554 359.488 211.632 360.566C212.71 361.644 214.173 362.25 215.698 362.25H266.798C268.323 362.25 269.786 361.644 270.864 360.566C271.942 359.488 272.548 358.025 272.548 356.5V324.588C281.599 321.171 290.023 316.282 297.48 310.12L325.184 326.111C326.504 326.874 328.074 327.08 329.547 326.686C331.02 326.291 332.276 325.327 333.038 324.007L358.597 279.732C359.356 278.413 359.562 276.847 359.168 275.377C358.775 273.906 357.815 272.652 356.498 271.889ZM241.251 287.5C232.153 287.5 223.259 284.802 215.695 279.748C208.13 274.693 202.234 267.509 198.753 259.103C195.271 250.698 194.36 241.449 196.135 232.526C197.91 223.603 202.291 215.406 208.724 208.973C215.157 202.54 223.354 198.159 232.277 196.384C241.2 194.609 250.449 195.52 258.854 199.002C267.26 202.483 274.444 208.379 279.499 215.944C284.553 223.508 287.251 232.402 287.251 241.5C287.251 253.7 282.405 265.4 273.778 274.027C265.151 282.654 253.451 287.5 241.251 287.5Z" fill="#F82530"/>
<path d="M179.859 199.169C194.213 189.574 205.103 175.618 210.919 159.361C216.736 143.105 217.172 125.409 212.162 108.886C207.153 92.3623 196.963 77.8876 183.098 67.5982C169.233 57.3087 152.427 51.7498 135.161 51.7421C117.895 51.7343 101.084 57.2781 87.21 67.5551C73.3357 77.8321 63.1333 92.2976 58.1089 108.816C53.0844 125.335 53.5042 143.031 59.3063 159.293C65.1083 175.555 75.9852 189.521 90.3312 199.128C92.8922 200.799 95.0911 202.968 96.797 205.505C98.5029 208.043 99.6811 210.898 100.261 213.9C96.9275 215.148 94.0645 217.402 92.0694 220.35C90.0742 223.299 89.0458 226.795 89.1267 230.353C89.2076 233.912 90.3938 237.358 92.5208 240.212C94.6478 243.067 97.6103 245.189 100.997 246.284C102.151 254.514 106.24 262.051 112.511 267.504C118.782 272.958 126.813 275.961 135.124 275.961C143.434 275.961 151.465 272.958 157.736 267.504C164.007 262.051 168.096 254.514 169.25 246.284C172.636 245.187 175.598 243.063 177.723 240.208C179.848 237.352 181.033 233.906 181.112 230.347C181.191 226.788 180.16 223.293 178.164 220.346C176.167 217.399 173.303 215.146 169.969 213.9C170.541 210.905 171.712 208.057 173.411 205.526C175.111 202.994 177.304 200.832 179.859 199.169ZM135.124 264.5C130.026 264.492 125.074 262.795 121.044 259.674C117.013 256.553 114.131 252.184 112.848 247.25H157.393C156.112 252.184 153.232 256.553 149.202 259.675C145.172 262.796 140.221 264.493 135.124 264.5ZM163.874 235.75H106.374C104.849 235.75 103.386 235.144 102.308 234.066C101.229 232.988 100.624 231.525 100.624 230C100.624 228.475 101.229 227.012 102.308 225.934C103.386 224.856 104.849 224.25 106.374 224.25H163.874C165.399 224.25 166.861 224.856 167.94 225.934C169.018 227.012 169.624 228.475 169.624 230C169.624 231.525 169.018 232.988 167.94 234.066C166.861 235.144 165.399 235.75 163.874 235.75ZM158.469 212.75H140.874V174.662L179.703 130.289C180.708 129.141 181.216 127.64 181.115 126.118C181.013 124.595 180.311 123.175 179.163 122.17C178.015 121.165 176.514 120.658 174.991 120.759C173.469 120.86 172.049 121.562 171.044 122.711L135.124 163.766L99.1977 122.711C98.1673 121.664 96.7757 121.052 95.3081 120.999C93.8405 120.946 92.4083 121.456 91.3051 122.426C90.202 123.395 89.5115 124.75 89.3753 126.212C89.2391 127.674 89.6675 129.133 90.5727 130.289L129.374 174.662V212.75H111.761C111.004 208.056 109.276 203.571 106.689 199.582C104.102 195.592 100.713 192.185 96.7367 189.577C84.4383 181.344 75.1134 169.374 70.1385 155.435C65.1636 141.496 64.8025 126.326 69.1084 112.167C73.4143 98.0066 82.1591 85.6064 94.0517 76.7967C105.944 67.987 120.354 63.2346 135.155 63.2413C149.955 63.2479 164.361 68.0132 176.245 76.8336C188.13 85.654 196.864 98.0621 201.157 112.226C205.45 126.39 205.075 141.559 200.088 155.493C195.1 169.428 185.765 181.389 173.459 189.612C169.488 192.213 166.103 195.615 163.522 199.599C160.941 203.583 159.22 208.062 158.469 212.75Z" fill="white"/>
<path d="M146.625 120.75H123.625C122.1 120.75 120.637 121.356 119.559 122.434C118.481 123.512 117.875 124.975 117.875 126.5C117.875 128.025 118.481 129.488 119.559 130.566C120.637 131.644 122.1 132.25 123.625 132.25H146.625C148.15 132.25 149.613 131.644 150.691 130.566C151.769 129.488 152.375 128.025 152.375 126.5C152.375 124.975 151.769 123.512 150.691 122.434C149.613 121.356 148.15 120.75 146.625 120.75Z" fill="white"/>
<path d="M135.125 34.5C136.65 34.5 138.113 33.8942 139.191 32.8159C140.269 31.7375 140.875 30.275 140.875 28.75V11.5C140.875 9.97501 140.269 8.51247 139.191 7.43414C138.113 6.3558 136.65 5.75 135.125 5.75C133.6 5.75 132.137 6.3558 131.059 7.43414C129.981 8.51247 129.375 9.97501 129.375 11.5V28.75C129.375 30.275 129.981 31.7375 131.059 32.8159C132.137 33.8942 133.6 34.5 135.125 34.5Z" fill="white"/>
<path d="M57.873 63.1293C58.9575 64.1767 60.41 64.7562 61.9176 64.7431C63.4252 64.73 64.8674 64.1253 65.9335 63.0592C66.9996 61.9931 67.6043 60.551 67.6174 59.0433C67.6305 57.5357 67.0509 56.0832 66.0035 54.9988L53.8078 42.803C53.2774 42.2538 52.6429 41.8158 51.9414 41.5144C51.2398 41.2131 50.4853 41.0545 49.7218 41.0478C48.9584 41.0412 48.2012 41.1867 47.4945 41.4758C46.7879 41.7649 46.1459 42.1919 45.606 42.7317C45.0661 43.2716 44.6392 43.9136 44.3501 44.6203C44.0609 45.3269 43.9155 46.0841 43.9221 46.8476C43.9287 47.6111 44.0873 48.3656 44.3887 49.0671C44.6901 49.7686 45.1281 50.4031 45.6773 50.9335L57.873 63.1293Z" fill="white"/>
<path d="M212.37 201.371C211.285 200.323 209.833 199.744 208.325 199.757C206.817 199.77 205.375 200.375 204.309 201.441C203.243 202.507 202.638 203.949 202.625 205.457C202.612 206.964 203.192 208.417 204.239 209.501L216.441 221.697C216.974 222.231 217.608 222.655 218.306 222.944C219.004 223.234 219.751 223.383 220.507 223.383C221.262 223.383 222.01 223.235 222.708 222.946C223.406 222.657 224.04 222.234 224.574 221.7C225.108 221.166 225.532 220.532 225.821 219.834C226.111 219.137 226.26 218.389 226.26 217.634C226.26 216.879 226.112 216.131 225.823 215.433C225.534 214.735 225.111 214.101 224.577 213.566L212.37 201.371Z" fill="white"/>
<path d="M31.625 126.5H14.375C12.85 126.5 11.3875 127.106 10.3091 128.184C9.2308 129.262 8.625 130.725 8.625 132.25C8.625 133.775 9.2308 135.238 10.3091 136.316C11.3875 137.394 12.85 138 14.375 138H31.625C33.15 138 34.6125 137.394 35.6909 136.316C36.7692 135.238 37.375 133.775 37.375 132.25C37.375 130.725 36.7692 129.262 35.6909 128.184C34.6125 127.106 33.15 126.5 31.625 126.5Z" fill="white"/>
<path d="M255.875 126.5H238.625C237.1 126.5 235.637 127.106 234.559 128.184C233.481 129.262 232.875 130.725 232.875 132.25C232.875 133.775 233.481 135.238 234.559 136.316C235.637 137.394 237.1 138 238.625 138H255.875C257.4 138 258.863 137.394 259.941 136.316C261.019 135.238 261.625 133.775 261.625 132.25C261.625 130.725 261.019 129.262 259.941 128.184C258.863 127.106 257.4 126.5 255.875 126.5Z" fill="white"/>
<path d="M57.873 201.371L45.6773 213.566C45.1281 214.097 44.6901 214.731 44.3887 215.433C44.0873 216.134 43.9287 216.889 43.9221 217.652C43.9155 218.416 44.0609 219.173 44.3501 219.88C44.6392 220.586 45.0661 221.228 45.606 221.768C46.1459 222.308 46.7879 222.735 47.4945 223.024C48.2012 223.313 48.9584 223.459 49.7218 223.452C50.4853 223.446 51.2398 223.287 51.9414 222.986C52.6429 222.684 53.2774 222.246 53.8078 221.697L66.0035 209.501C67.0509 208.417 67.6305 206.964 67.6174 205.457C67.6043 203.949 66.9996 202.507 65.9335 201.441C64.8674 200.375 63.4252 199.77 61.9176 199.757C60.41 199.744 58.9575 200.323 57.873 201.371Z" fill="white"/>
<path d="M216.441 42.803L204.239 54.9987C203.192 56.0832 202.612 57.5357 202.625 59.0433C202.638 60.5509 203.243 61.9931 204.309 63.0592C205.375 64.1253 206.817 64.73 208.325 64.7431C209.833 64.7562 211.285 64.1766 212.37 63.1292L224.577 50.9335C225.111 50.3992 225.534 49.7651 225.823 49.0672C226.112 48.3694 226.26 47.6214 226.26 46.8662C226.26 46.1109 226.111 45.3631 225.821 44.6655C225.532 43.9678 225.108 43.334 224.574 42.8001C224.04 42.2662 223.406 41.8428 222.708 41.5541C222.01 41.2653 221.262 41.1168 220.507 41.1171C219.751 41.1173 219.004 41.2664 218.306 41.5556C217.608 41.8449 216.974 42.2687 216.441 42.803Z" fill="white"/>
</svg>
