<svg width="368" height="368" viewBox="0 0 368 368" fill="none" xmlns="http://www.w3.org/2000/svg">
<g clip-path="url(#clip0)">
<path d="M229.318 217.567C229.781 219.317 230.694 220.911 231.964 222.189C232.43 222.559 233.008 222.91 233.58 223.257C233.836 223.413 234.09 223.567 234.333 223.722V203.712C231.72 205.863 229.946 208.881 229.329 212.229C228.859 213.976 228.855 215.818 229.318 217.567Z" fill="#F82530"/>
<path d="M260.679 256.082C258.7 252.825 255.576 250.442 251.932 249.41C251.712 249.334 251.502 249.257 251.296 249.182C250.998 249.074 250.706 248.967 250.398 248.867V281.879C253.55 280.698 256.339 278.699 258.483 276.083C260.626 273.467 262.049 270.327 262.607 266.979C263.347 263.231 262.658 259.339 260.679 256.082Z" fill="#F82530"/>
<path fill-rule="evenodd" clip-rule="evenodd" d="M244 368C312.483 368 368 312.483 368 244C368 175.517 312.483 120 244 120C175.517 120 120 175.517 120 244C120 312.483 175.517 368 244 368ZM234.333 298.945C226.91 298.149 219.824 295.403 213.779 290.98H213.739C212.839 290.405 212.061 289.655 211.451 288.774C210.84 287.893 210.409 286.898 210.183 285.847C209.957 284.796 209.94 283.71 210.133 282.653C210.326 281.595 210.726 280.587 211.309 279.687C211.891 278.787 212.645 278.013 213.527 277.41C214.408 276.806 215.4 276.386 216.444 276.174C217.487 275.961 218.563 275.96 219.607 276.171C220.651 276.382 221.643 276.8 222.526 277.402C226.009 280.009 230.032 281.784 234.293 282.593V242.313C229.938 240.337 225.818 237.869 222.012 234.956C218.396 231.864 215.689 227.829 214.188 223.291C212.687 218.753 212.448 213.885 213.498 209.22C214.411 203.878 216.764 198.893 220.298 194.813C223.831 190.732 228.41 187.713 233.53 186.087C233.685 186.045 233.822 186.025 233.953 186.006C234.08 185.987 234.203 185.968 234.333 185.933V179.111C234.333 176.96 235.18 174.897 236.686 173.376C238.192 171.855 240.235 171 242.366 171C244.496 171 246.539 171.855 248.045 173.376C249.552 174.897 250.398 176.96 250.398 179.111V184.74C257.352 185.662 263.915 188.518 269.354 192.989C270.85 194.458 271.721 196.456 271.784 198.561C271.847 200.667 271.096 202.714 269.69 204.271C268.284 205.827 266.334 206.77 264.252 206.901C262.17 207.031 260.12 206.338 258.535 204.969C256.135 203.102 253.357 201.792 250.398 201.133V231.566C252.703 232.458 255.025 233.31 257.282 234.121C264.528 236.37 270.697 241.244 274.603 247.805C278.51 254.366 279.878 262.154 278.447 269.672C277.23 276.802 273.896 283.39 268.887 288.562C263.877 293.735 257.43 297.249 250.398 298.636V308.889C250.398 311.04 249.552 313.103 248.045 314.624C246.539 316.145 244.496 317 242.366 317C240.235 317 238.192 316.145 236.686 314.624C235.18 313.103 234.333 311.04 234.333 308.889V298.945Z" fill="#F82530"/>
<path fill-rule="evenodd" clip-rule="evenodd" d="M187.546 151.319L186.956 150.744L212.662 125.722C214.639 123.8 216.054 121.4 216.762 118.769C217.469 116.137 217.443 113.37 216.686 110.752C215.929 108.134 214.469 105.759 212.455 103.873C210.442 101.987 207.948 100.657 205.232 100.021L112.316 78.1914C83.4407 51.0393 44.8337 35.9054 4.68535 36.0004C3.44284 36.0004 2.25122 36.4809 1.37263 37.3361C0.494042 38.1913 0.00045677 39.3512 0.00045677 40.5606C-0.0971459 79.6404 15.4505 117.22 43.3451 145.327L65.7717 235.769C66.4252 238.414 67.7912 240.841 69.7289 242.801C71.6666 244.76 74.106 246.182 76.7959 246.919C79.4857 247.655 82.3287 247.681 85.0321 246.992C87.7354 246.304 90.2013 244.926 92.1757 243.002L117.882 217.98L118.472 218.554C121.422 221.421 125.421 223.031 129.589 223.031C133.758 223.031 137.756 221.421 140.707 218.554L187.555 172.952C190.496 170.08 192.147 166.189 192.145 162.134C192.143 158.078 190.489 154.189 187.546 151.319ZM206.037 119.274L180.331 144.292L125.162 90.5906L203.034 108.882C204.133 109.139 205.14 109.677 205.954 110.44C206.767 111.203 207.358 112.163 207.663 113.222C207.969 114.28 207.98 115.399 207.694 116.463C207.408 117.527 206.836 118.497 206.037 119.274ZM85.5513 236.554C84.7528 237.331 83.7558 237.888 82.6629 238.166C81.57 238.444 80.4207 238.434 79.3332 238.136C78.2458 237.839 77.2595 237.264 76.4758 236.472C75.6921 235.68 75.1394 234.699 74.8744 233.63L56.0833 157.831L111.253 211.532L85.5513 236.554ZM180.922 166.513L134.073 212.115C132.881 213.274 131.265 213.925 129.58 213.925C127.895 213.925 126.279 213.274 125.087 212.115L52.1574 141.113C25.8385 115.638 10.554 81.3111 9.44989 45.1984C46.5501 46.2731 81.8155 61.1508 107.987 86.7692L180.922 157.758C182.113 158.92 182.782 160.494 182.782 162.136C182.782 163.777 182.113 165.352 180.922 166.513ZM52.1148 86.7281C49.1432 89.6202 47.1194 93.3052 46.2993 97.3169C45.4793 101.329 45.8999 105.487 47.5078 109.266C49.1158 113.045 51.839 116.275 55.3329 118.548C58.8269 120.82 62.9347 122.033 67.1369 122.033C71.3391 122.033 75.4469 120.82 78.9408 118.548C82.4348 116.275 85.1579 113.045 86.7659 109.266C88.3739 105.487 88.7944 101.329 87.9744 97.3169C87.1544 93.3052 85.1306 89.6202 82.159 86.7281C78.1729 82.8538 72.77 80.6777 67.1369 80.6777C61.5038 80.6777 56.1009 82.8538 52.1148 86.7281ZM75.5392 109.529C73.8786 111.144 71.7633 112.244 69.4607 112.689C67.1581 113.134 64.7716 112.905 62.6029 112.03C60.4342 111.155 58.5807 109.674 57.2766 107.774C55.9725 105.874 55.2765 103.64 55.2765 101.355C55.2765 99.0699 55.9725 96.8361 57.2766 94.936C58.5807 93.0359 60.4342 91.5548 62.6029 90.6799C64.7716 89.805 67.1581 89.5757 69.4607 90.0208C71.7633 90.466 73.8786 91.5656 75.5392 93.1808C77.7564 95.3533 79.0003 98.2914 78.9994 101.354C78.9986 104.416 77.7529 107.353 75.5345 109.525L75.5392 109.529ZM209.815 183.449C211.599 184.493 213.122 185.909 214.275 187.595C224.591 202.872 240.572 232.404 231.609 258.57C231.382 259.241 230.996 259.851 230.482 260.351C229.969 260.85 229.343 261.226 228.653 261.448C204.746 269.2 176.82 258.059 155.738 244.575C154.005 243.453 152.55 241.97 151.478 240.234C150.406 238.498 149.744 236.551 149.538 234.536C149.333 232.52 149.59 230.485 150.291 228.578C150.992 226.67 152.119 224.938 153.592 223.507L192.631 185.507C194.102 184.073 195.881 182.976 197.84 182.294C199.8 181.611 201.89 181.361 203.961 181.561C206.032 181.761 208.032 182.406 209.815 183.449ZM160.891 236.95C174.683 245.792 200.787 259.373 223.406 253.467C229.482 231.446 215.526 206.05 206.442 192.611C206.057 192.053 205.55 191.584 204.956 191.24C204.362 190.896 203.697 190.685 203.009 190.622C202.321 190.559 201.627 190.646 200.978 190.877C200.329 191.107 199.74 191.475 199.256 191.955C169.758 220.667 162.135 228.089 160.562 229.62C160.868 229.322 161.132 229.064 160.216 229.955C159.723 230.426 159.344 230.999 159.107 231.631C158.869 232.263 158.78 232.939 158.844 233.609C158.909 234.279 159.126 234.926 159.48 235.504C159.834 236.082 160.316 236.576 160.891 236.95Z" fill="white"/>
<path d="M186.956 150.744L185.91 149.669L184.805 150.744L185.91 151.819L186.956 150.744ZM187.546 151.319L188.593 150.245L188.592 150.244L187.546 151.319ZM212.662 125.722L211.616 124.647L211.616 124.648L212.662 125.722ZM216.762 118.769L218.21 119.158L216.762 118.769ZM216.686 110.752L218.127 110.335V110.335L216.686 110.752ZM205.232 100.021L204.889 101.481L204.89 101.482L205.232 100.021ZM112.316 78.1914L111.289 79.2842L111.582 79.5597L111.973 79.6517L112.316 78.1914ZM4.68535 36.0004V37.5004L4.6889 37.5004L4.68535 36.0004ZM1.37263 37.3361L2.41889 38.411L1.37263 37.3361ZM0.00045677 40.5606L1.50046 40.5644V40.5606H0.00045677ZM43.3451 145.327L44.801 144.966L44.7014 144.564L44.4098 144.27L43.3451 145.327ZM65.7717 235.769L67.2279 235.409L67.2276 235.408L65.7717 235.769ZM92.1757 243.002L91.1295 241.927L91.1287 241.928L92.1757 243.002ZM117.882 217.98L118.928 216.905L117.882 215.887L116.835 216.905L117.882 217.98ZM118.472 218.554L117.426 219.629L117.427 219.63L118.472 218.554ZM140.707 218.554L141.752 219.63L141.753 219.629L140.707 218.554ZM187.555 172.952L188.602 174.027L188.604 174.025L187.555 172.952ZM180.331 144.292L179.285 145.366L180.331 146.385L181.378 145.366L180.331 144.292ZM206.037 119.274L204.991 118.199L204.991 118.199L206.037 119.274ZM125.162 90.5906L125.505 89.1303L120.241 87.8939L124.116 91.6655L125.162 90.5906ZM203.034 108.882L202.691 110.342L202.691 110.342L203.034 108.882ZM205.954 110.44L204.928 111.535L205.954 110.44ZM207.663 113.222L206.222 113.638L206.222 113.638L207.663 113.222ZM82.6629 238.166L83.0328 239.62L83.0329 239.62L82.6629 238.166ZM85.5513 236.554L84.5049 235.479L84.5047 235.479L85.5513 236.554ZM79.3332 238.136L79.7293 236.689H79.7293L79.3332 238.136ZM76.4758 236.472L75.4096 237.527L75.4096 237.527L76.4758 236.472ZM74.8744 233.63L76.3304 233.27L76.3304 233.27L74.8744 233.63ZM56.0833 157.831L57.1296 156.756L53.3624 153.089L54.6274 158.192L56.0833 157.831ZM111.253 211.532L112.299 212.606L113.403 211.532L112.299 210.457L111.253 211.532ZM134.073 212.115L135.118 213.191L135.119 213.19L134.073 212.115ZM180.922 166.513L181.968 167.588L181.969 167.587L180.922 166.513ZM125.087 212.115L124.041 213.19L124.041 213.191L125.087 212.115ZM52.1574 141.113L53.2037 140.038L53.2006 140.035L52.1574 141.113ZM9.44989 45.1984L9.49332 43.699L7.90194 43.6529L7.95059 45.2442L9.44989 45.1984ZM107.987 86.7692L106.938 87.8411L106.941 87.8441L107.987 86.7692ZM180.922 157.758L181.969 156.684L181.968 156.683L180.922 157.758ZM46.2993 97.3169L47.769 97.6173V97.6173L46.2993 97.3169ZM52.1148 86.7281L51.0693 85.6525L51.0686 85.6532L52.1148 86.7281ZM47.5078 109.266L46.1276 109.853L47.5078 109.266ZM55.3329 118.548L56.1508 117.29H56.1508L55.3329 118.548ZM86.7659 109.266L85.3857 108.679V108.679L86.7659 109.266ZM87.9744 97.3169L89.444 97.0165L87.9744 97.3169ZM82.159 86.7281L83.2052 85.6532L83.2045 85.6525L82.159 86.7281ZM69.4607 112.689L69.7454 114.162L69.4607 112.689ZM75.5392 109.529L76.5851 110.604L77.6898 109.53L76.5858 108.455L75.5392 109.529ZM62.6029 112.03L62.0417 113.421H62.0417L62.6029 112.03ZM57.2766 107.774L56.0398 108.623L57.2766 107.774ZM57.2766 94.936L56.0398 94.0872L57.2766 94.936ZM69.4607 90.0208L69.7454 88.5481L69.4607 90.0208ZM75.5392 93.1808L76.5891 92.1094L76.5851 92.1056L75.5392 93.1808ZM78.9994 101.354L77.4994 101.353L78.9994 101.354ZM75.5345 109.525L74.4853 108.453L73.3874 109.527L74.488 110.599L75.5345 109.525ZM214.275 187.595L215.518 186.756L215.514 186.749L214.275 187.595ZM209.815 183.449L209.058 184.744L209.815 183.449ZM231.609 258.57L230.19 258.084L230.189 258.088L231.609 258.57ZM230.482 260.351L229.436 259.276L229.436 259.276L230.482 260.351ZM228.653 261.448L228.194 260.02L228.191 260.021L228.653 261.448ZM155.738 244.575L154.922 245.834L154.929 245.839L155.738 244.575ZM151.478 240.234L152.755 239.446H152.754L151.478 240.234ZM150.291 228.578L148.883 228.06L150.291 228.578ZM153.592 223.507L154.637 224.582L154.638 224.582L153.592 223.507ZM192.631 185.507L193.677 186.582L193.678 186.581L192.631 185.507ZM203.961 181.561L204.105 180.068L204.105 180.068L203.961 181.561ZM223.406 253.467L223.785 254.919L224.622 254.7L224.852 253.866L223.406 253.467ZM160.891 236.95L160.073 238.208L160.081 238.213L160.891 236.95ZM206.442 192.611L207.685 191.771L207.678 191.761L206.442 192.611ZM204.956 191.24L204.204 192.538H204.204L204.956 191.24ZM203.009 190.622L202.873 192.116H202.873L203.009 190.622ZM200.978 190.877L201.48 192.29L201.48 192.29L200.978 190.877ZM199.256 191.955L200.302 193.03L200.31 193.021L199.256 191.955ZM160.562 229.62L159.515 228.546L161.608 230.695L160.562 229.62ZM160.216 229.955L161.253 231.039L161.262 231.03L160.216 229.955ZM158.844 233.609L160.337 233.465V233.465L158.844 233.609ZM159.48 235.504L160.759 234.721L160.759 234.721L159.48 235.504ZM185.91 151.819L186.5 152.394L188.592 150.244L188.002 149.669L185.91 151.819ZM211.616 124.648L185.91 149.669L188.002 151.819L213.708 126.797L211.616 124.648ZM215.313 118.379C214.677 120.747 213.402 122.911 211.616 124.647L213.707 126.798C215.876 124.69 217.432 122.054 218.21 119.158L215.313 118.379ZM215.245 111.168C215.926 113.524 215.949 116.012 215.313 118.379L218.21 119.158C218.989 116.262 218.96 113.216 218.127 110.335L215.245 111.168ZM211.43 104.968C213.249 106.672 214.564 108.813 215.245 111.168L218.127 110.335C217.294 107.454 215.688 104.847 213.481 102.778L211.43 104.968ZM204.89 101.482C207.354 102.059 209.611 103.263 211.43 104.968L213.481 102.778C211.273 100.71 208.543 99.2559 205.574 98.5606L204.89 101.482ZM111.973 79.6517L204.889 101.481L205.575 98.5609L112.659 76.7312L111.973 79.6517ZM4.6889 37.5004C44.4597 37.4063 82.6962 52.3982 111.289 79.2842L113.344 77.0987C84.1851 49.6803 45.2077 34.4046 4.6818 34.5004L4.6889 37.5004ZM2.41889 38.411C3.01326 37.8324 3.8278 37.5004 4.68535 37.5004V34.5004C3.05788 34.5004 1.48918 35.1294 0.326371 36.2612L2.41889 38.411ZM1.50046 40.5606C1.50046 39.7623 1.8259 38.9882 2.41889 38.411L0.326371 36.2612C-0.837813 37.3944 -1.49954 38.9401 -1.49954 40.5606H1.50046ZM44.4098 144.27C16.7908 116.441 1.40386 79.2411 1.50045 40.5644L-1.49954 40.5569C-1.59815 80.0397 14.1102 117.999 42.2804 146.383L44.4098 144.27ZM67.2276 235.408L44.801 144.966L41.8892 145.688L64.3158 236.13L67.2276 235.408ZM70.7955 241.746C69.0455 239.976 67.8157 237.788 67.2279 235.409L64.3155 236.129C65.0347 239.039 66.5368 241.706 68.6623 243.855L70.7955 241.746ZM77.1922 245.472C74.7531 244.804 72.5458 243.516 70.7955 241.746L68.6623 243.855C70.7875 246.005 73.459 247.56 76.3996 248.365L77.1922 245.472ZM84.6619 245.539C82.2103 246.163 79.6314 246.14 77.1922 245.472L76.3996 248.365C79.3401 249.171 82.4472 249.198 85.4023 248.446L84.6619 245.539ZM91.1287 241.928C89.345 243.666 87.1133 244.914 84.6619 245.539L85.4023 248.446C88.3574 247.693 91.0576 246.186 93.2228 244.076L91.1287 241.928ZM116.835 216.905L91.1295 241.927L93.222 244.077L118.928 219.055L116.835 216.905ZM119.518 217.48L118.928 216.905L116.835 219.055L117.426 219.629L119.518 217.48ZM129.589 221.531C125.805 221.531 122.184 220.069 119.517 217.479L117.427 219.63C120.661 222.773 125.036 224.531 129.589 224.531V221.531ZM139.661 217.479C136.995 220.069 133.373 221.531 129.589 221.531V224.531C134.142 224.531 138.517 222.773 141.752 219.63L139.661 217.479ZM186.509 171.878L139.66 217.48L141.753 219.629L188.602 174.027L186.509 171.878ZM190.645 162.134C190.647 165.779 189.164 169.285 186.507 171.879L188.604 174.025C191.829 170.875 193.647 166.599 193.645 162.133L190.645 162.134ZM186.499 152.393C189.157 154.985 190.644 158.489 190.645 162.134L193.645 162.133C193.643 157.667 191.822 153.393 188.593 150.245L186.499 152.393ZM181.378 145.366L207.084 120.349L204.991 118.199L179.285 143.217L181.378 145.366ZM124.116 91.6655L179.285 145.366L181.378 143.217L126.208 89.5157L124.116 91.6655ZM203.377 107.421L125.505 89.1303L124.819 92.0509L202.691 110.342L203.377 107.421ZM206.98 109.346C205.972 108.401 204.728 107.739 203.377 107.421L202.691 110.342C203.537 110.54 204.308 110.954 204.928 111.535L206.98 109.346ZM209.104 112.805C208.723 111.484 207.988 110.291 206.98 109.346L204.928 111.535C205.547 112.115 205.992 112.842 206.222 113.638L209.104 112.805ZM209.143 116.852C209.499 115.524 209.486 114.127 209.104 112.805L206.222 113.638C206.452 114.434 206.46 115.274 206.245 116.074L209.143 116.852ZM207.083 120.349C208.073 119.386 208.786 118.18 209.143 116.852L206.245 116.074C206.031 116.873 205.599 117.608 204.991 118.199L207.083 120.349ZM83.0329 239.62C84.3775 239.277 85.6087 238.592 86.5979 237.628L84.5047 235.479C83.8969 236.071 83.134 236.498 82.2928 236.712L83.0329 239.62ZM78.9371 239.583C80.2751 239.949 81.6884 239.962 83.0328 239.62L82.2929 236.712C81.4516 236.927 80.5662 236.919 79.7293 236.689L78.9371 239.583ZM75.4096 237.527C76.3807 238.509 77.599 239.217 78.9371 239.583L79.7293 236.689C78.8925 236.46 78.1382 236.02 77.542 235.417L75.4096 237.527ZM73.4185 233.991C73.7492 235.326 74.4382 236.546 75.4096 237.527L77.542 235.417C76.946 234.815 76.5295 234.073 76.3304 233.27L73.4185 233.991ZM54.6274 158.192L73.4185 233.991L76.3304 233.27L57.5392 157.47L54.6274 158.192ZM112.299 210.457L57.1296 156.756L55.0371 158.906L110.206 212.607L112.299 210.457ZM86.5977 237.628L112.299 212.606L110.206 210.457L84.5049 235.479L86.5977 237.628ZM135.119 213.19L181.968 167.588L179.875 165.439L133.026 211.041L135.119 213.19ZM129.58 215.425C131.649 215.425 133.642 214.626 135.118 213.191L133.027 211.04C132.119 211.923 130.88 212.425 129.58 212.425V215.425ZM124.041 213.191C125.518 214.626 127.51 215.425 129.58 215.425V212.425C128.28 212.425 127.041 211.923 126.133 211.04L124.041 213.191ZM51.111 142.188L124.041 213.19L126.133 211.041L53.2037 140.038L51.111 142.188ZM7.95059 45.2442C9.06681 81.7532 24.5191 116.448 51.1141 142.191L53.2006 140.035C27.1579 114.827 12.0412 80.8691 10.9492 45.1525L7.95059 45.2442ZM109.037 85.6972C82.5911 59.811 46.965 44.7845 9.49332 43.699L9.40645 46.6977C46.1352 47.7617 81.0398 62.4905 106.938 87.8411L109.037 85.6972ZM181.968 156.683L109.033 85.6943L106.941 87.8441L179.875 158.833L181.968 156.683ZM184.282 162.136C184.282 160.084 183.445 158.124 181.969 156.684L179.874 158.832C180.781 159.716 181.282 160.905 181.282 162.136H184.282ZM181.969 167.587C183.445 166.147 184.282 164.188 184.282 162.136H181.282C181.282 163.367 180.781 164.556 179.874 165.44L181.969 167.587ZM47.769 97.6173C48.5279 93.9043 50.402 90.4882 53.1609 87.8031L51.0686 85.6532C47.8843 88.7523 45.7108 92.706 44.8297 97.0165L47.769 97.6173ZM48.8881 108.679C47.3989 105.179 47.0101 101.33 47.769 97.6173L44.8297 97.0165C43.9486 101.327 44.4009 105.795 46.1276 109.853L48.8881 108.679ZM56.1508 117.29C52.9027 115.178 50.3775 112.179 48.8881 108.679L46.1276 109.853C47.8541 113.911 50.7752 117.372 54.5151 119.805L56.1508 117.29ZM67.1369 120.533C63.2225 120.533 59.3992 119.403 56.1508 117.29L54.5151 119.805C58.2545 122.237 62.6469 123.533 67.1369 123.533V120.533ZM78.123 117.29C74.8745 119.403 71.0512 120.533 67.1369 120.533V123.533C71.6269 123.533 76.0192 122.237 79.7587 119.805L78.123 117.29ZM85.3857 108.679C83.8962 112.179 81.371 115.178 78.123 117.29L79.7587 119.805C83.4986 117.372 86.4196 113.911 88.1462 109.853L85.3857 108.679ZM86.5048 97.6173C87.2637 101.33 86.8749 105.179 85.3857 108.679L88.1462 109.853C89.8729 105.795 90.3252 101.327 89.444 97.0165L86.5048 97.6173ZM81.1128 87.8031C83.8717 90.4882 85.7458 93.9043 86.5048 97.6173L89.444 97.0165C88.5629 92.706 86.3895 88.7523 83.2052 85.6532L81.1128 87.8031ZM67.1369 82.1777C72.3854 82.1777 77.4115 84.2056 81.1135 87.8038L83.2045 85.6525C78.9342 81.502 73.1546 79.1777 67.1369 79.1777V82.1777ZM53.1602 87.8038C56.8622 84.2056 61.8884 82.1777 67.1369 82.1777V79.1777C61.1192 79.1777 55.3396 81.502 51.0693 85.6525L53.1602 87.8038ZM69.7454 114.162C72.3312 113.662 74.7122 112.426 76.5851 110.604L74.4934 108.454C73.0451 109.863 71.1953 110.826 69.176 111.216L69.7454 114.162ZM62.0417 113.421C64.4794 114.405 67.1597 114.662 69.7454 114.162L69.176 111.216C67.1564 111.607 65.0638 111.405 63.1641 110.639L62.0417 113.421ZM56.0398 108.623C57.5135 110.77 59.6037 112.438 62.0417 113.421L63.1641 110.639C61.2647 109.873 59.6478 108.578 58.5133 106.925L56.0398 108.623ZM53.7765 101.355C53.7765 103.946 54.5659 106.475 56.0398 108.623L58.5133 106.925C57.3792 105.273 56.7765 103.334 56.7765 101.355H53.7765ZM56.0398 94.0872C54.5659 96.2349 53.7765 98.7641 53.7765 101.355H56.7765C56.7765 99.3757 57.3792 97.4373 58.5133 95.7848L56.0398 94.0872ZM62.0417 89.2888C59.6037 90.2724 57.5135 91.94 56.0398 94.0872L58.5133 95.7848C59.6478 94.1317 61.2647 92.8372 63.1641 92.071L62.0417 89.2888ZM69.7454 88.5481C67.1597 88.0482 64.4794 88.3054 62.0417 89.2888L63.1641 92.071C65.0638 91.3046 67.1564 91.1031 69.176 91.4936L69.7454 88.5481ZM76.5851 92.1056C74.7122 90.2839 72.3312 89.048 69.7454 88.5481L69.176 91.4936C71.1953 91.8839 73.0451 92.8474 74.4934 94.2561L76.5851 92.1056ZM80.4994 101.354C80.5004 97.8824 79.0898 94.5598 76.5891 92.1094L74.4894 94.2522C76.423 96.1468 77.5002 98.7004 77.4994 101.353L80.4994 101.354ZM76.5838 110.597C79.0859 108.148 80.4984 104.826 80.4994 101.354L77.4994 101.353C77.4987 104.006 76.42 106.559 74.4853 108.453L76.5838 110.597ZM76.5858 108.455L76.5811 108.45L74.488 110.599L74.4926 110.604L76.5858 108.455ZM215.514 186.749C214.234 184.877 212.546 183.309 210.573 182.155L209.058 184.744C210.652 185.677 212.011 186.941 213.037 188.442L215.514 186.749ZM233.028 259.056C237.656 245.546 235.816 231.26 231.596 218.527C227.372 205.785 220.718 194.455 215.518 186.756L213.032 188.435C218.149 196.012 224.643 207.086 228.748 219.471C232.856 231.865 234.525 245.428 230.19 258.084L233.028 259.056ZM231.529 261.426C232.21 260.762 232.725 259.95 233.03 259.052L230.189 258.088C230.038 258.532 229.782 258.94 229.436 259.276L231.529 261.426ZM229.112 262.876C230.019 262.584 230.848 262.089 231.529 261.426L229.436 259.276C229.091 259.612 228.666 259.868 228.194 260.02L229.112 262.876ZM154.929 245.839C176.083 259.369 204.527 270.848 229.116 262.874L228.191 260.021C204.965 267.552 177.556 256.75 156.546 243.311L154.929 245.839ZM150.202 241.022C151.392 242.949 153.005 244.592 154.922 245.834L156.553 243.316C155.005 242.313 153.708 240.99 152.755 239.446L150.202 241.022ZM148.046 234.688C148.274 236.931 149.012 239.094 150.202 241.022L152.754 239.446C151.801 237.901 151.213 236.172 151.031 234.384L148.046 234.688ZM148.883 228.06C148.104 230.181 147.818 232.444 148.046 234.688L151.031 234.384C150.848 232.595 151.076 230.789 151.699 229.095L148.883 228.06ZM152.546 222.431C150.915 224.018 149.663 225.94 148.883 228.06L151.699 229.095C152.322 227.401 153.324 225.859 154.637 224.582L152.546 222.431ZM191.585 184.432L152.546 222.432L154.638 224.582L193.677 186.582L191.585 184.432ZM197.347 180.877C195.183 181.631 193.214 182.844 191.584 184.432L193.678 186.581C194.99 185.303 196.579 184.321 198.334 183.71L197.347 180.877ZM204.105 180.068C201.82 179.847 199.512 180.123 197.347 180.877L198.334 183.71C200.088 183.099 201.961 182.875 203.817 183.054L204.105 180.068ZM210.573 182.155C208.6 181 206.391 180.288 204.105 180.068L203.817 183.054C205.673 183.233 207.463 183.811 209.058 184.744L210.573 182.155ZM223.027 252.016C212.116 254.865 200.258 253.033 189.321 249.319C178.4 245.61 168.539 240.072 161.7 235.688L160.081 238.213C167.035 242.671 177.123 248.344 188.356 252.16C199.574 255.969 212.078 257.975 223.785 254.919L223.027 252.016ZM205.199 193.451C209.703 200.114 215.39 209.707 219.197 220.327C223.01 230.964 224.883 242.477 221.96 253.068L224.852 253.866C228.006 242.437 225.938 230.241 222.021 219.315C218.098 208.372 212.265 198.547 207.685 191.771L205.199 193.451ZM204.204 192.538C204.608 192.772 204.949 193.089 205.207 193.462L207.678 191.761C207.165 191.017 206.492 190.396 205.708 189.942L204.204 192.538ZM202.873 192.116C203.345 192.159 203.8 192.304 204.204 192.538L205.708 189.942C204.924 189.488 204.049 189.211 203.146 189.128L202.873 192.116ZM201.48 192.29C201.924 192.132 202.4 192.073 202.873 192.116L203.146 189.128C202.242 189.046 201.33 189.16 200.476 189.463L201.48 192.29ZM200.31 193.021C200.637 192.699 201.036 192.448 201.48 192.29L200.476 189.463C199.622 189.766 198.844 190.252 198.201 190.888L200.31 193.021ZM161.608 230.695C163.181 229.164 170.804 221.742 200.302 193.03L198.209 190.88C168.712 219.592 161.088 227.014 159.516 228.546L161.608 230.695ZM161.262 231.03C161.729 230.576 161.878 230.432 161.877 230.433C161.876 230.434 161.87 230.439 161.862 230.446C161.86 230.449 161.85 230.458 161.837 230.469C161.83 230.475 161.812 230.491 161.8 230.5C161.777 230.519 161.691 230.582 161.625 230.624C161.037 230.829 159.462 229.913 159.529 228.627C159.591 228.523 159.683 228.396 159.707 228.368C159.736 228.334 159.761 228.308 159.761 228.308C159.772 228.296 159.782 228.286 159.783 228.285C159.79 228.278 159.795 228.273 159.792 228.276C159.791 228.277 159.787 228.281 159.78 228.288C159.767 228.301 159.745 228.322 159.719 228.348C159.666 228.399 159.592 228.471 159.515 228.546L161.609 230.695C161.685 230.62 161.76 230.548 161.813 230.495C161.84 230.469 161.863 230.447 161.878 230.433C161.885 230.426 161.892 230.419 161.897 230.414C161.897 230.413 161.905 230.406 161.913 230.398C161.914 230.397 161.923 230.387 161.935 230.375C161.935 230.375 161.96 230.349 161.989 230.315C162.013 230.286 162.106 230.159 162.167 230.056C162.235 228.769 160.659 227.853 160.071 228.058C160.005 228.1 159.919 228.164 159.896 228.182C159.884 228.192 159.866 228.208 159.859 228.214C159.846 228.225 159.837 228.234 159.833 228.236C159.826 228.243 159.82 228.249 159.818 228.251C159.797 228.271 159.619 228.443 159.171 228.879L161.262 231.03ZM160.511 232.158C160.668 231.74 160.921 231.357 161.253 231.039L159.18 228.871C158.525 229.496 158.02 230.259 157.702 231.104L160.511 232.158ZM160.337 233.465C160.295 233.023 160.354 232.577 160.511 232.158L157.702 231.104C157.385 231.949 157.265 232.854 157.351 233.753L160.337 233.465ZM160.759 234.721C160.523 234.336 160.38 233.906 160.337 233.465L157.351 233.753C157.438 234.651 157.729 235.517 158.201 236.288L160.759 234.721ZM161.709 235.693C161.319 235.439 160.995 235.106 160.759 234.721L158.201 236.288C158.673 237.058 159.313 237.713 160.073 238.208L161.709 235.693Z" fill="white"/>
</g>
<defs>
<clipPath id="clip0">
<rect width="368" height="368" fill="white"/>
</clipPath>
</defs>
</svg>
