<svg width="124" height="124" viewBox="0 0 124 124" fill="none" xmlns="http://www.w3.org/2000/svg">
<path d="M124 62C124 96.2417 96.2417 124 62 124C27.7583 124 0 96.2417 0 62C0 27.7583 27.7583 0 62 0C96.2417 0 124 27.7583 124 62ZM5.54354 62C5.54354 93.18 30.82 118.456 62 118.456C93.18 118.456 118.456 93.18 118.456 62C118.456 30.82 93.18 5.54354 62 5.54354C30.82 5.54354 5.54354 30.82 5.54354 62Z" fill="#F2F2F2"/>
<path d="M62 0C76.2604 1.70054e-07 90.085 4.9159 101.144 13.9193C112.203 22.9226 119.82 35.463 122.712 49.4272C125.604 63.3913 123.593 77.9255 117.02 90.5804C110.446 103.235 99.7107 113.237 86.6232 118.901C73.5356 124.564 58.8957 125.543 45.1707 121.672C31.4456 117.801 19.4745 109.317 11.2747 97.6503C3.07488 85.9831 -0.852348 71.8459 0.154828 57.6211C1.162 43.3963 7.04201 29.9535 16.804 19.5581L32.4738 34.273C26.0964 41.0643 22.2551 49.8463 21.5971 59.1393C20.9391 68.4323 23.5047 77.668 28.8616 85.29C34.2185 92.9121 42.0391 98.4546 51.0055 100.983C59.972 103.512 69.5361 102.873 78.0861 99.1728C86.6361 95.4729 93.6493 88.9387 97.9439 80.6713C102.238 72.404 103.552 62.909 101.663 53.7863C99.7733 44.6636 94.7971 36.4711 87.5724 30.5893C80.3477 24.7074 71.3162 21.4959 62 21.4959V0Z" fill="#F82530"/>
<path d="M62 0C77.9378 1.90056e-07 93.2635 6.13759 104.796 17.1387C116.328 28.1398 123.18 43.1593 123.931 59.0794C124.682 74.9995 119.273 90.5973 108.827 102.635C98.3818 114.672 83.7018 122.225 67.8347 123.725C51.9676 125.225 36.1324 120.557 23.6162 110.69C11.0999 100.823 2.86418 86.5146 0.618529 70.7358C-1.62712 54.9571 2.28984 38.9195 11.5563 25.9524C20.8227 12.9852 34.7269 4.08462 50.3824 1.09818L52.452 11.9473C39.5854 14.4017 28.1581 21.7168 20.5424 32.3739C12.9267 43.0311 9.70749 56.2117 11.5531 69.1796C13.3987 82.1476 20.1673 93.9067 30.4539 102.016C40.7405 110.125 53.7548 113.962 66.7953 112.729C79.8358 111.496 91.9007 105.289 100.486 95.3961C109.07 85.5029 113.516 72.6838 112.899 59.5997C112.282 46.5156 106.65 34.1717 97.1719 25.1303C87.6942 16.089 75.0986 11.0448 62 11.0448V0Z" fill="#129590"/>
</svg>
