<svg width="368" height="368" viewBox="0 0 368 368" fill="none" xmlns="http://www.w3.org/2000/svg">
<path d="M229.318 217.567C229.781 219.317 230.694 220.911 231.964 222.189C232.43 222.559 233.008 222.91 233.58 223.257C233.836 223.413 234.09 223.567 234.333 223.722V203.712C231.72 205.863 229.946 208.881 229.329 212.229C228.859 213.976 228.855 215.818 229.318 217.567Z" fill="#F82530"/>
<path d="M260.679 256.082C258.7 252.825 255.576 250.442 251.932 249.41C251.712 249.334 251.502 249.257 251.296 249.182C250.998 249.074 250.706 248.967 250.398 248.867V281.879C253.55 280.698 256.339 278.699 258.483 276.083C260.626 273.467 262.049 270.327 262.607 266.979C263.347 263.231 262.658 259.339 260.679 256.082Z" fill="#F82530"/>
<path fill-rule="evenodd" clip-rule="evenodd" d="M244 368C312.483 368 368 312.483 368 244C368 175.517 312.483 120 244 120C175.517 120 120 175.517 120 244C120 312.483 175.517 368 244 368ZM234.333 298.945C226.91 298.149 219.824 295.403 213.779 290.98H213.739C212.839 290.405 212.061 289.655 211.451 288.774C210.84 287.893 210.409 286.898 210.183 285.847C209.957 284.796 209.94 283.71 210.133 282.653C210.326 281.595 210.726 280.587 211.309 279.687C211.891 278.787 212.645 278.013 213.527 277.41C214.408 276.806 215.4 276.386 216.444 276.174C217.487 275.961 218.563 275.96 219.607 276.171C220.651 276.382 221.643 276.8 222.526 277.402C226.009 280.009 230.032 281.784 234.293 282.593V242.313C229.938 240.337 225.818 237.869 222.012 234.956C218.396 231.864 215.689 227.829 214.188 223.291C212.687 218.753 212.448 213.885 213.498 209.22C214.411 203.878 216.764 198.893 220.298 194.813C223.831 190.732 228.41 187.713 233.53 186.087C233.685 186.045 233.822 186.025 233.953 186.006C234.08 185.987 234.203 185.968 234.333 185.933V179.111C234.333 176.96 235.18 174.897 236.686 173.376C238.192 171.855 240.235 171 242.366 171C244.496 171 246.539 171.855 248.045 173.376C249.552 174.897 250.398 176.96 250.398 179.111V184.74C257.352 185.662 263.915 188.518 269.354 192.989C270.85 194.458 271.721 196.456 271.784 198.561C271.847 200.667 271.096 202.714 269.69 204.271C268.284 205.827 266.334 206.77 264.252 206.901C262.17 207.031 260.12 206.338 258.535 204.969C256.135 203.102 253.357 201.792 250.398 201.133V231.566C252.703 232.458 255.025 233.31 257.282 234.121C264.528 236.37 270.697 241.244 274.603 247.805C278.51 254.366 279.878 262.154 278.447 269.672C277.23 276.802 273.896 283.39 268.887 288.562C263.877 293.735 257.43 297.249 250.398 298.636V308.889C250.398 311.04 249.552 313.103 248.045 314.624C246.539 316.145 244.496 317 242.366 317C240.235 317 238.192 316.145 236.686 314.624C235.18 313.103 234.333 311.04 234.333 308.889V298.945Z" fill="#F82530"/>
<path d="M225.506 95.4664L233.499 87.7693C235.317 86.1222 236.774 84.1378 237.783 81.9341C238.793 79.7304 239.334 77.3524 239.376 74.9418C239.417 72.5311 238.958 70.137 238.025 67.9019C237.091 65.6668 235.704 63.6365 233.944 61.9316C232.184 60.2268 230.088 58.8823 227.781 57.9783C225.474 57.0742 223.002 56.6291 220.514 56.6692C218.025 56.7094 215.571 57.2342 213.296 58.2122C211.021 59.1903 208.973 60.6017 207.273 62.3624L199.357 70.0942C182.761 58.1619 163.357 50.4241 142.899 47.5802V34.6458H148.859C153.602 34.6458 158.15 32.8207 161.503 29.572C164.857 26.3233 166.741 21.9172 166.741 17.3229C166.741 12.7286 164.857 8.32243 161.503 5.07376C158.15 1.82508 153.602 0 148.859 0H101.175C96.4321 0 91.8838 1.82508 88.5303 5.07376C85.1769 8.32243 83.2929 12.7286 83.2929 17.3229C83.2929 21.9172 85.1769 26.3233 88.5303 29.572C91.8838 32.8207 96.4321 34.6458 101.175 34.6458H107.135V47.5802C86.6849 50.4295 67.2894 58.1692 50.7006 70.1L42.7611 62.3624C41.0609 60.6017 39.0125 59.1903 36.7377 58.2122C34.4629 57.2342 32.0082 56.7094 29.5198 56.6692C27.0314 56.6291 24.56 57.0742 22.2528 57.9783C19.9456 58.8823 17.8498 60.2268 16.0899 61.9316C14.3301 63.6365 12.9423 65.6668 12.0091 67.9019C11.0759 70.137 10.6163 72.5311 10.6578 74.9418C10.6993 77.3524 11.241 79.7304 12.2506 81.9341C13.2602 84.1378 14.7171 86.1222 16.5346 87.7693L24.5158 95.4433C12.75 110.856 4.92623 128.753 1.68723 147.664C-1.55177 166.575 -0.113622 185.96 5.88354 204.228C11.8807 222.496 22.2658 239.125 36.1858 252.749C50.1058 266.374 67.1636 276.605 85.9581 282.602C104.753 288.599 124.748 290.192 144.301 287.248C163.854 284.305 182.408 276.91 198.438 265.671C214.467 254.432 227.517 239.669 236.513 222.596C245.509 205.522 250.196 186.624 250.189 167.455C250.179 141.509 241.522 116.261 225.506 95.4664V95.4664ZM215.713 70.5042C216.328 69.9025 217.059 69.4244 217.865 69.0975C218.672 68.7705 219.537 68.6011 220.411 68.599C221.285 68.5969 222.15 68.7621 222.958 69.0851C223.766 69.4082 224.5 69.8827 225.118 70.4814C225.736 71.0801 226.226 71.7912 226.559 72.5738C226.893 73.3564 227.063 74.1952 227.061 75.0419C227.059 75.8885 226.884 76.7265 226.547 77.5075C226.209 78.2885 225.716 78.9972 225.095 79.5929L217.942 86.4816C214.999 83.316 211.887 80.3016 208.62 77.4506L215.713 70.5042ZM95.214 17.3229C95.214 15.7914 95.842 14.3227 96.9598 13.2398C98.0777 12.157 99.5938 11.5486 101.175 11.5486H148.859C150.44 11.5486 151.956 12.157 153.074 13.2398C154.192 14.3227 154.82 15.7914 154.82 17.3229C154.82 18.8543 154.192 20.323 153.074 21.4059C151.956 22.4888 150.44 23.0972 148.859 23.0972H101.175C99.5938 23.0972 98.0777 22.4888 96.9598 21.4059C95.842 20.323 95.214 18.8543 95.214 17.3229ZM119.056 34.6458H130.977V46.4889C128.987 46.3965 127.032 46.1944 125.017 46.1944C123.002 46.1944 121.047 46.3965 119.056 46.4889V34.6458ZM24.939 79.5929C24.3179 78.9972 23.8244 78.2885 23.4869 77.5075C23.1495 76.7265 22.9746 75.8885 22.9724 75.0419C22.9702 74.1952 23.1408 73.3564 23.4742 72.5738C23.8077 71.7912 24.2975 71.0801 24.9155 70.4814C25.5335 69.8827 26.2675 69.4082 27.0754 69.0851C27.8833 68.7621 28.7491 68.5969 29.6231 68.599C30.4971 68.6011 31.362 68.7705 32.1682 69.0975C32.9744 69.4244 33.706 69.9025 34.3209 70.5042L41.4319 77.4333C38.1641 80.2842 35.0524 83.2987 32.1096 86.4643L24.939 79.5929ZM125.017 277.166C102.618 277.166 80.7221 270.732 62.0981 258.676C43.4742 246.621 28.9585 229.487 20.3869 209.439C11.8152 189.392 9.57243 167.333 13.9422 146.051C18.312 124.769 29.0981 105.22 44.9365 89.8768C60.7749 74.5333 80.9543 64.0843 102.923 59.851C124.891 55.6178 147.662 57.7904 168.356 66.0943C189.05 74.3981 206.737 88.4601 219.181 106.502C231.626 124.544 238.268 145.756 238.268 167.455C238.234 196.542 226.292 224.429 205.061 244.997C183.829 265.565 155.043 277.134 125.017 277.166V277.166Z" fill="white"/>
<path d="M125.017 69.292C104.976 69.292 85.385 75.0492 68.7214 85.8354C52.0579 96.6217 39.0702 111.953 31.4008 129.89C23.7314 147.827 21.7247 167.564 25.6346 186.606C29.5444 205.647 39.1951 223.138 53.3663 236.867C67.5375 250.595 85.5927 259.944 105.249 263.732C124.905 267.52 145.279 265.576 163.794 258.146C182.31 250.716 198.135 238.134 209.27 221.991C220.404 205.849 226.347 186.87 226.347 167.455C226.317 141.429 215.631 116.478 196.635 98.0754C177.638 79.6725 151.882 69.321 125.017 69.292V69.292ZM125.017 254.069C107.334 254.069 90.0476 248.99 75.3445 239.472C60.6413 229.955 49.1816 216.428 42.4145 200.601C35.6474 184.774 33.8768 167.359 37.3266 150.557C40.7765 133.756 49.2918 118.323 61.7958 106.209C74.2998 94.0961 90.2309 85.8469 107.574 82.5049C124.918 79.1628 142.895 80.8781 159.232 87.4337C175.57 93.9894 189.533 105.091 199.358 119.335C209.182 133.578 214.426 150.324 214.426 167.455C214.399 190.419 204.97 212.434 188.209 228.672C171.447 244.91 148.721 254.043 125.017 254.069V254.069Z" fill="white"/>
<path d="M125.015 103.937C128.307 103.937 130.976 101.352 130.976 98.163C130.976 94.9739 128.307 92.3887 125.015 92.3887C121.723 92.3887 119.055 94.9739 119.055 98.163C119.055 101.352 121.723 103.937 125.015 103.937Z" fill="white"/>
<path d="M125.015 242.52C128.307 242.52 130.976 239.935 130.976 236.746C130.976 233.557 128.307 230.972 125.015 230.972C121.723 230.972 119.055 233.557 119.055 236.746C119.055 239.935 121.723 242.52 125.015 242.52Z" fill="white"/>
<path d="M53.4879 173.229C56.7798 173.229 59.4485 170.644 59.4485 167.455C59.4485 164.266 56.7798 161.681 53.4879 161.681C50.196 161.681 47.5273 164.266 47.5273 167.455C47.5273 170.644 50.196 173.229 53.4879 173.229Z" fill="white"/>
<path d="M196.543 173.229C199.835 173.229 202.503 170.644 202.503 167.455C202.503 164.266 199.835 161.681 196.543 161.681C193.251 161.681 190.582 164.266 190.582 167.455C190.582 170.644 193.251 173.229 196.543 173.229Z" fill="white"/>
<path d="M70.2269 114.377C69.3931 115.185 68.8253 116.214 68.5951 117.334C68.365 118.454 68.4829 119.615 68.934 120.67C69.3851 121.725 70.1491 122.627 71.1293 123.262C72.1096 123.896 73.2621 124.235 74.441 124.235C75.62 124.235 76.7725 123.896 77.7527 123.262C78.733 122.627 79.497 121.725 79.9481 120.67C80.3991 119.615 80.5171 118.454 80.2869 117.334C80.0568 116.214 79.4889 115.185 78.6552 114.377C77.5374 113.295 76.0216 112.687 74.441 112.687C72.8605 112.687 71.3447 113.295 70.2269 114.377V114.377Z" fill="white"/>
<path d="M171.379 212.367C170.545 213.175 169.978 214.204 169.747 215.324C169.517 216.444 169.635 217.605 170.086 218.66C170.537 219.716 171.301 220.618 172.282 221.252C173.262 221.887 174.414 222.225 175.593 222.225C176.772 222.225 177.925 221.887 178.905 221.252C179.885 220.618 180.649 219.716 181.1 218.66C181.551 217.605 181.669 216.444 181.439 215.324C181.209 214.204 180.641 213.175 179.808 212.367C178.69 211.285 177.174 210.677 175.593 210.677C174.013 210.677 172.497 211.285 171.379 212.367V212.367Z" fill="white"/>
<path d="M70.2269 212.367C69.3931 213.175 68.8253 214.204 68.5951 215.324C68.365 216.444 68.4829 217.605 68.934 218.66C69.3851 219.716 70.1491 220.618 71.1293 221.252C72.1096 221.887 73.2621 222.225 74.441 222.225C75.62 222.225 76.7725 221.887 77.7527 221.252C78.733 220.618 79.497 219.716 79.9481 218.66C80.3991 217.605 80.5171 216.444 80.2869 215.324C80.0568 214.204 79.4889 213.175 78.6552 212.367C77.5374 211.285 76.0216 210.677 74.441 210.677C72.8605 210.677 71.3447 211.285 70.2269 212.367V212.367Z" fill="white"/>
<path d="M171.379 114.377C170.545 115.185 169.978 116.214 169.747 117.334C169.517 118.454 169.635 119.615 170.086 120.67C170.537 121.725 171.301 122.627 172.282 123.262C173.262 123.896 174.414 124.235 175.593 124.235C176.772 124.235 177.925 123.896 178.905 123.262C179.885 122.627 180.649 121.725 181.1 120.67C181.551 119.615 181.669 118.454 181.439 117.334C181.209 116.214 180.641 115.185 179.808 114.377C178.69 113.295 177.174 112.687 175.593 112.687C174.013 112.687 172.497 113.295 171.379 114.377Z" fill="white"/>
<path d="M127.68 172.652L175.364 149.555C176.779 148.87 177.855 147.669 178.356 146.216C178.857 144.763 178.741 143.176 178.035 141.806C177.328 140.435 176.088 139.392 174.588 138.907C173.088 138.422 171.45 138.534 170.035 139.219L130.976 158.112V121.261C130.976 119.729 130.348 118.26 129.23 117.178C128.112 116.095 126.596 115.486 125.015 115.486C123.435 115.486 121.918 116.095 120.801 117.178C119.683 118.26 119.055 119.729 119.055 121.261V167.455C119.049 168.442 119.305 169.414 119.797 170.277C120.289 171.141 121.002 171.869 121.867 172.39C122.732 172.911 123.721 173.209 124.738 173.255C125.756 173.301 126.768 173.093 127.68 172.652Z" fill="white"/>
</svg>
