<svg width="64" height="64" viewBox="0 0 64 64" fill="none" xmlns="http://www.w3.org/2000/svg">
<path d="M61 26C61 24.6739 60.4732 23.4021 59.5355 22.4645C58.5979 21.5268 57.3261 21 56 21H32C31.2051 21.0024 30.4434 21.3192 29.8813 21.8813C29.3192 22.4434 29.0024 23.2051 29 24V31H56C57.3261 31 58.5979 30.4732 59.5355 29.5355C60.4732 28.5979 61 27.3261 61 26Z" fill="#F82530"/>
<path d="M52.16 43H63V28C63.0036 27.6649 62.9768 27.3302 62.92 27C62.6797 28.6646 61.8482 30.187 60.5775 31.2888C59.3068 32.3906 57.6818 32.998 56 33H20C19.2051 33.0024 18.4434 33.3192 17.8813 33.8813C17.3192 34.4434 17.0024 35.2051 17 36V41H26C27.8565 41 29.637 41.7375 30.9497 43.0503C32.2625 44.363 33 46.1435 33 48C33 49.8565 32.2625 51.637 30.9497 52.9497C29.637 54.2625 27.8565 55 26 55H17V60C17.0024 60.7949 17.3192 61.5566 17.8813 62.1187C18.4434 62.6808 19.2051 62.9976 20 63H56C57.8559 62.9979 59.6351 62.2597 60.9474 60.9474C62.2597 59.6351 62.9979 57.8559 63 56V53H52.16L46.97 54.73C46.9849 54.8194 46.9949 54.9095 47 55C47.0055 55.9678 46.6618 56.9052 46.0321 57.6402C45.4024 58.3751 44.5288 58.8585 43.5716 59.0015C42.6144 59.1445 41.6377 58.9377 40.8207 58.4189C40.0036 57.9001 39.401 57.1042 39.1232 56.177C38.8455 55.2499 38.9114 54.2537 39.3087 53.3712C39.706 52.4887 40.4081 51.7789 41.2864 51.3722C42.1646 50.9654 43.16 50.8889 44.0901 51.1567C45.0201 51.4245 45.8225 52.0186 46.35 52.83L51.68 51.05C51.7839 51.0188 51.8915 51.0019 52 51H63V45H52C51.8915 44.9981 51.7839 44.9812 51.68 44.95L46.35 43.17C45.8255 43.9723 45.0296 44.5588 44.1079 44.8223C43.1863 45.0857 42.2006 45.0083 41.3314 44.6044C40.4621 44.2004 39.7674 43.4969 39.3745 42.6226C38.9816 41.7483 38.9167 40.7617 39.1917 39.8435C39.4668 38.9252 40.0633 38.1368 40.8722 37.6225C41.6811 37.1082 42.6481 36.9024 43.5963 37.0428C44.5445 37.1833 45.4104 37.6605 46.0355 38.3872C46.6605 39.1139 47.0029 40.0415 47 41C46.9949 41.0905 46.9849 41.1806 46.97 41.27L52.16 43Z" fill="#F82530"/>
<path d="M26 43H16C15.2044 43 14.4413 43.3161 13.8787 43.8787C13.3161 44.4413 13 45.2044 13 46V50C13 50.7956 13.3161 51.5587 13.8787 52.1213C14.4413 52.6839 15.2044 53 16 53H26C27.3261 53 28.5979 52.4732 29.5355 51.5355C30.4732 50.5979 31 49.3261 31 48C31 46.6739 30.4732 45.4021 29.5355 44.4645C28.5979 43.5268 27.3261 43 26 43ZM26 49H24C23.7348 49 23.4804 48.8946 23.2929 48.7071C23.1054 48.5196 23 48.2652 23 48C23 47.7348 23.1054 47.4804 23.2929 47.2929C23.4804 47.1054 23.7348 47 24 47H26C26.2652 47 26.5196 47.1054 26.7071 47.2929C26.8946 47.4804 27 47.7348 27 48C27 48.2652 26.8946 48.5196 26.7071 48.7071C26.5196 48.8946 26.2652 49 26 49Z" fill="#F82530"/>
<path d="M22 45H12C11.7348 45 11.4804 45.1054 11.2929 45.2929C11.1054 45.4804 11 45.7348 11 46C11 46.2652 11.1054 46.5196 11.2929 46.7071C11.4804 46.8946 11.7348 47 12 47H22C22.2652 47 22.5196 46.8946 22.7071 46.7071C22.8946 46.5196 23 46.2652 23 46C23 45.7348 22.8946 45.4804 22.7071 45.2929C22.5196 45.1054 22.2652 45 22 45Z" fill="#129590"/>
<path d="M9 7H14C14.2652 7 14.5196 6.89464 14.7071 6.70711C14.8946 6.51957 15 6.26522 15 6C15 5.73478 14.8946 5.48043 14.7071 5.29289C14.5196 5.10536 14.2652 5 14 5H9C8.73478 5 8.48043 5.10536 8.29289 5.29289C8.10536 5.48043 8 5.73478 8 6C8 6.26522 8.10536 6.51957 8.29289 6.70711C8.48043 6.89464 8.73478 7 9 7Z" fill="#129590"/>
<path d="M20 7H25C25.2652 7 25.5196 6.89464 25.7071 6.70711C25.8946 6.51957 26 6.26522 26 6C26 5.73478 25.8946 5.48043 25.7071 5.29289C25.5196 5.10536 25.2652 5 25 5H20C19.7348 5 19.4804 5.10536 19.2929 5.29289C19.1054 5.48043 19 5.73478 19 6C19 6.26522 19.1054 6.51957 19.2929 6.70711C19.4804 6.89464 19.7348 7 20 7Z" fill="#129590"/>
<path d="M48 14H33V4C33 3.20435 32.6839 2.44129 32.1213 1.87868C31.5587 1.31607 30.7956 1 30 1H4C3.20435 1 2.44129 1.31607 1.87868 1.87868C1.31607 2.44129 1 3.20435 1 4V48C1 48.7957 1.31607 49.5587 1.87868 50.1213C2.44129 50.6839 3.20435 51 4 51H30C30.7956 51 31.5587 50.6839 32.1213 50.1213C32.6839 49.5587 33 48.7957 33 48V38H48C48.7957 38 49.5587 37.6839 50.1213 37.1213C50.6839 36.5587 51 35.7957 51 35V17C51 16.2044 50.6839 15.4413 50.1213 14.8787C49.5587 14.3161 48.7957 14 48 14ZM4 3H30C30.2652 3 30.5196 3.10536 30.7071 3.29289C30.8946 3.48043 31 3.73478 31 4V9H3V4C3 3.73478 3.10536 3.48043 3.29289 3.29289C3.48043 3.10536 3.73478 3 4 3ZM30 49H4C3.73478 49 3.48043 48.8946 3.29289 48.7071C3.10536 48.5196 3 48.2652 3 48V43H31V48C31 48.2652 30.8946 48.5196 30.7071 48.7071C30.5196 48.8946 30.2652 49 30 49ZM31 41H3V11H31V14H16C15.2044 14 14.4413 14.3161 13.8787 14.8787C13.3161 15.4413 13 16.2044 13 17V35C13 35.7957 13.3161 36.5587 13.8787 37.1213C14.4413 37.6839 15.2044 38 16 38H31V41ZM48 36H16C15.7348 36 15.4804 35.8946 15.2929 35.7071C15.1054 35.5196 15 35.2652 15 35V17C15 16.7348 15.1054 16.4804 15.2929 16.2929C15.4804 16.1054 15.7348 16 16 16H48C48.2652 16 48.5196 16.1054 48.7071 16.2929C48.8946 16.4804 49 16.7348 49 17V22H41C39.9391 22 38.9217 22.4214 38.1716 23.1716C37.4214 23.9217 37 24.9391 37 26C37 27.0609 37.4214 28.0783 38.1716 28.8284C38.9217 29.5786 39.9391 30 41 30H49V35C49 35.2652 48.8946 35.5196 48.7071 35.7071C48.5196 35.8946 48.2652 36 48 36ZM49 28H41C40.4696 28 39.9609 27.7893 39.5858 27.4142C39.2107 27.0391 39 26.5304 39 26C39 25.4696 39.2107 24.9609 39.5858 24.5858C39.9609 24.2107 40.4696 24 41 24H49V28Z" fill="#129590"/>
<path d="M20 27C19.7348 27 19.4804 27.1054 19.2929 27.2929C19.1054 27.4804 19 27.7348 19 28V32C19 32.2652 19.1054 32.5196 19.2929 32.7071C19.4804 32.8946 19.7348 33 20 33C20.2652 33 20.5196 32.8946 20.7071 32.7071C20.8946 32.5196 21 32.2652 21 32V28C21 27.7348 20.8946 27.4804 20.7071 27.2929C20.5196 27.1054 20.2652 27 20 27Z" fill="#129590"/>
<path d="M20 19C19.7348 19 19.4804 19.1054 19.2929 19.2929C19.1054 19.4804 19 19.7348 19 20V24C19 24.2652 19.1054 24.5196 19.2929 24.7071C19.4804 24.8946 19.7348 25 20 25C20.2652 25 20.5196 24.8946 20.7071 24.7071C20.8946 24.5196 21 24.2652 21 24V20C21 19.7348 20.8946 19.4804 20.7071 19.2929C20.5196 19.1054 20.2652 19 20 19Z" fill="#129590"/>
</svg>
