<svg width="65" height="64" viewBox="0 0 65 64" fill="none" xmlns="http://www.w3.org/2000/svg">
<path d="M61.5 26C61.5 24.6739 60.9732 23.4021 60.0355 22.4645C59.0979 21.5268 57.8261 21 56.5 21H32.5C31.7051 21.0024 30.9434 21.3192 30.3813 21.8813C29.8192 22.4434 29.5024 23.2051 29.5 24V31H56.5C57.8261 31 59.0979 30.4732 60.0355 29.5355C60.9732 28.5979 61.5 27.3261 61.5 26V26Z" fill="#F82530"/>
<path d="M52.66 43H63.5V28C63.5036 27.6649 63.4768 27.3302 63.42 27C63.1797 28.6646 62.3482 30.187 61.0775 31.2888C59.8068 32.3906 58.1818 32.998 56.5 33H20.5C19.7051 33.0024 18.9434 33.3192 18.3813 33.8813C17.8192 34.4434 17.5024 35.2051 17.5 36V41H26.5C28.3565 41 30.137 41.7375 31.4497 43.0503C32.7625 44.363 33.5 46.1435 33.5 48C33.5 49.8565 32.7625 51.637 31.4497 52.9497C30.137 54.2625 28.3565 55 26.5 55H17.5V60C17.5024 60.7949 17.8192 61.5566 18.3813 62.1187C18.9434 62.6808 19.7051 62.9976 20.5 63H56.5C58.3559 62.9979 60.1351 62.2597 61.4474 60.9474C62.7597 59.6351 63.4979 57.8559 63.5 56V53H52.66L47.47 54.73C47.4849 54.8194 47.4949 54.9095 47.5 55C47.5055 55.9678 47.1618 56.9052 46.5321 57.6402C45.9024 58.3751 45.0288 58.8585 44.0716 59.0015C43.1144 59.1445 42.1377 58.9377 41.3207 58.4189C40.5036 57.9001 39.901 57.1042 39.6232 56.177C39.3455 55.2499 39.4114 54.2537 39.8087 53.3712C40.206 52.4887 40.9081 51.7789 41.7864 51.3722C42.6646 50.9654 43.66 50.8889 44.5901 51.1567C45.5201 51.4245 46.3225 52.0186 46.85 52.83L52.18 51.05C52.2839 51.0188 52.3915 51.0019 52.5 51H63.5V45H52.5C52.3915 44.9981 52.2839 44.9812 52.18 44.95L46.85 43.17C46.3255 43.9723 45.5296 44.5588 44.6079 44.8223C43.6863 45.0857 42.7006 45.0083 41.8314 44.6044C40.9621 44.2004 40.2674 43.4969 39.8745 42.6226C39.4816 41.7483 39.4167 40.7617 39.6917 39.8435C39.9668 38.9252 40.5633 38.1368 41.3722 37.6225C42.1811 37.1082 43.1481 36.9024 44.0963 37.0428C45.0445 37.1833 45.9104 37.6605 46.5355 38.3872C47.1605 39.1139 47.5029 40.0415 47.5 41C47.4949 41.0905 47.4849 41.1806 47.47 41.27L52.66 43Z" fill="#F82530"/>
<path d="M26.5 43H16.5C15.7044 43 14.9413 43.3161 14.3787 43.8787C13.8161 44.4413 13.5 45.2044 13.5 46V50C13.5 50.7956 13.8161 51.5587 14.3787 52.1213C14.9413 52.6839 15.7044 53 16.5 53H26.5C27.8261 53 29.0979 52.4732 30.0355 51.5355C30.9732 50.5979 31.5 49.3261 31.5 48C31.5 46.6739 30.9732 45.4021 30.0355 44.4645C29.0979 43.5268 27.8261 43 26.5 43V43ZM26.5 49H24.5C24.2348 49 23.9804 48.8946 23.7929 48.7071C23.6054 48.5196 23.5 48.2652 23.5 48C23.5 47.7348 23.6054 47.4804 23.7929 47.2929C23.9804 47.1054 24.2348 47 24.5 47H26.5C26.7652 47 27.0196 47.1054 27.2071 47.2929C27.3946 47.4804 27.5 47.7348 27.5 48C27.5 48.2652 27.3946 48.5196 27.2071 48.7071C27.0196 48.8946 26.7652 49 26.5 49Z" fill="#F82530"/>
<path d="M22.5 45H12.5C12.2348 45 11.9804 45.1054 11.7929 45.2929C11.6054 45.4804 11.5 45.7348 11.5 46C11.5 46.2652 11.6054 46.5196 11.7929 46.7071C11.9804 46.8946 12.2348 47 12.5 47H22.5C22.7652 47 23.0196 46.8946 23.2071 46.7071C23.3946 46.5196 23.5 46.2652 23.5 46C23.5 45.7348 23.3946 45.4804 23.2071 45.2929C23.0196 45.1054 22.7652 45 22.5 45Z" fill="#129590"/>
<path d="M9.5 7H14.5C14.7652 7 15.0196 6.89464 15.2071 6.70711C15.3946 6.51957 15.5 6.26522 15.5 6C15.5 5.73478 15.3946 5.48043 15.2071 5.29289C15.0196 5.10536 14.7652 5 14.5 5H9.5C9.23478 5 8.98043 5.10536 8.79289 5.29289C8.60536 5.48043 8.5 5.73478 8.5 6C8.5 6.26522 8.60536 6.51957 8.79289 6.70711C8.98043 6.89464 9.23478 7 9.5 7V7Z" fill="#129590"/>
<path d="M20.5 7H25.5C25.7652 7 26.0196 6.89464 26.2071 6.70711C26.3946 6.51957 26.5 6.26522 26.5 6C26.5 5.73478 26.3946 5.48043 26.2071 5.29289C26.0196 5.10536 25.7652 5 25.5 5H20.5C20.2348 5 19.9804 5.10536 19.7929 5.29289C19.6054 5.48043 19.5 5.73478 19.5 6C19.5 6.26522 19.6054 6.51957 19.7929 6.70711C19.9804 6.89464 20.2348 7 20.5 7Z" fill="#129590"/>
<path d="M48.5 14H33.5V4C33.5 3.20435 33.1839 2.44129 32.6213 1.87868C32.0587 1.31607 31.2956 1 30.5 1H4.5C3.70435 1 2.94129 1.31607 2.37868 1.87868C1.81607 2.44129 1.5 3.20435 1.5 4V48C1.5 48.7956 1.81607 49.5587 2.37868 50.1213C2.94129 50.6839 3.70435 51 4.5 51H30.5C31.2956 51 32.0587 50.6839 32.6213 50.1213C33.1839 49.5587 33.5 48.7956 33.5 48V38H48.5C49.2956 38 50.0587 37.6839 50.6213 37.1213C51.1839 36.5587 51.5 35.7956 51.5 35V17C51.5 16.2044 51.1839 15.4413 50.6213 14.8787C50.0587 14.3161 49.2956 14 48.5 14ZM4.5 3H30.5C30.7652 3 31.0196 3.10536 31.2071 3.29289C31.3946 3.48043 31.5 3.73478 31.5 4V9H3.5V4C3.5 3.73478 3.60536 3.48043 3.79289 3.29289C3.98043 3.10536 4.23478 3 4.5 3V3ZM30.5 49H4.5C4.23478 49 3.98043 48.8946 3.79289 48.7071C3.60536 48.5196 3.5 48.2652 3.5 48V43H31.5V48C31.5 48.2652 31.3946 48.5196 31.2071 48.7071C31.0196 48.8946 30.7652 49 30.5 49ZM31.5 41H3.5V11H31.5V14H16.5C15.7044 14 14.9413 14.3161 14.3787 14.8787C13.8161 15.4413 13.5 16.2044 13.5 17V35C13.5 35.7956 13.8161 36.5587 14.3787 37.1213C14.9413 37.6839 15.7044 38 16.5 38H31.5V41ZM48.5 36H16.5C16.2348 36 15.9804 35.8946 15.7929 35.7071C15.6054 35.5196 15.5 35.2652 15.5 35V17C15.5 16.7348 15.6054 16.4804 15.7929 16.2929C15.9804 16.1054 16.2348 16 16.5 16H48.5C48.7652 16 49.0196 16.1054 49.2071 16.2929C49.3946 16.4804 49.5 16.7348 49.5 17V22H41.5C40.4391 22 39.4217 22.4214 38.6716 23.1716C37.9214 23.9217 37.5 24.9391 37.5 26C37.5 27.0609 37.9214 28.0783 38.6716 28.8284C39.4217 29.5786 40.4391 30 41.5 30H49.5V35C49.5 35.2652 49.3946 35.5196 49.2071 35.7071C49.0196 35.8946 48.7652 36 48.5 36ZM49.5 28H41.5C40.9696 28 40.4609 27.7893 40.0858 27.4142C39.7107 27.0391 39.5 26.5304 39.5 26C39.5 25.4696 39.7107 24.9609 40.0858 24.5858C40.4609 24.2107 40.9696 24 41.5 24H49.5V28Z" fill="#129590"/>
<path d="M20.5 27C20.2348 27 19.9804 27.1054 19.7929 27.2929C19.6054 27.4804 19.5 27.7348 19.5 28V32C19.5 32.2652 19.6054 32.5196 19.7929 32.7071C19.9804 32.8946 20.2348 33 20.5 33C20.7652 33 21.0196 32.8946 21.2071 32.7071C21.3946 32.5196 21.5 32.2652 21.5 32V28C21.5 27.7348 21.3946 27.4804 21.2071 27.2929C21.0196 27.1054 20.7652 27 20.5 27Z" fill="#129590"/>
<path d="M20.5 19C20.2348 19 19.9804 19.1054 19.7929 19.2929C19.6054 19.4804 19.5 19.7348 19.5 20V24C19.5 24.2652 19.6054 24.5196 19.7929 24.7071C19.9804 24.8946 20.2348 25 20.5 25C20.7652 25 21.0196 24.8946 21.2071 24.7071C21.3946 24.5196 21.5 24.2652 21.5 24V20C21.5 19.7348 21.3946 19.4804 21.2071 19.2929C21.0196 19.1054 20.7652 19 20.5 19Z" fill="#129590"/>
</svg>
