<svg width="368" height="368" viewBox="0 0 368 368" fill="none" xmlns="http://www.w3.org/2000/svg">
<path d="M350.75 149.5C350.75 141.875 347.721 134.562 342.329 129.171C336.938 123.779 329.625 120.75 322 120.75H184C179.429 120.764 175.05 122.585 171.817 125.817C168.585 129.05 166.764 133.429 166.75 138V178.25H322C329.625 178.25 336.938 175.221 342.329 169.829C347.721 164.438 350.75 157.125 350.75 149.5V149.5Z" fill="#F82530"/>
<path d="M299.92 247.25H362.25V161C362.271 159.073 362.117 157.149 361.79 155.25C360.409 164.821 355.627 173.576 348.32 179.911C341.014 186.246 331.671 189.739 322 189.75H115C110.429 189.764 106.05 191.585 102.817 194.817C99.5854 198.05 97.7637 202.429 97.75 207V235.75H149.5C160.175 235.75 170.413 239.991 177.961 247.539C185.509 255.087 189.75 265.325 189.75 276C189.75 286.675 185.509 296.913 177.961 304.461C170.413 312.009 160.175 316.25 149.5 316.25H97.75V345C97.7637 349.571 99.5854 353.95 102.817 357.183C106.05 360.415 110.429 362.236 115 362.25H322C332.671 362.238 342.902 357.993 350.448 350.448C357.993 342.902 362.238 332.671 362.25 322V304.75H299.92L270.078 314.697C270.163 315.211 270.221 315.73 270.25 316.25C270.281 321.815 268.305 327.205 264.685 331.431C261.064 335.657 256.041 338.436 250.537 339.259C245.033 340.081 239.417 338.892 234.719 335.909C230.021 332.926 226.556 328.349 224.959 323.018C223.362 317.687 223.74 311.959 226.025 306.884C228.309 301.81 232.347 297.729 237.397 295.39C242.446 293.051 248.17 292.611 253.518 294.151C258.866 295.691 263.479 299.107 266.513 303.773L297.16 293.537C297.757 293.358 298.376 293.261 299 293.25H362.25V258.75H299C298.376 258.739 297.757 258.642 297.16 258.463L266.513 248.227C263.497 252.841 258.92 256.213 253.621 257.728C248.321 259.243 242.654 258.798 237.655 256.475C232.657 254.152 228.663 250.107 226.403 245.08C224.144 240.053 223.771 234.38 225.352 229.1C226.934 223.82 230.364 219.287 235.015 216.329C239.666 213.372 245.227 212.189 250.679 212.996C256.131 213.804 261.11 216.548 264.704 220.727C268.298 224.905 270.267 230.238 270.25 235.75C270.221 236.27 270.163 236.789 270.078 237.303L299.92 247.25Z" fill="#F82530"/>
<path d="M149.5 247.25H92C87.425 247.25 83.0374 249.067 79.8024 252.302C76.5674 255.537 74.75 259.925 74.75 264.5V287.5C74.75 292.075 76.5674 296.463 79.8024 299.698C83.0374 302.933 87.425 304.75 92 304.75H149.5C157.125 304.75 164.438 301.721 169.829 296.329C175.221 290.938 178.25 283.625 178.25 276C178.25 268.375 175.221 261.062 169.829 255.671C164.438 250.279 157.125 247.25 149.5 247.25V247.25ZM149.5 281.75H138C136.475 281.75 135.012 281.144 133.934 280.066C132.856 278.988 132.25 277.525 132.25 276C132.25 274.475 132.856 273.012 133.934 271.934C135.012 270.856 136.475 270.25 138 270.25H149.5C151.025 270.25 152.488 270.856 153.566 271.934C154.644 273.012 155.25 274.475 155.25 276C155.25 277.525 154.644 278.988 153.566 280.066C152.488 281.144 151.025 281.75 149.5 281.75Z" fill="#F82530"/>
<path d="M126.5 258.75H69C67.475 258.75 66.0125 259.356 64.9341 260.434C63.8558 261.512 63.25 262.975 63.25 264.5C63.25 266.025 63.8558 267.488 64.9341 268.566C66.0125 269.644 67.475 270.25 69 270.25H126.5C128.025 270.25 129.488 269.644 130.566 268.566C131.644 267.488 132.25 266.025 132.25 264.5C132.25 262.975 131.644 261.512 130.566 260.434C129.488 259.356 128.025 258.75 126.5 258.75Z" fill="white"/>
<path d="M51.75 40.25H80.5C82.025 40.25 83.4875 39.6442 84.5659 38.5659C85.6442 37.4875 86.25 36.025 86.25 34.5C86.25 32.975 85.6442 31.5125 84.5659 30.4341C83.4875 29.3558 82.025 28.75 80.5 28.75H51.75C50.225 28.75 48.7625 29.3558 47.6841 30.4341C46.6058 31.5125 46 32.975 46 34.5C46 36.025 46.6058 37.4875 47.6841 38.5659C48.7625 39.6442 50.225 40.25 51.75 40.25V40.25Z" fill="white"/>
<path d="M115 40.25H143.75C145.275 40.25 146.738 39.6442 147.816 38.5659C148.894 37.4875 149.5 36.025 149.5 34.5C149.5 32.975 148.894 31.5125 147.816 30.4341C146.738 29.3558 145.275 28.75 143.75 28.75H115C113.475 28.75 112.012 29.3558 110.934 30.4341C109.856 31.5125 109.25 32.975 109.25 34.5C109.25 36.025 109.856 37.4875 110.934 38.5659C112.012 39.6442 113.475 40.25 115 40.25Z" fill="white"/>
<path d="M276 80.5H189.75V23C189.75 18.425 187.933 14.0374 184.698 10.8024C181.463 7.56741 177.075 5.75 172.5 5.75H23C18.425 5.75 14.0374 7.56741 10.8024 10.8024C7.56741 14.0374 5.75 18.425 5.75 23V276C5.75 280.575 7.56741 284.963 10.8024 288.198C14.0374 291.433 18.425 293.25 23 293.25H172.5C177.075 293.25 181.463 291.433 184.698 288.198C187.933 284.963 189.75 280.575 189.75 276V218.5H276C280.575 218.5 284.963 216.683 288.198 213.448C291.433 210.213 293.25 205.825 293.25 201.25V97.75C293.25 93.175 291.433 88.7874 288.198 85.5524C284.963 82.3174 280.575 80.5 276 80.5ZM23 17.25H172.5C174.025 17.25 175.488 17.8558 176.566 18.9341C177.644 20.0125 178.25 21.475 178.25 23V51.75H17.25V23C17.25 21.475 17.8558 20.0125 18.9341 18.9341C20.0125 17.8558 21.475 17.25 23 17.25V17.25ZM172.5 281.75H23C21.475 281.75 20.0125 281.144 18.9341 280.066C17.8558 278.988 17.25 277.525 17.25 276V247.25H178.25V276C178.25 277.525 177.644 278.988 176.566 280.066C175.488 281.144 174.025 281.75 172.5 281.75ZM178.25 235.75H17.25V63.25H178.25V80.5H92C87.425 80.5 83.0374 82.3174 79.8024 85.5524C76.5674 88.7874 74.75 93.175 74.75 97.75V201.25C74.75 205.825 76.5674 210.213 79.8024 213.448C83.0374 216.683 87.425 218.5 92 218.5H178.25V235.75ZM276 207H92C90.475 207 89.0125 206.394 87.9341 205.316C86.8558 204.238 86.25 202.775 86.25 201.25V97.75C86.25 96.225 86.8558 94.7625 87.9341 93.6841C89.0125 92.6058 90.475 92 92 92H276C277.525 92 278.988 92.6058 280.066 93.6841C281.144 94.7625 281.75 96.225 281.75 97.75V126.5H235.75C229.65 126.5 223.8 128.923 219.487 133.237C215.173 137.55 212.75 143.4 212.75 149.5C212.75 155.6 215.173 161.45 219.487 165.763C223.8 170.077 229.65 172.5 235.75 172.5H281.75V201.25C281.75 202.775 281.144 204.238 280.066 205.316C278.988 206.394 277.525 207 276 207ZM281.75 161H235.75C232.7 161 229.775 159.788 227.618 157.632C225.462 155.475 224.25 152.55 224.25 149.5C224.25 146.45 225.462 143.525 227.618 141.368C229.775 139.212 232.7 138 235.75 138H281.75V161Z" fill="white"/>
<path d="M115 155.25C113.475 155.25 112.012 155.856 110.934 156.934C109.856 158.012 109.25 159.475 109.25 161V184C109.25 185.525 109.856 186.988 110.934 188.066C112.012 189.144 113.475 189.75 115 189.75C116.525 189.75 117.988 189.144 119.066 188.066C120.144 186.988 120.75 185.525 120.75 184V161C120.75 159.475 120.144 158.012 119.066 156.934C117.988 155.856 116.525 155.25 115 155.25Z" fill="white"/>
<path d="M115 109.25C113.475 109.25 112.012 109.856 110.934 110.934C109.856 112.012 109.25 113.475 109.25 115V138C109.25 139.525 109.856 140.988 110.934 142.066C112.012 143.144 113.475 143.75 115 143.75C116.525 143.75 117.988 143.144 119.066 142.066C120.144 140.988 120.75 139.525 120.75 138V115C120.75 113.475 120.144 112.012 119.066 110.934C117.988 109.856 116.525 109.25 115 109.25Z" fill="white"/>
</svg>
