<svg width="103" height="40" viewBox="0 0 103 40" fill="none" xmlns="http://www.w3.org/2000/svg">
<path d="M0 2.90817L48.7118 0L49.6871 2.17548C49.0121 1.54743 48.1071 1.16327 47.1124 1.16327C45.0244 1.16327 43.3317 2.85591 43.3317 4.94389C43.3317 7.03187 45.0244 8.72451 47.1124 8.72451C49.2003 8.72451 50.893 7.03187 50.893 4.94389C50.893 4.91711 50.8927 4.89039 50.8921 4.86373L56.53 17.4404L50.2327 23.7377V9.75369H44.1722V28.102L41.6082 25.5379C42.4145 24.4086 42.9511 23.0965 43.218 21.6017H37.6719L37.6567 21.5865L37.6415 21.6017H36.8299C36.5387 22.2387 36.1201 22.7392 35.5741 23.1032C35.0463 23.449 34.4366 23.6219 33.745 23.6219C32.7259 23.6219 31.916 23.2397 31.3154 22.4753C30.733 21.7109 30.4418 20.6826 30.4418 19.3904C30.4418 18.0983 30.733 17.07 31.3154 16.3056C31.916 15.5412 32.7259 15.159 33.745 15.159C34.4366 15.159 35.0463 15.341 35.5741 15.705C36.1201 16.0508 36.5387 16.5422 36.8299 17.1792H43.218C42.945 15.6504 42.3899 14.3127 41.5527 13.1661C40.7337 12.0196 39.6599 11.1369 38.3314 10.5181C37.021 9.88109 35.5286 9.5626 33.8542 9.5626C31.9069 9.5626 30.2143 9.98119 28.7765 10.8184C27.3387 11.6374 26.2286 12.793 25.446 14.2854C24.6816 15.7778 24.2994 17.4795 24.2994 19.3904C24.2994 21.3014 24.6816 23.0031 25.446 24.4955C26.2286 25.9878 27.3387 27.1526 28.7765 27.9898C30.2143 28.8088 31.9069 29.2183 33.8542 29.2183C34.8763 29.2183 35.8306 29.103 36.7171 28.8724L39.5858 31.7411L13.3776 39.9873L9.44303 29.0818H14.405V22.9394H16.8074C18.3726 22.9394 19.7011 22.6482 20.7931 22.0658C21.9033 21.4834 22.7405 20.7008 23.3047 19.718C23.8689 18.717 24.151 17.6069 24.151 16.3875C24.151 14.3673 23.514 12.7566 22.24 11.5555C20.9842 10.3543 19.1733 9.75369 16.8074 9.75369H8.34452V26.037L0 2.90817Z" fill="#E8F5F4"/>
<path d="M55.4447 26.7513L60.0537 25.3011L59.076 23.12L55.4447 26.7513Z" fill="#E8F5F4"/>
<path d="M16.1249 18.162C17.3807 18.162 18.0086 17.5705 18.0086 16.3875C18.0086 15.2045 17.3807 14.613 16.1249 14.613H14.405V18.162H16.1249Z" fill="#E8F5F4"/>
<path fill-rule="evenodd" clip-rule="evenodd" d="M45.0198 30.5952L37.6561 23.2316L35.1885 25.6992L45.0198 35.5305L63.4485 17.1018L60.9808 14.6341L45.0198 30.5952Z" fill="#E8F5F4"/>
<path d="M89.6115 23.0445C88.3086 23.0445 87.2313 22.7456 86.3798 22.1478C85.5386 21.5399 85.082 20.6534 85.0102 19.4883H88.642C88.6933 20.1063 88.9703 20.4153 89.473 20.4153C89.6577 20.4153 89.8116 20.3748 89.9347 20.2938C90.068 20.2026 90.1347 20.0658 90.1347 19.8834C90.1347 19.6302 89.9962 19.4275 89.7192 19.2755C89.4422 19.1134 89.0113 18.9311 88.4266 18.7285C87.7289 18.4853 87.1493 18.2472 86.6876 18.0142C86.2362 17.7812 85.8463 17.4418 85.518 16.996C85.1897 16.5502 85.0307 15.9778 85.041 15.2787C85.041 14.5796 85.2205 13.9869 85.5796 13.5006C85.9489 13.0042 86.4465 12.6293 87.0723 12.376C87.7084 12.1227 88.4214 11.9961 89.2114 11.9961C90.5451 11.9961 91.6018 12.3 92.3815 12.9079C93.1715 13.5158 93.587 14.3719 93.628 15.4763H89.9501C89.9398 15.1723 89.8629 14.9545 89.7192 14.8228C89.5756 14.6911 89.4012 14.6252 89.196 14.6252C89.0524 14.6252 88.9344 14.6759 88.8421 14.7772C88.7497 14.8684 88.7036 15.0001 88.7036 15.1723C88.7036 15.4155 88.8369 15.6181 89.1037 15.7802C89.3807 15.9322 89.8167 16.1196 90.4117 16.3425C91.0991 16.5958 91.6634 16.8389 92.1045 17.072C92.5559 17.305 92.9458 17.6292 93.2741 18.0446C93.6024 18.46 93.7665 18.9817 93.7665 19.6099C93.7665 20.2684 93.6024 20.8611 93.2741 21.388C92.9458 21.9047 92.4687 22.3099 91.8429 22.6037C91.2171 22.8975 90.4733 23.0445 89.6115 23.0445Z" fill="#E8F5F4"/>
<path fill-rule="evenodd" clip-rule="evenodd" d="M79.1441 12.1785C80.2829 12.1785 81.2781 12.4064 82.1296 12.8623C82.9914 13.3182 83.6531 13.9515 84.1148 14.762C84.5764 15.5725 84.8073 16.4945 84.8073 17.5279C84.8073 18.5511 84.5764 19.4731 84.1148 20.2938C83.6531 21.1144 82.9914 21.7628 82.1296 22.239C81.2781 22.705 80.2829 22.9381 79.1441 22.9381H74.6044V12.1785H79.1441ZM78.8363 19.929C79.6058 19.929 80.2162 19.7213 80.6676 19.3059C81.119 18.8906 81.3447 18.2979 81.3447 17.5279C81.3447 16.7579 81.119 16.1652 80.6676 15.7498C80.2162 15.3344 79.6058 15.1267 78.8363 15.1267H78.0207V19.929H78.8363Z" fill="#E8F5F4"/>
<path d="M95.3058 22.1478C96.1573 22.7456 97.2345 23.0445 98.5375 23.0445C99.3992 23.0445 100.143 22.8975 100.769 22.6037C101.395 22.3099 101.872 21.9047 102.2 21.388C102.528 20.8611 102.692 20.2684 102.692 19.6099C102.692 18.9817 102.528 18.46 102.2 18.0446C101.872 17.6292 101.482 17.305 101.03 17.072C100.589 16.8389 100.025 16.5958 99.3377 16.3425C98.7427 16.1196 98.3066 15.9322 98.0296 15.7802C97.7629 15.6181 97.6295 15.4155 97.6295 15.1723C97.6295 15.0001 97.6757 14.8684 97.768 14.7772C97.8604 14.6759 97.9783 14.6252 98.122 14.6252C98.3272 14.6252 98.5016 14.6911 98.6452 14.8228C98.7888 14.9545 98.8658 15.1723 98.876 15.4763H102.554C102.513 14.3719 102.097 13.5158 101.307 12.9079C100.528 12.3 99.4711 11.9961 98.1374 11.9961C97.3474 11.9961 96.6344 12.1227 95.9983 12.376C95.3725 12.6293 94.8749 13.0042 94.5056 13.5006C94.1465 13.9869 93.9669 14.5796 93.9669 15.2787C93.9567 15.9778 94.1157 16.5502 94.444 16.996C94.7723 17.4418 95.1622 17.7812 95.6136 18.0142C96.0752 18.2472 96.6549 18.4853 97.3525 18.7285C97.9373 18.9311 98.3682 19.1134 98.6452 19.2755C98.9222 19.4275 99.0607 19.6302 99.0607 19.8834C99.0607 20.0658 98.994 20.2026 98.8606 20.2938C98.7375 20.3748 98.5836 20.4153 98.399 20.4153C97.8963 20.4153 97.6193 20.1063 97.568 19.4883H93.9362C94.008 20.6534 94.4645 21.5399 95.3058 22.1478Z" fill="#E8F5F4"/>
<path fill-rule="evenodd" clip-rule="evenodd" d="M80.0712 27.991C79.7478 27.991 79.4508 27.9161 79.1803 27.7662C78.9097 27.6163 78.6952 27.4094 78.5368 27.1454C78.3784 26.8782 78.2992 26.5768 78.2992 26.2411C78.2992 25.9088 78.3784 25.6106 78.5368 25.3467C78.6952 25.0794 78.9097 24.8709 79.1803 24.721C79.4508 24.5711 79.7478 24.4961 80.0712 24.4961C80.3979 24.4961 80.6948 24.5711 80.9621 24.721C81.2327 24.8709 81.4455 25.0794 81.6006 25.3467C81.759 25.6106 81.8382 25.9088 81.8382 26.2411C81.8382 26.5768 81.759 26.8782 81.6006 27.1454C81.4455 27.4094 81.2327 27.6163 80.9621 27.7662C80.6915 27.9161 80.3946 27.991 80.0712 27.991ZM80.0712 27.38C80.2791 27.38 80.4622 27.3344 80.6206 27.2432C80.779 27.1487 80.9027 27.0151 80.9918 26.8424C81.0809 26.6697 81.1255 26.4692 81.1255 26.2411C81.1255 26.013 81.0809 25.8143 80.9918 25.6448C80.9027 25.4721 80.779 25.3401 80.6206 25.2489C80.4622 25.1577 80.2791 25.112 80.0712 25.112C79.8633 25.112 79.6785 25.1577 79.5168 25.2489C79.3584 25.3401 79.2347 25.4721 79.1456 25.6448C79.0565 25.8143 79.012 26.013 79.012 26.2411C79.012 26.4692 79.0565 26.6697 79.1456 26.8424C79.2347 27.0151 79.3584 27.1487 79.5168 27.2432C79.6785 27.3344 79.8633 27.38 80.0712 27.38Z" fill="#E8F5F4"/>
<path d="M74.5 26.246C74.5 25.9104 74.5759 25.6106 74.7277 25.3467C74.8828 25.0794 75.0923 24.8725 75.3563 24.7259C75.6236 24.576 75.9222 24.501 76.2522 24.501C76.6382 24.501 76.9765 24.5988 77.2668 24.7943C77.5572 24.9898 77.7602 25.2603 77.8756 25.6057H77.0788C76.9996 25.4428 76.8874 25.3206 76.7422 25.2391C76.6003 25.1577 76.4353 25.1169 76.2472 25.1169C76.0459 25.1169 75.8661 25.1642 75.7077 25.2587C75.5526 25.3499 75.4305 25.4803 75.3414 25.6497C75.2556 25.8192 75.2127 26.0179 75.2127 26.246C75.2127 26.4709 75.2556 26.6697 75.3414 26.8424C75.4305 27.0118 75.5526 27.1438 75.7077 27.2383C75.8661 27.3295 76.0459 27.3751 76.2472 27.3751C76.4353 27.3751 76.6003 27.3344 76.7422 27.2529C76.8874 27.1682 76.9996 27.0444 77.0788 26.8815H77.8756C77.7602 27.2301 77.5572 27.5022 77.2668 27.6978C76.9798 27.89 76.6415 27.9861 76.2522 27.9861C75.9222 27.9861 75.6236 27.9128 75.3563 27.7662C75.0923 27.6163 74.8828 27.4094 74.7277 27.1454C74.5759 26.8815 74.5 26.5817 74.5 26.246Z" fill="#E8F5F4"/>
<path d="M86.1204 27.9568V24.545H85.3384L84.2396 27.0819L83.1407 24.545H82.3537V27.9568H83.0467V25.7377L83.9772 27.9568H84.5019L85.4275 25.7377V27.9568H86.1204Z" fill="#E8F5F4"/>
<path fill-rule="evenodd" clip-rule="evenodd" d="M89.3249 25.6008C89.3249 25.7833 89.2803 25.9544 89.1912 26.1141C89.1054 26.2737 88.9685 26.4024 88.7804 26.5002C88.5956 26.598 88.3613 26.6468 88.0776 26.6468H87.4985V27.9568H86.8055V24.545H88.0776C88.3448 24.545 88.5725 24.5906 88.7606 24.6819C88.9487 24.7731 89.0889 24.8986 89.1813 25.0583C89.277 25.2179 89.3249 25.3988 89.3249 25.6008ZM88.0479 26.0945C88.2392 26.0945 88.3811 26.0521 88.4735 25.9674C88.5659 25.8794 88.6121 25.7572 88.6121 25.6008C88.6121 25.2684 88.424 25.1023 88.0479 25.1023H87.4985V26.0945H88.0479Z" fill="#E8F5F4"/>
<path d="M90.5098 27.9568V24.545H89.8169V27.9568H90.5098Z" fill="#E8F5F4"/>
<path d="M91.8874 27.4143H93.0258V27.9568H91.1944V24.545H91.8874V27.4143Z" fill="#E8F5F4"/>
<path fill-rule="evenodd" clip-rule="evenodd" d="M93.981 27.9568L94.2087 27.3067H95.5847L95.8124 27.9568H96.5449L95.3025 24.5401H94.4958L93.2534 27.9568H93.981ZM94.8967 25.332L95.3966 26.7593H94.3968L94.8967 25.332Z" fill="#E8F5F4"/>
<path d="M99.9642 27.9568H99.2713L97.7022 25.6155V27.9568H97.0093V24.5401H97.7022L99.2713 26.8864V24.5401H99.9642V27.9568Z" fill="#E8F5F4"/>
<path d="M103 25.0974V24.545H100.466V25.0974H101.386V27.9568H102.079V25.0974H103Z" fill="#E8F5F4"/>
</svg>
