<svg width="368" height="368" viewBox="0 0 368 368" fill="none" xmlns="http://www.w3.org/2000/svg">
<path d="M350.75 316.249H345V304.749C345 300.174 343.183 295.786 339.948 292.551C336.713 289.316 332.325 287.499 327.75 287.499H323.788C321.598 270.249 311.713 216.722 272.538 199.489C281.784 195.959 299.132 193.992 327.963 206.389C342.941 213.663 355.459 209.126 360.099 200.892C365.228 191.79 362.515 176.742 339.52 161.89C320.213 149.999 304.568 133.003 294.314 112.779C293.875 111.731 293.136 110.836 292.189 110.208C291.243 109.58 290.131 109.246 288.995 109.249H271.049V86.2487C271.049 85.3531 270.84 84.4699 270.438 83.6696C270.036 82.8693 269.453 82.1739 268.734 81.6388C268.016 81.1038 267.183 80.7439 266.301 80.5879C265.419 80.4319 264.513 80.484 263.655 80.7402C260.607 81.6487 188.905 103.614 170.809 157.733C151.116 216.572 204.573 256.736 211.399 287.499H201.25C196.675 287.499 192.287 289.316 189.052 292.551C185.817 295.786 184 300.174 184 304.749V316.249H178.25C173.675 316.249 169.287 318.066 166.052 321.301C162.817 324.536 161 328.924 161 333.499V350.749C161 355.324 162.817 359.711 166.052 362.946C169.287 366.181 173.675 367.999 178.25 367.999H350.75C355.325 367.999 359.713 366.181 362.948 362.946C366.183 359.711 368 355.324 368 350.749V333.499C368 328.924 366.183 324.536 362.948 321.301C359.713 318.066 355.325 316.249 350.75 316.249V316.249ZM195.5 304.749C195.5 303.224 196.106 301.761 197.184 300.683C198.262 299.604 199.725 298.999 201.25 298.999H327.75C329.275 298.999 330.738 299.604 331.816 300.683C332.894 301.761 333.5 303.224 333.5 304.749V316.249H195.5V304.749Z" fill="#F82530"/>
<path d="M270.25 0H17.25C12.675 0 8.28741 1.81741 5.05241 5.05241C1.81741 8.28741 0 12.675 0 17.25V40.25C0 44.825 1.81741 49.2126 5.05241 52.4476C8.28741 55.6826 12.675 57.5 17.25 57.5H23V224.25C23 228.825 24.8174 233.213 28.0524 236.448C31.2874 239.683 35.675 241.5 40.25 241.5H138V276H132.25C130.725 276 129.262 276.606 128.184 277.684C127.106 278.762 126.5 280.225 126.5 281.75C126.5 283.275 127.106 284.738 128.184 285.816C129.262 286.894 130.725 287.5 132.25 287.5H155.25C156.775 287.5 158.238 286.894 159.316 285.816C160.394 284.738 161 283.275 161 281.75C161 280.225 160.394 278.762 159.316 277.684C158.238 276.606 156.775 276 155.25 276H149.5V241.5H247.25C251.825 241.5 256.213 239.683 259.448 236.448C262.683 233.213 264.5 228.825 264.5 224.25V57.5H270.25C274.825 57.5 279.213 55.6826 282.448 52.4476C285.683 49.2126 287.5 44.825 287.5 40.25V17.25C287.5 12.675 285.683 8.28741 282.448 5.05241C279.213 1.81741 274.825 0 270.25 0V0ZM253 224.25C253 225.775 252.394 227.238 251.316 228.316C250.238 229.394 248.775 230 247.25 230H40.25C38.725 230 37.2625 229.394 36.1841 228.316C35.1058 227.238 34.5 225.775 34.5 224.25V57.5H253V224.25ZM276 40.25C276 41.775 275.394 43.2375 274.316 44.3159C273.238 45.3942 271.775 46 270.25 46H17.25C15.725 46 14.2625 45.3942 13.1841 44.3159C12.1058 43.2375 11.5 41.775 11.5 40.25V17.25C11.5 15.725 12.1058 14.2625 13.1841 13.1841C14.2625 12.1058 15.725 11.5 17.25 11.5H270.25C271.775 11.5 273.238 12.1058 274.316 13.1841C275.394 14.2625 276 15.725 276 17.25V40.25Z" fill="white"/>
<path d="M74.75 212.75C79.299 212.75 83.7458 211.401 87.5281 208.874C91.3104 206.347 94.2584 202.754 95.9992 198.552C97.74 194.349 98.1955 189.724 97.3081 185.263C96.4206 180.801 94.2301 176.703 91.0134 173.487C87.7968 170.27 83.6986 168.079 79.2371 167.192C74.7755 166.304 70.151 166.76 65.9483 168.501C61.7456 170.242 58.1535 173.19 55.6262 176.972C53.0989 180.754 51.75 185.201 51.75 189.75C51.75 195.85 54.1732 201.7 58.4865 206.013C62.7999 210.327 68.65 212.75 74.75 212.75ZM74.75 178.25C77.0245 178.25 79.2479 178.924 81.1391 180.188C83.0302 181.452 84.5042 183.248 85.3746 185.349C86.245 187.451 86.4728 189.763 86.029 191.994C85.5853 194.224 84.49 196.273 82.8817 197.882C81.2734 199.49 79.2243 200.585 76.9935 201.029C74.7628 201.473 72.4505 201.245 70.3491 200.375C68.2478 199.504 66.4517 198.03 65.1881 196.139C63.9245 194.248 63.25 192.024 63.25 189.75C63.25 186.7 64.4616 183.775 66.6183 181.618C68.7749 179.462 71.7 178.25 74.75 178.25Z" fill="white"/>
<path d="M120.75 195.501H201.25C205.825 195.501 210.213 193.683 213.448 190.448C216.683 187.213 218.5 182.826 218.5 178.251V94.3811L225.935 101.816C227.019 102.863 228.472 103.443 229.979 103.43C231.487 103.417 232.929 102.812 233.995 101.746C235.061 100.68 235.666 99.2376 235.679 97.7299C235.692 96.2223 235.113 94.7698 234.065 93.6854L216.815 76.4354C216.281 75.8999 215.647 75.4751 214.948 75.1852C214.249 74.8953 213.501 74.7461 212.744 74.7461C211.988 74.7461 211.239 74.8953 210.54 75.1852C209.842 75.4751 209.207 75.8999 208.673 76.4354L191.423 93.6854C190.376 94.7698 189.796 96.2223 189.809 97.7299C189.822 99.2376 190.427 100.68 191.493 101.746C192.559 102.812 194.002 103.417 195.509 103.43C197.017 103.443 198.469 102.863 199.554 101.816L207 94.3811V178.251C207 179.776 206.394 181.238 205.316 182.316C204.238 183.395 202.775 184.001 201.25 184.001H120.75C119.225 184.001 117.762 184.606 116.684 185.685C115.606 186.763 115 188.226 115 189.751C115 191.276 115.606 192.738 116.684 193.816C117.762 194.895 119.225 195.501 120.75 195.501V195.501Z" fill="white"/>
<path d="M53.4374 113.315C54.5157 114.393 55.978 114.998 57.5027 114.998C59.0274 114.998 60.4896 114.393 61.5679 113.315L71.8777 103.005L82.1874 113.315C83.2719 114.362 84.7243 114.942 86.232 114.929C87.7396 114.916 89.1818 114.311 90.2479 113.245C91.314 112.179 91.9187 110.737 91.9318 109.229C91.9449 107.721 91.3653 106.269 90.3179 105.184L80.0082 94.8747L90.3179 84.5649C91.3653 83.4804 91.9449 82.028 91.9318 80.5203C91.9187 79.0127 91.314 77.5705 90.2479 76.5044C89.1818 75.4384 87.7396 74.8336 86.232 74.8205C84.7243 74.8074 83.2719 75.387 82.1874 76.4344L71.8777 86.7442L61.5679 76.4344C60.4835 75.387 59.031 74.8074 57.5234 74.8205C56.0157 74.8336 54.5736 75.4384 53.5075 76.5044C52.4414 77.5705 51.8367 79.0127 51.8236 80.5203C51.8105 82.028 52.39 83.4804 53.4374 84.5649L63.7472 94.8747L53.4374 105.184C52.3595 106.263 51.7539 107.725 51.7539 109.25C51.7539 110.774 52.3595 112.237 53.4374 113.315V113.315Z" fill="white"/>
</svg>
