<svg width="65" height="64" viewBox="0 0 65 64" fill="none" xmlns="http://www.w3.org/2000/svg">
<path d="M60.5996 53.9998H59.5996V51.9998C59.5996 51.2041 59.2835 50.4411 58.7209 49.8785C58.1583 49.3158 57.3953 48.9998 56.5996 48.9998H55.9106C55.5296 45.9998 53.8106 36.6908 46.9976 33.6938C48.6056 33.0798 51.6226 32.7378 56.6366 34.8938C59.2416 36.1588 61.4186 35.3698 62.2256 33.9378C63.1176 32.3548 62.6456 29.7378 58.6466 27.1548C55.2889 25.0868 52.568 22.1309 50.7846 18.6138C50.7083 18.4315 50.5798 18.2759 50.4151 18.1666C50.2505 18.0573 50.0572 17.9993 49.8596 17.9998H46.7386V13.9998C46.7386 13.844 46.7022 13.6904 46.6323 13.5512C46.5624 13.412 46.4609 13.2911 46.336 13.1981C46.2111 13.105 46.0662 13.0424 45.9128 13.0153C45.7594 12.9882 45.6019 12.9972 45.4526 13.0418C44.9226 13.1998 32.4526 17.0198 29.3056 26.4318C25.8806 36.6648 35.1776 43.6498 36.3646 48.9998H34.5996C33.804 48.9998 33.0409 49.3158 32.4783 49.8785C31.9157 50.4411 31.5996 51.2041 31.5996 51.9998V53.9998H30.5996C29.804 53.9998 29.0409 54.3158 28.4783 54.8785C27.9157 55.4411 27.5996 56.2041 27.5996 56.9998V59.9998C27.5996 60.7954 27.9157 61.5585 28.4783 62.1211C29.0409 62.6837 29.804 62.9998 30.5996 62.9998H60.5996C61.3953 62.9998 62.1583 62.6837 62.7209 62.1211C63.2835 61.5585 63.5996 60.7954 63.5996 59.9998V56.9998C63.5996 56.2041 63.2835 55.4411 62.7209 54.8785C62.1583 54.3158 61.3953 53.9998 60.5996 53.9998ZM33.5996 51.9998C33.5996 51.7346 33.705 51.4802 33.8925 51.2927C34.08 51.1051 34.3344 50.9998 34.5996 50.9998H56.5996C56.8648 50.9998 57.1192 51.1051 57.3067 51.2927C57.4943 51.4802 57.5996 51.7346 57.5996 51.9998V53.9998H33.5996V51.9998Z" fill="#F82530"/>
<path d="M48.5996 1H4.59961C3.80396 1 3.0409 1.31607 2.47829 1.87868C1.91568 2.44129 1.59961 3.20435 1.59961 4V8C1.59961 8.79565 1.91568 9.55871 2.47829 10.1213C3.0409 10.6839 3.80396 11 4.59961 11H5.59961V40C5.59961 40.7957 5.91568 41.5587 6.47829 42.1213C7.0409 42.6839 7.80396 43 8.59961 43H25.5996V49H24.5996C24.3344 49 24.08 49.1054 23.8925 49.2929C23.705 49.4804 23.5996 49.7348 23.5996 50C23.5996 50.2652 23.705 50.5196 23.8925 50.7071C24.08 50.8946 24.3344 51 24.5996 51H28.5996C28.8648 51 29.1192 50.8946 29.3067 50.7071C29.4943 50.5196 29.5996 50.2652 29.5996 50C29.5996 49.7348 29.4943 49.4804 29.3067 49.2929C29.1192 49.1054 28.8648 49 28.5996 49H27.5996V43H44.5996C45.3953 43 46.1583 42.6839 46.7209 42.1213C47.2835 41.5587 47.5996 40.7957 47.5996 40V11H48.5996C49.3953 11 50.1583 10.6839 50.7209 10.1213C51.2835 9.55871 51.5996 8.79565 51.5996 8V4C51.5996 3.20435 51.2835 2.44129 50.7209 1.87868C50.1583 1.31607 49.3953 1 48.5996 1ZM45.5996 40C45.5996 40.2652 45.4943 40.5196 45.3067 40.7071C45.1192 40.8946 44.8648 41 44.5996 41H8.59961C8.33439 41 8.08004 40.8946 7.8925 40.7071C7.70497 40.5196 7.59961 40.2652 7.59961 40V11H45.5996V40ZM49.5996 8C49.5996 8.26522 49.4943 8.51957 49.3067 8.70711C49.1192 8.89464 48.8648 9 48.5996 9H4.59961C4.33439 9 4.08004 8.89464 3.8925 8.70711C3.70497 8.51957 3.59961 8.26522 3.59961 8V4C3.59961 3.73478 3.70497 3.48043 3.8925 3.29289C4.08004 3.10536 4.33439 3 4.59961 3H48.5996C48.8648 3 49.1192 3.10536 49.3067 3.29289C49.4943 3.48043 49.5996 3.73478 49.5996 4V8Z" fill="#129590"/>
<path d="M14.5996 38C15.3907 38 16.1641 37.7654 16.8219 37.3259C17.4797 36.8864 17.9924 36.2617 18.2951 35.5307C18.5979 34.7998 18.6771 33.9956 18.5228 33.2196C18.3684 32.4437 17.9874 31.731 17.428 31.1716C16.8686 30.6122 16.1559 30.2312 15.38 30.0769C14.604 29.9225 13.7998 30.0017 13.0689 30.3045C12.338 30.6072 11.7133 31.1199 11.2737 31.7777C10.8342 32.4355 10.5996 33.2089 10.5996 34C10.5996 35.0609 11.021 36.0783 11.7712 36.8284C12.5213 37.5786 13.5387 38 14.5996 38ZM14.5996 32C14.9952 32 15.3819 32.1173 15.7107 32.3371C16.0396 32.5568 16.296 32.8692 16.4474 33.2346C16.5987 33.6001 16.6384 34.0022 16.5612 34.3902C16.484 34.7782 16.2935 35.1345 16.0138 35.4142C15.7341 35.6939 15.3778 35.8844 14.9898 35.9616C14.6018 36.0388 14.1997 35.9991 13.8342 35.8478C13.4688 35.6964 13.1564 35.4401 12.9367 35.1112C12.7169 34.7823 12.5996 34.3956 12.5996 34C12.5996 33.4696 12.8103 32.9609 13.1854 32.5858C13.5605 32.2107 14.0692 32 14.5996 32Z" fill="#129590"/>
<path d="M22.5996 35.0008H36.5996C37.3953 35.0008 38.1583 34.6847 38.7209 34.1221C39.2835 33.5595 39.5996 32.7964 39.5996 32.0008V17.4148L40.8926 18.7078C41.0812 18.8899 41.3338 18.9907 41.596 18.9885C41.8582 18.9862 42.109 18.881 42.2944 18.6956C42.4798 18.5102 42.585 18.2594 42.5873 17.9972C42.5896 17.735 42.4888 17.4824 42.3066 17.2938L39.3066 14.2938C39.2137 14.2007 39.1034 14.1268 38.9819 14.0764C38.8604 14.0259 38.7301 14 38.5986 14C38.4671 14 38.3368 14.0259 38.2153 14.0764C38.0939 14.1268 37.9835 14.2007 37.8906 14.2938L34.8906 17.2938C34.7085 17.4824 34.6077 17.735 34.6099 17.9972C34.6122 18.2594 34.7174 18.5102 34.9028 18.6956C35.0882 18.881 35.339 18.9862 35.6012 18.9885C35.8634 18.9907 36.116 18.8899 36.3046 18.7078L37.5996 17.4148V32.0008C37.5996 32.266 37.4943 32.5204 37.3067 32.7079C37.1192 32.8954 36.8648 33.0008 36.5996 33.0008H22.5996C22.3344 33.0008 22.08 33.1062 21.8925 33.2937C21.705 33.4812 21.5996 33.7356 21.5996 34.0008C21.5996 34.266 21.705 34.5204 21.8925 34.7079C22.08 34.8954 22.3344 35.0008 22.5996 35.0008Z" fill="#129590"/>
<path d="M10.8924 20.7064C11.0799 20.8939 11.3342 20.9992 11.5994 20.9992C11.8646 20.9992 12.1189 20.8939 12.3064 20.7064L14.0994 18.9134L15.8924 20.7064C16.081 20.8886 16.3336 20.9894 16.5958 20.9871C16.858 20.9848 17.1088 20.8797 17.2942 20.6943C17.4796 20.5088 17.5848 20.258 17.5871 19.9958C17.5893 19.7336 17.4886 19.481 17.3064 19.2924L15.5134 17.4994L17.3064 15.7064C17.4886 15.5178 17.5893 15.2652 17.5871 15.003C17.5848 14.7408 17.4796 14.49 17.2942 14.3046C17.1088 14.1192 16.858 14.014 16.5958 14.0118C16.3336 14.0095 16.081 14.1103 15.8924 14.2924L14.0994 16.0854L12.3064 14.2924C12.1178 14.1103 11.8652 14.0095 11.603 14.0118C11.3408 14.014 11.09 14.1192 10.9046 14.3046C10.7192 14.49 10.614 14.7408 10.6117 15.003C10.6094 15.2652 10.7102 15.5178 10.8924 15.7064L12.6854 17.4994L10.8924 19.2924C10.7049 19.48 10.5996 19.7343 10.5996 19.9994C10.5996 20.2646 10.7049 20.5189 10.8924 20.7064Z" fill="#129590"/>
</svg>
