<svg width="64" height="64" viewBox="0 0 64 64" fill="none" xmlns="http://www.w3.org/2000/svg">
<path d="M24 51H17C16.4696 51 15.9609 51.2107 15.5858 51.5858C15.2107 51.9609 15 52.4696 15 53V63C15 63.2652 15.1054 63.5196 15.2929 63.7071C15.4804 63.8946 15.7348 64 16 64H24C24.2652 64 24.5196 63.8946 24.7071 63.7071C24.8946 63.5196 25 63.2652 25 63V52C25 51.7348 24.8946 51.4804 24.7071 51.2929C24.5196 51.1054 24.2652 51 24 51Z" fill="#F82530"/>
<path d="M37 47H29C28.4477 47 28 47.4477 28 48V63C28 63.5523 28.4477 64 29 64H37C37.5523 64 38 63.5523 38 63V48C38 47.4477 37.5523 47 37 47Z" fill="#F82530"/>
<path d="M50 39H42C41.4477 39 41 39.4477 41 40V63C41 63.5523 41.4477 64 42 64H50C50.5523 64 51 63.5523 51 63V40C51 39.4477 50.5523 39 50 39Z" fill="#F82530"/>
<path d="M63 31H55C54.4477 31 54 31.4477 54 32V63C54 63.5523 54.4477 64 55 64H63C63.5523 64 64 63.5523 64 63V32C64 31.4477 63.5523 31 63 31Z" fill="#F82530"/>
<path d="M20.0001 40C20.4674 39.9991 20.9279 39.8886 21.3447 39.6774C21.7616 39.4662 22.123 39.1602 22.4001 38.784L30.0151 41.127C30.0587 41.902 30.4014 42.6298 30.9711 43.157C31.5408 43.6843 32.2929 43.9697 33.069 43.9533C33.845 43.9368 34.5843 43.6197 35.1311 43.0688C35.6779 42.5178 35.9895 41.7761 36.0001 41C35.9996 40.7885 35.9765 40.5776 35.9311 40.371L44.1311 35.326C44.6582 35.7587 45.3182 35.9967 46.0001 36C46.7958 36 47.5588 35.6839 48.1215 35.1213C48.6841 34.5587 49.0001 33.7956 49.0001 33C48.9996 32.7885 48.9765 32.5776 48.9311 32.371L57.1311 27.326C57.6582 27.7587 58.3182 27.9967 59.0001 28C59.5935 28 60.1735 27.8241 60.6668 27.4944C61.1602 27.1648 61.5447 26.6962 61.7718 26.1481C61.9988 25.5999 62.0582 24.9967 61.9425 24.4147C61.8267 23.8328 61.541 23.2982 61.1214 22.8787C60.7019 22.4591 60.1673 22.1734 59.5854 22.0576C59.0035 21.9419 58.4003 22.0013 57.8521 22.2284C57.3039 22.4554 56.8354 22.8399 56.5057 23.3333C56.1761 23.8266 56.0001 24.4067 56.0001 25C56.0006 25.2115 56.0238 25.4224 56.0691 25.629L47.8691 30.674C47.3421 30.2413 46.6821 30.0033 46.0001 30C45.2045 30 44.4414 30.3161 43.8788 30.8787C43.3162 31.4413 43.0001 32.2044 43.0001 33C43.0006 33.2115 43.0238 33.4224 43.0691 33.629L34.8691 38.674C34.558 38.4178 34.1978 38.2279 33.8106 38.116C33.4234 38.0041 33.0174 37.9726 32.6176 38.0233C32.2178 38.0741 31.8326 38.2061 31.4856 38.4112C31.1387 38.6163 30.8373 38.8902 30.6001 39.216L22.9851 36.873C22.9593 36.2865 22.7616 35.7206 22.4167 35.2455C22.0719 34.7705 21.595 34.4073 21.0454 34.201C20.4958 33.9947 19.8977 33.9545 19.3254 34.0854C18.7532 34.2162 18.232 34.5124 17.8266 34.937C17.4213 35.3616 17.1497 35.896 17.0455 36.4737C16.9414 37.0514 17.0094 37.647 17.2409 38.1865C17.4725 38.7259 17.8575 39.1854 18.348 39.5078C18.8386 39.8302 19.4131 40.0014 20.0001 40Z" fill="#F82530"/>
<path d="M47 12.1251H37.949C37.702 8.85959 36.2304 5.808 33.8291 3.58143C31.4277 1.35485 28.2738 0.117676 24.999 0.117676C21.7242 0.117676 18.5703 1.35485 16.1689 3.58143C13.7676 5.808 12.296 8.85959 12.049 12.1251H3C2.20435 12.1251 1.44129 12.4411 0.87868 13.0037C0.31607 13.5663 0 14.3294 0 15.1251V37.1251C0 37.9207 0.31607 38.6838 0.87868 39.2464C1.44129 39.809 2.20435 40.1251 3 40.1251H20.72L19.22 46.1251H17C16.7348 46.1251 16.4804 46.2304 16.2929 46.4179C16.1054 46.6055 16 46.8598 16 47.1251C16 47.3903 16.1054 47.6446 16.2929 47.8322C16.4804 48.0197 16.7348 48.1251 17 48.1251H33C33.2652 48.1251 33.5196 48.0197 33.7071 47.8322C33.8946 47.6446 34 47.3903 34 47.1251C34 46.8598 33.8946 46.6055 33.7071 46.4179C33.5196 46.2304 33.2652 46.1251 33 46.1251H30.78L29.28 40.1251H47C47.7957 40.1251 48.5587 39.809 49.1213 39.2464C49.6839 38.6838 50 37.9207 50 37.1251V15.1251C50 14.3294 49.6839 13.5663 49.1213 13.0037C48.5587 12.4411 47.7957 12.1251 47 12.1251ZM25 2.12505C27.1756 2.12505 29.3023 2.77019 31.1113 3.97888C32.9202 5.18758 34.3301 6.90554 35.1627 8.91553C35.9952 10.9255 36.2131 13.1373 35.7886 15.271C35.3642 17.4048 34.3166 19.3648 32.7782 20.9032C31.2398 22.4416 29.2798 23.4893 27.146 23.9137C25.0122 24.3381 22.8005 24.1203 20.7905 23.2877C18.7805 22.4552 17.0625 21.0453 15.8538 19.2363C14.6451 17.4274 14 15.3006 14 13.1251C14.0034 10.2087 15.1635 7.41283 17.2256 5.35067C19.2878 3.28852 22.0837 2.12849 25 2.12505ZM3 14.1251H12.051C12.298 17.3905 13.7696 20.4421 16.1709 22.6687C18.5723 24.8953 21.7262 26.1324 25.001 26.1324C28.2758 26.1324 31.4297 24.8953 33.8311 22.6687C36.2324 20.4421 37.704 17.3905 37.951 14.1251H47C47.2652 14.1251 47.5196 14.2304 47.7071 14.4179C47.8946 14.6055 48 14.8598 48 15.1251V32.1251H2V15.1251C2 14.8598 2.10536 14.6055 2.29289 14.4179C2.48043 14.2304 2.73478 14.1251 3 14.1251ZM28.719 46.1251H21.281L22.781 40.1251H27.219L28.719 46.1251ZM47 38.1251H3C2.73478 38.1251 2.48043 38.0197 2.29289 37.8322C2.10536 37.6446 2 37.3903 2 37.1251V34.1251H48V37.1251C48 37.3903 47.8946 37.6446 47.7071 37.8322C47.5196 38.0197 47.2652 38.1251 47 38.1251Z" fill="#129590"/>
<path d="M21.408 18.917C22.1605 19.4623 23.0428 19.8009 23.967 19.899V21.125C23.967 21.3902 24.0723 21.6446 24.2599 21.8321C24.4474 22.0196 24.7018 22.125 24.967 22.125C25.2322 22.125 25.4865 22.0196 25.6741 21.8321C25.8616 21.6446 25.967 21.3902 25.967 21.125V19.861C26.8424 19.6899 27.6451 19.2567 28.2688 18.619C28.8924 17.9813 29.3075 17.169 29.459 16.29C29.6372 15.3631 29.4668 14.403 28.9805 13.5941C28.4942 12.7852 27.7262 12.1844 26.824 11.907C26.543 11.807 26.254 11.702 25.967 11.592V7.84C26.3353 7.92124 26.6812 8.08274 26.98 8.313C27.1773 8.48179 27.4326 8.56719 27.6918 8.55111C27.951 8.53504 28.1938 8.41875 28.3688 8.22687C28.5438 8.03498 28.6373 7.78255 28.6295 7.52297C28.6217 7.26339 28.5132 7.01702 28.327 6.836C27.6498 6.28476 26.8327 5.93264 25.967 5.819V5.125C25.967 4.85978 25.8616 4.60543 25.6741 4.41789C25.4865 4.23036 25.2322 4.125 24.967 4.125C24.7018 4.125 24.4474 4.23036 24.2599 4.41789C24.0723 4.60543 23.967 4.85978 23.967 5.125V5.966C23.934 5.975 23.905 5.975 23.867 5.985C23.2295 6.18553 22.6595 6.55775 22.2195 7.06084C21.7796 7.56392 21.4867 8.17844 21.373 8.837C21.2423 9.41225 21.272 10.0123 21.4589 10.5719C21.6458 11.1314 21.9827 11.6288 22.433 12.01C22.9068 12.3691 23.4197 12.6734 23.962 12.917V17.883C23.4315 17.7833 22.9306 17.5645 22.497 17.243C22.3871 17.1688 22.2635 17.1172 22.1335 17.0913C22.0035 17.0653 21.8697 17.0654 21.7397 17.0916C21.6098 17.1178 21.4863 17.1696 21.3766 17.244C21.2668 17.3184 21.1729 17.4138 21.1004 17.5248C21.0279 17.6358 20.9781 17.7601 20.9541 17.8904C20.93 18.0208 20.9322 18.1547 20.9603 18.2842C20.9885 18.4138 21.0421 18.5364 21.1181 18.6451C21.1941 18.7537 21.2909 18.8461 21.403 18.917H21.408ZM23.672 10.436C23.5138 10.2785 23.4001 10.0819 23.3425 9.86619C23.2849 9.65051 23.2854 9.42343 23.344 9.208C23.4208 8.79528 23.6415 8.42321 23.967 8.158V10.625C23.869 10.563 23.756 10.502 23.672 10.436ZM26.158 13.792C26.6116 13.9192 27.0005 14.213 27.2469 14.6146C27.4933 15.0162 27.579 15.4959 27.487 15.958C27.4175 16.3708 27.2403 16.758 26.9735 17.0805C26.7066 17.403 26.3595 17.6494 25.967 17.795V13.725C26.032 13.746 26.091 13.769 26.158 13.792Z" fill="#129590"/>
</svg>
