<svg width="65" height="64" viewBox="0 0 65 64" fill="none" xmlns="http://www.w3.org/2000/svg">
<path d="M61.2002 46H56.2002V39C56.2002 38.7348 56.0948 38.4804 55.9073 38.2929C55.7198 38.1054 55.4654 38 55.2002 38H40.2002V32H45.2002C45.9958 32 46.7589 31.6839 47.3215 31.1213C47.8841 30.5587 48.2002 29.7956 48.2002 29V17C48.2002 16.2044 47.8841 15.4413 47.3215 14.8787C46.7589 14.3161 45.9958 14 45.2002 14H33.2002C32.4045 14 31.6415 14.3161 31.0789 14.8787C30.5163 15.4413 30.2002 16.2044 30.2002 17V29C30.2002 29.7956 30.5163 30.5587 31.0789 31.1213C31.6415 31.6839 32.4045 32 33.2002 32H38.2002V38H23.2002C22.935 38 22.6806 38.1054 22.4931 38.2929C22.3056 38.4804 22.2002 38.7348 22.2002 39V46H17.2002C16.4045 46 15.6415 46.3161 15.0789 46.8787C14.5163 47.4413 14.2002 48.2043 14.2002 49V61C14.2002 61.7957 14.5163 62.5587 15.0789 63.1213C15.6415 63.6839 16.4045 64 17.2002 64H29.2002C29.9958 64 30.7589 63.6839 31.3215 63.1213C31.8841 62.5587 32.2002 61.7957 32.2002 61V49C32.2002 48.2043 31.8841 47.4413 31.3215 46.8787C30.7589 46.3161 29.9958 46 29.2002 46H24.2002V40H54.2002V46H49.2002C48.4045 46 47.6415 46.3161 47.0789 46.8787C46.5163 47.4413 46.2002 48.2043 46.2002 49V61C46.2002 61.7957 46.5163 62.5587 47.0789 63.1213C47.6415 63.6839 48.4045 64 49.2002 64H61.2002C61.9958 64 62.7589 63.6839 63.3215 63.1213C63.8841 62.5587 64.2002 61.7957 64.2002 61V49C64.2002 48.2043 63.8841 47.4413 63.3215 46.8787C62.7589 46.3161 61.9958 46 61.2002 46Z" fill="#F82530"/>
<path d="M45.2002 20C44.7353 20.0068 44.2738 20.0791 43.8292 20.215L29.9852 6.371C30.1211 5.9264 30.1934 5.46484 30.2002 5C30.2002 3.67392 29.6734 2.40215 28.7357 1.46447C27.798 0.526784 26.5263 0 25.2002 0C23.8741 0 22.6023 0.526784 21.6647 1.46447C20.727 2.40215 20.2002 3.67392 20.2002 5C20.207 5.46484 20.2793 5.9264 20.4152 6.371L6.57119 20.215C6.1266 20.0791 5.66504 20.0068 5.20019 20C3.87411 20 2.60234 20.5268 1.66466 21.4645C0.726979 22.4021 0.200195 23.6739 0.200195 25C0.200195 26.3261 0.726979 27.5979 1.66466 28.5355C2.60234 29.4732 3.87411 30 5.20019 30C5.37838 29.9917 5.55597 29.9736 5.73219 29.946L20.2542 44.468C20.2266 44.6442 20.2085 44.8218 20.2002 45C20.2002 46.3261 20.727 47.5979 21.6647 48.5355C22.6023 49.4732 23.8741 50 25.2002 50C26.5263 50 27.798 49.4732 28.7357 48.5355C29.6734 47.5979 30.2002 46.3261 30.2002 45C30.1919 44.8218 30.1738 44.6442 30.1462 44.468C45.3942 29.176 44.4132 30.288 44.5862 29.938C45.2632 30.0242 45.9506 29.9706 46.6061 29.7805C47.2615 29.5905 47.871 29.2679 48.3968 28.8329C48.9226 28.3978 49.3536 27.8595 49.663 27.2513C49.9725 26.643 50.1539 25.9778 50.196 25.2966C50.2381 24.6155 50.14 23.9329 49.9077 23.2912C49.6755 22.6495 49.3141 22.0622 48.8458 21.5658C48.3775 21.0693 47.8124 20.6742 47.1853 20.4049C46.5583 20.1356 45.8826 19.9978 45.2002 20ZM41.9872 21.2C41.1258 21.9169 40.5314 22.9034 40.3002 24H34.1402C33.9109 21.9731 33.0007 20.0839 31.5584 18.6414C30.1161 17.199 28.2271 16.2885 26.2002 16.059V9.9C27.2967 9.66908 28.2832 9.07506 29.0002 8.214L41.9872 21.2ZM25.2002 32C23.8157 32 22.4623 31.5895 21.3112 30.8203C20.1601 30.0511 19.2628 28.9579 18.733 27.6788C18.2032 26.3997 18.0646 24.9922 18.3347 23.6344C18.6048 22.2765 19.2715 21.0292 20.2504 20.0503C21.2294 19.0713 22.4767 18.4046 23.8346 18.1345C25.1924 17.8644 26.5999 18.003 27.879 18.5328C29.1581 19.0627 30.2513 19.9599 31.0205 21.111C31.7897 22.2622 32.2002 23.6155 32.2002 25C32.1978 26.8558 31.4595 28.6349 30.1473 29.9471C28.8351 31.2594 27.056 31.9976 25.2002 32ZM25.2002 2C25.7935 2 26.3736 2.17595 26.8669 2.50559C27.3603 2.83524 27.7448 3.30377 27.9718 3.85195C28.1989 4.40013 28.2583 5.00333 28.1425 5.58527C28.0268 6.16721 27.7411 6.70176 27.3215 7.12132C26.902 7.54088 26.3674 7.8266 25.7855 7.94236C25.2035 8.05811 24.6003 7.9987 24.0521 7.77164C23.504 7.54458 23.0354 7.16006 22.7058 6.66671C22.3761 6.17336 22.2002 5.59334 22.2002 5C22.2002 4.20435 22.5163 3.44129 23.0789 2.87868C23.6415 2.31607 24.4045 2 25.2002 2ZM21.4002 8.213C22.1171 9.07443 23.1036 9.66881 24.2002 9.9V16.06C22.1733 16.2893 20.2841 17.1995 18.8416 18.6418C17.3992 20.0841 16.4887 21.9731 16.2592 24H10.1002C9.86927 22.9035 9.27525 21.917 8.41419 21.2L21.4002 8.213ZM2.2002 25C2.2002 24.4067 2.37614 23.8266 2.70579 23.3333C3.03543 22.8399 3.50397 22.4554 4.05214 22.2284C4.60032 22.0013 5.20352 21.9419 5.78547 22.0576C6.36741 22.1734 6.90196 22.4591 7.32152 22.8787C7.74107 23.2982 8.0268 23.8328 8.14255 24.4147C8.25831 24.9967 8.1989 25.5999 7.97183 26.1481C7.74477 26.6962 7.36025 27.1648 6.86691 27.4944C6.37356 27.8241 5.79354 28 5.20019 28C4.40455 28 3.64148 27.6839 3.07887 27.1213C2.51627 26.5587 2.2002 25.7956 2.2002 25ZM7.8422 29.227C8.41743 28.87 8.91418 28.3999 9.30232 27.8452C9.69046 27.2905 9.9619 26.6627 10.1002 26H16.2602C16.4895 28.0269 17.3997 29.9161 18.842 31.3586C20.2843 32.801 22.1733 33.7115 24.2002 33.941V40.1C23.5375 40.2382 22.9098 40.5095 22.3551 40.8974C21.8004 41.2854 21.3303 41.7819 20.9732 42.357L7.8422 29.227ZM25.2002 48C24.6068 48 24.0268 47.8241 23.5335 47.4944C23.0401 47.1648 22.6556 46.6962 22.4286 46.148C22.2015 45.5999 22.1421 44.9967 22.2578 44.4147C22.3736 43.8328 22.6593 43.2982 23.0789 42.8787C23.4984 42.4591 24.033 42.1734 24.6149 42.0576C25.1969 41.9419 25.8001 42.0013 26.3482 42.2284C26.8964 42.4554 27.365 42.8399 27.6946 43.3333C28.0242 43.8266 28.2002 44.4067 28.2002 45C28.2002 45.7957 27.8841 46.5587 27.3215 47.1213C26.7589 47.6839 25.9958 48 25.2002 48ZM29.4272 42.358C29.0702 41.7828 28.6001 41.286 28.0454 40.8979C27.4907 40.5097 26.8629 40.2383 26.2002 40.1V33.94C28.2271 33.7107 30.1163 32.8005 31.5588 31.3582C33.0012 29.9159 33.9117 28.0269 34.1412 26H40.3002C40.4384 26.6627 40.7097 27.2904 41.0976 27.8451C41.4856 28.3998 41.9821 28.8699 42.5572 29.227L29.4272 42.358ZM45.2002 28C44.6068 28 44.0268 27.8241 43.5335 27.4944C43.0401 27.1648 42.6556 26.6962 42.4286 26.1481C42.2015 25.5999 42.1421 24.9967 42.2578 24.4147C42.3736 23.8328 42.6593 23.2982 43.0789 22.8787C43.4984 22.4591 44.033 22.1734 44.6149 22.0576C45.1969 21.9419 45.8001 22.0013 46.3482 22.2284C46.8964 22.4554 47.365 22.8399 47.6946 23.3333C48.0242 23.8266 48.2002 24.4067 48.2002 25C48.2002 25.7956 47.8841 26.5587 47.3215 27.1213C46.7589 27.6839 45.9958 28 45.2002 28Z" fill="#129590"/>
</svg>
