<svg width="471" height="504" viewBox="0 0 471 504" fill="none" xmlns="http://www.w3.org/2000/svg">
<rect width="471" height="504" rx="12" fill="white"/>
<g clip-path="url(#clip0)">
<path d="M38.1198 44.99V57.5H36.0678V48.932L32.2518 57.5H30.8298L26.9958 48.932V57.5H24.9438V44.99H27.1578L31.5498 54.8L35.9238 44.99H38.1198ZM45.1188 57.662C44.1828 57.662 43.3368 57.452 42.5808 57.032C41.8248 56.6 41.2308 56 40.7988 55.232C40.3668 54.452 40.1508 53.552 40.1508 52.532C40.1508 51.524 40.3728 50.63 40.8168 49.85C41.2608 49.07 41.8668 48.47 42.6348 48.05C43.4028 47.63 44.2608 47.42 45.2088 47.42C46.1568 47.42 47.0148 47.63 47.7828 48.05C48.5508 48.47 49.1568 49.07 49.6008 49.85C50.0448 50.63 50.2668 51.524 50.2668 52.532C50.2668 53.54 50.0388 54.434 49.5828 55.214C49.1268 55.994 48.5028 56.6 47.7108 57.032C46.9308 57.452 46.0668 57.662 45.1188 57.662ZM45.1188 55.88C45.6468 55.88 46.1388 55.754 46.5948 55.502C47.0628 55.25 47.4408 54.872 47.7288 54.368C48.0168 53.864 48.1608 53.252 48.1608 52.532C48.1608 51.812 48.0228 51.206 47.7468 50.714C47.4708 50.21 47.1048 49.832 46.6488 49.58C46.1928 49.328 45.7008 49.202 45.1728 49.202C44.6448 49.202 44.1528 49.328 43.6968 49.58C43.2528 49.832 42.8988 50.21 42.6348 50.714C42.3708 51.206 42.2388 51.812 42.2388 52.532C42.2388 53.6 42.5088 54.428 43.0488 55.016C43.6008 55.592 44.2908 55.88 45.1188 55.88Z" fill="#173244"/>
<path d="M101.777 44.99V46.664H98.4467V57.5H96.3947V46.664H93.0467V44.99H101.777ZM112.837 47.582V57.5H110.785V56.33C110.461 56.738 110.035 57.062 109.507 57.302C108.991 57.53 108.439 57.644 107.851 57.644C107.071 57.644 106.369 57.482 105.745 57.158C105.133 56.834 104.647 56.354 104.287 55.718C103.939 55.082 103.765 54.314 103.765 53.414V47.582H105.799V53.108C105.799 53.996 106.021 54.68 106.465 55.16C106.909 55.628 107.515 55.862 108.283 55.862C109.051 55.862 109.657 55.628 110.101 55.16C110.557 54.68 110.785 53.996 110.785 53.108V47.582H112.837Z" fill="#173244"/>
<path d="M172.364 44.99L168.656 57.5H166.334L163.706 48.032L160.916 57.5L158.612 57.518L155.066 44.99H157.244L159.836 55.178L162.644 44.99H164.948L167.558 55.124L170.168 44.99H172.364ZM183.146 52.298C183.146 52.67 183.122 53.006 183.074 53.306H175.496C175.556 54.098 175.85 54.734 176.378 55.214C176.906 55.694 177.554 55.934 178.322 55.934C179.426 55.934 180.206 55.472 180.662 54.548H182.876C182.576 55.46 182.03 56.21 181.238 56.798C180.458 57.374 179.486 57.662 178.322 57.662C177.374 57.662 176.522 57.452 175.766 57.032C175.022 56.6 174.434 56 174.002 55.232C173.582 54.452 173.372 53.552 173.372 52.532C173.372 51.512 173.576 50.618 173.984 49.85C174.404 49.07 174.986 48.47 175.73 48.05C176.486 47.63 177.35 47.42 178.322 47.42C179.258 47.42 180.092 47.624 180.824 48.032C181.556 48.44 182.126 49.016 182.534 49.76C182.942 50.492 183.146 51.338 183.146 52.298ZM181.004 51.65C180.992 50.894 180.722 50.288 180.194 49.832C179.666 49.376 179.012 49.148 178.232 49.148C177.524 49.148 176.918 49.376 176.414 49.832C175.91 50.276 175.61 50.882 175.514 51.65H181.004Z" fill="#173244"/>
<path d="M234.777 44.99V46.664H231.447V57.5H229.395V46.664H226.047V44.99H234.777ZM241.985 47.42C242.741 47.42 243.413 47.582 244.001 47.906C244.601 48.23 245.069 48.71 245.405 49.346C245.753 49.982 245.927 50.75 245.927 51.65V57.5H243.893V51.956C243.893 51.068 243.671 50.39 243.227 49.922C242.783 49.442 242.177 49.202 241.409 49.202C240.641 49.202 240.029 49.442 239.573 49.922C239.129 50.39 238.907 51.068 238.907 51.956V57.5H236.855V44.18H238.907V48.734C239.255 48.314 239.693 47.99 240.221 47.762C240.761 47.534 241.349 47.42 241.985 47.42Z" fill="#173244"/>
<path d="M297.396 44.99V46.664H292.086V50.354H296.226V52.028H292.086V57.5H290.034V44.99H297.396ZM301.349 49.022C301.649 48.518 302.045 48.128 302.537 47.852C303.041 47.564 303.635 47.42 304.319 47.42V49.544H303.797C302.993 49.544 302.381 49.748 301.961 50.156C301.553 50.564 301.349 51.272 301.349 52.28V57.5H299.297V47.582H301.349V49.022Z" fill="#173244"/>
<path d="M349.21 57.626C348.37 57.626 347.614 57.482 346.942 57.194C346.27 56.894 345.742 56.474 345.358 55.934C344.974 55.394 344.782 54.764 344.782 54.044H346.978C347.026 54.584 347.236 55.028 347.608 55.376C347.992 55.724 348.526 55.898 349.21 55.898C349.918 55.898 350.47 55.73 350.866 55.394C351.262 55.046 351.46 54.602 351.46 54.062C351.46 53.642 351.334 53.3 351.082 53.036C350.842 52.772 350.536 52.568 350.164 52.424C349.804 52.28 349.3 52.124 348.652 51.956C347.836 51.74 347.17 51.524 346.654 51.308C346.15 51.08 345.718 50.732 345.358 50.264C344.998 49.796 344.818 49.172 344.818 48.392C344.818 47.672 344.998 47.042 345.358 46.502C345.718 45.962 346.222 45.548 346.87 45.26C347.518 44.972 348.268 44.828 349.12 44.828C350.332 44.828 351.322 45.134 352.09 45.746C352.87 46.346 353.302 47.174 353.386 48.23H351.118C351.082 47.774 350.866 47.384 350.47 47.06C350.074 46.736 349.552 46.574 348.904 46.574C348.316 46.574 347.836 46.724 347.464 47.024C347.092 47.324 346.906 47.756 346.906 48.32C346.906 48.704 347.02 49.022 347.248 49.274C347.488 49.514 347.788 49.706 348.148 49.85C348.508 49.994 349 50.15 349.624 50.318C350.452 50.546 351.124 50.774 351.64 51.002C352.168 51.23 352.612 51.584 352.972 52.064C353.344 52.532 353.53 53.162 353.53 53.954C353.53 54.59 353.356 55.19 353.008 55.754C352.672 56.318 352.174 56.774 351.514 57.122C350.866 57.458 350.098 57.626 349.21 57.626ZM355.268 52.496C355.268 51.5 355.472 50.618 355.88 49.85C356.3 49.082 356.864 48.488 357.572 48.068C358.292 47.636 359.084 47.42 359.948 47.42C360.728 47.42 361.406 47.576 361.982 47.888C362.57 48.188 363.038 48.566 363.386 49.022V47.582H365.456V57.5H363.386V56.024C363.038 56.492 362.564 56.882 361.964 57.194C361.364 57.506 360.68 57.662 359.912 57.662C359.06 57.662 358.28 57.446 357.572 57.014C356.864 56.57 356.3 55.958 355.88 55.178C355.472 54.386 355.268 53.492 355.268 52.496ZM363.386 52.532C363.386 51.848 363.242 51.254 362.954 50.75C362.678 50.246 362.312 49.862 361.856 49.598C361.4 49.334 360.908 49.202 360.38 49.202C359.852 49.202 359.36 49.334 358.904 49.598C358.448 49.85 358.076 50.228 357.788 50.732C357.512 51.224 357.374 51.812 357.374 52.496C357.374 53.18 357.512 53.78 357.788 54.296C358.076 54.812 358.448 55.208 358.904 55.484C359.372 55.748 359.864 55.88 360.38 55.88C360.908 55.88 361.4 55.748 361.856 55.484C362.312 55.22 362.678 54.836 362.954 54.332C363.242 53.816 363.386 53.216 363.386 52.532Z" fill="#173244"/>
<path d="M411.965 57.626C411.125 57.626 410.369 57.482 409.697 57.194C409.025 56.894 408.497 56.474 408.113 55.934C407.729 55.394 407.537 54.764 407.537 54.044H409.733C409.781 54.584 409.991 55.028 410.363 55.376C410.747 55.724 411.281 55.898 411.965 55.898C412.673 55.898 413.225 55.73 413.621 55.394C414.017 55.046 414.215 54.602 414.215 54.062C414.215 53.642 414.089 53.3 413.837 53.036C413.597 52.772 413.291 52.568 412.919 52.424C412.559 52.28 412.055 52.124 411.407 51.956C410.591 51.74 409.925 51.524 409.409 51.308C408.905 51.08 408.473 50.732 408.113 50.264C407.753 49.796 407.573 49.172 407.573 48.392C407.573 47.672 407.753 47.042 408.113 46.502C408.473 45.962 408.977 45.548 409.625 45.26C410.273 44.972 411.023 44.828 411.875 44.828C413.087 44.828 414.077 45.134 414.845 45.746C415.625 46.346 416.057 47.174 416.141 48.23H413.873C413.837 47.774 413.621 47.384 413.225 47.06C412.829 46.736 412.307 46.574 411.659 46.574C411.071 46.574 410.591 46.724 410.219 47.024C409.847 47.324 409.661 47.756 409.661 48.32C409.661 48.704 409.775 49.022 410.003 49.274C410.243 49.514 410.543 49.706 410.903 49.85C411.263 49.994 411.755 50.15 412.379 50.318C413.207 50.546 413.879 50.774 414.395 51.002C414.923 51.23 415.367 51.584 415.727 52.064C416.099 52.532 416.285 53.162 416.285 53.954C416.285 54.59 416.111 55.19 415.763 55.754C415.427 56.318 414.929 56.774 414.269 57.122C413.621 57.458 412.853 57.626 411.965 57.626ZM427.688 47.582V57.5H425.636V56.33C425.312 56.738 424.886 57.062 424.358 57.302C423.842 57.53 423.29 57.644 422.702 57.644C421.922 57.644 421.22 57.482 420.596 57.158C419.984 56.834 419.498 56.354 419.138 55.718C418.79 55.082 418.616 54.314 418.616 53.414V47.582H420.65V53.108C420.65 53.996 420.872 54.68 421.316 55.16C421.76 55.628 422.366 55.862 423.134 55.862C423.902 55.862 424.508 55.628 424.952 55.16C425.408 54.68 425.636 53.996 425.636 53.108V47.582H427.688Z" fill="#173244"/>
<path d="M234.433 107.25V105.378H238.177V118.5H236.107V107.25H234.433Z" fill="#173244"/>
<path d="M293.789 115.71C294.941 114.714 295.847 113.898 296.507 113.262C297.179 112.614 297.737 111.942 298.181 111.246C298.625 110.55 298.847 109.854 298.847 109.158C298.847 108.438 298.673 107.874 298.325 107.466C297.989 107.058 297.455 106.854 296.723 106.854C296.015 106.854 295.463 107.082 295.067 107.538C294.683 107.982 294.479 108.582 294.455 109.338H292.475C292.511 107.97 292.919 106.926 293.699 106.206C294.491 105.474 295.493 105.108 296.705 105.108C298.013 105.108 299.033 105.468 299.765 106.188C300.509 106.908 300.881 107.868 300.881 109.068C300.881 109.932 300.659 110.766 300.215 111.57C299.783 112.362 299.261 113.076 298.649 113.712C298.049 114.336 297.281 115.062 296.345 115.89L295.535 116.61H301.241V118.32H292.493V116.826L293.789 115.71Z" fill="#173244"/>
<path d="M351.47 108.618C351.542 107.502 351.968 106.632 352.748 106.008C353.54 105.384 354.548 105.072 355.772 105.072C356.612 105.072 357.338 105.222 357.95 105.522C358.562 105.822 359.024 106.23 359.336 106.746C359.648 107.262 359.804 107.844 359.804 108.492C359.804 109.236 359.606 109.872 359.21 110.4C358.814 110.928 358.34 111.282 357.788 111.462V111.534C358.496 111.75 359.048 112.146 359.444 112.722C359.84 113.286 360.038 114.012 360.038 114.9C360.038 115.608 359.876 116.238 359.552 116.79C359.228 117.342 358.748 117.78 358.112 118.104C357.476 118.416 356.714 118.572 355.826 118.572C354.53 118.572 353.462 118.242 352.622 117.582C351.794 116.91 351.35 115.95 351.29 114.702H353.27C353.318 115.338 353.564 115.86 354.008 116.268C354.452 116.664 355.052 116.862 355.808 116.862C356.54 116.862 357.104 116.664 357.5 116.268C357.896 115.86 358.094 115.338 358.094 114.702C358.094 113.862 357.824 113.268 357.284 112.92C356.756 112.56 355.94 112.38 354.836 112.38H354.368V110.688H354.854C355.826 110.676 356.564 110.514 357.068 110.202C357.584 109.89 357.842 109.398 357.842 108.726C357.842 108.15 357.656 107.694 357.284 107.358C356.912 107.01 356.384 106.836 355.7 106.836C355.028 106.836 354.506 107.01 354.134 107.358C353.762 107.694 353.54 108.114 353.468 108.618H351.47Z" fill="#173244"/>
<path d="M412.27 115.764V114.216L418.318 105.54H420.802V113.982H422.476V115.764H420.802V118.5H418.786V115.764H412.27ZM418.876 107.628L414.628 113.982H418.876V107.628Z" fill="#173244"/>
<circle cx="102.77" cy="172.5" r="20" fill="#0062FF"/>
<circle cx="418.113" cy="172.5" r="20" fill="#9C04FF"/>
<circle cx="102.77" cy="233.5" r="20" fill="#0062FF"/>
<circle cx="102.77" cy="294.5" r="20" fill="#0062FF"/>
<circle cx="418.113" cy="294.5" r="20" fill="#9C04FF"/>
<circle cx="102.77" cy="355.5" r="20" fill="#0062FF"/>
<path d="M41.0615 168.142H35.0315V171.724C35.2835 171.388 35.6555 171.106 36.1475 170.878C36.6515 170.65 37.1855 170.536 37.7495 170.536C38.7575 170.536 39.5735 170.752 40.1975 171.184C40.8335 171.616 41.2835 172.162 41.5475 172.822C41.8235 173.482 41.9615 174.178 41.9615 174.91C41.9615 175.798 41.7875 176.59 41.4395 177.286C41.1035 177.97 40.5935 178.51 39.9095 178.906C39.2375 179.302 38.4095 179.5 37.4255 179.5C36.1175 179.5 35.0675 179.176 34.2755 178.528C33.4835 177.88 33.0095 177.022 32.8535 175.954H34.8515C34.9835 176.518 35.2775 176.968 35.7335 177.304C36.1895 177.628 36.7595 177.79 37.4435 177.79C38.2955 177.79 38.9315 177.532 39.3515 177.016C39.7835 176.5 39.9995 175.816 39.9995 174.964C39.9995 174.1 39.7835 173.44 39.3515 172.984C38.9195 172.516 38.2835 172.282 37.4435 172.282C36.8555 172.282 36.3575 172.432 35.9495 172.732C35.5535 173.02 35.2655 173.416 35.0855 173.92H33.1415V166.342H41.0615V168.142Z" fill="#173244"/>
<path d="M105.631 169.42C105.499 168.868 105.259 168.454 104.911 168.178C104.563 167.902 104.077 167.764 103.453 167.764C102.505 167.764 101.797 168.13 101.329 168.862C100.861 169.582 100.615 170.782 100.591 172.462C100.903 171.934 101.359 171.526 101.959 171.238C102.559 170.95 103.207 170.806 103.903 170.806C104.695 170.806 105.391 170.98 105.991 171.328C106.603 171.664 107.077 172.156 107.413 172.804C107.761 173.452 107.935 174.226 107.935 175.126C107.935 175.966 107.767 176.716 107.431 177.376C107.107 178.036 106.621 178.558 105.973 178.942C105.325 179.314 104.545 179.5 103.633 179.5C102.397 179.5 101.425 179.23 100.717 178.69C100.021 178.138 99.5291 177.364 99.2411 176.368C98.9651 175.372 98.8271 174.13 98.8271 172.642C98.8271 168.25 100.375 166.054 103.471 166.054C104.671 166.054 105.613 166.378 106.297 167.026C106.993 167.674 107.401 168.472 107.521 169.42H105.631ZM103.453 172.534C102.721 172.534 102.097 172.756 101.581 173.2C101.077 173.632 100.825 174.262 100.825 175.09C100.825 175.918 101.059 176.578 101.527 177.07C102.007 177.55 102.673 177.79 103.525 177.79C104.281 177.79 104.875 177.556 105.307 177.088C105.751 176.62 105.973 175.996 105.973 175.216C105.973 174.4 105.757 173.752 105.325 173.272C104.905 172.78 104.281 172.534 103.453 172.534Z" fill="white"/>
<path d="M174.129 167.962L169.125 179.5H167.055L172.113 168.178H165.453V166.432H174.129V167.962Z" fill="#173244"/>
<path d="M233.824 172.642C232.576 172.018 231.952 171.034 231.952 169.69C231.952 169.042 232.114 168.448 232.438 167.908C232.762 167.368 233.248 166.942 233.896 166.63C234.544 166.306 235.336 166.144 236.272 166.144C237.196 166.144 237.982 166.306 238.63 166.63C239.29 166.942 239.782 167.368 240.106 167.908C240.43 168.448 240.592 169.042 240.592 169.69C240.592 170.362 240.418 170.956 240.07 171.472C239.734 171.976 239.284 172.366 238.72 172.642C239.404 172.894 239.944 173.308 240.34 173.884C240.736 174.448 240.934 175.114 240.934 175.882C240.934 176.662 240.736 177.352 240.34 177.952C239.944 178.552 239.392 179.014 238.684 179.338C237.976 179.662 237.172 179.824 236.272 179.824C235.372 179.824 234.568 179.662 233.86 179.338C233.164 179.014 232.618 178.552 232.222 177.952C231.826 177.352 231.628 176.662 231.628 175.882C231.628 175.102 231.826 174.43 232.222 173.866C232.618 173.302 233.152 172.894 233.824 172.642ZM238.63 169.942C238.63 169.27 238.42 168.754 238 168.394C237.58 168.034 237.004 167.854 236.272 167.854C235.552 167.854 234.982 168.034 234.562 168.394C234.142 168.754 233.932 169.276 233.932 169.96C233.932 170.56 234.148 171.052 234.58 171.436C235.024 171.808 235.588 171.994 236.272 171.994C236.956 171.994 237.52 171.802 237.964 171.418C238.408 171.034 238.63 170.542 238.63 169.942ZM236.272 173.542C235.48 173.542 234.832 173.74 234.328 174.136C233.836 174.52 233.59 175.078 233.59 175.81C233.59 176.494 233.83 177.052 234.31 177.484C234.79 177.904 235.444 178.114 236.272 178.114C237.088 178.114 237.73 177.898 238.198 177.466C238.678 177.034 238.918 176.482 238.918 175.81C238.918 175.09 238.672 174.532 238.18 174.136C237.7 173.74 237.064 173.542 236.272 173.542Z" fill="#173244"/>
<path d="M294.193 175.936C294.313 176.536 294.571 176.992 294.967 177.304C295.363 177.616 295.897 177.772 296.569 177.772C297.421 177.772 298.045 177.436 298.441 176.764C298.837 176.092 299.035 174.946 299.035 173.326C298.747 173.734 298.339 174.052 297.811 174.28C297.295 174.496 296.731 174.604 296.119 174.604C295.339 174.604 294.631 174.448 293.995 174.136C293.359 173.812 292.855 173.338 292.483 172.714C292.123 172.078 291.943 171.31 291.943 170.41C291.943 169.09 292.327 168.04 293.095 167.26C293.875 166.468 294.943 166.072 296.299 166.072C297.931 166.072 299.089 166.618 299.773 167.71C300.469 168.79 300.817 170.452 300.817 172.696C300.817 174.244 300.685 175.51 300.421 176.494C300.169 177.478 299.725 178.222 299.089 178.726C298.453 179.23 297.571 179.482 296.443 179.482C295.159 179.482 294.169 179.146 293.473 178.474C292.777 177.802 292.387 176.956 292.303 175.936H294.193ZM296.479 172.876C297.199 172.876 297.763 172.654 298.171 172.21C298.591 171.754 298.801 171.154 298.801 170.41C298.801 169.582 298.579 168.94 298.135 168.484C297.703 168.016 297.109 167.782 296.353 167.782C295.597 167.782 294.997 168.022 294.553 168.502C294.121 168.97 293.905 169.588 293.905 170.356C293.905 171.088 294.115 171.694 294.535 172.174C294.967 172.642 295.615 172.876 296.479 172.876Z" fill="#173244"/>
<path d="M347.167 168.25V166.378H350.911V179.5H348.841V168.25H347.167ZM353.73 172.768C353.73 170.692 354.078 169.072 354.774 167.908C355.482 166.732 356.694 166.144 358.41 166.144C360.126 166.144 361.332 166.732 362.028 167.908C362.736 169.072 363.09 170.692 363.09 172.768C363.09 174.868 362.736 176.512 362.028 177.7C361.332 178.876 360.126 179.464 358.41 179.464C356.694 179.464 355.482 178.876 354.774 177.7C354.078 176.512 353.73 174.868 353.73 172.768ZM361.074 172.768C361.074 171.796 361.008 170.974 360.876 170.302C360.756 169.63 360.504 169.084 360.12 168.664C359.736 168.232 359.166 168.016 358.41 168.016C357.654 168.016 357.084 168.232 356.7 168.664C356.316 169.084 356.058 169.63 355.926 170.302C355.806 170.974 355.746 171.796 355.746 172.768C355.746 173.776 355.806 174.622 355.926 175.306C356.046 175.99 356.298 176.542 356.682 176.962C357.078 177.382 357.654 177.592 358.41 177.592C359.166 177.592 359.736 177.382 360.12 176.962C360.516 176.542 360.774 175.99 360.894 175.306C361.014 174.622 361.074 173.776 361.074 172.768Z" fill="#173244"/>
<path d="M412.287 168.25V166.378H416.031V179.5H413.961V168.25H412.287ZM418.58 168.25V166.378H422.324V179.5H420.254V168.25H418.58Z" fill="white"/>
<path d="M30.2387 229.25V227.378H33.9827V240.5H31.9127V229.25H30.2387ZM37.9357 237.71C39.0877 236.714 39.9937 235.898 40.6537 235.262C41.3257 234.614 41.8837 233.942 42.3277 233.246C42.7717 232.55 42.9937 231.854 42.9937 231.158C42.9937 230.438 42.8197 229.874 42.4717 229.466C42.1357 229.058 41.6017 228.854 40.8697 228.854C40.1617 228.854 39.6097 229.082 39.2137 229.538C38.8297 229.982 38.6257 230.582 38.6017 231.338H36.6217C36.6577 229.97 37.0657 228.926 37.8457 228.206C38.6377 227.474 39.6397 227.108 40.8517 227.108C42.1597 227.108 43.1797 227.468 43.9117 228.188C44.6557 228.908 45.0277 229.868 45.0277 231.068C45.0277 231.932 44.8057 232.766 44.3617 233.57C43.9297 234.362 43.4077 235.076 42.7957 235.712C42.1957 236.336 41.4277 237.062 40.4917 237.89L39.6817 238.61H45.3877V240.32H36.6397V238.826L37.9357 237.71Z" fill="#173244"/>
<path d="M96.0893 229.25V227.378H99.8333V240.5H97.7633V229.25H96.0893ZM102.616 230.618C102.688 229.502 103.114 228.632 103.894 228.008C104.686 227.384 105.694 227.072 106.918 227.072C107.758 227.072 108.484 227.222 109.096 227.522C109.708 227.822 110.17 228.23 110.482 228.746C110.794 229.262 110.95 229.844 110.95 230.492C110.95 231.236 110.752 231.872 110.356 232.4C109.96 232.928 109.486 233.282 108.934 233.462V233.534C109.642 233.75 110.194 234.146 110.59 234.722C110.986 235.286 111.184 236.012 111.184 236.9C111.184 237.608 111.022 238.238 110.698 238.79C110.374 239.342 109.894 239.78 109.258 240.104C108.622 240.416 107.86 240.572 106.972 240.572C105.676 240.572 104.608 240.242 103.768 239.582C102.94 238.91 102.496 237.95 102.436 236.702H104.416C104.464 237.338 104.71 237.86 105.154 238.268C105.598 238.664 106.198 238.862 106.954 238.862C107.686 238.862 108.25 238.664 108.646 238.268C109.042 237.86 109.24 237.338 109.24 236.702C109.24 235.862 108.97 235.268 108.43 234.92C107.902 234.56 107.086 234.38 105.982 234.38H105.514V232.688H106C106.972 232.676 107.71 232.514 108.214 232.202C108.73 231.89 108.988 231.398 108.988 230.726C108.988 230.15 108.802 229.694 108.43 229.358C108.058 229.01 107.53 228.836 106.846 228.836C106.174 228.836 105.652 229.01 105.28 229.358C104.908 229.694 104.686 230.114 104.614 230.618H102.616Z" fill="white"/>
<rect x="103.73" y="203.375" width="36" height="20" rx="10" fill="#E8F5F4"/>
<path d="M114.258 214.999C114.258 215.399 114.158 215.775 113.958 216.127C113.766 216.479 113.478 216.775 113.094 217.015C112.718 217.255 112.27 217.399 111.75 217.447V218.419H110.97V217.447C110.218 217.375 109.61 217.139 109.146 216.739C108.682 216.339 108.45 215.811 108.45 215.155H109.914C109.938 215.467 110.038 215.727 110.214 215.935C110.39 216.135 110.642 216.263 110.97 216.319V213.679C110.434 213.543 109.998 213.407 109.662 213.271C109.326 213.127 109.038 212.903 108.798 212.599C108.566 212.295 108.45 211.879 108.45 211.351C108.45 210.687 108.682 210.139 109.146 209.707C109.61 209.267 110.218 209.011 110.97 208.939V207.967H111.75V208.939C112.454 209.003 113.018 209.227 113.442 209.611C113.874 209.987 114.118 210.507 114.174 211.171H112.71C112.686 210.923 112.59 210.703 112.422 210.511C112.254 210.311 112.03 210.175 111.75 210.103V212.695C112.286 212.823 112.722 212.959 113.058 213.103C113.394 213.239 113.678 213.459 113.91 213.763C114.142 214.059 114.258 214.471 114.258 214.999ZM109.842 211.279C109.842 211.607 109.938 211.863 110.13 212.047C110.33 212.231 110.61 212.379 110.97 212.491V210.067C110.626 210.107 110.35 210.231 110.142 210.439C109.942 210.647 109.842 210.927 109.842 211.279ZM111.75 216.319C112.102 216.263 112.378 216.123 112.578 215.899C112.778 215.667 112.878 215.391 112.878 215.071C112.878 214.751 112.778 214.503 112.578 214.327C112.386 214.143 112.11 213.995 111.75 213.883V216.319ZM116.275 209.875V208.627H118.771V217.375H117.391V209.875H116.275ZM120.85 212.887C120.85 211.503 121.082 210.423 121.546 209.647C122.018 208.863 122.826 208.471 123.97 208.471C125.114 208.471 125.918 208.863 126.382 209.647C126.854 210.423 127.09 211.503 127.09 212.887C127.09 214.287 126.854 215.383 126.382 216.175C125.918 216.959 125.114 217.351 123.97 217.351C122.826 217.351 122.018 216.959 121.546 216.175C121.082 215.383 120.85 214.287 120.85 212.887ZM125.746 212.887C125.746 212.239 125.702 211.691 125.614 211.243C125.534 210.795 125.366 210.431 125.11 210.151C124.854 209.863 124.474 209.719 123.97 209.719C123.466 209.719 123.086 209.863 122.83 210.151C122.574 210.431 122.402 210.795 122.314 211.243C122.234 211.691 122.194 212.239 122.194 212.887C122.194 213.559 122.234 214.123 122.314 214.579C122.394 215.035 122.562 215.403 122.818 215.683C123.082 215.963 123.466 216.103 123.97 216.103C124.474 216.103 124.854 215.963 125.11 215.683C125.374 215.403 125.546 215.035 125.626 214.579C125.706 214.123 125.746 213.559 125.746 212.887ZM128.738 212.887C128.738 211.503 128.97 210.423 129.434 209.647C129.906 208.863 130.714 208.471 131.858 208.471C133.002 208.471 133.806 208.863 134.27 209.647C134.742 210.423 134.978 211.503 134.978 212.887C134.978 214.287 134.742 215.383 134.27 216.175C133.806 216.959 133.002 217.351 131.858 217.351C130.714 217.351 129.906 216.959 129.434 216.175C128.97 215.383 128.738 214.287 128.738 212.887ZM133.634 212.887C133.634 212.239 133.59 211.691 133.502 211.243C133.422 210.795 133.254 210.431 132.998 210.151C132.742 209.863 132.362 209.719 131.858 209.719C131.354 209.719 130.974 209.863 130.718 210.151C130.462 210.431 130.29 210.795 130.202 211.243C130.122 211.691 130.082 212.239 130.082 212.887C130.082 213.559 130.122 214.123 130.202 214.579C130.282 215.035 130.45 215.403 130.706 215.683C130.97 215.963 131.354 216.103 131.858 216.103C132.362 216.103 132.742 215.963 132.998 215.683C133.262 215.403 133.434 215.035 133.514 214.579C133.594 214.123 133.634 213.559 133.634 212.887Z" fill="#0062FF"/>
<rect x="103.73" y="143.375" width="36" height="20" rx="10" fill="#E8F5F4"/>
<path d="M114.258 154.999C114.258 155.399 114.158 155.775 113.958 156.127C113.766 156.479 113.478 156.775 113.094 157.015C112.718 157.255 112.27 157.399 111.75 157.447V158.419H110.97V157.447C110.218 157.375 109.61 157.139 109.146 156.739C108.682 156.339 108.45 155.811 108.45 155.155H109.914C109.938 155.467 110.038 155.727 110.214 155.935C110.39 156.135 110.642 156.263 110.97 156.319V153.679C110.434 153.543 109.998 153.407 109.662 153.271C109.326 153.127 109.038 152.903 108.798 152.599C108.566 152.295 108.45 151.879 108.45 151.351C108.45 150.687 108.682 150.139 109.146 149.707C109.61 149.267 110.218 149.011 110.97 148.939V147.967H111.75V148.939C112.454 149.003 113.018 149.227 113.442 149.611C113.874 149.987 114.118 150.507 114.174 151.171H112.71C112.686 150.923 112.59 150.703 112.422 150.511C112.254 150.311 112.03 150.175 111.75 150.103V152.695C112.286 152.823 112.722 152.959 113.058 153.103C113.394 153.239 113.678 153.459 113.91 153.763C114.142 154.059 114.258 154.471 114.258 154.999ZM109.842 151.279C109.842 151.607 109.938 151.863 110.13 152.047C110.33 152.231 110.61 152.379 110.97 152.491V150.067C110.626 150.107 110.35 150.231 110.142 150.439C109.942 150.647 109.842 150.927 109.842 151.279ZM111.75 156.319C112.102 156.263 112.378 156.123 112.578 155.899C112.778 155.667 112.878 155.391 112.878 155.071C112.878 154.751 112.778 154.503 112.578 154.327C112.386 154.143 112.11 153.995 111.75 153.883V156.319ZM116.275 149.875V148.627H118.771V157.375H117.391V149.875H116.275ZM120.85 152.887C120.85 151.503 121.082 150.423 121.546 149.647C122.018 148.863 122.826 148.471 123.97 148.471C125.114 148.471 125.918 148.863 126.382 149.647C126.854 150.423 127.09 151.503 127.09 152.887C127.09 154.287 126.854 155.383 126.382 156.175C125.918 156.959 125.114 157.351 123.97 157.351C122.826 157.351 122.018 156.959 121.546 156.175C121.082 155.383 120.85 154.287 120.85 152.887ZM125.746 152.887C125.746 152.239 125.702 151.691 125.614 151.243C125.534 150.795 125.366 150.431 125.11 150.151C124.854 149.863 124.474 149.719 123.97 149.719C123.466 149.719 123.086 149.863 122.83 150.151C122.574 150.431 122.402 150.795 122.314 151.243C122.234 151.691 122.194 152.239 122.194 152.887C122.194 153.559 122.234 154.123 122.314 154.579C122.394 155.035 122.562 155.403 122.818 155.683C123.082 155.963 123.466 156.103 123.97 156.103C124.474 156.103 124.854 155.963 125.11 155.683C125.374 155.403 125.546 155.035 125.626 154.579C125.706 154.123 125.746 153.559 125.746 152.887ZM128.738 152.887C128.738 151.503 128.97 150.423 129.434 149.647C129.906 148.863 130.714 148.471 131.858 148.471C133.002 148.471 133.806 148.863 134.27 149.647C134.742 150.423 134.978 151.503 134.978 152.887C134.978 154.287 134.742 155.383 134.27 156.175C133.806 156.959 133.002 157.351 131.858 157.351C130.714 157.351 129.906 156.959 129.434 156.175C128.97 155.383 128.738 154.287 128.738 152.887ZM133.634 152.887C133.634 152.239 133.59 151.691 133.502 151.243C133.422 150.795 133.254 150.431 132.998 150.151C132.742 149.863 132.362 149.719 131.858 149.719C131.354 149.719 130.974 149.863 130.718 150.151C130.462 150.431 130.29 150.795 130.202 151.243C130.122 151.691 130.082 152.239 130.082 152.887C130.082 153.559 130.122 154.123 130.202 154.579C130.282 155.035 130.45 155.403 130.706 155.683C130.97 155.963 131.354 156.103 131.858 156.103C132.362 156.103 132.742 155.963 132.998 155.683C133.262 155.403 133.434 155.035 133.514 154.579C133.594 154.123 133.634 153.559 133.634 152.887Z" fill="#0062FF"/>
<rect x="416.73" y="143.375" width="31" height="19" rx="9.5" fill="#E8F5F4"/>
<path d="M427.426 156.283V157.399H421.87L421.63 156.655C421.966 156.295 422.214 155.939 422.374 155.587C422.534 155.227 422.614 154.783 422.614 154.255C422.614 154.095 422.594 153.927 422.554 153.751H421.234V152.803H422.254C422.086 152.299 422.002 151.811 422.002 151.339C422.002 150.803 422.118 150.339 422.35 149.947C422.582 149.555 422.902 149.255 423.31 149.047C423.718 148.831 424.19 148.723 424.726 148.723C425.582 148.723 426.23 148.963 426.67 149.443C427.11 149.923 427.338 150.535 427.354 151.279H426.106C426.106 150.847 425.994 150.507 425.77 150.259C425.546 150.003 425.198 149.875 424.726 149.875C424.294 149.875 423.946 149.999 423.682 150.247C423.426 150.495 423.298 150.883 423.298 151.411C423.298 151.643 423.322 151.867 423.37 152.083C423.418 152.299 423.486 152.539 423.574 152.803H425.902V153.751H423.85C423.89 153.935 423.91 154.107 423.91 154.267C423.91 155.043 423.642 155.715 423.106 156.283H427.426ZM434.952 149.683L431.616 157.375H430.236L433.608 149.827H429.168V148.663H434.952V149.683ZM437.799 152.803C436.967 152.387 436.551 151.731 436.551 150.835C436.551 150.403 436.659 150.007 436.875 149.647C437.091 149.287 437.415 149.003 437.847 148.795C438.279 148.579 438.807 148.471 439.431 148.471C440.047 148.471 440.571 148.579 441.003 148.795C441.443 149.003 441.771 149.287 441.987 149.647C442.203 150.007 442.311 150.403 442.311 150.835C442.311 151.283 442.195 151.679 441.963 152.023C441.739 152.359 441.439 152.619 441.063 152.803C441.519 152.971 441.879 153.247 442.143 153.631C442.407 154.007 442.539 154.451 442.539 154.963C442.539 155.483 442.407 155.943 442.143 156.343C441.879 156.743 441.511 157.051 441.039 157.267C440.567 157.483 440.031 157.591 439.431 157.591C438.831 157.591 438.295 157.483 437.823 157.267C437.359 157.051 436.995 156.743 436.731 156.343C436.467 155.943 436.335 155.483 436.335 154.963C436.335 154.443 436.467 153.995 436.731 153.619C436.995 153.243 437.351 152.971 437.799 152.803ZM441.003 151.003C441.003 150.555 440.863 150.211 440.583 149.971C440.303 149.731 439.919 149.611 439.431 149.611C438.951 149.611 438.571 149.731 438.291 149.971C438.011 150.211 437.871 150.559 437.871 151.015C437.871 151.415 438.015 151.743 438.303 151.999C438.599 152.247 438.975 152.371 439.431 152.371C439.887 152.371 440.263 152.243 440.559 151.987C440.855 151.731 441.003 151.403 441.003 151.003ZM439.431 153.403C438.903 153.403 438.471 153.535 438.135 153.799C437.807 154.055 437.643 154.427 437.643 154.915C437.643 155.371 437.803 155.743 438.123 156.031C438.443 156.311 438.879 156.451 439.431 156.451C439.975 156.451 440.403 156.307 440.715 156.019C441.035 155.731 441.195 155.363 441.195 154.915C441.195 154.435 441.031 154.063 440.703 153.799C440.383 153.535 439.959 153.403 439.431 153.403Z" fill="#9C04FF"/>
<rect x="103.73" y="265.375" width="36" height="20" rx="10" fill="#E8F5F4"/>
<path d="M114.258 276.999C114.258 277.399 114.158 277.775 113.958 278.127C113.766 278.479 113.478 278.775 113.094 279.015C112.718 279.255 112.27 279.399 111.75 279.447V280.419H110.97V279.447C110.218 279.375 109.61 279.139 109.146 278.739C108.682 278.339 108.45 277.811 108.45 277.155H109.914C109.938 277.467 110.038 277.727 110.214 277.935C110.39 278.135 110.642 278.263 110.97 278.319V275.679C110.434 275.543 109.998 275.407 109.662 275.271C109.326 275.127 109.038 274.903 108.798 274.599C108.566 274.295 108.45 273.879 108.45 273.351C108.45 272.687 108.682 272.139 109.146 271.707C109.61 271.267 110.218 271.011 110.97 270.939V269.967H111.75V270.939C112.454 271.003 113.018 271.227 113.442 271.611C113.874 271.987 114.118 272.507 114.174 273.171H112.71C112.686 272.923 112.59 272.703 112.422 272.511C112.254 272.311 112.03 272.175 111.75 272.103V274.695C112.286 274.823 112.722 274.959 113.058 275.103C113.394 275.239 113.678 275.459 113.91 275.763C114.142 276.059 114.258 276.471 114.258 276.999ZM109.842 273.279C109.842 273.607 109.938 273.863 110.13 274.047C110.33 274.231 110.61 274.379 110.97 274.491V272.067C110.626 272.107 110.35 272.231 110.142 272.439C109.942 272.647 109.842 272.927 109.842 273.279ZM111.75 278.319C112.102 278.263 112.378 278.123 112.578 277.899C112.778 277.667 112.878 277.391 112.878 277.071C112.878 276.751 112.778 276.503 112.578 276.327C112.386 276.143 112.11 275.995 111.75 275.883V278.319ZM116.275 271.875V270.627H118.771V279.375H117.391V271.875H116.275ZM120.85 274.887C120.85 273.503 121.082 272.423 121.546 271.647C122.018 270.863 122.826 270.471 123.97 270.471C125.114 270.471 125.918 270.863 126.382 271.647C126.854 272.423 127.09 273.503 127.09 274.887C127.09 276.287 126.854 277.383 126.382 278.175C125.918 278.959 125.114 279.351 123.97 279.351C122.826 279.351 122.018 278.959 121.546 278.175C121.082 277.383 120.85 276.287 120.85 274.887ZM125.746 274.887C125.746 274.239 125.702 273.691 125.614 273.243C125.534 272.795 125.366 272.431 125.11 272.151C124.854 271.863 124.474 271.719 123.97 271.719C123.466 271.719 123.086 271.863 122.83 272.151C122.574 272.431 122.402 272.795 122.314 273.243C122.234 273.691 122.194 274.239 122.194 274.887C122.194 275.559 122.234 276.123 122.314 276.579C122.394 277.035 122.562 277.403 122.818 277.683C123.082 277.963 123.466 278.103 123.97 278.103C124.474 278.103 124.854 277.963 125.11 277.683C125.374 277.403 125.546 277.035 125.626 276.579C125.706 276.123 125.746 275.559 125.746 274.887ZM128.738 274.887C128.738 273.503 128.97 272.423 129.434 271.647C129.906 270.863 130.714 270.471 131.858 270.471C133.002 270.471 133.806 270.863 134.27 271.647C134.742 272.423 134.978 273.503 134.978 274.887C134.978 276.287 134.742 277.383 134.27 278.175C133.806 278.959 133.002 279.351 131.858 279.351C130.714 279.351 129.906 278.959 129.434 278.175C128.97 277.383 128.738 276.287 128.738 274.887ZM133.634 274.887C133.634 274.239 133.59 273.691 133.502 273.243C133.422 272.795 133.254 272.431 132.998 272.151C132.742 271.863 132.362 271.719 131.858 271.719C131.354 271.719 130.974 271.863 130.718 272.151C130.462 272.431 130.29 272.795 130.202 273.243C130.122 273.691 130.082 274.239 130.082 274.887C130.082 275.559 130.122 276.123 130.202 276.579C130.282 277.035 130.45 277.403 130.706 277.683C130.97 277.963 131.354 278.103 131.858 278.103C132.362 278.103 132.742 277.963 132.998 277.683C133.262 277.403 133.434 277.035 133.514 276.579C133.594 276.123 133.634 275.559 133.634 274.887Z" fill="#0062FF"/>
<rect x="416.73" y="265.375" width="31" height="19" rx="9.5" fill="#E8F5F4"/>
<path d="M427.426 278.283V279.399H421.87L421.63 278.655C421.966 278.295 422.214 277.939 422.374 277.587C422.534 277.227 422.614 276.783 422.614 276.255C422.614 276.095 422.594 275.927 422.554 275.751H421.234V274.803H422.254C422.086 274.299 422.002 273.811 422.002 273.339C422.002 272.803 422.118 272.339 422.35 271.947C422.582 271.555 422.902 271.255 423.31 271.047C423.718 270.831 424.19 270.723 424.726 270.723C425.582 270.723 426.23 270.963 426.67 271.443C427.11 271.923 427.338 272.535 427.354 273.279H426.106C426.106 272.847 425.994 272.507 425.77 272.259C425.546 272.003 425.198 271.875 424.726 271.875C424.294 271.875 423.946 271.999 423.682 272.247C423.426 272.495 423.298 272.883 423.298 273.411C423.298 273.643 423.322 273.867 423.37 274.083C423.418 274.299 423.486 274.539 423.574 274.803H425.902V275.751H423.85C423.89 275.935 423.91 276.107 423.91 276.267C423.91 277.043 423.642 277.715 423.106 278.283H427.426ZM434.952 271.683L431.616 279.375H430.236L433.608 271.827H429.168V270.663H434.952V271.683ZM437.799 274.803C436.967 274.387 436.551 273.731 436.551 272.835C436.551 272.403 436.659 272.007 436.875 271.647C437.091 271.287 437.415 271.003 437.847 270.795C438.279 270.579 438.807 270.471 439.431 270.471C440.047 270.471 440.571 270.579 441.003 270.795C441.443 271.003 441.771 271.287 441.987 271.647C442.203 272.007 442.311 272.403 442.311 272.835C442.311 273.283 442.195 273.679 441.963 274.023C441.739 274.359 441.439 274.619 441.063 274.803C441.519 274.971 441.879 275.247 442.143 275.631C442.407 276.007 442.539 276.451 442.539 276.963C442.539 277.483 442.407 277.943 442.143 278.343C441.879 278.743 441.511 279.051 441.039 279.267C440.567 279.483 440.031 279.591 439.431 279.591C438.831 279.591 438.295 279.483 437.823 279.267C437.359 279.051 436.995 278.743 436.731 278.343C436.467 277.943 436.335 277.483 436.335 276.963C436.335 276.443 436.467 275.995 436.731 275.619C436.995 275.243 437.351 274.971 437.799 274.803ZM441.003 273.003C441.003 272.555 440.863 272.211 440.583 271.971C440.303 271.731 439.919 271.611 439.431 271.611C438.951 271.611 438.571 271.731 438.291 271.971C438.011 272.211 437.871 272.559 437.871 273.015C437.871 273.415 438.015 273.743 438.303 273.999C438.599 274.247 438.975 274.371 439.431 274.371C439.887 274.371 440.263 274.243 440.559 273.987C440.855 273.731 441.003 273.403 441.003 273.003ZM439.431 275.403C438.903 275.403 438.471 275.535 438.135 275.799C437.807 276.055 437.643 276.427 437.643 276.915C437.643 277.371 437.803 277.743 438.123 278.031C438.443 278.311 438.879 278.451 439.431 278.451C439.975 278.451 440.403 278.307 440.715 278.019C441.035 277.731 441.195 277.363 441.195 276.915C441.195 276.435 441.031 276.063 440.703 275.799C440.383 275.535 439.959 275.403 439.431 275.403Z" fill="#9C04FF"/>
<rect x="103.73" y="327.375" width="36" height="20" rx="10" fill="#E8F5F4"/>
<path d="M114.258 338.999C114.258 339.399 114.158 339.775 113.958 340.127C113.766 340.479 113.478 340.775 113.094 341.015C112.718 341.255 112.27 341.399 111.75 341.447V342.419H110.97V341.447C110.218 341.375 109.61 341.139 109.146 340.739C108.682 340.339 108.45 339.811 108.45 339.155H109.914C109.938 339.467 110.038 339.727 110.214 339.935C110.39 340.135 110.642 340.263 110.97 340.319V337.679C110.434 337.543 109.998 337.407 109.662 337.271C109.326 337.127 109.038 336.903 108.798 336.599C108.566 336.295 108.45 335.879 108.45 335.351C108.45 334.687 108.682 334.139 109.146 333.707C109.61 333.267 110.218 333.011 110.97 332.939V331.967H111.75V332.939C112.454 333.003 113.018 333.227 113.442 333.611C113.874 333.987 114.118 334.507 114.174 335.171H112.71C112.686 334.923 112.59 334.703 112.422 334.511C112.254 334.311 112.03 334.175 111.75 334.103V336.695C112.286 336.823 112.722 336.959 113.058 337.103C113.394 337.239 113.678 337.459 113.91 337.763C114.142 338.059 114.258 338.471 114.258 338.999ZM109.842 335.279C109.842 335.607 109.938 335.863 110.13 336.047C110.33 336.231 110.61 336.379 110.97 336.491V334.067C110.626 334.107 110.35 334.231 110.142 334.439C109.942 334.647 109.842 334.927 109.842 335.279ZM111.75 340.319C112.102 340.263 112.378 340.123 112.578 339.899C112.778 339.667 112.878 339.391 112.878 339.071C112.878 338.751 112.778 338.503 112.578 338.327C112.386 338.143 112.11 337.995 111.75 337.883V340.319ZM116.275 333.875V332.627H118.771V341.375H117.391V333.875H116.275ZM120.85 336.887C120.85 335.503 121.082 334.423 121.546 333.647C122.018 332.863 122.826 332.471 123.97 332.471C125.114 332.471 125.918 332.863 126.382 333.647C126.854 334.423 127.09 335.503 127.09 336.887C127.09 338.287 126.854 339.383 126.382 340.175C125.918 340.959 125.114 341.351 123.97 341.351C122.826 341.351 122.018 340.959 121.546 340.175C121.082 339.383 120.85 338.287 120.85 336.887ZM125.746 336.887C125.746 336.239 125.702 335.691 125.614 335.243C125.534 334.795 125.366 334.431 125.11 334.151C124.854 333.863 124.474 333.719 123.97 333.719C123.466 333.719 123.086 333.863 122.83 334.151C122.574 334.431 122.402 334.795 122.314 335.243C122.234 335.691 122.194 336.239 122.194 336.887C122.194 337.559 122.234 338.123 122.314 338.579C122.394 339.035 122.562 339.403 122.818 339.683C123.082 339.963 123.466 340.103 123.97 340.103C124.474 340.103 124.854 339.963 125.11 339.683C125.374 339.403 125.546 339.035 125.626 338.579C125.706 338.123 125.746 337.559 125.746 336.887ZM128.738 336.887C128.738 335.503 128.97 334.423 129.434 333.647C129.906 332.863 130.714 332.471 131.858 332.471C133.002 332.471 133.806 332.863 134.27 333.647C134.742 334.423 134.978 335.503 134.978 336.887C134.978 338.287 134.742 339.383 134.27 340.175C133.806 340.959 133.002 341.351 131.858 341.351C130.714 341.351 129.906 340.959 129.434 340.175C128.97 339.383 128.738 338.287 128.738 336.887ZM133.634 336.887C133.634 336.239 133.59 335.691 133.502 335.243C133.422 334.795 133.254 334.431 132.998 334.151C132.742 333.863 132.362 333.719 131.858 333.719C131.354 333.719 130.974 333.863 130.718 334.151C130.462 334.431 130.29 334.795 130.202 335.243C130.122 335.691 130.082 336.239 130.082 336.887C130.082 337.559 130.122 338.123 130.202 338.579C130.282 339.035 130.45 339.403 130.706 339.683C130.97 339.963 131.354 340.103 131.858 340.103C132.362 340.103 132.742 339.963 132.998 339.683C133.262 339.403 133.434 339.035 133.514 338.579C133.594 338.123 133.634 337.559 133.634 336.887Z" fill="#0062FF"/>
<path d="M161.106 229.25V227.378H164.85V240.5H162.78V229.25H161.106ZM167.417 237.764V236.216L173.465 227.54H175.949V235.982H177.623V237.764H175.949V240.5H173.933V237.764H167.417ZM174.023 229.628L169.775 235.982H174.023V229.628Z" fill="#173244"/>
<path d="M228.185 229.25V227.378H231.929V240.5H229.859V229.25H228.185ZM243.208 229.142H237.178V232.724C237.43 232.388 237.802 232.106 238.294 231.878C238.798 231.65 239.332 231.536 239.896 231.536C240.904 231.536 241.72 231.752 242.344 232.184C242.98 232.616 243.43 233.162 243.694 233.822C243.97 234.482 244.108 235.178 244.108 235.91C244.108 236.798 243.934 237.59 243.586 238.286C243.25 238.97 242.74 239.51 242.056 239.906C241.384 240.302 240.556 240.5 239.572 240.5C238.264 240.5 237.214 240.176 236.422 239.528C235.63 238.88 235.156 238.022 235 236.954H236.998C237.13 237.518 237.424 237.968 237.88 238.304C238.336 238.628 238.906 238.79 239.59 238.79C240.442 238.79 241.078 238.532 241.498 238.016C241.93 237.5 242.146 236.816 242.146 235.964C242.146 235.1 241.93 234.44 241.498 233.984C241.066 233.516 240.43 233.282 239.59 233.282C239.002 233.282 238.504 233.432 238.096 233.732C237.7 234.02 237.412 234.416 237.232 234.92H235.288V227.342H243.208V229.142Z" fill="#173244"/>
<path d="M288.159 229.25V227.378H291.903V240.5H289.833V229.25H288.159ZM301.778 230.42C301.646 229.868 301.406 229.454 301.058 229.178C300.71 228.902 300.224 228.764 299.6 228.764C298.652 228.764 297.944 229.13 297.476 229.862C297.008 230.582 296.762 231.782 296.738 233.462C297.05 232.934 297.506 232.526 298.106 232.238C298.706 231.95 299.354 231.806 300.05 231.806C300.842 231.806 301.538 231.98 302.138 232.328C302.75 232.664 303.224 233.156 303.56 233.804C303.908 234.452 304.082 235.226 304.082 236.126C304.082 236.966 303.914 237.716 303.578 238.376C303.254 239.036 302.768 239.558 302.12 239.942C301.472 240.314 300.692 240.5 299.78 240.5C298.544 240.5 297.572 240.23 296.864 239.69C296.168 239.138 295.676 238.364 295.388 237.368C295.112 236.372 294.974 235.13 294.974 233.642C294.974 229.25 296.522 227.054 299.618 227.054C300.818 227.054 301.76 227.378 302.444 228.026C303.14 228.674 303.548 229.472 303.668 230.42H301.778ZM299.6 233.534C298.868 233.534 298.244 233.756 297.728 234.2C297.224 234.632 296.972 235.262 296.972 236.09C296.972 236.918 297.206 237.578 297.674 238.07C298.154 238.55 298.82 238.79 299.672 238.79C300.428 238.79 301.022 238.556 301.454 238.088C301.898 237.62 302.12 236.996 302.12 236.216C302.12 235.4 301.904 234.752 301.472 234.272C301.052 233.78 300.428 233.534 299.6 233.534Z" fill="#173244"/>
<path d="M348.397 229.25V227.378H352.141V240.5H350.071V229.25H348.397ZM363.276 228.962L358.272 240.5H356.202L361.26 229.178H354.6V227.432H363.276V228.962Z" fill="#173244"/>
<path d="M409.194 229.25V227.378H412.938V240.5H410.868V229.25H409.194ZM417.971 233.642C416.723 233.018 416.099 232.034 416.099 230.69C416.099 230.042 416.261 229.448 416.585 228.908C416.909 228.368 417.395 227.942 418.043 227.63C418.691 227.306 419.483 227.144 420.419 227.144C421.343 227.144 422.129 227.306 422.777 227.63C423.437 227.942 423.929 228.368 424.253 228.908C424.577 229.448 424.739 230.042 424.739 230.69C424.739 231.362 424.565 231.956 424.217 232.472C423.881 232.976 423.431 233.366 422.867 233.642C423.551 233.894 424.091 234.308 424.487 234.884C424.883 235.448 425.081 236.114 425.081 236.882C425.081 237.662 424.883 238.352 424.487 238.952C424.091 239.552 423.539 240.014 422.831 240.338C422.123 240.662 421.319 240.824 420.419 240.824C419.519 240.824 418.715 240.662 418.007 240.338C417.311 240.014 416.765 239.552 416.369 238.952C415.973 238.352 415.775 237.662 415.775 236.882C415.775 236.102 415.973 235.43 416.369 234.866C416.765 234.302 417.299 233.894 417.971 233.642ZM422.777 230.942C422.777 230.27 422.567 229.754 422.147 229.394C421.727 229.034 421.151 228.854 420.419 228.854C419.699 228.854 419.129 229.034 418.709 229.394C418.289 229.754 418.079 230.276 418.079 230.96C418.079 231.56 418.295 232.052 418.727 232.436C419.171 232.808 419.735 232.994 420.419 232.994C421.103 232.994 421.667 232.802 422.111 232.418C422.555 232.034 422.777 231.542 422.777 230.942ZM420.419 234.542C419.627 234.542 418.979 234.74 418.475 235.136C417.983 235.52 417.737 236.078 417.737 236.81C417.737 237.494 417.977 238.052 418.457 238.484C418.937 238.904 419.591 239.114 420.419 239.114C421.235 239.114 421.877 238.898 422.345 238.466C422.825 238.034 423.065 237.482 423.065 236.81C423.065 236.09 422.819 235.532 422.327 235.136C421.847 234.74 421.211 234.542 420.419 234.542Z" fill="#173244"/>
<path d="M29.2202 290.25V288.378H32.9642V301.5H30.8942V290.25H29.2202ZM38.3391 297.936C38.4591 298.536 38.7171 298.992 39.1131 299.304C39.5091 299.616 40.0431 299.772 40.7151 299.772C41.5671 299.772 42.1911 299.436 42.5871 298.764C42.9831 298.092 43.1811 296.946 43.1811 295.326C42.8931 295.734 42.4851 296.052 41.9571 296.28C41.4411 296.496 40.8771 296.604 40.2651 296.604C39.4851 296.604 38.7771 296.448 38.1411 296.136C37.5051 295.812 37.0011 295.338 36.6291 294.714C36.2691 294.078 36.0891 293.31 36.0891 292.41C36.0891 291.09 36.4731 290.04 37.2411 289.26C38.0211 288.468 39.0891 288.072 40.4451 288.072C42.0771 288.072 43.2351 288.618 43.9191 289.71C44.6151 290.79 44.9631 292.452 44.9631 294.696C44.9631 296.244 44.8311 297.51 44.5671 298.494C44.3151 299.478 43.8711 300.222 43.2351 300.726C42.5991 301.23 41.7171 301.482 40.5891 301.482C39.3051 301.482 38.3151 301.146 37.6191 300.474C36.9231 299.802 36.5331 298.956 36.4491 297.936H38.3391ZM40.6251 294.876C41.3451 294.876 41.9091 294.654 42.3171 294.21C42.7371 293.754 42.9471 293.154 42.9471 292.41C42.9471 291.582 42.7251 290.94 42.2811 290.484C41.8491 290.016 41.2551 289.782 40.4991 289.782C39.7431 289.782 39.1431 290.022 38.6991 290.502C38.2671 290.97 38.0511 291.588 38.0511 292.356C38.0511 293.088 38.2611 293.694 38.6811 294.174C39.1131 294.642 39.7611 294.876 40.6251 294.876Z" fill="#173244"/>
<path d="M94.5236 298.71C95.6756 297.714 96.5816 296.898 97.2416 296.262C97.9136 295.614 98.4716 294.942 98.9156 294.246C99.3596 293.55 99.5816 292.854 99.5816 292.158C99.5816 291.438 99.4076 290.874 99.0596 290.466C98.7236 290.058 98.1896 289.854 97.4576 289.854C96.7496 289.854 96.1976 290.082 95.8016 290.538C95.4176 290.982 95.2136 291.582 95.1896 292.338H93.2096C93.2456 290.97 93.6536 289.926 94.4336 289.206C95.2256 288.474 96.2276 288.108 97.4396 288.108C98.7476 288.108 99.7676 288.468 100.5 289.188C101.244 289.908 101.616 290.868 101.616 292.068C101.616 292.932 101.394 293.766 100.95 294.57C100.518 295.362 99.9956 296.076 99.3836 296.712C98.7836 297.336 98.0156 298.062 97.0796 298.89L96.2696 299.61H101.976V301.32H93.2276V299.826L94.5236 298.71ZM103.778 294.768C103.778 292.692 104.126 291.072 104.822 289.908C105.53 288.732 106.742 288.144 108.458 288.144C110.174 288.144 111.38 288.732 112.076 289.908C112.784 291.072 113.138 292.692 113.138 294.768C113.138 296.868 112.784 298.512 112.076 299.7C111.38 300.876 110.174 301.464 108.458 301.464C106.742 301.464 105.53 300.876 104.822 299.7C104.126 298.512 103.778 296.868 103.778 294.768ZM111.122 294.768C111.122 293.796 111.056 292.974 110.924 292.302C110.804 291.63 110.552 291.084 110.168 290.664C109.784 290.232 109.214 290.016 108.458 290.016C107.702 290.016 107.132 290.232 106.748 290.664C106.364 291.084 106.106 291.63 105.974 292.302C105.854 292.974 105.794 293.796 105.794 294.768C105.794 295.776 105.854 296.622 105.974 297.306C106.094 297.99 106.346 298.542 106.73 298.962C107.126 299.382 107.702 299.592 108.458 299.592C109.214 299.592 109.784 299.382 110.168 298.962C110.564 298.542 110.822 297.99 110.942 297.306C111.062 296.622 111.122 295.776 111.122 294.768Z" fill="white"/>
<path d="M163.643 298.71C164.795 297.714 165.701 296.898 166.361 296.262C167.033 295.614 167.591 294.942 168.035 294.246C168.479 293.55 168.701 292.854 168.701 292.158C168.701 291.438 168.527 290.874 168.179 290.466C167.843 290.058 167.309 289.854 166.577 289.854C165.869 289.854 165.317 290.082 164.921 290.538C164.537 290.982 164.333 291.582 164.309 292.338H162.329C162.365 290.97 162.773 289.926 163.553 289.206C164.345 288.474 165.347 288.108 166.559 288.108C167.867 288.108 168.887 288.468 169.619 289.188C170.363 289.908 170.735 290.868 170.735 292.068C170.735 292.932 170.513 293.766 170.069 294.57C169.637 295.362 169.115 296.076 168.503 296.712C167.903 297.336 167.135 298.062 166.199 298.89L165.389 299.61H171.095V301.32H162.347V299.826L163.643 298.71ZM172.627 290.25V288.378H176.371V301.5H174.301V290.25H172.627Z" fill="#173244"/>
<path d="M228.595 298.71C229.747 297.714 230.653 296.898 231.313 296.262C231.985 295.614 232.543 294.942 232.987 294.246C233.431 293.55 233.653 292.854 233.653 292.158C233.653 291.438 233.479 290.874 233.131 290.466C232.795 290.058 232.261 289.854 231.529 289.854C230.821 289.854 230.269 290.082 229.873 290.538C229.489 290.982 229.285 291.582 229.261 292.338H227.281C227.317 290.97 227.725 289.926 228.505 289.206C229.297 288.474 230.299 288.108 231.511 288.108C232.819 288.108 233.839 288.468 234.571 289.188C235.315 289.908 235.687 290.868 235.687 292.068C235.687 292.932 235.465 293.766 235.021 294.57C234.589 295.362 234.067 296.076 233.455 296.712C232.855 297.336 232.087 298.062 231.151 298.89L230.341 299.61H236.047V301.32H227.299V299.826L228.595 298.71ZM238.984 298.71C240.136 297.714 241.042 296.898 241.702 296.262C242.374 295.614 242.932 294.942 243.376 294.246C243.82 293.55 244.042 292.854 244.042 292.158C244.042 291.438 243.868 290.874 243.52 290.466C243.184 290.058 242.65 289.854 241.918 289.854C241.21 289.854 240.658 290.082 240.262 290.538C239.878 290.982 239.674 291.582 239.65 292.338H237.67C237.706 290.97 238.114 289.926 238.894 289.206C239.686 288.474 240.688 288.108 241.9 288.108C243.208 288.108 244.228 288.468 244.96 289.188C245.704 289.908 246.076 290.868 246.076 292.068C246.076 292.932 245.854 293.766 245.41 294.57C244.978 295.362 244.456 296.076 243.844 296.712C243.244 297.336 242.476 298.062 241.54 298.89L240.73 299.61H246.436V301.32H237.688V299.826L238.984 298.71Z" fill="#173244"/>
<path d="M287.945 298.71C289.097 297.714 290.003 296.898 290.663 296.262C291.335 295.614 291.893 294.942 292.337 294.246C292.781 293.55 293.003 292.854 293.003 292.158C293.003 291.438 292.829 290.874 292.481 290.466C292.145 290.058 291.611 289.854 290.879 289.854C290.171 289.854 289.619 290.082 289.223 290.538C288.839 290.982 288.635 291.582 288.611 292.338H286.631C286.667 290.97 287.075 289.926 287.855 289.206C288.647 288.474 289.649 288.108 290.861 288.108C292.169 288.108 293.189 288.468 293.921 289.188C294.665 289.908 295.037 290.868 295.037 292.068C295.037 292.932 294.815 293.766 294.371 294.57C293.939 295.362 293.417 296.076 292.805 296.712C292.205 297.336 291.437 298.062 290.501 298.89L289.691 299.61H295.397V301.32H286.649V299.826L287.945 298.71ZM297.164 291.618C297.236 290.502 297.662 289.632 298.442 289.008C299.234 288.384 300.242 288.072 301.466 288.072C302.306 288.072 303.032 288.222 303.644 288.522C304.256 288.822 304.718 289.23 305.03 289.746C305.342 290.262 305.498 290.844 305.498 291.492C305.498 292.236 305.3 292.872 304.904 293.4C304.508 293.928 304.034 294.282 303.482 294.462V294.534C304.19 294.75 304.742 295.146 305.138 295.722C305.534 296.286 305.732 297.012 305.732 297.9C305.732 298.608 305.57 299.238 305.246 299.79C304.922 300.342 304.442 300.78 303.806 301.104C303.17 301.416 302.408 301.572 301.52 301.572C300.224 301.572 299.156 301.242 298.316 300.582C297.488 299.91 297.044 298.95 296.984 297.702H298.964C299.012 298.338 299.258 298.86 299.702 299.268C300.146 299.664 300.746 299.862 301.502 299.862C302.234 299.862 302.798 299.664 303.194 299.268C303.59 298.86 303.788 298.338 303.788 297.702C303.788 296.862 303.518 296.268 302.978 295.92C302.45 295.56 301.634 295.38 300.53 295.38H300.062V293.688H300.548C301.52 293.676 302.258 293.514 302.762 293.202C303.278 292.89 303.536 292.398 303.536 291.726C303.536 291.15 303.35 290.694 302.978 290.358C302.606 290.01 302.078 289.836 301.394 289.836C300.722 289.836 300.2 290.01 299.828 290.358C299.456 290.694 299.234 291.114 299.162 291.618H297.164Z" fill="#173244"/>
<path d="M346.962 298.71C348.114 297.714 349.02 296.898 349.68 296.262C350.352 295.614 350.91 294.942 351.354 294.246C351.798 293.55 352.02 292.854 352.02 292.158C352.02 291.438 351.846 290.874 351.498 290.466C351.162 290.058 350.628 289.854 349.896 289.854C349.188 289.854 348.636 290.082 348.24 290.538C347.856 290.982 347.652 291.582 347.628 292.338H345.648C345.684 290.97 346.092 289.926 346.872 289.206C347.664 288.474 348.666 288.108 349.878 288.108C351.186 288.108 352.206 288.468 352.938 289.188C353.682 289.908 354.054 290.868 354.054 292.068C354.054 292.932 353.832 293.766 353.388 294.57C352.956 295.362 352.434 296.076 351.822 296.712C351.222 297.336 350.454 298.062 349.518 298.89L348.708 299.61H354.414V301.32H345.666V299.826L346.962 298.71ZM355.965 298.764V297.216L362.013 288.54H364.497V296.982H366.171V298.764H364.497V301.5H362.481V298.764H355.965ZM362.571 290.628L358.323 296.982H362.571V290.628Z" fill="#173244"/>
<path d="M408.541 298.71C409.693 297.714 410.599 296.898 411.259 296.262C411.931 295.614 412.489 294.942 412.933 294.246C413.377 293.55 413.599 292.854 413.599 292.158C413.599 291.438 413.425 290.874 413.077 290.466C412.741 290.058 412.207 289.854 411.475 289.854C410.767 289.854 410.215 290.082 409.819 290.538C409.435 290.982 409.231 291.582 409.207 292.338H407.227C407.263 290.97 407.671 289.926 408.451 289.206C409.243 288.474 410.245 288.108 411.457 288.108C412.765 288.108 413.785 288.468 414.517 289.188C415.261 289.908 415.633 290.868 415.633 292.068C415.633 292.932 415.411 293.766 414.967 294.57C414.535 295.362 414.013 296.076 413.401 296.712C412.801 297.336 412.033 298.062 411.097 298.89L410.287 299.61H415.993V301.32H407.245V299.826L408.541 298.71ZM426.256 290.142H420.226V293.724C420.478 293.388 420.85 293.106 421.342 292.878C421.846 292.65 422.38 292.536 422.944 292.536C423.952 292.536 424.768 292.752 425.392 293.184C426.028 293.616 426.478 294.162 426.742 294.822C427.018 295.482 427.156 296.178 427.156 296.91C427.156 297.798 426.982 298.59 426.634 299.286C426.298 299.97 425.788 300.51 425.104 300.906C424.432 301.302 423.604 301.5 422.62 301.5C421.312 301.5 420.262 301.176 419.47 300.528C418.678 299.88 418.204 299.022 418.048 297.954H420.046C420.178 298.518 420.472 298.968 420.928 299.304C421.384 299.628 421.954 299.79 422.638 299.79C423.49 299.79 424.126 299.532 424.546 299.016C424.978 298.5 425.194 297.816 425.194 296.964C425.194 296.1 424.978 295.44 424.546 294.984C424.114 294.516 423.478 294.282 422.638 294.282C422.05 294.282 421.552 294.432 421.144 294.732C420.748 295.02 420.46 295.416 420.28 295.92H418.336V288.342H426.256V290.142Z" fill="white"/>
<path d="M28.5148 359.71C29.6668 358.714 30.5728 357.898 31.2328 357.262C31.9048 356.614 32.4628 355.942 32.9068 355.246C33.3508 354.55 33.5728 353.854 33.5728 353.158C33.5728 352.438 33.3988 351.874 33.0508 351.466C32.7148 351.058 32.1808 350.854 31.4488 350.854C30.7408 350.854 30.1888 351.082 29.7928 351.538C29.4088 351.982 29.2048 352.582 29.1808 353.338H27.2008C27.2368 351.97 27.6448 350.926 28.4248 350.206C29.2168 349.474 30.2188 349.108 31.4308 349.108C32.7388 349.108 33.7588 349.468 34.4908 350.188C35.2348 350.908 35.6068 351.868 35.6068 353.068C35.6068 353.932 35.3848 354.766 34.9408 355.57C34.5088 356.362 33.9868 357.076 33.3748 357.712C32.7748 358.336 32.0068 359.062 31.0708 359.89L30.2608 360.61H35.9668V362.32H27.2188V360.826L28.5148 359.71ZM44.8255 352.42C44.6935 351.868 44.4535 351.454 44.1055 351.178C43.7575 350.902 43.2715 350.764 42.6475 350.764C41.6995 350.764 40.9915 351.13 40.5235 351.862C40.0555 352.582 39.8095 353.782 39.7855 355.462C40.0975 354.934 40.5535 354.526 41.1535 354.238C41.7535 353.95 42.4015 353.806 43.0975 353.806C43.8895 353.806 44.5855 353.98 45.1855 354.328C45.7975 354.664 46.2715 355.156 46.6075 355.804C46.9555 356.452 47.1295 357.226 47.1295 358.126C47.1295 358.966 46.9615 359.716 46.6255 360.376C46.3015 361.036 45.8155 361.558 45.1675 361.942C44.5195 362.314 43.7395 362.5 42.8275 362.5C41.5915 362.5 40.6195 362.23 39.9115 361.69C39.2155 361.138 38.7235 360.364 38.4355 359.368C38.1595 358.372 38.0215 357.13 38.0215 355.642C38.0215 351.25 39.5695 349.054 42.6655 349.054C43.8655 349.054 44.8075 349.378 45.4915 350.026C46.1875 350.674 46.5955 351.472 46.7155 352.42H44.8255ZM42.6475 355.534C41.9155 355.534 41.2915 355.756 40.7755 356.2C40.2715 356.632 40.0195 357.262 40.0195 358.09C40.0195 358.918 40.2535 359.578 40.7215 360.07C41.2015 360.55 41.8675 360.79 42.7195 360.79C43.4755 360.79 44.0695 360.556 44.5015 360.088C44.9455 359.62 45.1675 358.996 45.1675 358.216C45.1675 357.4 44.9515 356.752 44.5195 356.272C44.0995 355.78 43.4755 355.534 42.6475 355.534Z" fill="#173244"/>
<path d="M95.7531 359.71C96.9051 358.714 97.8111 357.898 98.4711 357.262C99.1431 356.614 99.7011 355.942 100.145 355.246C100.589 354.55 100.811 353.854 100.811 353.158C100.811 352.438 100.637 351.874 100.289 351.466C99.9531 351.058 99.4191 350.854 98.6871 350.854C97.9791 350.854 97.4271 351.082 97.0311 351.538C96.6471 351.982 96.4431 352.582 96.4191 353.338H94.4391C94.4751 351.97 94.8831 350.926 95.6631 350.206C96.4551 349.474 97.4571 349.108 98.6691 349.108C99.9771 349.108 100.997 349.468 101.729 350.188C102.473 350.908 102.845 351.868 102.845 353.068C102.845 353.932 102.623 354.766 102.179 355.57C101.747 356.362 101.225 357.076 100.613 357.712C100.013 358.336 99.2451 359.062 98.3091 359.89L97.4991 360.61H103.205V362.32H94.4571V360.826L95.7531 359.71ZM113.324 350.962L108.32 362.5H106.25L111.308 351.178H104.648V349.432H113.324V350.962Z" fill="white"/>
<path d="M160.55 359.71C161.702 358.714 162.608 357.898 163.268 357.262C163.94 356.614 164.498 355.942 164.942 355.246C165.386 354.55 165.608 353.854 165.608 353.158C165.608 352.438 165.434 351.874 165.086 351.466C164.75 351.058 164.216 350.854 163.484 350.854C162.776 350.854 162.224 351.082 161.828 351.538C161.444 351.982 161.24 352.582 161.216 353.338H159.236C159.272 351.97 159.68 350.926 160.46 350.206C161.252 349.474 162.254 349.108 163.466 349.108C164.774 349.108 165.794 349.468 166.526 350.188C167.27 350.908 167.642 351.868 167.642 353.068C167.642 353.932 167.42 354.766 166.976 355.57C166.544 356.362 166.022 357.076 165.41 357.712C164.81 358.336 164.042 359.062 163.106 359.89L162.296 360.61H168.002V362.32H159.254V360.826L160.55 359.71ZM172.019 355.642C170.771 355.018 170.147 354.034 170.147 352.69C170.147 352.042 170.309 351.448 170.633 350.908C170.957 350.368 171.443 349.942 172.091 349.63C172.739 349.306 173.531 349.144 174.467 349.144C175.391 349.144 176.177 349.306 176.825 349.63C177.485 349.942 177.977 350.368 178.301 350.908C178.625 351.448 178.787 352.042 178.787 352.69C178.787 353.362 178.613 353.956 178.265 354.472C177.929 354.976 177.479 355.366 176.915 355.642C177.599 355.894 178.139 356.308 178.535 356.884C178.931 357.448 179.129 358.114 179.129 358.882C179.129 359.662 178.931 360.352 178.535 360.952C178.139 361.552 177.587 362.014 176.879 362.338C176.171 362.662 175.367 362.824 174.467 362.824C173.567 362.824 172.763 362.662 172.055 362.338C171.359 362.014 170.813 361.552 170.417 360.952C170.021 360.352 169.823 359.662 169.823 358.882C169.823 358.102 170.021 357.43 170.417 356.866C170.813 356.302 171.347 355.894 172.019 355.642ZM176.825 352.942C176.825 352.27 176.615 351.754 176.195 351.394C175.775 351.034 175.199 350.854 174.467 350.854C173.747 350.854 173.177 351.034 172.757 351.394C172.337 351.754 172.127 352.276 172.127 352.96C172.127 353.56 172.343 354.052 172.775 354.436C173.219 354.808 173.783 354.994 174.467 354.994C175.151 354.994 175.715 354.802 176.159 354.418C176.603 354.034 176.825 353.542 176.825 352.942ZM174.467 356.542C173.675 356.542 173.027 356.74 172.523 357.136C172.031 357.52 171.785 358.078 171.785 358.81C171.785 359.494 172.025 360.052 172.505 360.484C172.985 360.904 173.639 361.114 174.467 361.114C175.283 361.114 175.925 360.898 176.393 360.466C176.873 360.034 177.113 359.482 177.113 358.81C177.113 358.09 176.867 357.532 176.375 357.136C175.895 356.74 175.259 356.542 174.467 356.542Z" fill="#173244"/>
<path d="M227.576 359.71C228.728 358.714 229.634 357.898 230.294 357.262C230.966 356.614 231.524 355.942 231.968 355.246C232.412 354.55 232.634 353.854 232.634 353.158C232.634 352.438 232.46 351.874 232.112 351.466C231.776 351.058 231.242 350.854 230.51 350.854C229.802 350.854 229.25 351.082 228.854 351.538C228.47 351.982 228.266 352.582 228.242 353.338H226.262C226.298 351.97 226.706 350.926 227.486 350.206C228.278 349.474 229.28 349.108 230.492 349.108C231.8 349.108 232.82 349.468 233.552 350.188C234.296 350.908 234.668 351.868 234.668 353.068C234.668 353.932 234.446 354.766 234.002 355.57C233.57 356.362 233.048 357.076 232.436 357.712C231.836 358.336 231.068 359.062 230.132 359.89L229.322 360.61H235.028V362.32H226.28V360.826L227.576 359.71ZM239.387 358.936C239.507 359.536 239.765 359.992 240.161 360.304C240.557 360.616 241.091 360.772 241.763 360.772C242.615 360.772 243.239 360.436 243.635 359.764C244.031 359.092 244.229 357.946 244.229 356.326C243.941 356.734 243.533 357.052 243.005 357.28C242.489 357.496 241.925 357.604 241.313 357.604C240.533 357.604 239.825 357.448 239.189 357.136C238.553 356.812 238.049 356.338 237.677 355.714C237.317 355.078 237.137 354.31 237.137 353.41C237.137 352.09 237.521 351.04 238.289 350.26C239.069 349.468 240.137 349.072 241.493 349.072C243.125 349.072 244.283 349.618 244.967 350.71C245.663 351.79 246.011 353.452 246.011 355.696C246.011 357.244 245.879 358.51 245.615 359.494C245.363 360.478 244.919 361.222 244.283 361.726C243.647 362.23 242.765 362.482 241.637 362.482C240.353 362.482 239.363 362.146 238.667 361.474C237.971 360.802 237.581 359.956 237.497 358.936H239.387ZM241.673 355.876C242.393 355.876 242.957 355.654 243.365 355.21C243.785 354.754 243.995 354.154 243.995 353.41C243.995 352.582 243.773 351.94 243.329 351.484C242.897 351.016 242.303 350.782 241.547 350.782C240.791 350.782 240.191 351.022 239.747 351.502C239.315 351.97 239.099 352.588 239.099 353.356C239.099 354.088 239.309 354.694 239.729 355.174C240.161 355.642 240.809 355.876 241.673 355.876Z" fill="#173244"/>
<path d="M286.704 352.618C286.776 351.502 287.202 350.632 287.982 350.008C288.774 349.384 289.782 349.072 291.006 349.072C291.846 349.072 292.572 349.222 293.184 349.522C293.796 349.822 294.258 350.23 294.57 350.746C294.882 351.262 295.038 351.844 295.038 352.492C295.038 353.236 294.84 353.872 294.444 354.4C294.048 354.928 293.574 355.282 293.022 355.462V355.534C293.73 355.75 294.282 356.146 294.678 356.722C295.074 357.286 295.272 358.012 295.272 358.9C295.272 359.608 295.11 360.238 294.786 360.79C294.462 361.342 293.982 361.78 293.346 362.104C292.71 362.416 291.948 362.572 291.06 362.572C289.764 362.572 288.696 362.242 287.856 361.582C287.028 360.91 286.584 359.95 286.524 358.702H288.504C288.552 359.338 288.798 359.86 289.242 360.268C289.686 360.664 290.286 360.862 291.042 360.862C291.774 360.862 292.338 360.664 292.734 360.268C293.13 359.86 293.328 359.338 293.328 358.702C293.328 357.862 293.058 357.268 292.518 356.92C291.99 356.56 291.174 356.38 290.07 356.38H289.602V354.688H290.088C291.06 354.676 291.798 354.514 292.302 354.202C292.818 353.89 293.076 353.398 293.076 352.726C293.076 352.15 292.89 351.694 292.518 351.358C292.146 351.01 291.618 350.836 290.934 350.836C290.262 350.836 289.74 351.01 289.368 351.358C288.996 351.694 288.774 352.114 288.702 352.618H286.704ZM297.428 355.768C297.428 353.692 297.776 352.072 298.472 350.908C299.18 349.732 300.392 349.144 302.108 349.144C303.824 349.144 305.03 349.732 305.726 350.908C306.434 352.072 306.788 353.692 306.788 355.768C306.788 357.868 306.434 359.512 305.726 360.7C305.03 361.876 303.824 362.464 302.108 362.464C300.392 362.464 299.18 361.876 298.472 360.7C297.776 359.512 297.428 357.868 297.428 355.768ZM304.772 355.768C304.772 354.796 304.706 353.974 304.574 353.302C304.454 352.63 304.202 352.084 303.818 351.664C303.434 351.232 302.864 351.016 302.108 351.016C301.352 351.016 300.782 351.232 300.398 351.664C300.014 352.084 299.756 352.63 299.624 353.302C299.504 353.974 299.444 354.796 299.444 355.768C299.444 356.776 299.504 357.622 299.624 358.306C299.744 358.99 299.996 359.542 300.38 359.962C300.776 360.382 301.352 360.592 302.108 360.592C302.864 360.592 303.434 360.382 303.818 359.962C304.214 359.542 304.472 358.99 304.592 358.306C304.712 357.622 304.772 356.776 304.772 355.768Z" fill="#173244"/>
<path d="M350.323 352.618C350.395 351.502 350.821 350.632 351.601 350.008C352.393 349.384 353.401 349.072 354.625 349.072C355.465 349.072 356.191 349.222 356.803 349.522C357.415 349.822 357.877 350.23 358.189 350.746C358.501 351.262 358.657 351.844 358.657 352.492C358.657 353.236 358.459 353.872 358.063 354.4C357.667 354.928 357.193 355.282 356.641 355.462V355.534C357.349 355.75 357.901 356.146 358.297 356.722C358.693 357.286 358.891 358.012 358.891 358.9C358.891 359.608 358.729 360.238 358.405 360.79C358.081 361.342 357.601 361.78 356.965 362.104C356.329 362.416 355.567 362.572 354.679 362.572C353.383 362.572 352.315 362.242 351.475 361.582C350.647 360.91 350.203 359.95 350.143 358.702H352.123C352.171 359.338 352.417 359.86 352.861 360.268C353.305 360.664 353.905 360.862 354.661 360.862C355.393 360.862 355.957 360.664 356.353 360.268C356.749 359.86 356.947 359.338 356.947 358.702C356.947 357.862 356.677 357.268 356.137 356.92C355.609 356.56 354.793 356.38 353.689 356.38H353.221V354.688H353.707C354.679 354.676 355.417 354.514 355.921 354.202C356.437 353.89 356.695 353.398 356.695 352.726C356.695 352.15 356.509 351.694 356.137 351.358C355.765 351.01 355.237 350.836 354.553 350.836C353.881 350.836 353.359 351.01 352.987 351.358C352.615 351.694 352.393 352.114 352.321 352.618H350.323ZM360.777 351.25V349.378H364.521V362.5H362.451V351.25H360.777Z" fill="#173244"/>
<line x1="27.6855" y1="407" x2="443.313" y2="407" stroke="#E8F5F4" stroke-linecap="round" stroke-linejoin="bevel"/>
<g clip-path="url(#clip1)">
<circle cx="25.5" cy="453" r="8" fill="#0062FF"/>
<path d="M51.598 450.716C51.598 451.352 51.448 451.952 51.148 452.516C50.848 453.08 50.368 453.542 49.708 453.902C49.048 454.25 48.202 454.424 47.17 454.424H44.902V459.5H42.85V446.99H47.17C48.13 446.99 48.94 447.158 49.6 447.494C50.272 447.818 50.77 448.262 51.094 448.826C51.43 449.39 51.598 450.02 51.598 450.716ZM47.17 452.75C47.95 452.75 48.532 452.576 48.916 452.228C49.3 451.868 49.492 451.364 49.492 450.716C49.492 449.348 48.718 448.664 47.17 448.664H44.902V452.75H47.17ZM52.8711 454.496C52.8711 453.5 53.0751 452.618 53.4831 451.85C53.9031 451.082 54.4671 450.488 55.1751 450.068C55.8951 449.636 56.6871 449.42 57.5511 449.42C58.3311 449.42 59.0091 449.576 59.5851 449.888C60.1731 450.188 60.6411 450.566 60.9891 451.022V449.582H63.0591V459.5H60.9891V458.024C60.6411 458.492 60.1671 458.882 59.5671 459.194C58.9671 459.506 58.2831 459.662 57.5151 459.662C56.6631 459.662 55.8831 459.446 55.1751 459.014C54.4671 458.57 53.9031 457.958 53.4831 457.178C53.0751 456.386 52.8711 455.492 52.8711 454.496ZM60.9891 454.532C60.9891 453.848 60.8451 453.254 60.5571 452.75C60.2811 452.246 59.9151 451.862 59.4591 451.598C59.0031 451.334 58.5111 451.202 57.9831 451.202C57.4551 451.202 56.9631 451.334 56.5071 451.598C56.0511 451.85 55.6791 452.228 55.3911 452.732C55.1151 453.224 54.9771 453.812 54.9771 454.496C54.9771 455.18 55.1151 455.78 55.3911 456.296C55.6791 456.812 56.0511 457.208 56.5071 457.484C56.9751 457.748 57.4671 457.88 57.9831 457.88C58.5111 457.88 59.0031 457.748 59.4591 457.484C59.9151 457.22 60.2811 456.836 60.5571 456.332C60.8451 455.816 60.9891 455.216 60.9891 454.532ZM74.6823 449.582L68.5983 464.162H66.4743L68.4903 459.338L64.5843 449.582H66.8703L69.6603 457.142L72.5583 449.582H74.6823ZM88.2369 449.42C89.0169 449.42 89.7129 449.582 90.3249 449.906C90.9489 450.23 91.4349 450.71 91.7829 451.346C92.1429 451.982 92.3229 452.75 92.3229 453.65V459.5H90.2889V453.956C90.2889 453.068 90.0669 452.39 89.6229 451.922C89.1789 451.442 88.5729 451.202 87.8049 451.202C87.0369 451.202 86.4249 451.442 85.9689 451.922C85.5249 452.39 85.3029 453.068 85.3029 453.956V459.5H83.2689V453.956C83.2689 453.068 83.0469 452.39 82.6029 451.922C82.1589 451.442 81.5529 451.202 80.7849 451.202C80.0169 451.202 79.4049 451.442 78.9489 451.922C78.5049 452.39 78.2829 453.068 78.2829 453.956V459.5H76.2309V449.582H78.2829V450.716C78.6189 450.308 79.0449 449.99 79.5609 449.762C80.0769 449.534 80.6289 449.42 81.2169 449.42C82.0089 449.42 82.7169 449.588 83.3409 449.924C83.9649 450.26 84.4449 450.746 84.7809 451.382C85.0809 450.782 85.5489 450.308 86.1849 449.96C86.8209 449.6 87.5049 449.42 88.2369 449.42ZM104.024 454.298C104.024 454.67 104 455.006 103.952 455.306H96.374C96.434 456.098 96.728 456.734 97.256 457.214C97.784 457.694 98.432 457.934 99.2 457.934C100.304 457.934 101.084 457.472 101.54 456.548H103.754C103.454 457.46 102.908 458.21 102.116 458.798C101.336 459.374 100.364 459.662 99.2 459.662C98.252 459.662 97.4 459.452 96.644 459.032C95.9 458.6 95.312 458 94.88 457.232C94.46 456.452 94.25 455.552 94.25 454.532C94.25 453.512 94.454 452.618 94.862 451.85C95.282 451.07 95.864 450.47 96.608 450.05C97.364 449.63 98.228 449.42 99.2 449.42C100.136 449.42 100.97 449.624 101.702 450.032C102.434 450.44 103.004 451.016 103.412 451.76C103.82 452.492 104.024 453.338 104.024 454.298ZM101.882 453.65C101.87 452.894 101.6 452.288 101.072 451.832C100.544 451.376 99.89 451.148 99.11 451.148C98.402 451.148 97.796 451.376 97.292 451.832C96.788 452.276 96.488 452.882 96.392 453.65H101.882ZM111.047 449.42C111.827 449.42 112.523 449.582 113.135 449.906C113.759 450.23 114.245 450.71 114.593 451.346C114.941 451.982 115.115 452.75 115.115 453.65V459.5H113.081V453.956C113.081 453.068 112.859 452.39 112.415 451.922C111.971 451.442 111.365 451.202 110.597 451.202C109.829 451.202 109.217 451.442 108.761 451.922C108.317 452.39 108.095 453.068 108.095 453.956V459.5H106.043V449.582H108.095V450.716C108.431 450.308 108.857 449.99 109.373 449.762C109.901 449.534 110.459 449.42 111.047 449.42ZM120.127 451.256V456.746C120.127 457.118 120.211 457.388 120.379 457.556C120.559 457.712 120.859 457.79 121.279 457.79H122.539V459.5H120.919C119.995 459.5 119.287 459.284 118.795 458.852C118.303 458.42 118.057 457.718 118.057 456.746V451.256H116.887V449.582H118.057V447.116H120.127V449.582H122.539V451.256H120.127ZM132.706 459.662C131.926 459.662 131.224 459.524 130.6 459.248C129.988 458.96 129.502 458.576 129.142 458.096C128.782 457.604 128.59 457.058 128.566 456.458H130.69C130.726 456.878 130.924 457.232 131.284 457.52C131.656 457.796 132.118 457.934 132.67 457.934C133.246 457.934 133.69 457.826 134.002 457.61C134.326 457.382 134.488 457.094 134.488 456.746C134.488 456.374 134.308 456.098 133.948 455.918C133.6 455.738 133.042 455.54 132.274 455.324C131.53 455.12 130.924 454.922 130.456 454.73C129.988 454.538 129.58 454.244 129.232 453.848C128.896 453.452 128.728 452.93 128.728 452.282C128.728 451.754 128.884 451.274 129.196 450.842C129.508 450.398 129.952 450.05 130.528 449.798C131.116 449.546 131.788 449.42 132.544 449.42C133.672 449.42 134.578 449.708 135.262 450.284C135.958 450.848 136.33 451.622 136.378 452.606H134.326C134.29 452.162 134.11 451.808 133.786 451.544C133.462 451.28 133.024 451.148 132.472 451.148C131.932 451.148 131.518 451.25 131.23 451.454C130.942 451.658 130.798 451.928 130.798 452.264C130.798 452.528 130.894 452.75 131.086 452.93C131.278 453.11 131.512 453.254 131.788 453.362C132.064 453.458 132.472 453.584 133.012 453.74C133.732 453.932 134.32 454.13 134.776 454.334C135.244 454.526 135.646 454.814 135.982 455.198C136.318 455.582 136.492 456.092 136.504 456.728C136.504 457.292 136.348 457.796 136.036 458.24C135.724 458.684 135.28 459.032 134.704 459.284C134.14 459.536 133.474 459.662 132.706 459.662ZM138.037 454.532C138.037 453.512 138.241 452.618 138.649 451.85C139.069 451.07 139.645 450.47 140.377 450.05C141.109 449.63 141.949 449.42 142.897 449.42C144.097 449.42 145.087 449.708 145.867 450.284C146.659 450.848 147.193 451.658 147.469 452.714H145.255C145.075 452.222 144.787 451.838 144.391 451.562C143.995 451.286 143.497 451.148 142.897 451.148C142.057 451.148 141.385 451.448 140.881 452.048C140.389 452.636 140.143 453.464 140.143 454.532C140.143 455.6 140.389 456.434 140.881 457.034C141.385 457.634 142.057 457.934 142.897 457.934C144.085 457.934 144.871 457.412 145.255 456.368H147.469C147.181 457.376 146.641 458.18 145.849 458.78C145.057 459.368 144.073 459.662 142.897 459.662C141.949 459.662 141.109 459.452 140.377 459.032C139.645 458.6 139.069 458 138.649 457.232C138.241 456.452 138.037 455.552 138.037 454.532ZM158.604 454.298C158.604 454.67 158.58 455.006 158.532 455.306H150.954C151.014 456.098 151.308 456.734 151.836 457.214C152.364 457.694 153.012 457.934 153.78 457.934C154.884 457.934 155.664 457.472 156.12 456.548H158.334C158.034 457.46 157.488 458.21 156.696 458.798C155.916 459.374 154.944 459.662 153.78 459.662C152.832 459.662 151.98 459.452 151.224 459.032C150.48 458.6 149.892 458 149.46 457.232C149.04 456.452 148.83 455.552 148.83 454.532C148.83 453.512 149.034 452.618 149.442 451.85C149.862 451.07 150.444 450.47 151.188 450.05C151.944 449.63 152.808 449.42 153.78 449.42C154.716 449.42 155.55 449.624 156.282 450.032C157.014 450.44 157.584 451.016 157.992 451.76C158.4 452.492 158.604 453.338 158.604 454.298ZM156.462 453.65C156.45 452.894 156.18 452.288 155.652 451.832C155.124 451.376 154.47 451.148 153.69 451.148C152.982 451.148 152.376 451.376 151.872 451.832C151.368 452.276 151.068 452.882 150.972 453.65H156.462ZM165.627 449.42C166.407 449.42 167.103 449.582 167.715 449.906C168.339 450.23 168.825 450.71 169.173 451.346C169.521 451.982 169.695 452.75 169.695 453.65V459.5H167.661V453.956C167.661 453.068 167.439 452.39 166.995 451.922C166.551 451.442 165.945 451.202 165.177 451.202C164.409 451.202 163.797 451.442 163.341 451.922C162.897 452.39 162.675 453.068 162.675 453.956V459.5H160.623V449.582H162.675V450.716C163.011 450.308 163.437 449.99 163.953 449.762C164.481 449.534 165.039 449.42 165.627 449.42ZM171.629 454.496C171.629 453.5 171.833 452.618 172.241 451.85C172.661 451.082 173.225 450.488 173.933 450.068C174.653 449.636 175.445 449.42 176.309 449.42C177.089 449.42 177.767 449.576 178.343 449.888C178.931 450.188 179.399 450.566 179.747 451.022V449.582H181.817V459.5H179.747V458.024C179.399 458.492 178.925 458.882 178.325 459.194C177.725 459.506 177.041 459.662 176.273 459.662C175.421 459.662 174.641 459.446 173.933 459.014C173.225 458.57 172.661 457.958 172.241 457.178C171.833 456.386 171.629 455.492 171.629 454.496ZM179.747 454.532C179.747 453.848 179.603 453.254 179.315 452.75C179.039 452.246 178.673 451.862 178.217 451.598C177.761 451.334 177.269 451.202 176.741 451.202C176.213 451.202 175.721 451.334 175.265 451.598C174.809 451.85 174.437 452.228 174.149 452.732C173.873 453.224 173.735 453.812 173.735 454.496C173.735 455.18 173.873 455.78 174.149 456.296C174.437 456.812 174.809 457.208 175.265 457.484C175.733 457.748 176.225 457.88 176.741 457.88C177.269 457.88 177.761 457.748 178.217 457.484C178.673 457.22 179.039 456.836 179.315 456.332C179.603 455.816 179.747 455.216 179.747 454.532ZM186.564 451.022C186.864 450.518 187.26 450.128 187.752 449.852C188.256 449.564 188.85 449.42 189.534 449.42V451.544H189.012C188.208 451.544 187.596 451.748 187.176 452.156C186.768 452.564 186.564 453.272 186.564 454.28V459.5H184.512V449.582H186.564V451.022ZM192.464 448.268C192.092 448.268 191.78 448.142 191.528 447.89C191.276 447.638 191.15 447.326 191.15 446.954C191.15 446.582 191.276 446.27 191.528 446.018C191.78 445.766 192.092 445.64 192.464 445.64C192.824 445.64 193.13 445.766 193.382 446.018C193.634 446.27 193.76 446.582 193.76 446.954C193.76 447.326 193.634 447.638 193.382 447.89C193.13 448.142 192.824 448.268 192.464 448.268ZM193.472 449.582V459.5H191.42V449.582H193.472ZM200.468 459.662C199.532 459.662 198.686 459.452 197.93 459.032C197.174 458.6 196.58 458 196.148 457.232C195.716 456.452 195.5 455.552 195.5 454.532C195.5 453.524 195.722 452.63 196.166 451.85C196.61 451.07 197.216 450.47 197.984 450.05C198.752 449.63 199.61 449.42 200.558 449.42C201.506 449.42 202.364 449.63 203.132 450.05C203.9 450.47 204.506 451.07 204.95 451.85C205.394 452.63 205.616 453.524 205.616 454.532C205.616 455.54 205.388 456.434 204.932 457.214C204.476 457.994 203.852 458.6 203.06 459.032C202.28 459.452 201.416 459.662 200.468 459.662ZM200.468 457.88C200.996 457.88 201.488 457.754 201.944 457.502C202.412 457.25 202.79 456.872 203.078 456.368C203.366 455.864 203.51 455.252 203.51 454.532C203.51 453.812 203.372 453.206 203.096 452.714C202.82 452.21 202.454 451.832 201.998 451.58C201.542 451.328 201.05 451.202 200.522 451.202C199.994 451.202 199.502 451.328 199.046 451.58C198.602 451.832 198.248 452.21 197.984 452.714C197.72 453.206 197.588 453.812 197.588 454.532C197.588 455.6 197.858 456.428 198.398 457.016C198.95 457.592 199.64 457.88 200.468 457.88ZM211.781 448.25V446.378H215.525V459.5H213.455V448.25H211.781Z" fill="#173244"/>
</g>
<g clip-path="url(#clip2)">
<circle cx="257.5" cy="453" r="8" fill="#9C04FF"/>
<path d="M283.598 450.716C283.598 451.352 283.448 451.952 283.148 452.516C282.848 453.08 282.368 453.542 281.708 453.902C281.048 454.25 280.202 454.424 279.17 454.424H276.902V459.5H274.85V446.99H279.17C280.13 446.99 280.94 447.158 281.6 447.494C282.272 447.818 282.77 448.262 283.094 448.826C283.43 449.39 283.598 450.02 283.598 450.716ZM279.17 452.75C279.95 452.75 280.532 452.576 280.916 452.228C281.3 451.868 281.492 451.364 281.492 450.716C281.492 449.348 280.718 448.664 279.17 448.664H276.902V452.75H279.17ZM284.871 454.496C284.871 453.5 285.075 452.618 285.483 451.85C285.903 451.082 286.467 450.488 287.175 450.068C287.895 449.636 288.687 449.42 289.551 449.42C290.331 449.42 291.009 449.576 291.585 449.888C292.173 450.188 292.641 450.566 292.989 451.022V449.582H295.059V459.5H292.989V458.024C292.641 458.492 292.167 458.882 291.567 459.194C290.967 459.506 290.283 459.662 289.515 459.662C288.663 459.662 287.883 459.446 287.175 459.014C286.467 458.57 285.903 457.958 285.483 457.178C285.075 456.386 284.871 455.492 284.871 454.496ZM292.989 454.532C292.989 453.848 292.845 453.254 292.557 452.75C292.281 452.246 291.915 451.862 291.459 451.598C291.003 451.334 290.511 451.202 289.983 451.202C289.455 451.202 288.963 451.334 288.507 451.598C288.051 451.85 287.679 452.228 287.391 452.732C287.115 453.224 286.977 453.812 286.977 454.496C286.977 455.18 287.115 455.78 287.391 456.296C287.679 456.812 288.051 457.208 288.507 457.484C288.975 457.748 289.467 457.88 289.983 457.88C290.511 457.88 291.003 457.748 291.459 457.484C291.915 457.22 292.281 456.836 292.557 456.332C292.845 455.816 292.989 455.216 292.989 454.532ZM306.682 449.582L300.598 464.162H298.474L300.49 459.338L296.584 449.582H298.87L301.66 457.142L304.558 449.582H306.682ZM320.237 449.42C321.017 449.42 321.713 449.582 322.325 449.906C322.949 450.23 323.435 450.71 323.783 451.346C324.143 451.982 324.323 452.75 324.323 453.65V459.5H322.289V453.956C322.289 453.068 322.067 452.39 321.623 451.922C321.179 451.442 320.573 451.202 319.805 451.202C319.037 451.202 318.425 451.442 317.969 451.922C317.525 452.39 317.303 453.068 317.303 453.956V459.5H315.269V453.956C315.269 453.068 315.047 452.39 314.603 451.922C314.159 451.442 313.553 451.202 312.785 451.202C312.017 451.202 311.405 451.442 310.949 451.922C310.505 452.39 310.283 453.068 310.283 453.956V459.5H308.231V449.582H310.283V450.716C310.619 450.308 311.045 449.99 311.561 449.762C312.077 449.534 312.629 449.42 313.217 449.42C314.009 449.42 314.717 449.588 315.341 449.924C315.965 450.26 316.445 450.746 316.781 451.382C317.081 450.782 317.549 450.308 318.185 449.96C318.821 449.6 319.505 449.42 320.237 449.42ZM336.024 454.298C336.024 454.67 336 455.006 335.952 455.306H328.374C328.434 456.098 328.728 456.734 329.256 457.214C329.784 457.694 330.432 457.934 331.2 457.934C332.304 457.934 333.084 457.472 333.54 456.548H335.754C335.454 457.46 334.908 458.21 334.116 458.798C333.336 459.374 332.364 459.662 331.2 459.662C330.252 459.662 329.4 459.452 328.644 459.032C327.9 458.6 327.312 458 326.88 457.232C326.46 456.452 326.25 455.552 326.25 454.532C326.25 453.512 326.454 452.618 326.862 451.85C327.282 451.07 327.864 450.47 328.608 450.05C329.364 449.63 330.228 449.42 331.2 449.42C332.136 449.42 332.97 449.624 333.702 450.032C334.434 450.44 335.004 451.016 335.412 451.76C335.82 452.492 336.024 453.338 336.024 454.298ZM333.882 453.65C333.87 452.894 333.6 452.288 333.072 451.832C332.544 451.376 331.89 451.148 331.11 451.148C330.402 451.148 329.796 451.376 329.292 451.832C328.788 452.276 328.488 452.882 328.392 453.65H333.882ZM343.047 449.42C343.827 449.42 344.523 449.582 345.135 449.906C345.759 450.23 346.245 450.71 346.593 451.346C346.941 451.982 347.115 452.75 347.115 453.65V459.5H345.081V453.956C345.081 453.068 344.859 452.39 344.415 451.922C343.971 451.442 343.365 451.202 342.597 451.202C341.829 451.202 341.217 451.442 340.761 451.922C340.317 452.39 340.095 453.068 340.095 453.956V459.5H338.043V449.582H340.095V450.716C340.431 450.308 340.857 449.99 341.373 449.762C341.901 449.534 342.459 449.42 343.047 449.42ZM352.127 451.256V456.746C352.127 457.118 352.211 457.388 352.379 457.556C352.559 457.712 352.859 457.79 353.279 457.79H354.539V459.5H352.919C351.995 459.5 351.287 459.284 350.795 458.852C350.303 458.42 350.057 457.718 350.057 456.746V451.256H348.887V449.582H350.057V447.116H352.127V449.582H354.539V451.256H352.127ZM364.706 459.662C363.926 459.662 363.224 459.524 362.6 459.248C361.988 458.96 361.502 458.576 361.142 458.096C360.782 457.604 360.59 457.058 360.566 456.458H362.69C362.726 456.878 362.924 457.232 363.284 457.52C363.656 457.796 364.118 457.934 364.67 457.934C365.246 457.934 365.69 457.826 366.002 457.61C366.326 457.382 366.488 457.094 366.488 456.746C366.488 456.374 366.308 456.098 365.948 455.918C365.6 455.738 365.042 455.54 364.274 455.324C363.53 455.12 362.924 454.922 362.456 454.73C361.988 454.538 361.58 454.244 361.232 453.848C360.896 453.452 360.728 452.93 360.728 452.282C360.728 451.754 360.884 451.274 361.196 450.842C361.508 450.398 361.952 450.05 362.528 449.798C363.116 449.546 363.788 449.42 364.544 449.42C365.672 449.42 366.578 449.708 367.262 450.284C367.958 450.848 368.33 451.622 368.378 452.606H366.326C366.29 452.162 366.11 451.808 365.786 451.544C365.462 451.28 365.024 451.148 364.472 451.148C363.932 451.148 363.518 451.25 363.23 451.454C362.942 451.658 362.798 451.928 362.798 452.264C362.798 452.528 362.894 452.75 363.086 452.93C363.278 453.11 363.512 453.254 363.788 453.362C364.064 453.458 364.472 453.584 365.012 453.74C365.732 453.932 366.32 454.13 366.776 454.334C367.244 454.526 367.646 454.814 367.982 455.198C368.318 455.582 368.492 456.092 368.504 456.728C368.504 457.292 368.348 457.796 368.036 458.24C367.724 458.684 367.28 459.032 366.704 459.284C366.14 459.536 365.474 459.662 364.706 459.662ZM370.037 454.532C370.037 453.512 370.241 452.618 370.649 451.85C371.069 451.07 371.645 450.47 372.377 450.05C373.109 449.63 373.949 449.42 374.897 449.42C376.097 449.42 377.087 449.708 377.867 450.284C378.659 450.848 379.193 451.658 379.469 452.714H377.255C377.075 452.222 376.787 451.838 376.391 451.562C375.995 451.286 375.497 451.148 374.897 451.148C374.057 451.148 373.385 451.448 372.881 452.048C372.389 452.636 372.143 453.464 372.143 454.532C372.143 455.6 372.389 456.434 372.881 457.034C373.385 457.634 374.057 457.934 374.897 457.934C376.085 457.934 376.871 457.412 377.255 456.368H379.469C379.181 457.376 378.641 458.18 377.849 458.78C377.057 459.368 376.073 459.662 374.897 459.662C373.949 459.662 373.109 459.452 372.377 459.032C371.645 458.6 371.069 458 370.649 457.232C370.241 456.452 370.037 455.552 370.037 454.532ZM390.604 454.298C390.604 454.67 390.58 455.006 390.532 455.306H382.954C383.014 456.098 383.308 456.734 383.836 457.214C384.364 457.694 385.012 457.934 385.78 457.934C386.884 457.934 387.664 457.472 388.12 456.548H390.334C390.034 457.46 389.488 458.21 388.696 458.798C387.916 459.374 386.944 459.662 385.78 459.662C384.832 459.662 383.98 459.452 383.224 459.032C382.48 458.6 381.892 458 381.46 457.232C381.04 456.452 380.83 455.552 380.83 454.532C380.83 453.512 381.034 452.618 381.442 451.85C381.862 451.07 382.444 450.47 383.188 450.05C383.944 449.63 384.808 449.42 385.78 449.42C386.716 449.42 387.55 449.624 388.282 450.032C389.014 450.44 389.584 451.016 389.992 451.76C390.4 452.492 390.604 453.338 390.604 454.298ZM388.462 453.65C388.45 452.894 388.18 452.288 387.652 451.832C387.124 451.376 386.47 451.148 385.69 451.148C384.982 451.148 384.376 451.376 383.872 451.832C383.368 452.276 383.068 452.882 382.972 453.65H388.462ZM397.627 449.42C398.407 449.42 399.103 449.582 399.715 449.906C400.339 450.23 400.825 450.71 401.173 451.346C401.521 451.982 401.695 452.75 401.695 453.65V459.5H399.661V453.956C399.661 453.068 399.439 452.39 398.995 451.922C398.551 451.442 397.945 451.202 397.177 451.202C396.409 451.202 395.797 451.442 395.341 451.922C394.897 452.39 394.675 453.068 394.675 453.956V459.5H392.623V449.582H394.675V450.716C395.011 450.308 395.437 449.99 395.953 449.762C396.481 449.534 397.039 449.42 397.627 449.42ZM403.629 454.496C403.629 453.5 403.833 452.618 404.241 451.85C404.661 451.082 405.225 450.488 405.933 450.068C406.653 449.636 407.445 449.42 408.309 449.42C409.089 449.42 409.767 449.576 410.343 449.888C410.931 450.188 411.399 450.566 411.747 451.022V449.582H413.817V459.5H411.747V458.024C411.399 458.492 410.925 458.882 410.325 459.194C409.725 459.506 409.041 459.662 408.273 459.662C407.421 459.662 406.641 459.446 405.933 459.014C405.225 458.57 404.661 457.958 404.241 457.178C403.833 456.386 403.629 455.492 403.629 454.496ZM411.747 454.532C411.747 453.848 411.603 453.254 411.315 452.75C411.039 452.246 410.673 451.862 410.217 451.598C409.761 451.334 409.269 451.202 408.741 451.202C408.213 451.202 407.721 451.334 407.265 451.598C406.809 451.85 406.437 452.228 406.149 452.732C405.873 453.224 405.735 453.812 405.735 454.496C405.735 455.18 405.873 455.78 406.149 456.296C406.437 456.812 406.809 457.208 407.265 457.484C407.733 457.748 408.225 457.88 408.741 457.88C409.269 457.88 409.761 457.748 410.217 457.484C410.673 457.22 411.039 456.836 411.315 456.332C411.603 455.816 411.747 455.216 411.747 454.532ZM418.564 451.022C418.864 450.518 419.26 450.128 419.752 449.852C420.256 449.564 420.85 449.42 421.534 449.42V451.544H421.012C420.208 451.544 419.596 451.748 419.176 452.156C418.768 452.564 418.564 453.272 418.564 454.28V459.5H416.512V449.582H418.564V451.022ZM424.464 448.268C424.092 448.268 423.78 448.142 423.528 447.89C423.276 447.638 423.15 447.326 423.15 446.954C423.15 446.582 423.276 446.27 423.528 446.018C423.78 445.766 424.092 445.64 424.464 445.64C424.824 445.64 425.13 445.766 425.382 446.018C425.634 446.27 425.76 446.582 425.76 446.954C425.76 447.326 425.634 447.638 425.382 447.89C425.13 448.142 424.824 448.268 424.464 448.268ZM425.472 449.582V459.5H423.42V449.582H425.472ZM432.468 459.662C431.532 459.662 430.686 459.452 429.93 459.032C429.174 458.6 428.58 458 428.148 457.232C427.716 456.452 427.5 455.552 427.5 454.532C427.5 453.524 427.722 452.63 428.166 451.85C428.61 451.07 429.216 450.47 429.984 450.05C430.752 449.63 431.61 449.42 432.558 449.42C433.506 449.42 434.364 449.63 435.132 450.05C435.9 450.47 436.506 451.07 436.95 451.85C437.394 452.63 437.616 453.524 437.616 454.532C437.616 455.54 437.388 456.434 436.932 457.214C436.476 457.994 435.852 458.6 435.06 459.032C434.28 459.452 433.416 459.662 432.468 459.662ZM432.468 457.88C432.996 457.88 433.488 457.754 433.944 457.502C434.412 457.25 434.79 456.872 435.078 456.368C435.366 455.864 435.51 455.252 435.51 454.532C435.51 453.812 435.372 453.206 435.096 452.714C434.82 452.21 434.454 451.832 433.998 451.58C433.542 451.328 433.05 451.202 432.522 451.202C431.994 451.202 431.502 451.328 431.046 451.58C430.602 451.832 430.248 452.21 429.984 452.714C429.72 453.206 429.588 453.812 429.588 454.532C429.588 455.6 429.858 456.428 430.398 457.016C430.95 457.592 431.64 457.88 432.468 457.88ZM445.185 456.71C446.337 455.714 447.243 454.898 447.903 454.262C448.575 453.614 449.133 452.942 449.577 452.246C450.021 451.55 450.243 450.854 450.243 450.158C450.243 449.438 450.069 448.874 449.721 448.466C449.385 448.058 448.851 447.854 448.119 447.854C447.411 447.854 446.859 448.082 446.463 448.538C446.079 448.982 445.875 449.582 445.851 450.338H443.871C443.907 448.97 444.315 447.926 445.095 447.206C445.887 446.474 446.889 446.108 448.101 446.108C449.409 446.108 450.429 446.468 451.161 447.188C451.905 447.908 452.277 448.868 452.277 450.068C452.277 450.932 452.055 451.766 451.611 452.57C451.179 453.362 450.657 454.076 450.045 454.712C449.445 455.336 448.677 456.062 447.741 456.89L446.931 457.61H452.637V459.32H443.889V457.826L445.185 456.71Z" fill="#173244"/>
</g>
</g>
<defs>
<clipPath id="clip0">
<rect width="436" height="429" fill="white" transform="translate(17.5 37.5)"/>
</clipPath>
<clipPath id="clip1">
<rect width="200" height="27" fill="white" transform="translate(17.5 439.5)"/>
</clipPath>
<clipPath id="clip2">
<rect width="204" height="27" fill="white" transform="translate(249.5 439.5)"/>
</clipPath>
</defs>
</svg>
