<svg width="368" height="368" viewBox="0 0 368 368" fill="none" xmlns="http://www.w3.org/2000/svg">
<path d="M350.75 264.5H322V224.25C322 222.725 321.394 221.262 320.316 220.184C319.238 219.106 317.775 218.5 316.25 218.5H230V184H258.75C263.325 184 267.713 182.183 270.948 178.948C274.183 175.713 276 171.325 276 166.75V97.75C276 93.175 274.183 88.7874 270.948 85.5524C267.713 82.3174 263.325 80.5 258.75 80.5H189.75C185.175 80.5 180.787 82.3174 177.552 85.5524C174.317 88.7874 172.5 93.175 172.5 97.75V166.75C172.5 171.325 174.317 175.713 177.552 178.948C180.787 182.183 185.175 184 189.75 184H218.5V218.5H132.25C130.725 218.5 129.262 219.106 128.184 220.184C127.106 221.262 126.5 222.725 126.5 224.25V264.5H97.75C93.175 264.5 88.7874 266.317 85.5524 269.552C82.3174 272.787 80.5 277.175 80.5 281.75V350.75C80.5 355.325 82.3174 359.713 85.5524 362.948C88.7874 366.183 93.175 368 97.75 368H166.75C171.325 368 175.713 366.183 178.948 362.948C182.183 359.713 184 355.325 184 350.75V281.75C184 277.175 182.183 272.787 178.948 269.552C175.713 266.317 171.325 264.5 166.75 264.5H138V230H310.5V264.5H281.75C277.175 264.5 272.787 266.317 269.552 269.552C266.317 272.787 264.5 277.175 264.5 281.75V350.75C264.5 355.325 266.317 359.713 269.552 362.948C272.787 366.183 277.175 368 281.75 368H350.75C355.325 368 359.713 366.183 362.948 362.948C366.183 359.713 368 355.325 368 350.75V281.75C368 277.175 366.183 272.787 362.948 269.552C359.713 266.317 355.325 264.5 350.75 264.5V264.5Z" fill="#F82530"/>
<path d="M258.75 115C256.077 115.039 253.423 115.455 250.867 116.236L171.264 36.6332C172.045 34.0768 172.461 31.4228 172.5 28.75C172.5 21.125 169.471 13.8124 164.079 8.42068C158.688 3.02901 151.375 0 143.75 0C136.125 0 128.812 3.02901 123.421 8.42068C118.029 13.8124 115 21.125 115 28.75C115.039 31.4228 115.455 34.0768 116.236 36.6332L36.6332 116.236C34.0768 115.455 31.4228 115.039 28.75 115C21.125 115 13.8123 118.029 8.42068 123.421C3.02901 128.812 0 136.125 0 143.75C0 151.375 3.02901 158.688 8.42068 164.079C13.8123 169.471 21.125 172.5 28.75 172.5C29.7745 172.452 30.7957 172.348 31.809 172.189L115.31 255.691C115.152 256.704 115.048 257.725 115 258.75C115 266.375 118.029 273.688 123.421 279.079C128.812 284.471 136.125 287.5 143.75 287.5C151.375 287.5 158.688 284.471 164.079 279.079C169.471 273.688 172.5 266.375 172.5 258.75C172.452 257.725 172.348 256.704 172.189 255.691C259.865 167.762 254.225 174.156 255.219 172.143C259.112 172.639 263.065 172.331 266.834 171.238C270.603 170.145 274.107 168.291 277.131 165.789C280.154 163.288 282.632 160.192 284.411 156.695C286.191 153.198 287.234 149.372 287.476 145.456C287.718 141.539 287.154 137.614 285.818 133.924C284.483 130.235 282.405 126.858 279.712 124.003C277.02 121.149 273.77 118.877 270.165 117.328C266.559 115.78 262.674 114.987 258.75 115ZM240.275 121.9C235.322 126.022 231.904 131.695 230.575 138H195.155C193.837 126.345 188.603 115.483 180.31 107.188C172.017 98.894 161.155 93.659 149.5 92.3393V56.925C155.805 55.5972 161.477 52.1816 165.6 47.2305L240.275 121.9ZM143.75 184C135.789 184 128.007 181.639 121.388 177.217C114.769 172.794 109.61 166.508 106.564 159.153C103.517 151.798 102.72 143.705 104.273 135.898C105.826 128.09 109.66 120.918 115.289 115.289C120.918 109.66 128.09 105.826 135.898 104.273C143.705 102.72 151.798 103.517 159.153 106.564C166.508 109.61 172.794 114.769 177.217 121.388C181.639 128.007 184 135.789 184 143.75C183.986 154.421 179.741 164.651 172.196 172.196C164.651 179.741 154.421 183.986 143.75 184ZM143.75 11.5C147.162 11.5 150.497 12.5117 153.334 14.4071C156.17 16.3026 158.381 18.9967 159.687 22.1487C160.993 25.3007 161.334 28.7691 160.669 32.1153C160.003 35.4615 158.36 38.5351 155.948 40.9476C153.535 43.3601 150.461 45.003 147.115 45.6685C143.769 46.3341 140.301 45.9925 137.149 44.6869C133.997 43.3813 131.303 41.1703 129.407 38.3336C127.512 35.4968 126.5 32.1617 126.5 28.75C126.5 24.175 128.317 19.7874 131.552 16.5524C134.787 13.3174 139.175 11.5 143.75 11.5ZM121.9 47.2248C126.022 52.178 131.695 55.5957 138 56.925V92.345C126.345 93.6633 115.483 98.8969 107.188 107.19C98.894 115.483 93.659 126.345 92.3392 138H56.925C55.5972 131.695 52.1816 126.023 47.2305 121.9L121.9 47.2248ZM11.5 143.75C11.5 140.338 12.5117 137.003 14.4071 134.166C16.3026 131.33 18.9967 129.119 22.1487 127.813C25.3007 126.507 28.7691 126.166 32.1153 126.831C35.4615 127.497 38.5351 129.14 40.9476 131.552C43.36 133.965 45.0029 137.039 45.6685 140.385C46.3341 143.731 45.9925 147.199 44.6869 150.351C43.3813 153.503 41.1703 156.197 38.3336 158.093C35.4968 159.988 32.1617 161 28.75 161C24.175 161 19.7874 159.183 16.5524 155.948C13.3174 152.713 11.5 148.325 11.5 143.75ZM43.9415 168.055C47.2491 166.002 50.1054 163.299 52.3372 160.11C54.569 156.92 56.1298 153.311 56.925 149.5H92.345C93.6633 161.155 98.8969 172.017 107.19 180.312C115.483 188.606 126.345 193.841 138 195.161V230.575C134.19 231.37 130.58 232.929 127.391 235.16C124.201 237.391 121.498 240.246 119.445 243.553L43.9415 168.055ZM143.75 276C140.338 276 137.003 274.988 134.166 273.093C131.33 271.197 129.119 268.503 127.813 265.351C126.507 262.199 126.166 258.731 126.831 255.385C127.497 252.039 129.14 248.965 131.552 246.552C133.965 244.14 137.039 242.497 140.385 241.831C143.731 241.166 147.199 241.507 150.351 242.813C153.503 244.119 156.197 246.33 158.093 249.166C159.988 252.003 161 255.338 161 258.75C161 263.325 159.183 267.713 155.948 270.948C152.713 274.183 148.325 276 143.75 276ZM168.055 243.559C166.002 240.251 163.299 237.395 160.11 235.163C156.92 232.931 153.311 231.37 149.5 230.575V195.155C161.155 193.837 172.017 188.603 180.312 180.31C188.606 172.017 193.841 161.155 195.161 149.5H230.575C231.369 153.31 232.929 156.92 235.16 160.109C237.391 163.299 240.246 166.002 243.553 168.055L168.055 243.559ZM258.75 161C255.338 161 252.003 159.988 249.166 158.093C246.33 156.197 244.119 153.503 242.813 150.351C241.507 147.199 241.166 143.731 241.831 140.385C242.497 137.039 244.14 133.965 246.552 131.552C248.965 129.14 252.039 127.497 255.385 126.831C258.731 126.166 262.199 126.507 265.351 127.813C268.503 129.119 271.197 131.33 273.093 134.166C274.988 137.003 276 140.338 276 143.75C276 148.325 274.183 152.713 270.948 155.948C267.713 159.183 263.325 161 258.75 161Z" fill="white"/>
</svg>
