<svg width="572" height="226" viewBox="0 0 572 226" fill="none" xmlns="http://www.w3.org/2000/svg">
<path d="M0 17.1224L273.354 0.802734L278.827 13.0108C275.039 9.48637 269.96 7.33059 264.378 7.33059C252.661 7.33059 243.163 16.8291 243.163 28.5461C243.163 40.2631 252.661 49.7617 264.378 49.7617C276.095 49.7617 285.594 40.2631 285.594 28.5461C285.594 28.3958 285.592 28.2459 285.589 28.0963L317.227 98.6725L281.888 134.011V55.5371H247.879V158.501L233.491 144.113C238.015 137.775 241.026 130.412 242.524 122.024H211.402L211.316 121.939L211.231 122.024H206.677C205.042 125.599 202.694 128.407 199.63 130.45C196.668 132.39 193.246 133.36 189.365 133.36C183.646 133.36 179.101 131.216 175.731 126.926C172.463 122.637 170.829 116.866 170.829 109.615C170.829 102.364 172.463 96.5935 175.731 92.304C179.101 88.0146 183.646 85.8698 189.365 85.8698C193.246 85.8698 196.668 86.8911 199.63 88.9337C202.694 90.8742 205.042 93.6317 206.677 97.2063H242.524C240.992 88.6273 237.877 81.1208 233.179 74.6866C228.584 68.2523 222.558 63.299 215.102 59.8266C207.749 56.252 199.374 54.4647 189.978 54.4647C179.05 54.4647 169.552 56.8137 161.484 61.5117C153.416 66.1076 147.186 72.5929 142.794 80.9676C138.505 89.3423 136.36 98.8915 136.36 109.615C136.36 120.339 138.505 129.888 142.794 138.263C147.186 146.637 153.416 153.174 161.484 157.872C169.552 162.468 179.05 164.766 189.978 164.766C195.714 164.766 201.069 164.119 206.044 162.825L222.142 178.923L75.0704 225.198L52.991 164H80.836V129.531H94.3172C103.1 129.531 110.556 127.896 116.684 124.628C122.914 121.36 127.612 116.969 130.778 111.454C133.944 105.836 135.527 99.6064 135.527 92.7636C135.527 81.4272 131.952 72.3886 124.803 65.648C117.756 58.9074 107.594 55.5371 94.3172 55.5371H46.8265V146.913L0 17.1224Z" fill="#129590"/>
<path d="M311.136 150.922L337.001 142.784L331.514 130.544L311.136 150.922Z" fill="#129590"/>
<path d="M90.4873 102.721C97.5343 102.721 101.058 99.4021 101.058 92.7636C101.058 86.1252 97.5343 82.8059 90.4873 82.8059H80.836V102.721H90.4873Z" fill="#129590"/>
<path fill-rule="evenodd" clip-rule="evenodd" d="M252.637 172.492L211.314 131.17L197.467 145.018L252.637 200.187L356.052 96.7716L342.205 82.924L252.637 172.492Z" fill="#09F04A"/>
<path d="M495.93 129.976C488.615 129.976 482.568 128.313 477.787 124.987C473.064 121.604 470.501 116.672 470.098 110.189H490.487C490.775 113.627 492.33 115.347 495.153 115.347C496.189 115.347 497.053 115.121 497.744 114.67C498.493 114.163 498.867 113.402 498.867 112.387C498.867 110.978 498.09 109.85 496.535 109.005C494.98 108.103 492.561 107.088 489.278 105.961C485.361 104.608 482.107 103.283 479.515 101.986C476.981 100.69 474.792 98.8011 472.949 96.3206C471.106 93.8402 470.213 90.655 470.271 86.7652C470.271 82.8754 471.279 79.5775 473.295 76.8716C475.368 74.1092 478.162 72.0234 481.675 70.614C485.246 69.2047 489.249 68.5 493.684 68.5C501.171 68.5 507.104 70.1912 511.481 73.5737C515.916 76.9561 518.249 81.7197 518.479 87.8645H497.831C497.773 86.1733 497.341 84.9612 496.535 84.2284C495.729 83.4955 494.749 83.1291 493.597 83.1291C492.791 83.1291 492.129 83.4109 491.61 83.9747C491.092 84.4821 490.833 85.2149 490.833 86.1733C490.833 87.5263 491.582 88.6537 493.079 89.5557C494.634 90.4013 497.082 91.4443 500.423 92.6845C504.282 94.0938 507.449 95.4468 509.926 96.7434C512.46 98.04 514.649 99.844 516.492 102.155C518.335 104.467 519.256 107.37 519.256 110.865C519.256 114.529 518.335 117.827 516.492 120.759C514.649 123.634 511.971 125.889 508.457 127.524C504.944 129.159 500.768 129.976 495.93 129.976Z" fill="#129590"/>
<path fill-rule="evenodd" clip-rule="evenodd" d="M437.166 69.5147C443.559 69.5147 449.146 70.7832 453.926 73.32C458.764 75.8568 462.479 79.3802 465.071 83.8901C467.663 88.4001 468.959 93.5301 468.959 99.2803C468.959 104.974 467.663 110.104 465.071 114.67C462.479 119.237 458.764 122.845 453.926 125.494C449.146 128.087 443.559 129.384 437.166 129.384H411.68V69.5147H437.166ZM435.438 112.641C439.758 112.641 443.185 111.485 445.719 109.174C448.253 106.863 449.52 103.565 449.52 99.2803C449.52 94.9958 448.253 91.6979 445.719 89.3866C443.185 87.0753 439.758 85.9196 435.438 85.9196H430.859V112.641H435.438Z" fill="#129590"/>
<path d="M527.898 124.987C532.678 128.313 538.726 129.976 546.041 129.976C550.879 129.976 555.054 129.159 558.568 127.524C562.081 125.889 564.759 123.634 566.602 120.759C568.445 117.827 569.367 114.529 569.367 110.865C569.367 107.37 568.445 104.467 566.602 102.155C564.759 99.844 562.571 98.04 560.036 96.7434C557.56 95.4468 554.392 94.0938 550.533 92.6845C547.193 91.4443 544.745 90.4013 543.19 89.5557C541.692 88.6537 540.943 87.5263 540.943 86.1733C540.943 85.2149 541.203 84.4821 541.721 83.9747C542.239 83.4109 542.902 83.1291 543.708 83.1291C544.86 83.1291 545.839 83.4955 546.645 84.2284C547.452 84.9612 547.884 86.1733 547.941 87.8645H568.589C568.359 81.7197 566.026 76.9561 561.592 73.5737C557.214 70.1912 551.282 68.5 543.794 68.5C539.359 68.5 535.357 69.2047 531.786 70.614C528.272 72.0234 525.479 74.1092 523.405 76.8716C521.39 79.5775 520.382 82.8754 520.382 86.7652C520.324 90.655 521.217 93.8402 523.06 96.3206C524.903 98.8011 527.092 100.69 529.626 101.986C532.218 103.283 535.472 104.608 539.388 105.961C542.671 107.088 545.09 108.103 546.645 109.005C548.2 109.85 548.978 110.978 548.978 112.387C548.978 113.402 548.604 114.163 547.855 114.67C547.164 115.121 546.3 115.347 545.263 115.347C542.441 115.347 540.886 113.627 540.598 110.189H520.209C520.612 116.672 523.175 121.604 527.898 124.987Z" fill="#129590"/>
<path fill-rule="evenodd" clip-rule="evenodd" d="M442.371 157.5C440.555 157.5 438.888 157.083 437.369 156.249C435.85 155.415 434.646 154.263 433.756 152.795C432.867 151.308 432.423 149.631 432.423 147.763C432.423 145.914 432.867 144.255 433.756 142.786C434.646 141.299 435.85 140.139 437.369 139.305C438.888 138.471 440.555 138.054 442.371 138.054C444.205 138.054 445.872 138.471 447.372 139.305C448.891 140.139 450.086 141.299 450.957 142.786C451.846 144.255 452.291 145.914 452.291 147.763C452.291 149.631 451.846 151.308 450.957 152.795C450.086 154.263 448.891 155.415 447.372 156.249C445.853 157.083 444.186 157.5 442.371 157.5ZM442.371 154.1C443.538 154.1 444.566 153.846 445.455 153.339C446.344 152.813 447.039 152.07 447.539 151.109C448.039 150.148 448.289 149.032 448.289 147.763C448.289 146.494 448.039 145.388 447.539 144.445C447.039 143.484 446.344 142.75 445.455 142.242C444.566 141.734 443.538 141.48 442.371 141.48C441.203 141.48 440.166 141.734 439.258 142.242C438.369 142.75 437.674 143.484 437.174 144.445C436.674 145.388 436.424 146.494 436.424 147.763C436.424 149.032 436.674 150.148 437.174 151.109C437.674 152.07 438.369 152.813 439.258 153.339C440.166 153.846 441.203 154.1 442.371 154.1Z" fill="#129590"/>
<path d="M411.094 147.79C411.094 145.923 411.52 144.255 412.372 142.786C413.243 141.299 414.419 140.148 415.901 139.332C417.401 138.498 419.078 138.081 420.93 138.081C423.098 138.081 424.997 138.625 426.627 139.713C428.257 140.801 429.396 142.305 430.045 144.227H425.571C425.126 143.321 424.496 142.641 423.681 142.188C422.885 141.734 421.959 141.508 420.903 141.508C419.773 141.508 418.763 141.771 417.874 142.296C417.003 142.804 416.318 143.529 415.818 144.472C415.336 145.415 415.095 146.521 415.095 147.79C415.095 149.041 415.336 150.148 415.818 151.109C416.318 152.051 417.003 152.786 417.874 153.312C418.763 153.819 419.773 154.073 420.903 154.073C421.959 154.073 422.885 153.846 423.681 153.393C424.496 152.922 425.126 152.233 425.571 151.326H430.045C429.396 153.266 428.257 154.78 426.627 155.868C425.015 156.938 423.116 157.473 420.93 157.473C419.078 157.473 417.401 157.065 415.901 156.249C414.419 155.415 413.243 154.263 412.372 152.795C411.52 151.326 411.094 149.658 411.094 147.79Z" fill="#129590"/>
<path d="M476.331 157.31V138.326H471.941L465.772 152.441L459.603 138.326H455.185V157.31H459.075V144.962L464.299 157.31H467.245L472.441 144.962V157.31H476.331Z" fill="#129590"/>
<path fill-rule="evenodd" clip-rule="evenodd" d="M494.321 144.2C494.321 145.216 494.071 146.168 493.571 147.056C493.089 147.945 492.32 148.661 491.264 149.205C490.227 149.749 488.912 150.021 487.318 150.021H484.067V157.31H480.177V138.326H487.318C488.819 138.326 490.097 138.579 491.153 139.087C492.209 139.595 492.996 140.293 493.515 141.181C494.052 142.07 494.321 143.076 494.321 144.2ZM487.152 146.947C488.226 146.947 489.023 146.712 489.541 146.24C490.06 145.751 490.32 145.071 490.32 144.2C490.32 142.351 489.264 141.426 487.152 141.426H484.067V146.947H487.152Z" fill="#129590"/>
<path d="M500.973 157.31V138.326H497.083V157.31H500.973Z" fill="#129590"/>
<path d="M508.707 154.291H515.098V157.31H504.817V138.326H508.707V154.291Z" fill="#129590"/>
<path fill-rule="evenodd" clip-rule="evenodd" d="M520.46 157.31L521.739 153.692H529.464L530.742 157.31H534.854L527.88 138.298H523.35L516.376 157.31H520.46ZM525.601 142.704L528.408 150.646H522.795L525.601 142.704Z" fill="#129590"/>
<path d="M554.05 157.31H550.16L541.352 144.282V157.31H537.461V138.298H541.352L550.16 151.353V138.298H554.05V157.31Z" fill="#129590"/>
<path d="M571.094 141.399V138.326H556.867V141.399H562.035V157.31H565.925V141.399H571.094Z" fill="#129590"/>
</svg>
