<svg width="599" height="418" viewBox="0 0 599 418" fill="none" xmlns="http://www.w3.org/2000/svg">
<path d="M130.471 316.883C107.154 302.985 107.154 269.217 130.471 255.318L280.924 165.64C292.228 158.902 306.316 158.902 317.62 165.64L468.072 255.318C491.389 269.217 491.389 302.985 468.072 316.883L434.38 336.966C351.14 386.581 247.403 386.581 164.164 336.966L130.471 316.883Z" stroke="#129590" stroke-width="1.08593"/>
<g opacity="0.5" filter="url(#filter0_f)">
<rect width="95.5617" height="95.5617" transform="matrix(0.866025 0.5 -0.866025 0.5 299.499 114.523)" fill="#8C8C8C"/>
</g>
<g opacity="0.5" filter="url(#filter1_f)">
<rect width="95.5617" height="95.5617" transform="matrix(0.866025 0.5 -0.866025 0.5 299.499 114.523)" fill="#8C8C8C"/>
</g>
<rect width="95.5617" height="26.0623" transform="matrix(0.866025 0.5 -2.20305e-08 1 216.74 135.156)" fill="#F2F2F2"/>
<rect width="95.5617" height="26.0623" transform="matrix(-0.866025 0.5 2.20305e-08 1 382.03 135.156)" fill="#E8E8E8"/>
<rect width="95.5617" height="95.5617" transform="matrix(0.866025 0.5 -0.866025 0.5 299.5 87.375)" fill="white"/>
<rect width="42.6418" height="8.68743" rx="4.34372" transform="matrix(0.866025 0.5 -2.20305e-08 1 252.576 164.875)" fill="#173244"/>
<rect width="8.68743" height="8.68743" rx="4.34371" transform="matrix(0.866025 0.5 -2.20305e-08 1 235.201 154.703)" fill="#F82530"/>
<rect width="8.68743" height="8.68743" rx="4.34371" transform="matrix(0.866025 0.5 -2.20305e-08 1 225.428 149.273)" fill="#09F04A"/>
<path fill-rule="evenodd" clip-rule="evenodd" d="M345.31 93.8906H253.231V134.618C253.223 141.427 257.718 148.238 266.716 153.433C284.695 163.813 313.846 163.813 331.825 153.433C340.824 148.238 345.319 141.427 345.31 134.618V93.8906Z" fill="white"/>
<rect width="95.5617" height="26.0623" transform="matrix(0.866025 0.5 -2.20305e-08 1 216.74 91.7188)" fill="#F2F2F2"/>
<rect width="95.5617" height="26.0623" transform="matrix(-0.866025 0.5 2.20305e-08 1 382.03 91.7188)" fill="#E8E8E8"/>
<rect width="95.5617" height="95.5617" transform="matrix(0.866025 0.5 -0.866025 0.5 299.5 43.9395)" fill="white"/>
<rect width="42.6418" height="8.68743" rx="4.34372" transform="matrix(0.866025 0.5 -2.20305e-08 1 252.576 121.438)" fill="#173244"/>
<rect width="8.68743" height="8.68743" rx="4.34371" transform="matrix(0.866025 0.5 -2.20305e-08 1 235.201 111.266)" fill="#F82530"/>
<rect width="8.68743" height="8.68743" rx="4.34371" transform="matrix(0.866025 0.5 -2.20305e-08 1 225.428 105.836)" fill="#09F04A"/>
<path fill-rule="evenodd" clip-rule="evenodd" d="M345.31 50.4531H253.231V91.1802C253.223 97.9894 257.717 104.8 266.716 109.996C284.695 120.376 313.846 120.376 331.825 109.996C340.824 104.8 345.319 97.9894 345.31 91.1802V50.4531Z" fill="white"/>
<rect width="95.5617" height="26.0623" transform="matrix(0.866025 0.5 -2.20305e-08 1 216.74 48.2832)" fill="#F2F2F2"/>
<rect width="95.5617" height="26.0623" transform="matrix(-0.866025 0.5 2.20305e-08 1 382.03 48.2832)" fill="#E8E8E8"/>
<rect width="95.5617" height="95.5617" transform="matrix(0.866025 0.5 -0.866025 0.5 299.5 0.501953)" fill="white"/>
<rect width="42.6418" height="8.68743" rx="4.34372" transform="matrix(0.866025 0.5 -2.20305e-08 1 252.576 78)" fill="#173244"/>
<rect width="8.68743" height="8.68743" rx="4.34371" transform="matrix(0.866025 0.5 -2.20305e-08 1 235.201 67.8281)" fill="#F82530"/>
<rect width="8.68743" height="8.68743" rx="4.34371" transform="matrix(0.866025 0.5 -2.20305e-08 1 225.428 62.3984)" fill="#09F04A"/>
<g opacity="0.5" filter="url(#filter2_f)">
<rect width="95.5617" height="95.5617" transform="matrix(0.866025 0.5 -0.866025 0.5 94.2588 253.523)" fill="#8C8C8C"/>
</g>
<g opacity="0.5" filter="url(#filter3_f)">
<rect width="95.5617" height="95.5617" transform="matrix(0.866025 0.5 -0.866025 0.5 94.2588 253.523)" fill="#8C8C8C"/>
</g>
<rect width="95.5617" height="26.0623" transform="matrix(0.866025 0.5 -2.20305e-08 1 11.5 274.156)" fill="#F2F2F2"/>
<rect width="95.5617" height="26.0623" transform="matrix(-0.866025 0.5 2.20305e-08 1 176.79 274.156)" fill="#E8E8E8"/>
<rect width="95.5617" height="95.5617" transform="matrix(0.866025 0.5 -0.866025 0.5 94.2598 226.375)" fill="white"/>
<rect width="42.6418" height="8.68743" rx="4.34372" transform="matrix(0.866025 0.5 -2.20305e-08 1 47.3359 303.875)" fill="#173244"/>
<rect width="8.68743" height="8.68743" rx="4.34371" transform="matrix(0.866025 0.5 -2.20305e-08 1 29.9609 293.703)" fill="#F82530"/>
<rect width="8.68743" height="8.68743" rx="4.34371" transform="matrix(0.866025 0.5 -2.20305e-08 1 20.1875 288.273)" fill="#09F04A"/>
<path fill-rule="evenodd" clip-rule="evenodd" d="M140.07 232.891H47.9912V273.618C47.9824 280.427 52.4773 287.238 61.4758 292.433C79.4552 302.814 108.606 302.814 126.585 292.433C135.584 287.238 140.079 280.427 140.07 273.618V232.891Z" fill="white"/>
<rect width="95.5617" height="26.0623" transform="matrix(0.866025 0.5 -2.20305e-08 1 11.5 230.719)" fill="#F2F2F2"/>
<rect width="95.5617" height="26.0623" transform="matrix(-0.866025 0.5 2.20305e-08 1 176.79 230.719)" fill="#E8E8E8"/>
<rect width="95.5617" height="95.5617" transform="matrix(0.866025 0.5 -0.866025 0.5 94.2598 182.938)" fill="white"/>
<rect width="42.6418" height="8.68743" rx="4.34372" transform="matrix(0.866025 0.5 -2.20305e-08 1 47.3359 260.438)" fill="#173244"/>
<rect width="8.68743" height="8.68743" rx="4.34371" transform="matrix(0.866025 0.5 -2.20305e-08 1 29.9609 250.266)" fill="#F82530"/>
<rect width="8.68743" height="8.68743" rx="4.34371" transform="matrix(0.866025 0.5 -2.20305e-08 1 20.1875 244.836)" fill="#09F04A"/>
<path fill-rule="evenodd" clip-rule="evenodd" d="M140.07 189.453H47.9912V230.18C47.9825 236.989 52.4774 243.8 61.4758 248.995C79.4552 259.376 108.606 259.376 126.585 248.995C135.584 243.8 140.078 236.989 140.07 230.18V189.453Z" fill="white"/>
<rect width="95.5617" height="26.0623" transform="matrix(0.866025 0.5 -2.20305e-08 1 11.5 187.281)" fill="#F2F2F2"/>
<rect width="95.5617" height="26.0623" transform="matrix(-0.866025 0.5 2.20305e-08 1 176.79 187.281)" fill="#E8E8E8"/>
<rect width="95.5617" height="95.5617" transform="matrix(0.866025 0.5 -0.866025 0.5 94.2598 139.5)" fill="white"/>
<rect width="42.6418" height="8.68743" rx="4.34372" transform="matrix(0.866025 0.5 -2.20305e-08 1 47.3359 217)" fill="#173244"/>
<rect width="8.68743" height="8.68743" rx="4.34371" transform="matrix(0.866025 0.5 -2.20305e-08 1 29.9609 206.828)" fill="#F82530"/>
<rect width="8.68743" height="8.68743" rx="4.34371" transform="matrix(0.866025 0.5 -2.20305e-08 1 20.1875 201.398)" fill="#09F04A"/>
<g opacity="0.5" filter="url(#filter4_f)">
<rect width="95.5617" height="95.5617" transform="matrix(0.866025 0.5 -0.866025 0.5 504.74 253.523)" fill="#8C8C8C"/>
</g>
<g opacity="0.5" filter="url(#filter5_f)">
<rect width="95.5617" height="95.5617" transform="matrix(0.866025 0.5 -0.866025 0.5 504.74 253.523)" fill="#8C8C8C"/>
</g>
<rect width="95.5617" height="26.0623" transform="matrix(0.866025 0.5 -2.20305e-08 1 421.981 274.156)" fill="#F2F2F2"/>
<rect width="95.5617" height="26.0623" transform="matrix(-0.866025 0.5 2.20305e-08 1 587.271 274.156)" fill="#E8E8E8"/>
<rect width="95.5617" height="95.5617" transform="matrix(0.866025 0.5 -0.866025 0.5 504.741 226.375)" fill="white"/>
<rect width="42.6418" height="8.68743" rx="4.34372" transform="matrix(0.866025 0.5 -2.20305e-08 1 457.817 303.875)" fill="#173244"/>
<rect width="8.68743" height="8.68743" rx="4.34371" transform="matrix(0.866025 0.5 -2.20305e-08 1 440.442 293.703)" fill="#F82530"/>
<rect width="8.68743" height="8.68743" rx="4.34371" transform="matrix(0.866025 0.5 -2.20305e-08 1 430.669 288.273)" fill="#09F04A"/>
<path fill-rule="evenodd" clip-rule="evenodd" d="M550.551 232.891H458.473V273.618C458.464 280.427 462.959 287.238 471.957 292.433C489.937 302.814 519.087 302.814 537.067 292.433C546.065 287.238 550.56 280.427 550.551 273.618V232.891Z" fill="white"/>
<rect width="95.5617" height="26.0623" transform="matrix(0.866025 0.5 -2.20305e-08 1 421.981 230.719)" fill="#F2F2F2"/>
<rect width="95.5617" height="26.0623" transform="matrix(-0.866025 0.5 2.20305e-08 1 587.271 230.719)" fill="#E8E8E8"/>
<rect width="95.5617" height="95.5617" transform="matrix(0.866025 0.5 -0.866025 0.5 504.741 182.938)" fill="white"/>
<rect width="42.6418" height="8.68743" rx="4.34372" transform="matrix(0.866025 0.5 -2.20305e-08 1 457.817 260.438)" fill="#173244"/>
<rect width="8.68743" height="8.68743" rx="4.34371" transform="matrix(0.866025 0.5 -2.20305e-08 1 440.442 250.266)" fill="#F82530"/>
<rect width="8.68743" height="8.68743" rx="4.34371" transform="matrix(0.866025 0.5 -2.20305e-08 1 430.669 244.836)" fill="#09F04A"/>
<path fill-rule="evenodd" clip-rule="evenodd" d="M550.551 189.453H458.473V230.18C458.464 236.989 462.959 243.8 471.957 248.995C489.937 259.376 519.087 259.376 537.067 248.995C546.065 243.8 550.56 236.989 550.551 230.18V189.453Z" fill="white"/>
<rect width="95.5617" height="26.0623" transform="matrix(0.866025 0.5 -2.20305e-08 1 421.981 187.281)" fill="#F2F2F2"/>
<rect width="95.5617" height="26.0623" transform="matrix(-0.866025 0.5 2.20305e-08 1 587.271 187.281)" fill="#E8E8E8"/>
<rect width="95.5617" height="95.5617" transform="matrix(0.866025 0.5 -0.866025 0.5 504.741 139.5)" fill="white"/>
<rect width="42.6418" height="8.68743" rx="4.34372" transform="matrix(0.866025 0.5 -2.20305e-08 1 457.817 217)" fill="#173244"/>
<rect width="8.68743" height="8.68743" rx="4.34371" transform="matrix(0.866025 0.5 -2.20305e-08 1 440.442 206.828)" fill="#F82530"/>
<rect width="8.68743" height="8.68743" rx="4.34371" transform="matrix(0.866025 0.5 -2.20305e-08 1 430.669 201.398)" fill="#09F04A"/>
<defs>
<filter id="filter0_f" x="214.568" y="112.352" width="169.862" height="99.9055" filterUnits="userSpaceOnUse" color-interpolation-filters="sRGB">
<feFlood flood-opacity="0" result="BackgroundImageFix"/>
<feBlend mode="normal" in="SourceGraphic" in2="BackgroundImageFix" result="shape"/>
<feGaussianBlur stdDeviation="1.08593" result="effect1_foregroundBlur"/>
</filter>
<filter id="filter1_f" x="205.881" y="103.664" width="187.236" height="117.28" filterUnits="userSpaceOnUse" color-interpolation-filters="sRGB">
<feFlood flood-opacity="0" result="BackgroundImageFix"/>
<feBlend mode="normal" in="SourceGraphic" in2="BackgroundImageFix" result="shape"/>
<feGaussianBlur stdDeviation="5.42964" result="effect1_foregroundBlur"/>
</filter>
<filter id="filter2_f" x="9.32814" y="251.352" width="169.862" height="99.9055" filterUnits="userSpaceOnUse" color-interpolation-filters="sRGB">
<feFlood flood-opacity="0" result="BackgroundImageFix"/>
<feBlend mode="normal" in="SourceGraphic" in2="BackgroundImageFix" result="shape"/>
<feGaussianBlur stdDeviation="1.08593" result="effect1_foregroundBlur"/>
</filter>
<filter id="filter3_f" x="0.640711" y="242.664" width="187.236" height="117.28" filterUnits="userSpaceOnUse" color-interpolation-filters="sRGB">
<feFlood flood-opacity="0" result="BackgroundImageFix"/>
<feBlend mode="normal" in="SourceGraphic" in2="BackgroundImageFix" result="shape"/>
<feGaussianBlur stdDeviation="5.42964" result="effect1_foregroundBlur"/>
</filter>
<filter id="filter4_f" x="419.81" y="251.352" width="169.862" height="99.9055" filterUnits="userSpaceOnUse" color-interpolation-filters="sRGB">
<feFlood flood-opacity="0" result="BackgroundImageFix"/>
<feBlend mode="normal" in="SourceGraphic" in2="BackgroundImageFix" result="shape"/>
<feGaussianBlur stdDeviation="1.08593" result="effect1_foregroundBlur"/>
</filter>
<filter id="filter5_f" x="411.122" y="242.664" width="187.236" height="117.28" filterUnits="userSpaceOnUse" color-interpolation-filters="sRGB">
<feFlood flood-opacity="0" result="BackgroundImageFix"/>
<feBlend mode="normal" in="SourceGraphic" in2="BackgroundImageFix" result="shape"/>
<feGaussianBlur stdDeviation="5.42964" result="effect1_foregroundBlur"/>
</filter>
</defs>
</svg>
