<svg width="64" height="64" viewBox="0 0 64 64" fill="none" xmlns="http://www.w3.org/2000/svg">
<path d="M59 45H54V38C54 37.7348 53.8946 37.4804 53.7071 37.2929C53.5196 37.1054 53.2652 37 53 37H38V31H43C43.7956 31 44.5587 30.6839 45.1213 30.1213C45.6839 29.5587 46 28.7956 46 28V16C46 15.2044 45.6839 14.4413 45.1213 13.8787C44.5587 13.3161 43.7956 13 43 13H31C30.2044 13 29.4413 13.3161 28.8787 13.8787C28.3161 14.4413 28 15.2044 28 16V28C28 28.7956 28.3161 29.5587 28.8787 30.1213C29.4413 30.6839 30.2044 31 31 31H36V37H21C20.7348 37 20.4804 37.1054 20.2929 37.2929C20.1054 37.4804 20 37.7348 20 38V45H15C14.2044 45 13.4413 45.3161 12.8787 45.8787C12.3161 46.4413 12 47.2043 12 48V60C12 60.7957 12.3161 61.5587 12.8787 62.1213C13.4413 62.6839 14.2044 63 15 63H27C27.7956 63 28.5587 62.6839 29.1213 62.1213C29.6839 61.5587 30 60.7957 30 60V48C30 47.2043 29.6839 46.4413 29.1213 45.8787C28.5587 45.3161 27.7956 45 27 45H22V39H52V45H47C46.2043 45 45.4413 45.3161 44.8787 45.8787C44.3161 46.4413 44 47.2043 44 48V60C44 60.7957 44.3161 61.5587 44.8787 62.1213C45.4413 62.6839 46.2043 63 47 63H59C59.7957 63 60.5587 62.6839 61.1213 62.1213C61.6839 61.5587 62 60.7957 62 60V48C62 47.2043 61.6839 46.4413 61.1213 45.8787C60.5587 45.3161 59.7957 45 59 45Z" fill="#F82530"/>
<path d="M28.0001 26.9994H49.0001C49.7824 27.0043 50.5353 26.7016 51.0965 26.1565C51.6577 25.6114 51.9822 24.8676 52.0001 24.0854V23.9994C51.9919 22.118 51.3981 20.2859 50.3013 18.7573C49.2044 17.2287 47.6588 16.0796 45.8791 15.4694C46.0768 14.2828 46.0323 13.0684 45.7481 11.8994C45.2956 10.0761 44.2899 8.43744 42.8689 7.20847C41.448 5.9795 39.6816 5.22042 37.8121 5.03542C36.1642 4.88051 34.5059 5.18911 33.0241 5.92642C32.1838 4.26811 30.8507 2.91068 29.2079 2.04064C27.565 1.1706 25.693 0.830647 23.8492 1.06749C22.0053 1.30433 20.28 2.10634 18.9103 3.36333C17.5407 4.62032 16.5939 6.2706 16.2001 8.08742C15.4559 7.97846 14.7005 7.96972 13.9541 8.06142C12.1476 8.28927 10.4742 9.13101 9.21443 10.4456C7.95461 11.7602 7.18483 13.4679 7.03406 15.2824C5.57836 15.7018 4.29921 16.5845 3.39071 17.7968C2.48221 19.009 1.99396 20.4845 2.00006 21.9994C2.00006 24.3334 3.12306 26.9994 5.54506 26.9994H26.0001V42.9994H16.0001V39.9994C16.0001 39.2038 15.684 38.4407 15.1214 37.8781C14.5588 37.3155 13.7957 36.9994 13.0001 36.9994H5.00006C4.20441 36.9994 3.44135 37.3155 2.87874 37.8781C2.31613 38.4407 2.00006 39.2038 2.00006 39.9994V47.9994C2.00006 48.7951 2.31613 49.5581 2.87874 50.1207C3.44135 50.6833 4.20441 50.9994 5.00006 50.9994H13.0001C13.7957 50.9994 14.5588 50.6833 15.1214 50.1207C15.684 49.5581 16.0001 48.7951 16.0001 47.9994V44.9994H38.0001V47.9994C38.0001 48.7951 38.3161 49.5581 38.8787 50.1207C39.4413 50.6833 40.2044 50.9994 41.0001 50.9994H49.0001C49.7957 50.9994 50.5588 50.6833 51.1214 50.1207C51.684 49.5581 52.0001 48.7951 52.0001 47.9994V39.9994C52.0001 39.2038 51.684 38.4407 51.1214 37.8781C50.5588 37.3155 49.7957 36.9994 49.0001 36.9994H41.0001C40.2044 36.9994 39.4413 37.3155 38.8787 37.8781C38.3161 38.4407 38.0001 39.2038 38.0001 39.9994V42.9994H28.0001V26.9994ZM4.66206 24.4794C4.2624 23.7819 4.03721 22.9982 4.00566 22.1949C3.97411 21.3917 4.13712 20.5927 4.48083 19.866C4.82453 19.1393 5.33875 18.5064 5.9797 18.0212C6.62065 17.5361 7.36935 17.213 8.16206 17.0794C8.40135 17.0278 8.61547 16.8951 8.76818 16.7038C8.92088 16.5124 9.00279 16.2742 9.00006 16.0294C8.98176 14.5697 9.5001 13.1541 10.4567 12.0514C11.4132 10.9486 12.7414 10.2355 14.1891 10.0474C15.0418 9.93672 15.9084 10.0073 16.7321 10.2544C16.8753 10.3 17.0269 10.3128 17.1758 10.2917C17.3246 10.2706 17.4668 10.2162 17.5917 10.1326C17.7166 10.049 17.8211 9.93835 17.8973 9.80881C17.9735 9.67927 18.0196 9.53421 18.0321 9.38442C18.176 7.79313 18.8599 6.29895 19.9703 5.15008C21.0807 4.00121 22.5508 3.26679 24.1362 3.06881C25.7217 2.87083 27.3272 3.2212 28.686 4.06174C30.0449 4.90227 31.0753 6.18238 31.6061 7.68942C31.6566 7.83344 31.7394 7.96398 31.8481 8.07106C31.9569 8.17813 32.0887 8.25889 32.2335 8.30715C32.3783 8.35542 32.5322 8.3699 32.6834 8.34949C32.8347 8.32908 32.9792 8.27433 33.1061 8.18942C34.4357 7.2921 36.0347 6.88227 37.6321 7.02942C38.6561 7.12472 39.6467 7.4441 40.5336 7.96493C41.4205 8.48576 42.1819 9.19528 42.764 10.0432C43.3461 10.8911 43.7345 11.8567 43.9018 12.8715C44.0691 13.8863 44.0112 14.9255 43.7321 15.9154C43.6959 16.0465 43.6869 16.1836 43.7055 16.3183C43.7242 16.453 43.7701 16.5824 43.8405 16.6988C43.9109 16.8151 44.0043 16.9159 44.1149 16.9949C44.2256 17.074 44.3512 17.1296 44.4841 17.1584C46.0431 17.5039 47.4384 18.3693 48.4407 19.6124C49.4431 20.8555 49.993 22.4025 50.0001 23.9994V24.0744C49.9842 24.3276 49.8714 24.5649 49.6852 24.7371C49.499 24.9093 49.2537 25.0033 49.0001 24.9994H5.54506C5.36525 24.9975 5.18909 24.9485 5.03414 24.8573C4.8792 24.766 4.7509 24.6357 4.66206 24.4794ZM14.0001 47.9994C14.0001 48.2646 13.8947 48.519 13.7072 48.7065C13.5196 48.8941 13.2653 48.9994 13.0001 48.9994H5.00006C4.73484 48.9994 4.48049 48.8941 4.29295 48.7065C4.10541 48.519 4.00006 48.2646 4.00006 47.9994V39.9994C4.00006 39.7342 4.10541 39.4799 4.29295 39.2923C4.48049 39.1048 4.73484 38.9994 5.00006 38.9994H13.0001C13.2653 38.9994 13.5196 39.1048 13.7072 39.2923C13.8947 39.4799 14.0001 39.7342 14.0001 39.9994V47.9994ZM40.0001 39.9994C40.0001 39.7342 40.1054 39.4799 40.2929 39.2923C40.4805 39.1048 40.7348 38.9994 41.0001 38.9994H49.0001C49.2653 38.9994 49.5196 39.1048 49.7072 39.2923C49.8947 39.4799 50.0001 39.7342 50.0001 39.9994V47.9994C50.0001 48.2646 49.8947 48.519 49.7072 48.7065C49.5196 48.8941 49.2653 48.9994 49.0001 48.9994H41.0001C40.7348 48.9994 40.4805 48.8941 40.2929 48.7065C40.1054 48.519 40.0001 48.2646 40.0001 47.9994V39.9994Z" fill="#129590"/>
</svg>
