<svg width="355" height="368" viewBox="0 0 355 368" fill="none" xmlns="http://www.w3.org/2000/svg">
<g clip-path="url(#clip0)">
<path d="M337.012 261.37H307.451V219.908C307.451 218.337 306.828 216.83 305.72 215.72C304.611 214.609 303.107 213.985 301.539 213.985H212.858V178.446H242.418C247.122 178.446 251.633 176.573 254.96 173.241C258.286 169.909 260.154 165.389 260.154 160.676V89.5977C260.154 84.8849 258.286 80.3652 254.96 77.0327C251.633 73.7003 247.122 71.8281 242.418 71.8281H171.473C166.769 71.8281 162.258 73.7003 158.932 77.0327C155.606 80.3652 153.737 84.8849 153.737 89.5977V160.676C153.737 165.389 155.606 169.909 158.932 173.241C162.258 176.573 166.769 178.446 171.473 178.446H201.034V213.985H112.352C110.784 213.985 109.281 214.609 108.172 215.72C107.063 216.83 106.44 218.337 106.44 219.908V261.37H76.8798C72.1759 261.37 67.6646 263.242 64.3384 266.575C61.0122 269.907 59.1436 274.427 59.1436 279.14V350.218C59.1436 354.931 61.0122 359.451 64.3384 362.783C67.6646 366.116 72.1759 367.988 76.8798 367.988H147.825C152.529 367.988 157.04 366.116 160.366 362.783C163.692 359.451 165.561 354.931 165.561 350.218V279.14C165.561 274.427 163.692 269.907 160.366 266.575C157.04 263.242 152.529 261.37 147.825 261.37H118.264V225.831H295.627V261.37H266.067C261.363 261.37 256.851 263.242 253.525 266.575C250.199 269.907 248.33 274.427 248.33 279.14V350.218C248.33 354.931 250.199 359.451 253.525 362.783C256.851 366.116 261.363 367.988 266.067 367.988H337.012C341.716 367.988 346.227 366.116 349.553 362.783C352.879 359.451 354.748 354.931 354.748 350.218V279.14C354.748 274.427 352.879 269.907 349.553 266.575C346.227 263.242 341.716 261.37 337.012 261.37V261.37Z" fill="#F82530"/>
<path d="M153.735 154.753H277.889C282.514 154.782 286.966 152.989 290.283 149.76C293.601 146.532 295.52 142.126 295.625 137.493V136.983C295.577 125.84 292.066 114.987 285.582 105.933C279.097 96.8792 269.959 90.0727 259.437 86.4586C260.607 79.4299 260.343 72.2367 258.663 65.3128C255.988 54.5127 250.042 44.8069 241.641 37.5274C233.241 30.248 222.797 25.7518 211.744 24.656C202.002 23.7385 192.198 25.5664 183.437 29.9336C178.47 20.1111 170.588 12.0708 160.876 6.91738C151.163 1.76397 140.096 -0.249654 129.195 1.1532C118.293 2.55605 108.093 7.30653 99.9959 14.7519C91.8985 22.1973 86.3009 31.9722 83.9725 42.7336C79.573 42.0882 75.1071 42.0364 70.6939 42.5796C60.0138 43.9292 50.1209 48.915 42.6728 56.7017C35.2247 64.4884 30.6737 74.603 29.7823 85.351C21.1761 87.8349 13.6136 93.0637 8.24249 100.244C2.87135 107.424 -0.0152138 116.164 0.0208415 125.137C0.0208415 138.962 6.66011 154.753 20.9792 154.753H141.911V249.524H82.79V231.755C82.79 227.042 80.9214 222.522 77.5952 219.19C74.269 215.857 69.7577 213.985 65.0538 213.985H17.7571C13.0531 213.985 8.54186 215.857 5.21567 219.19C1.88948 222.522 0.0208415 227.042 0.0208415 231.755V279.14C0.0208415 283.853 1.88948 288.373 5.21567 291.705C8.54186 295.038 13.0531 296.91 17.7571 296.91H65.0538C69.7577 296.91 74.269 295.038 77.5952 291.705C80.9214 288.373 82.79 283.853 82.79 279.14V261.371H212.856V279.14C212.856 283.853 214.725 288.373 218.051 291.705C221.377 295.038 225.888 296.91 230.592 296.91H277.889C282.593 296.91 287.104 295.038 290.43 291.705C293.756 288.373 295.625 283.853 295.625 279.14V231.755C295.625 227.042 293.756 222.522 290.43 219.19C287.104 215.857 282.593 213.985 277.889 213.985H230.592C225.888 213.985 221.377 215.857 218.051 219.19C214.725 222.522 212.856 227.042 212.856 231.755V249.524H153.735V154.753ZM15.7588 139.827C13.396 135.695 12.0647 131.053 11.8781 126.295C11.6916 121.537 12.6553 116.805 14.6874 112.5C16.7194 108.196 19.7595 104.447 23.5488 101.574C27.3382 98.6998 31.7646 96.7859 36.4511 95.995C37.8659 95.6892 39.1317 94.9032 40.0345 93.7698C40.9373 92.6365 41.4216 91.2255 41.4054 89.7756C41.2973 81.1295 44.3617 72.7446 50.017 66.2128C55.6723 59.6811 63.5246 55.4572 72.0832 54.3431C77.125 53.6874 82.2481 54.1052 87.1177 55.5692C87.9644 55.8393 88.8611 55.9148 89.7409 55.7899C90.6208 55.665 91.4612 55.343 92.1998 54.8478C92.9383 54.3526 93.5559 53.697 94.0067 52.9297C94.4574 52.1625 94.7298 51.3032 94.8034 50.416C95.6542 40.9904 99.6978 32.1402 106.263 25.3352C112.827 18.5302 121.518 14.1801 130.892 13.0074C140.265 11.8347 149.757 13.9101 157.791 18.8887C165.824 23.8674 171.916 31.4497 175.054 40.3762C175.353 41.2292 175.842 42.0025 176.485 42.6367C177.128 43.2709 177.907 43.7493 178.763 44.0351C179.619 44.321 180.529 44.4068 181.424 44.2859C182.318 44.165 183.172 43.8407 183.922 43.3378C191.783 38.0228 201.237 35.5953 210.68 36.4669C216.735 37.0314 222.591 38.9231 227.834 42.0081C233.078 45.093 237.579 49.2957 241.021 54.3182C244.462 59.3406 246.759 65.06 247.748 71.0708C248.737 77.0817 248.394 83.237 246.744 89.1004C246.53 89.8768 246.477 90.6888 246.587 91.4866C246.697 92.2844 246.969 93.0513 247.385 93.7404C247.801 94.4295 248.353 95.0264 249.007 95.4945C249.662 95.9626 250.404 96.2921 251.19 96.4629C260.407 98.5093 268.656 103.635 274.582 110.998C280.508 118.362 283.759 127.525 283.801 136.983V137.428C283.707 138.927 283.04 140.333 281.94 141.353C280.839 142.373 279.388 142.929 277.889 142.907H20.9792C19.9162 142.896 18.8747 142.605 17.9586 142.065C17.0426 141.524 16.2841 140.753 15.7588 139.827V139.827ZM70.9659 279.14C70.9659 280.711 70.343 282.218 69.2343 283.328C68.1255 284.439 66.6218 285.063 65.0538 285.063H17.7571C16.1891 285.063 14.6854 284.439 13.5766 283.328C12.4679 282.218 11.845 280.711 11.845 279.14V231.755C11.845 230.184 12.4679 228.677 13.5766 227.566C14.6854 226.455 16.1891 225.831 17.7571 225.831H65.0538C66.6218 225.831 68.1255 226.455 69.2343 227.566C70.343 228.677 70.9659 230.184 70.9659 231.755V279.14ZM224.68 231.755C224.68 230.184 225.303 228.677 226.412 227.566C227.52 226.455 229.024 225.831 230.592 225.831H277.889C279.457 225.831 280.961 226.455 282.069 227.566C283.178 228.677 283.801 230.184 283.801 231.755V279.14C283.801 280.711 283.178 282.218 282.069 283.328C280.961 284.439 279.457 285.063 277.889 285.063H230.592C229.024 285.063 227.52 284.439 226.412 283.328C225.303 282.218 224.68 280.711 224.68 279.14V231.755Z" fill="white"/>
</g>
<defs>
<clipPath id="clip0">
<rect width="354.771" height="368" fill="white"/>
</clipPath>
</defs>
</svg>
