<svg width="295" height="283" viewBox="0 0 295 283" fill="none" xmlns="http://www.w3.org/2000/svg">
<rect x="246.5" width="48" height="48" rx="24" fill="#0062FF"/>
<path d="M270.825 11.288C273.108 11.288 274.932 11.8853 276.297 13.08C277.684 14.2747 278.377 15.96 278.377 18.136C278.377 20.1413 277.716 21.7093 276.393 22.84C275.092 23.9493 273.364 24.5147 271.209 24.536L271.049 26.936H266.249L266.089 20.984H268.009C269.652 20.984 270.9 20.7813 271.753 20.376C272.628 19.9707 273.065 19.2347 273.065 18.168C273.065 17.4213 272.863 16.8347 272.457 16.408C272.052 15.9813 271.487 15.768 270.761 15.768C269.993 15.768 269.396 15.992 268.969 16.44C268.543 16.8667 268.329 17.4533 268.329 18.2H263.177C263.135 16.8987 263.401 15.7253 263.977 14.68C264.575 13.6347 265.449 12.8133 266.601 12.216C267.775 11.5973 269.183 11.288 270.825 11.288ZM268.713 35.256C267.753 35.256 266.964 34.9787 266.345 34.424C265.748 33.848 265.449 33.144 265.449 32.312C265.449 31.4587 265.748 30.744 266.345 30.168C266.964 29.592 267.753 29.304 268.713 29.304C269.652 29.304 270.42 29.592 271.017 30.168C271.636 30.744 271.945 31.4587 271.945 32.312C271.945 33.144 271.636 33.848 271.017 34.424C270.42 34.9787 269.652 35.256 268.713 35.256Z" fill="white"/>
<rect x="0.5" width="48" height="48" rx="24" fill="#129590"/>
<path d="M17.0002 35.256C16.0402 35.256 15.2509 34.9787 14.6322 34.424C14.0349 33.848 13.7362 33.144 13.7362 32.312C13.7362 31.4587 14.0349 30.744 14.6322 30.168C15.2509 29.592 16.0402 29.304 17.0002 29.304C17.9389 29.304 18.7069 29.592 19.3042 30.168C19.9229 30.744 20.2322 31.4587 20.2322 32.312C20.2322 33.144 19.9229 33.848 19.3042 34.424C18.7069 34.9787 17.9389 35.256 17.0002 35.256ZM17.0002 22.232C16.0402 22.232 15.2509 21.9547 14.6322 21.4C14.0349 20.824 13.7362 20.12 13.7362 19.288C13.7362 18.4347 14.0349 17.72 14.6322 17.144C15.2509 16.568 16.0402 16.28 17.0002 16.28C17.9389 16.28 18.7069 16.568 19.3042 17.144C19.9229 17.72 20.2322 18.4347 20.2322 19.288C20.2322 20.12 19.9229 20.824 19.3042 21.4C18.7069 21.9547 17.9389 22.232 17.0002 22.232ZM22.262 41.688V41.176C24.3953 38.9573 26.0487 36.3333 27.222 33.304C28.3953 30.2747 28.982 27.128 28.982 23.864C28.982 20.5787 28.374 17.3893 27.158 14.296C25.942 11.1813 24.214 8.51467 21.974 6.296V5.784H27.35C29.5473 7.78933 31.2433 10.392 32.438 13.592C33.6327 16.7707 34.23 20.1947 34.23 23.864C34.23 27.4907 33.654 30.872 32.502 34.008C31.35 37.144 29.7393 39.704 27.67 41.688H22.262Z" fill="white"/>
<rect x="0.5" y="235" width="48" height="48" rx="24" fill="#9C04FF"/>
<path d="M15.5503 270.256C14.5903 270.256 13.8009 269.979 13.1823 269.424C12.5849 268.848 12.2863 268.144 12.2863 267.312C12.2863 266.459 12.5849 265.744 13.1823 265.168C13.8009 264.592 14.5903 264.304 15.5503 264.304C16.4889 264.304 17.2569 264.592 17.8543 265.168C18.4729 265.744 18.7823 266.459 18.7823 267.312C18.7823 268.144 18.4729 268.848 17.8543 269.424C17.2569 269.979 16.4889 270.256 15.5503 270.256ZM24.7815 270.256C23.8215 270.256 23.0322 269.979 22.4135 269.424C21.8162 268.848 21.5175 268.144 21.5175 267.312C21.5175 266.459 21.8162 265.744 22.4135 265.168C23.0322 264.592 23.8215 264.304 24.7815 264.304C25.7202 264.304 26.4882 264.592 27.0855 265.168C27.7042 265.744 28.0135 266.459 28.0135 267.312C28.0135 268.144 27.7042 268.848 27.0855 269.424C26.4882 269.979 25.7202 270.256 24.7815 270.256ZM34.0128 270.256C33.0528 270.256 32.2634 269.979 31.6448 269.424C31.0474 268.848 30.7488 268.144 30.7488 267.312C30.7488 266.459 31.0474 265.744 31.6448 265.168C32.2634 264.592 33.0528 264.304 34.0128 264.304C34.9514 264.304 35.7194 264.592 36.3168 265.168C36.9354 265.744 37.2448 266.459 37.2448 267.312C37.2448 268.144 36.9354 268.848 36.3168 269.424C35.7194 269.979 34.9514 270.256 34.0128 270.256Z" fill="white"/>
<rect x="246.5" y="235" width="48" height="48" rx="24" fill="#F82530"/>
<path d="M273.653 246.736L273.013 262.064H268.373L267.733 246.736H273.653ZM270.773 270.256C269.813 270.256 269.023 269.979 268.405 269.424C267.807 268.848 267.509 268.144 267.509 267.312C267.509 266.459 267.807 265.744 268.405 265.168C269.023 264.592 269.813 264.304 270.773 264.304C271.711 264.304 272.479 264.592 273.077 265.168C273.695 265.744 274.005 266.459 274.005 267.312C274.005 268.144 273.695 268.848 273.077 269.424C272.479 269.979 271.711 270.256 270.773 270.256Z" fill="white"/>
<path d="M27.4053 45C27.4053 100.177 138.712 53.469 138.712 103" stroke="url(#paint0_linear)" stroke-linecap="round" stroke-linejoin="round"/>
<path d="M267.595 45C267.595 100.177 156.288 53.469 156.288 103" stroke="url(#paint1_linear)" stroke-linecap="round" stroke-linejoin="round"/>
<path d="M23.5 48C23.5 100.323 132.854 56.031 132.854 103" stroke="url(#paint2_linear)" stroke-linecap="round" stroke-linejoin="round"/>
<path d="M271.5 48C271.5 100.323 162.146 56.031 162.146 103" stroke="url(#paint3_linear)"/>
<path d="M27.4053 238C27.4053 182.823 138.712 229.531 138.712 180" stroke="url(#paint4_linear)" stroke-linecap="round" stroke-linejoin="round"/>
<path d="M267.595 238C267.595 182.823 156.288 229.531 156.288 180" stroke="url(#paint5_linear)" stroke-linecap="round" stroke-linejoin="round"/>
<path d="M23.5 235C23.5 182.677 132.854 226.969 132.854 180" stroke="url(#paint6_linear)" stroke-linecap="round" stroke-linejoin="round"/>
<path d="M271.5 235C271.5 182.677 162.146 226.969 162.146 180" stroke="url(#paint7_linear)" stroke-linecap="round" stroke-linejoin="round"/>
<rect x="109.5" y="103" width="77" height="77" rx="8" fill="white"/>
<path d="M149.804 128.701C149.743 127.628 148.579 127.811 147.442 127.811C148.282 128.021 149.076 128.314 149.804 128.701Z" fill="#F82530"/>
<path d="M137.656 126.012C133.244 126.012 131.214 131.272 134.74 133.917C135.943 130.893 138.336 128.722 141.473 127.865C140.615 126.747 139.229 126.012 137.656 126.012Z" fill="#F82530"/>
<path d="M128.542 133.092C128.722 133.636 128.955 134.157 129.232 134.651L127.782 136.017C127.393 136.383 127.393 136.978 127.782 137.346L130.337 139.753C130.523 139.928 130.778 140.027 131.043 140.027C131.306 140.027 131.559 139.928 131.749 139.753L133.196 138.387C133.413 138.495 133.654 138.562 133.879 138.655C133.879 138.639 133.878 138.623 133.878 138.608C133.878 137.492 134.014 136.439 134.256 135.45C132.508 134.39 131.342 132.551 131.342 130.451C131.342 127.171 134.175 124.502 137.656 124.502C140.013 124.502 142.049 125.738 143.135 127.545C144.295 127.409 145.385 127.409 146.696 127.642C146.528 127.162 146.329 126.691 146.081 126.25L147.53 124.884C147.719 124.708 147.823 124.468 147.823 124.22C147.823 123.971 147.719 123.731 147.53 123.555L144.977 121.15C144.781 120.966 144.527 120.875 144.272 120.875C144.017 120.875 143.762 120.966 143.568 121.15L142.114 122.517C141.589 122.254 141.037 122.035 140.459 121.869V119.939C140.459 119.42 140.015 119 139.463 119H135.851C135.302 119 134.853 119.42 134.853 119.939V121.869C134.276 122.035 133.724 122.254 133.197 122.516L131.749 121.151C131.553 120.967 131.298 120.876 131.043 120.876C130.789 120.876 130.532 120.967 130.338 121.151L127.782 123.556C127.596 123.733 127.492 123.971 127.492 124.221C127.492 124.471 127.596 124.709 127.782 124.885L129.232 126.251C128.955 126.746 128.722 127.266 128.545 127.81H126.497C125.946 127.81 125.5 128.231 125.5 128.75V132.153C125.5 132.67 125.946 133.092 126.497 133.092H128.542Z" fill="#F82530"/>
<path d="M159.838 151.302C161.436 150.476 162.533 148.896 162.533 147.063C162.533 144.387 160.221 142.211 157.381 142.211C156.382 142.211 155.456 142.492 154.666 142.957C154.192 144.733 153.446 146.432 152.471 147.907C155.236 148.397 157.773 149.583 159.838 151.302Z" fill="#F82530"/>
<path d="M170.498 145.224C170.498 144.664 170.015 144.21 169.422 144.21H167.212C167.021 143.624 166.768 143.061 166.468 142.527L168.033 141.053C168.236 140.863 168.348 140.606 168.348 140.337C168.348 140.068 168.236 139.81 168.033 139.62L165.278 137.024C165.069 136.826 164.792 136.727 164.517 136.727C164.242 136.727 163.967 136.826 163.757 137.024L162.189 138.499C161.623 138.216 161.028 137.979 160.402 137.8V135.718C160.402 135.159 159.922 134.705 159.328 134.705H155.431C155.17 134.705 154.94 134.804 154.753 134.95C155.081 136.077 155.261 137.3 155.261 138.605C155.261 139.433 155.192 140.274 155.064 141.111C155.789 140.859 156.561 140.701 157.379 140.701C161.103 140.701 164.132 143.554 164.132 147.06C164.132 149.302 162.89 151.266 161.025 152.399C162.382 153.801 163.46 155.464 164.162 157.328C164.278 157.365 164.398 157.393 164.519 157.393C164.794 157.393 165.069 157.294 165.28 157.096L168.036 154.5C168.238 154.31 168.349 154.053 168.349 153.784C168.349 153.515 168.238 153.258 168.036 153.067L166.468 151.592C166.768 151.059 167.021 150.497 167.212 149.909H169.423C169.707 149.909 169.984 149.803 170.184 149.612C170.386 149.422 170.5 149.164 170.5 148.895L170.498 145.224Z" fill="#F82530"/>
<path d="M161.969 158.249C160.298 153.617 155.882 150.432 150.784 149.998C149.077 151.701 146.963 152.781 144.569 152.781C142.178 152.781 140.063 151.701 138.357 149.998C133.256 150.432 128.84 153.617 127.169 158.25L126.245 160.812C125.981 161.549 126.107 162.361 126.589 162.993C127.07 163.626 127.846 164.001 128.671 164.001H160.466C161.293 164.001 162.069 163.626 162.55 162.993C163.03 162.361 163.159 161.549 162.893 160.812L161.969 158.249Z" fill="#F82530"/>
<path d="M136.28 138.609C136.28 144.354 139.993 150.519 144.57 150.519C149.149 150.519 152.862 144.354 152.862 138.609C152.862 126.7 136.28 126.676 136.28 138.609Z" fill="#F82530"/>
<defs>
<linearGradient id="paint0_linear" x1="138.698" y1="103.054" x2="40.709" y2="28.7635" gradientUnits="userSpaceOnUse">
<stop stop-color="#129590"/>
<stop offset="1" stop-color="#129590" stop-opacity="0"/>
</linearGradient>
<linearGradient id="paint1_linear" x1="156.288" y1="103" x2="268.674" y2="47.1719" gradientUnits="userSpaceOnUse">
<stop stop-color="#0062FF"/>
<stop offset="1" stop-color="#0062FF" stop-opacity="0"/>
</linearGradient>
<linearGradient id="paint2_linear" x1="132.84" y1="103.051" x2="39.0818" y2="29.406" gradientUnits="userSpaceOnUse">
<stop stop-color="#129590" stop-opacity="0"/>
<stop offset="1" stop-color="#129590"/>
</linearGradient>
<linearGradient id="paint3_linear" x1="162.146" y1="103" x2="270.979" y2="46.9879" gradientUnits="userSpaceOnUse">
<stop stop-color="#0062FF" stop-opacity="0"/>
<stop offset="1" stop-color="#0062FF"/>
</linearGradient>
<linearGradient id="paint4_linear" x1="138.698" y1="179.946" x2="40.709" y2="254.236" gradientUnits="userSpaceOnUse">
<stop stop-color="#9C04FF"/>
<stop offset="1" stop-color="#9C04FF" stop-opacity="0"/>
</linearGradient>
<linearGradient id="paint5_linear" x1="156.302" y1="179.946" x2="254.291" y2="254.236" gradientUnits="userSpaceOnUse">
<stop stop-color="#F82530"/>
<stop offset="1" stop-color="#F82530" stop-opacity="0"/>
</linearGradient>
<linearGradient id="paint6_linear" x1="132.84" y1="179.949" x2="39.0818" y2="253.594" gradientUnits="userSpaceOnUse">
<stop stop-color="#9C04FF" stop-opacity="0"/>
<stop offset="1" stop-color="#9C04FF"/>
</linearGradient>
<linearGradient id="paint7_linear" x1="162.16" y1="179.949" x2="255.918" y2="253.594" gradientUnits="userSpaceOnUse">
<stop stop-color="#F82530" stop-opacity="0"/>
<stop offset="1" stop-color="#F82530"/>
</linearGradient>
</defs>
</svg>
